<?xml version="1.0" encoding="UTF-8"?>
<svg width="16px" height="16px" viewBox="0 0 16 16" version="1.1" xmlns="http://www.w3.org/2000/svg" xmlns:xlink="http://www.w3.org/1999/xlink">
    <title>noun-abacus-3128748</title>
    <g id="Symbols" stroke="none" stroke-width="1" fill="none" fill-rule="evenodd">
        <g id="Menú/Reglas" transform="translate(-2, -2)" fill="#4C4C4C" fill-rule="nonzero">
            <g id="noun-abacus-3128748" transform="translate(2, 2)">
                <path d="M15.1578947,12.2881263 L15.1578947,0.421052632 C15.1578947,0.188511684 14.9693831,0 14.7368421,0 C14.5043012,0 14.3157895,0.188511684 14.3157895,0.421052632 L14.3157895,4.63157895 L10.0454737,4.63157895 C9.8565999,3.8885776 9.18768443,3.36842878 8.42105263,3.36842878 C7.65442084,3.36842878 6.98550536,3.8885776 6.79663158,4.63157895 L6.256,4.63157895 C6.06712622,3.8885776 5.39821074,3.36842878 4.63157895,3.36842878 C3.86494715,3.36842878 3.19603168,3.8885776 3.00715789,4.63157895 L1.68421053,4.63157895 L1.68421053,0.421052632 C1.68421053,0.188511684 1.49569884,0 1.26315789,0 C1.03061695,0 0.842105263,0.188511684 0.842105263,0.421052632 L0.842105263,12.2881263 C0.338867988,12.4653768 0.00163791586,12.9401462 0,13.4736842 L0,14.7368421 C0,14.9693831 0.188511684,15.1578947 0.421052632,15.1578947 L15.5789474,15.1578947 C15.8114883,15.1578947 16,14.9693831 16,14.7368421 L16,13.4736842 C15.9983621,12.9401462 15.661132,12.4653768 15.1578947,12.2881263 Z M8.42105263,4.21052632 C8.88613453,4.21052632 9.26315789,4.58754968 9.26315789,5.05263158 C9.26315789,5.51771347 8.88613453,5.89473684 8.42105263,5.89473684 C7.95597074,5.89473684 7.57894737,5.51771347 7.57894737,5.05263158 C7.57948104,4.58777092 7.95619197,4.21105999 8.42105263,4.21052632 Z M4.63157895,4.21052632 C5.09666084,4.21052632 5.47368421,4.58754968 5.47368421,5.05263158 C5.47368421,5.51771347 5.09666084,5.89473684 4.63157895,5.89473684 C4.16649705,5.89473684 3.78947368,5.51771347 3.78947368,5.05263158 C3.79000735,4.58777092 4.16671829,4.21105999 4.63157895,4.21052632 Z M1.68421053,5.47368421 L3.00715789,5.47368421 C3.19603168,6.21668556 3.86494715,6.73683438 4.63157895,6.73683438 C5.39821074,6.73683438 6.06712622,6.21668556 6.256,5.47368421 L6.79663158,5.47368421 C6.98550536,6.21668556 7.65442084,6.73683438 8.42105263,6.73683438 C9.18768443,6.73683438 9.8565999,6.21668556 10.0454737,5.47368421 L14.3157895,5.47368421 L14.3157895,8.84210526 L13.8349474,8.84210526 C13.6460736,8.09910392 12.9771581,7.5789551 12.2105263,7.5789551 C11.4438945,7.5789551 10.774979,8.09910392 10.5861053,8.84210526 L7.94021053,8.84210526 C7.75133674,8.09910392 7.08242127,7.5789551 6.31578947,7.5789551 C5.54915768,7.5789551 4.88024221,8.09910392 4.69136842,8.84210526 L1.68421053,8.84210526 L1.68421053,5.47368421 Z M13.0526316,9.26315789 C13.0526316,9.72823979 12.6756082,10.1052632 12.2105263,10.1052632 C11.7454444,10.1052632 11.3684211,9.72823979 11.3684211,9.26315789 C11.3684211,8.798076 11.7454444,8.42105263 12.2105263,8.42105263 C12.675387,8.4215863 13.0520979,8.79829723 13.0526316,9.26315789 Z M7.15789474,9.26315789 C7.15789474,9.72823979 6.78087137,10.1052632 6.31578947,10.1052632 C5.85070758,10.1052632 5.47368421,9.72823979 5.47368421,9.26315789 C5.47368421,8.798076 5.85070758,8.42105263 6.31578947,8.42105263 C6.78065014,8.4215863 7.15736107,8.79829723 7.15789474,9.26315789 L7.15789474,9.26315789 Z M1.68421053,9.68421053 L4.69136842,9.68421053 C4.88024221,10.4272119 5.54915768,10.9473607 6.31578947,10.9473607 C7.08242127,10.9473607 7.75133674,10.4272119 7.94021053,9.68421053 L10.5861053,9.68421053 C10.774979,10.4272119 11.4438945,10.9473607 12.2105263,10.9473607 C12.9771581,10.9473607 13.6460736,10.4272119 13.8349474,9.68421053 L14.3157895,9.68421053 L14.3157895,12.2105263 L1.68421053,12.2105263 L1.68421053,9.68421053 Z M15.1578947,14.3157895 L0.842105263,14.3157895 L0.842105263,13.4736842 C0.84231419,13.2412299 1.03070354,13.0528405 1.26315789,13.0526316 L14.7368421,13.0526316 C14.9692965,13.0528405 15.1576858,13.2412299 15.1578947,13.4736842 L15.1578947,14.3157895 Z" id="Shape"></path>
            </g>
        </g>
    </g>
</svg>