<?xml version="1.0" encoding="UTF-8"?>
<svg width="15px" height="16px" viewBox="0 0 15 16" version="1.1" xmlns="http://www.w3.org/2000/svg" xmlns:xlink="http://www.w3.org/1999/xlink">
    <title>noun-location-4775513</title>
    <g id="Symbols" stroke="none" stroke-width="1" fill="none" fill-rule="evenodd">
        <g id="Icon/Menú/Direcciones" transform="translate(-3, -2)" fill="#000000" fill-rule="nonzero">
            <g id="Group" transform="translate(3, 2)">
                <path d="M9.87932203,5.35322034 C9.87782465,3.79145086 8.61081116,2.52646019 7.04904128,2.52745761 C5.4872714,2.52845622 4.22187568,3.79506517 4.22237418,5.35683529 C4.22287297,6.91860541 5.48907726,8.18440678 7.05084746,8.18440678 C8.6134094,8.18291007 9.87932203,6.915783 9.87932203,5.35322034 Z M5.03593038,5.35322034 C5.03742945,4.24076762 5.94019965,3.34001993 7.05265293,3.34101693 C8.16510622,3.34201559 9.0662591,4.24438132 9.06576089,5.35683494 C9.06526227,6.46928856 8.16330119,7.37084746 7.05084746,7.37084746 C6.51598851,7.37084746 6.00307553,7.15819062 5.62512757,6.77973398 C5.24717961,6.40127734 5.03521234,5.8880788 5.03593038,5.35322034 L5.03593038,5.35322034 Z" id="Shape"></path>
                <path d="M10.2372881,10.0528814 C11.3708475,8.47457627 12.4067797,6.67389831 12.4067797,5.35322034 C12.4067797,2.39671838 10.0100613,0 7.05355932,0 C4.09705737,0 1.70033898,2.39671838 1.70033898,5.35322034 C1.70033898,6.67389831 2.73355932,8.47457627 3.86983051,10.0528814 C1.46440678,10.5708475 0,11.620339 0,12.8650847 C0,14.6522034 3.03186441,16 7.05084746,16 C11.0698305,16 14.1016949,14.6440678 14.1016949,12.8650847 C14.1016949,11.620339 12.6372881,10.5708475 10.2372881,10.0528814 Z M7.05084746,0.813559322 C9.55679404,0.816547932 11.5875199,2.84727376 11.5905085,5.35322034 C11.5905085,7.31932203 8.54779661,11.0481356 7.05084746,12.6752542 C5.55389831,11.0481356 2.51118644,7.3220339 2.51118644,5.35322034 C2.51417505,2.84727376 4.54490088,0.816547932 7.05084746,0.813559322 Z M7.05084746,15.1864407 C3.37627119,15.1864407 0.813559322,13.9661017 0.813559322,12.8650847 C0.813559322,12.0108475 2.2779661,11.1674576 4.40135593,10.7769492 C5.13982121,11.7398042 5.92635609,12.6648199 6.7579661,13.5484746 C6.83384548,13.6294583 6.93986981,13.6754091 7.05084746,13.6754091 C7.16182511,13.6754091 7.26784943,13.6294583 7.34372881,13.5484746 C8.17533883,12.6648199 8.96187371,11.7398042 9.70033898,10.7769492 C11.8237288,11.1674576 13.2881356,12.0108475 13.2881356,12.8650847 C13.2881356,13.9661017 10.7254237,15.1864407 7.05084746,15.1864407 Z" id="Shape"></path>
            </g>
        </g>
    </g>
</svg>