<?xml version="1.0" encoding="UTF-8"?>
<svg width="20px" height="20px" viewBox="0 0 20 20" version="1.1" xmlns="http://www.w3.org/2000/svg" xmlns:xlink="http://www.w3.org/1999/xlink">
    <title>Icon/Menú/Direcciones </title>
    <g id="Icon/Menú/Direcciones-" stroke="none" stroke-width="1" fill="none" fill-rule="evenodd">
        <path d="M8.8072272,18.6926404 C5.98042324,18.3739321 3.69403768,16.2884713 3.12936973,13.5170949 C2.91458806,12.4605076 2.96308715,11.681058 3.30604498,10.6244707 C4.00581753,8.46972554 6.09820674,5.08171785 8.86265473,1.61056887 C9.51392819,0.796477043 9.48621442,0.796477043 10.1374879,1.61056887 C12.9123285,5.09557473 14.9977893,8.4801182 15.6940976,10.6244707 C15.9643068,11.4524194 16.0439839,12.0448011 15.9781637,12.7376452 C15.7876316,14.8404271 14.6860095,16.6487502 12.9296496,17.7538366 C11.7552789,18.4917156 10.1894512,18.8485303 8.8072272,18.6926404 Z M10.0820604,18.1071871 C12.4030881,17.8612274 14.332659,16.3300419 15.0913233,14.1267977 C15.3372829,13.4200967 15.4619949,12.4847571 15.3892462,11.8889112 C15.1779288,10.1602652 13.6779213,7.36463919 10.9966146,3.71335074 C10.4250182,2.93390112 9.53471351,1.79070834 9.50007131,1.79070834 C9.4654291,1.79070834 8.5716602,2.93736534 8.00352803,3.71335074 C5.49196814,7.13600063 4.06124506,9.71338071 3.65939547,11.5494176 C3.57625418,11.9304819 3.58318262,12.6960746 3.67671658,13.2261003 C4.17210011,16.0459759 6.58666183,18.1002586 9.448108,18.1349008 C9.62131903,18.1383651 9.90538511,18.1245082 10.0820604,18.1071871 Z" id="Shape" stroke="#4C4C4C" stroke-width="0.2" fill="#4C4C4C" fill-rule="nonzero" transform="translate(9.5, 9.8643) scale(-1, 1) rotate(-180) translate(-9.5, -9.8643)"></path>
        <path d="M9.31993184,10.3811459 C9.13632815,10.2529697 5.57857365,7.51623547 5.47464704,7.4192373 C5.40536263,7.35688133 5.37764886,7.29452536 5.37764886,7.21138407 C5.37764886,6.94463908 5.49196814,6.89267578 6.1085994,6.89267578 L6.55548385,6.89267578 L6.55548385,5.21252881 L6.55548385,3.52891763 L6.64208936,3.44577634 L6.72523065,3.35917082 L9.50007131,3.35917082 L12.274912,3.35917082 L12.3580533,3.44577634 L12.4446588,3.52891763 L12.4446588,5.21252881 L12.4446588,6.89267578 L12.8915432,6.89267578 C13.5081745,6.89267578 13.6224937,6.94117486 13.6224937,7.21831251 C13.6224937,7.3187749 13.59478,7.36034555 13.4423543,7.49198593 C13.2137157,7.67905384 9.8707429,10.2495055 9.69060344,10.3707532 C9.52778507,10.4816083 9.47235754,10.4816083 9.31993184,10.3811459 Z M10.9827577,8.64210715 C11.7656715,8.03933277 12.416945,7.53355658 12.4273377,7.51277125 C12.4411945,7.49545015 12.3684459,7.48159327 12.2575909,7.48159327 C11.834956,7.48159327 11.8557413,7.57512722 11.8557413,5.59359307 L11.8557413,3.94808832 L11.2668238,3.94808832 L10.6779063,3.94808832 L10.6779063,5.03931779 L10.6779063,6.13401148 L10.5913008,6.21715277 L10.5081595,6.30375828 L9.50007131,6.30375828 L8.49198313,6.30375828 L8.40884184,6.21715277 L8.32223632,6.13401148 L8.32223632,5.03931779 L8.32223632,3.94808832 L7.73331883,3.94808832 L7.14440134,3.94808832 L7.14440134,5.59359307 C7.14440134,7.57512722 7.16518666,7.48159327 6.73562331,7.48159327 C6.56587651,7.48159327 6.54855541,7.48852171 6.59012605,7.53355658 C6.73908754,7.68251806 9.48967864,9.7645146 9.52085663,9.75416072 C9.54164195,9.7471935 10.1998439,9.24488152 10.9827577,8.64210715 Z M10.0889888,4.83146455 L10.0889888,3.94808832 L9.50007131,3.94808832 L8.91115381,3.94808832 L8.91115381,4.83146455 L8.91115381,5.71484079 L9.50007131,5.71484079 L10.0889888,5.71484079 L10.0889888,4.83146455 Z" id="Shape" stroke="#4C4C4C" stroke-width="0.2" fill="#4C4C4C" fill-rule="nonzero" transform="translate(9.5001, 6.9072) scale(-1, 1) rotate(-180) translate(-9.5001, -6.9072)"></path>
    </g>
</svg>