<?xml version="1.0" encoding="UTF-8"?>
<svg width="16px" height="16px" viewBox="0 0 16 16" version="1.1" xmlns="http://www.w3.org/2000/svg" xmlns:xlink="http://www.w3.org/1999/xlink">
    <title>noun-analysis-6393834</title>
    <g id="Symbols" stroke="none" stroke-width="1" fill="none" fill-rule="evenodd">
        <g id="Menú/Analytics" transform="translate(-2, -2)" fill="#4C4C4C" fill-rule="nonzero">
            <g id="noun-analysis-6393834" transform="translate(2, 2)">
                <path d="M15.5587195,13.4183244 L13.1535341,11.012967 C13.0574988,10.9171038 12.8879741,10.9171038 12.7921109,11.012967 L12.6471975,11.1578805 L11.7393368,10.2498477 C12.5527111,9.11979786 12.9781578,7.76360033 12.9497603,6.34664928 C12.9149948,4.61698111 12.2090149,3.00451732 10.9615885,1.80614126 C9.71416214,0.607765192 8.07639872,-0.0366007402 6.34552581,0.00160685514 C4.61620186,0.0363723248 3.00391017,0.742524414 1.80570621,1.98995077 C0.607330149,3.23754923 -0.0334215512,4.87720582 0.00134391842,6.60670188 C0.0361093881,8.33637005 0.742089371,9.94900594 1.98951573,11.1475541 C3.20475821,12.3151232 4.79192237,12.9534654 6.47185183,12.9534654 C6.51625525,12.9534654 6.56100288,12.952949 6.60557841,12.9520885 C7.93475525,12.925412 9.19388484,12.5006537 10.2497569,11.7395997 L11.1574454,12.6472883 L11.012532,12.7922018 C10.9127103,12.8920234 10.9127103,13.0538033 11.012532,13.153625 L13.4177173,15.5589824 C13.7128796,15.8539726 14.1004629,16.0014677 14.4880463,16.0014677 C14.8756296,16.0014677 15.263213,15.8539726 15.5582032,15.5589824 C15.8432112,15.2741465 16,14.8939637 16,14.4886534 C16,14.0833431 15.8430391,13.7033325 15.5582032,13.4181523 L15.5587195,13.4183244 Z M6.59542414,12.4412771 C5.00240836,12.4731167 3.49251992,11.8829643 2.34353836,10.7792467 C1.1945568,9.67518484 0.544167143,8.1899076 0.512155374,6.59654761 C0.480143605,5.00335972 1.07046816,3.49312707 2.17418577,2.3439734 C3.27790338,1.19481973 4.76300852,0.544430079 6.35585219,0.51241831 C6.39698559,0.511557779 6.43794689,0.511213566 6.47890818,0.511213566 C8.0263158,0.511213566 9.48835869,1.09930074 10.607738,2.17462082 C11.7567195,3.27851053 12.4071092,4.76378777 12.439121,6.35697566 C12.4711327,7.95016354 11.8808082,9.4605683 10.7772627,10.609722 C9.67354505,11.7588756 8.18843992,12.4092653 6.59559624,12.4412771 L6.59542414,12.4412771 Z M10.6560998,11.4230963 C10.8257966,11.2790433 10.9892976,11.1262129 11.1455701,10.9635725 C11.2416054,10.8635787 11.3328218,10.7599708 11.4218007,10.6549859 L12.2859464,11.5193037 L11.5190408,12.2862093 L10.6560998,11.4232684 L10.6560998,11.4230963 Z M15.1974684,15.1975592 C14.806615,15.5884126 14.1703381,15.5884126 13.7794847,15.1975592 L11.555011,12.9729134 L12.8279091,11.7000153 C12.8279091,11.7000153 12.8280812,11.7000153 12.8280812,11.7000153 C12.8280812,11.7000153 12.8280812,11.6998432 12.8280812,11.6998432 L12.9728225,11.5551018 L15.1972963,13.7797476 C15.3857527,13.968204 15.4895328,14.2199955 15.4895328,14.4888255 C15.4895328,14.7576556 15.3857527,15.0092749 15.1972963,15.1977313 L15.1974684,15.1975592 Z M9.99314643,2.81451198 C9.01506641,1.87481167 7.72771139,1.36899129 6.37357914,1.39962621 C5.01755371,1.426819 3.75326094,1.98048493 2.81373273,2.95873705 C1.87420452,3.93698918 1.37182627,5.22262313 1.39901906,6.57882066 C1.42621186,7.93501819 1.97987778,9.19965517 2.9579578,10.1393555 C3.9109103,11.0547888 5.15541085,11.555446 6.47254025,11.555446 C6.50747783,11.555446 6.5424154,11.5551018 6.57752508,11.5544134 C7.93355051,11.5272206 9.19784328,10.9733826 10.1373715,9.99513043 C11.0768997,9.0168783 11.579278,7.73124435 11.5520852,6.37504682 C11.5248924,5.01884929 10.9712264,3.75438441 9.99314643,2.81468409 L9.99314643,2.81451198 Z M9.76889194,9.6411078 C8.92385007,10.5209151 7.78691595,11.0189907 6.56737081,11.0432577 C5.34696514,11.0689015 4.19178776,10.6159178 3.31198043,9.77070383 C2.4323452,8.92548986 1.93444172,7.78821153 1.90983052,6.56849428 C1.88539143,5.34877704 2.33717042,4.19239491 3.18221229,3.31275968 C4.02725415,2.43312446 5.16418827,1.93504887 6.38373341,1.91043767 C6.41522886,1.90992135 6.4465522,1.90957714 6.47787555,1.90957714 C7.66265521,1.90957714 8.7820345,2.35980718 9.63895169,3.18316365 C10.5185869,4.02837762 11.0164904,5.16548384 11.0411016,6.38520109 C11.0655407,7.60491833 10.6137617,8.76147257 9.76871983,9.6411078 L9.76889194,9.6411078 Z M9.60831677,3.80016468 L8.60356028,3.80016468 C8.46243312,3.80016468 8.34815455,3.91461536 8.34815455,4.05557041 L8.34815455,8.20488084 C8.34815455,8.34583589 8.46260523,8.46028657 8.60356028,8.46028657 L9.60831677,8.46028657 C9.74944393,8.46028657 9.8637225,8.34583589 9.8637225,8.20488084 L9.8637225,4.05557041 C9.8637225,3.91444325 9.74927182,3.80016468 9.60831677,3.80016468 Z M9.35291104,7.94947512 L8.858966,7.94947512 L8.858966,4.31097614 L9.35291104,4.31097614 L9.35291104,7.94947512 Z M5.09637839,8.46045868 L6.10113489,8.46045868 C6.24226204,8.46045868 6.35654061,8.346008 6.35654061,8.20505295 L6.35654061,4.59133728 C6.35654061,4.45021012 6.24208993,4.33593155 6.10113489,4.33593155 L5.09637839,4.33593155 C4.95525124,4.33593155 4.84097266,4.45038223 4.84097266,4.59133728 L4.84097266,8.20505295 C4.84097266,8.346008 4.95542334,8.46045868 5.09637839,8.46045868 Z M5.35178412,4.846743 L5.84572916,4.846743 L5.84572916,7.94947512 L5.35178412,7.94947512 L5.35178412,4.846743 Z M3.34278745,8.46045868 L4.34754394,8.46045868 C4.4886711,8.46045868 4.60294967,8.346008 4.60294967,8.20505295 L4.60294967,6.11034735 C4.60294967,5.9692202 4.48849899,5.85494162 4.34754394,5.85494162 L3.34278745,5.85494162 C3.2016603,5.85494162 3.08738172,5.9693923 3.08738172,6.11034735 L3.08738172,8.20505295 C3.08738172,8.346008 3.2018324,8.46045868 3.34278745,8.46045868 Z M3.59819318,6.36575308 L4.09213822,6.36575308 L4.09213822,7.94964722 L3.59819318,7.94964722 L3.59819318,6.36575308 Z M6.84996933,8.46045868 L7.85472583,8.46045868 C7.99585298,8.46045868 8.11013156,8.346008 8.11013156,8.20505295 L8.11013156,5.20592882 C8.11013156,5.06480167 7.99568088,4.95052309 7.85472583,4.95052309 L6.84996933,4.95052309 C6.70884218,4.95052309 6.59456361,5.06497377 6.59456361,5.20592882 L6.59456361,8.20505295 C6.59456361,8.346008 6.70901429,8.46045868 6.84996933,8.46045868 Z M7.10537506,5.46133455 L7.5993201,5.46133455 L7.5993201,7.94964722 L7.10537506,7.94964722 L7.10537506,5.46133455 Z M9.8637225,8.89846917 C9.8637225,9.03942422 9.74927182,9.1538749 9.60831677,9.1538749 L3.34278745,9.1538749 C3.2016603,9.1538749 3.08738172,9.03942422 3.08738172,8.89846917 C3.08738172,8.75751413 3.2018324,8.64306345 3.34278745,8.64306345 L9.60831677,8.64306345 C9.74944393,8.64306345 9.8637225,8.75751413 9.8637225,8.89846917 Z" id="Shape"></path>
            </g>
        </g>
    </g>
</svg>