<?xml version="1.0" encoding="UTF-8"?>
<svg width="18px" height="13px" viewBox="0 0 18 13" version="1.1" xmlns="http://www.w3.org/2000/svg" xmlns:xlink="http://www.w3.org/1999/xlink">
    <title>antifraude@2x</title>
    <g id="Symbols" stroke="none" stroke-width="1" fill="none" fill-rule="evenodd">
        <g id="Menú/Antifraude-" transform="translate(-1, -3)" fill="#4C4C4C" fill-rule="nonzero" stroke="#FFFFFF" stroke-width="0.5">
            <g id="antifraude" transform="translate(2, 4)">
                <path d="M5.06273826,11.499035 C4.66867357,11.3784029 4.27460888,11.088886 4.04942906,10.7511163 C3.91271274,10.5500629 3.50256378,9.47241656 3.06828841,8.17763259 C2.65009731,6.9471857 2.28820117,5.91779223 2.26407476,5.87758155 C2.23994835,5.83737087 2.03889494,5.845413 1.80567298,5.89366582 C0.551099687,6.15101419 -0.405914555,4.91252517 0.173119272,3.77858393 C0.398299094,3.33626642 0.776279509,3.11912873 1.98259998,2.73310618 L3.02807773,2.40337859 L3.044162,2.04148244 C3.06828841,1.29356375 3.60711155,0.618024284 4.48370443,0.223959596 C5.35225517,-0.162062956 6.92851393,-0.0333887717 7.64426407,0.4893501 L7.96594953,0.714529922 L8.42435131,0.441097281 C9.01142728,0.0872432757 9.55829256,-0.0333887717 10.3946748,0.0148640472 C11.7940065,0.0872432757 12.8314421,0.883414788 12.9520742,1.98518749 L13.000327,2.43554713 L13.6034872,2.61247413 C15.2038724,3.07087591 15.710527,3.39256137 15.9357068,4.0600587 C16.2895608,5.13770499 15.1154089,6.27968837 14.061889,5.87758155 C13.8608356,5.79716019 13.8608356,5.79716019 13.0485798,8.18567472 C12.5419252,9.6573857 12.1478605,10.678737 12.0272285,10.8395798 C11.4964475,11.5151192 10.7002759,11.7081305 9.64675606,11.4105715 C8.73799464,11.1612652 7.31453648,11.1612652 6.48619642,11.4105715 C5.90716259,11.5874985 5.44071867,11.6116249 5.06273826,11.499035 Z M6.33339583,10.1238296 C6.83200829,9.9871133 7.19390443,9.94690262 8.05441303,9.94690262 C8.91492164,9.94690262 9.27681778,9.9871133 9.77543024,10.1238296 C10.5716018,10.3329252 10.6520231,10.3329252 10.9013294,10.1157875 C11.0621721,9.97102902 11.2793098,9.42416374 11.8663857,7.66293585 L12.6223466,5.4030955 L11.9709335,5.22616849 C10.5555175,4.84014594 9.62262965,4.7195139 8.01420235,4.71147176 C6.88830324,4.71147176 6.28514301,4.7436403 5.72219345,4.84818808 C4.95014835,4.99294654 3.6392801,5.29854772 3.53473233,5.36288481 C3.50256378,5.37896909 3.82424924,6.4164047 4.24244034,7.66293585 C5.03056971,9.97102902 5.18337031,10.2927145 5.55330859,10.2927145 C5.63372995,10.2927145 5.97954182,10.2122931 6.33339583,10.1238296 Z M2.23190621,4.42195484 C6.15646882,3.07891805 9.54220829,3.06283378 13.5713187,4.34957562 C14.5524593,4.66321894 14.7293863,4.67930321 14.7293863,4.46216553 C14.7293863,4.33349134 14.1905632,4.12439579 12.8877371,3.74641538 C9.22052283,2.67681123 6.11625814,2.74919045 2.30428544,3.99572161 C1.33118693,4.30936493 1.2588077,4.34957562 1.32314479,4.53454476 C1.38748188,4.70342962 1.39552402,4.70342962 2.23190621,4.42195484 Z M5.54526645,1.88868185 C5.97149968,1.82434476 6.47815428,1.7680498 6.66312342,1.7680498 C7.12956734,1.7680498 7.15369375,1.65545989 6.74354479,1.45440648 C6.31731155,1.24531093 5.45680295,1.22922666 5.01448544,1.40615366 C4.45957802,1.63937562 4.08159761,2.17819876 4.5641258,2.05756672 C4.67671571,2.02539817 5.11903322,1.95301894 5.54526645,1.88868185 Z M11.6733745,2.01735603 C11.6733745,1.8565133 11.1988884,1.47049075 10.8932872,1.38202725 C10.4027169,1.23726879 9.67892461,1.2613952 9.28485992,1.44636434 C9.09184864,1.52678571 8.93904805,1.63133348 8.93904805,1.67154416 C8.93904805,1.71175485 9.25269137,1.7680498 9.64675606,1.80021835 C10.0327786,1.83238689 10.6037703,1.90476612 10.9093715,1.96106108 C11.6412059,2.0977774 11.6733745,2.10581954 11.6733745,2.01735603 Z" id="Shape" transform="translate(8, 5.7837) scale(-1, 1) rotate(-180) translate(-8, -5.7837)"></path>
            </g>
        </g>
    </g>
</svg>