<?xml version="1.0" encoding="UTF-8"?>
<svg width="15px" height="17px" viewBox="0 0 15 17" version="1.1" xmlns="http://www.w3.org/2000/svg" xmlns:xlink="http://www.w3.org/1999/xlink">
    <title>facturas@2x</title>
    <g id="Symbols" stroke="none" stroke-width="1" fill="none" fill-rule="evenodd">
        <g id="Menú/Finanzas" transform="translate(-2, -1)" fill="#4D4D4D" fill-rule="nonzero" stroke="#4D4D4D">
            <g id="facturas" transform="translate(3, 2)">
                <path d="M4.50414978,3.66805008 C4.63900439,3.66805008 4.74688796,3.77593366 4.74688796,3.91078854 C4.74688796,4.04564297 4.63900439,4.153527 4.50414978,4.153527 L2.40041479,4.153527 C2.26555999,4.153527 2.15767632,4.04564297 2.15767632,3.91078854 C2.15767632,3.77593366 2.26555999,3.66805008 2.40041479,3.66805008 L4.50414978,3.66805008 Z M4.50414978,6.5 C4.63900439,6.5 4.74688796,6.60788358 4.74688796,6.74273865 C4.74688796,6.87759335 4.63900439,6.98547693 4.50414978,6.98547693 L2.40041479,6.98547693 C2.26555999,7.01244796 2.15767632,6.90456438 2.15767632,6.76970968 C2.15767632,6.63485461 2.26555999,6.52697103 2.40041479,6.52697103 L4.50414978,6.52697103 L4.50414978,6.5 Z M8.92738518,2.37344403 C7.4170127,2.37344403 6.20331929,3.61410783 6.20331929,5.15145234 C6.20331929,6.68879713 7.44398328,7.95643124 8.95435658,7.95643124 C10.4647308,7.95643124 11.7053948,6.68879622 11.7053948,5.15145234 C11.6784225,3.61410783 10.4647299,2.37344403 8.92738518,2.37344403 Z M8.92738518,1.8609958 C10.7074677,1.8609958 12.1638998,3.34439815 12.1638998,5.15145234 C12.1638998,6.98547738 10.7074677,8.44190862 8.92738518,8.44190862 C7.14730302,8.44190862 5.69087088,6.95850589 5.69087088,5.15145189 C5.69087088,3.34439815 7.14730302,1.8609958 8.92738518,1.8609958 Z M7.57883798,9.33194992 C7.71369259,9.33194992 7.82157662,9.43983396 7.82157662,9.57468857 C7.82157662,9.70954327 7.71369259,9.81742731 7.57883798,9.81742731 L2.40041479,9.81742731 C2.26555999,9.81742731 2.15767632,9.70954327 2.15767632,9.57468857 C2.15767632,9.43983396 2.26555999,9.33194992 2.40041479,9.33194992 L7.57883798,9.33194992 Z M7.57883798,11.9751041 C7.71369259,11.9751041 7.82157662,12.0829881 7.82157662,12.2178432 C7.82157662,12.3526974 7.71369259,12.4605823 7.57883798,12.4605823 L2.40041479,12.4605823 C2.26555999,12.4605823 2.15767614,12.3526974 2.15767614,12.2178432 C2.15767614,12.0829881 2.26555999,11.9751041 2.40041479,11.9751041 L7.57883798,11.9751041 Z M9.00829955,0 C9.54771808,0 10.0062249,0.45850626 10.0062249,0.99792534 C10.0062249,1.13277998 9.89834076,1.24066381 9.76348533,1.24066381 C9.62863063,1.24066381 9.5207466,1.13277998 9.5207466,0.997925231 C9.5207466,0.728215691 9.30497935,0.485477109 9.03526921,0.485477109 L7.13720736,0.485477109 L0.99792534,0.485477109 C0.7282158,0.485477109 0.512448177,0.701244787 0.512448177,0.997925231 L0.512448177,13.3236522 C0.512448177,14.0248959 1.05186726,14.5912868 1.75311204,14.5912868 L10.0331955,14.5912868 C9.70954327,14.2676355 9.5207466,13.8361002 9.5207466,13.3236522 L9.5207466,9.41286338 C9.5207466,9.27800877 9.62863063,9.17012474 9.76348533,9.17012474 C9.89834076,9.17012474 10.0062249,9.27800877 10.0062249,9.41286338 L10.0062249,13.3506219 C10.0062249,14.0518665 10.572614,14.6182573 11.246888,14.6182573 C11.921162,14.6182573 12.4875511,14.0518674 12.4875511,13.3506219 L12.4875511,10.1410786 C12.4875511,9.87136846 12.271784,9.62862981 12.0020747,9.62862981 L10.9502073,9.62862981 C10.8153518,9.62862981 10.7074677,9.52074568 10.7074677,9.38589107 C10.7074677,9.25103555 10.8153518,9.14315152 10.9502073,9.14315152 L12.0020747,9.14315152 C12.5414941,9.14315152 13,9.60165832 13,10.1410769 L13,13.3506201 C13,14.3215741 12.2178419,15.103733 11.2738586,15.103733 L1.72614109,15.103733 C0.782157717,15.103733 0,14.3215766 0,13.3506219 L0,0.99792534 C0,0.45850626 0.431535274,0 0.99792534,0 L9.00829955,0 Z" id="Fill-2132" stroke-width="0.3"></path>
                <path d="M9.13484262,2.95454545 C9.30674312,2.95454545 9.44426512,3.09206571 9.44426512,3.26396656 L9.44426512,3.40148682 C9.82244578,3.5390072 10.0631068,3.88280878 10.0631068,4.29537025 C10.0631068,4.46727133 9.92558591,4.60479171 9.75368541,4.60479171 C9.58178492,4.60479171 9.44426512,4.46727191 9.44426512,4.29537141 C9.44426512,4.12347033 9.30674312,3.98594996 9.13484262,3.98594996 C8.96294212,3.98594996 8.82542116,4.12347033 8.82542116,4.29537141 L8.82542116,4.43289167 C8.82542116,4.57041205 8.9285613,4.70793231 9.03170144,4.74231255 L9.40988209,4.84545268 C9.82244473,4.98297353 10.0631068,5.32677452 10.0631068,5.77371682 L10.0631068,5.9112372 C10.0631068,6.35817879 9.75368425,6.77074085 9.30674207,6.83950133 L9.30674207,6.94264147 C9.30674207,7.11454255 9.16922111,7.25206281 8.99732062,7.25206281 C8.82542012,7.25206281 8.68789928,7.11454255 8.68789928,6.94264147 L8.68789928,6.80512109 C8.37847782,6.63322059 8.17219766,6.32379914 8.17219766,5.94561732 C8.17219766,5.77371682 8.30971734,5.63619656 8.48161796,5.63619656 C8.65351962,5.63619656 8.79104046,5.77371682 8.79104046,5.94561732 C8.79104046,6.1175184 8.9285613,6.25503877 9.1004618,6.25503877 C9.27236241,6.25503877 9.40988325,6.1175184 9.40988325,5.94561732 L9.40988325,5.80809706 C9.40988325,5.67057668 9.30674312,5.53305642 9.20360298,5.49867618 L8.82542233,5.39553616 C8.41286085,5.25801521 8.17219766,4.91421421 8.17219766,4.46727191 L8.17219766,4.32975165 C8.17219766,3.9171896 8.44724051,3.53900824 8.79104267,3.43586764 L8.79104267,3.29834727 C8.82542233,3.12644619 8.96294212,2.95454545 9.13484262,2.95454545 Z" id="Fill-2132-path" stroke-width="0.1"></path>
            </g>
        </g>
    </g>
</svg>