<?xml version="1.0" encoding="UTF-8"?>
<svg width="18px" height="17px" viewBox="0 0 18 17" version="1.1" xmlns="http://www.w3.org/2000/svg" xmlns:xlink="http://www.w3.org/1999/xlink">
    <title>noun-business-and-finance-5017579</title>
    <g id="Symbols" stroke="none" stroke-width="1" fill="none" fill-rule="evenodd">
        <g id="Icon/Menú/Saldos-ymovimentos" transform="translate(-1, -1)" fill="#4A4A4A" fill-rule="nonzero" stroke="#4A4A4A" stroke-width="0.1">
            <g id="noun-business-and-finance-5017579" transform="translate(2, 2)">
                <path d="M3.70257143,0 C1.65869249,0.0022625683 0.0023430065,1.65854687 0,3.70242571 C0.203357143,8.61407429 7.20235143,8.61292571 7.40485714,3.7024 C7.40262754,1.6585898 5.74638156,0.00229269456 3.70257143,0 L3.70257143,0 Z M3.70257143,6.83342857 C1.97413208,6.83152656 0.573407867,5.43086498 0.571428571,3.70242571 C0.743402857,-0.45112 6.662,-0.450202857 6.83342857,3.70245143 C6.83146526,5.43078117 5.4309011,6.83139774 3.70257143,6.83342857 L3.70257143,6.83342857 Z" id="Shape"></path>
                <path d="M3.70257143,2.32938 C4.16518571,2.32938 4.55580857,2.57840286 4.55580857,2.87304571 C4.55884707,3.02867074 4.68587658,3.15324053 4.84153126,3.15323586 C4.99718595,3.15323119 5.12420798,3.02865378 5.12723714,2.87302857 C5.12723714,2.32462 4.64563429,1.88077143 3.98828571,1.77985429 L3.98828571,1.42466571 C3.98524721,1.26904069 3.85821771,1.14447557 3.70256302,1.14447557 C3.54690834,1.14447557 3.41988631,1.26905765 3.41685714,1.42468286 L3.41685714,1.77985429 C2.75950857,1.88077143 2.27790286,2.32462 2.27790286,2.87304571 C2.27790286,3.49832571 2.90374571,3.98814 3.70257143,3.98814 C4.16518571,3.98814 4.55580857,4.23716571 4.55580857,4.53180857 C4.526,5.24405429 2.87916571,5.24462571 2.84933143,4.53176857 C2.84628517,4.37614368 2.71924943,4.25158022 2.56359473,4.25159267 C2.40794002,4.25160512 2.28092422,4.37618891 2.27790286,4.53181429 C2.27790286,5.08022286 2.75950286,5.52407143 3.41685143,5.62498857 L3.41685143,5.98034 C3.41685143,6.13813564 3.54477007,6.26605429 3.70256571,6.26605429 C3.86036136,6.26605429 3.98828,6.13813564 3.98828,5.98034 L3.98828,5.625 C4.64562857,5.52408286 5.12723714,5.08023429 5.12723714,4.53180857 C5.12723714,3.90652857 4.50139429,3.41671143 3.70256571,3.41671143 C2.57814857,3.38826571 2.57805143,2.35787429 3.70257143,2.32938 Z" id="Path"></path>
                <path d="M8.99162857,3.98814 L15.0245886,3.98814 L14.1682486,4.84458571 C14.0960773,4.91675642 14.067891,5.0219478 14.0943071,5.12053527 C14.1207231,5.21912274 14.1977283,5.29612852 14.2963156,5.32254528 C14.3949029,5.34896203 14.5000945,5.32077643 14.5722657,5.24860571 C14.5722657,5.24860571 15.9634829,3.84660571 15.97798,3.81154 C16.0216781,3.70475025 15.9973118,3.58218196 15.9160914,3.50022571 L14.5722543,2.15624857 C14.4600706,2.04838719 14.2821996,2.05013744 14.1721601,2.1601855 C14.0621206,2.27023355 14.0603842,2.44810467 14.1682543,2.56028 L15.0245829,3.41671143 L8.99162857,3.41671143 C8.8354853,3.41902747 8.7101208,3.54626526 8.7101208,3.70242571 C8.7101208,3.85858616 8.8354853,3.98582396 8.99162857,3.98814 L8.99162857,3.98814 Z" id="Path"></path>
                <path d="M12.2974286,7.93582571 C10.253606,7.9381153 8.59735358,9.59443162 8.59514286,11.6382543 C8.79839714,16.55018 15.7973914,16.5484714 16,11.6382257 C15.9976413,9.59435756 14.3412968,7.93808983 12.2974286,7.93582571 Z M12.2974286,14.7692543 C10.5690882,14.7672279 9.168519,13.3665947 9.16657143,11.6382543 C9.33861429,7.48441429 15.2572286,7.48591429 15.4285714,11.6382771 C15.4265748,13.3667046 14.0258561,14.7673479 12.2974286,14.7692543 L12.2974286,14.7692543 Z" id="Shape"></path>
                <path d="M12.2974286,10.2651971 C12.76004,10.2651971 13.1506629,10.51422 13.1506629,10.8088629 C13.1537014,10.9644879 13.2807309,11.0890577 13.4363855,11.089053 C13.5920402,11.0890483 13.7190623,10.9644709 13.7220914,10.8088457 C13.7220914,10.2604371 13.2404914,9.81658857 12.5831429,9.71567143 L12.5831429,9.36034 C12.5800259,9.20477125 12.4530187,9.08029313 12.2974188,9.08029313 C12.1418188,9.08029313 12.0148204,9.20479103 12.0117143,9.36036 L12.0117143,9.71566857 C10.3312371,9.99826571 10.6060829,11.9229943 12.2974571,11.9239543 C12.7600286,11.9239543 13.1506629,12.1729886 13.1506629,12.4676314 C13.1208629,13.1798629 11.4740257,13.1804571 11.4441914,12.4676029 C11.4411452,12.311978 11.3141094,12.1874145 11.1584547,12.187427 C11.0028,12.1874394 10.8757842,12.3120232 10.8727629,12.4676486 C10.8727629,13.0160571 11.3543657,13.4599057 12.0117143,13.5608229 L12.0117143,13.9160114 C12.0117143,14.0738071 12.1396329,14.2017257 12.2974286,14.2017257 C12.4552242,14.2017257 12.5831429,14.0738071 12.5831429,13.9160114 L12.5831429,13.5608257 C13.2404914,13.4599086 13.7220914,13.01606 13.7220914,12.4676343 C13.7220914,11.8423543 13.0962543,11.35254 12.2974286,11.35254 C11.1730143,11.3240914 11.1729171,10.2937 12.2974286,10.2651971 Z" id="Path"></path>
                <path d="M7.00837143,11.35254 L0.975411429,11.35254 L1.83175143,10.4960943 C1.93948588,10.3838911 1.93767695,10.2061236 1.82768152,10.0961359 C1.71768609,9.98614826 1.53991847,9.9843519 1.42772286,10.0920943 L0.0838971429,11.4360543 C0.05746,11.46244 0.00336285714,11.7612229 0.0838971429,11.8404571 L1.42773429,13.1844343 C1.539918,13.2922957 1.71778899,13.2905454 1.82782849,13.1804974 C1.93786798,13.0704493 1.93960439,12.8925782 1.83173429,12.7804029 L0.975411429,11.9239686 L7.00837143,11.9239686 C7.1645147,11.9216525 7.2898792,11.7944147 7.2898792,11.6382543 C7.2898792,11.4820938 7.1645147,11.354856 7.00837143,11.35254 Z" id="Path"></path>
            </g>
        </g>
    </g>
</svg>