<?xml version="1.0" encoding="UTF-8"?>
<svg width="17px" height="19px" viewBox="0 0 17 19" version="1.1" xmlns="http://www.w3.org/2000/svg" xmlns:xlink="http://www.w3.org/1999/xlink">
    <title>icon-calendario</title>
    <defs>
        <path d="M16.4025,6.76333519 L16.4025,16.3452139 C16.4014875,17.2795323 15.61275,18.0355605 14.642775,18.0345872 L14.642775,18.0345872 L1.7566875,18.0345872 C0.7867125,18.033612 0.0010125,17.2775837 0,16.3442396 L0,16.3442396 L0,6.76333519 L16.4025,6.76333519 Z M4.246425,13.5256961 L2.78235,13.5256961 C2.53935,13.5256961 2.3439375,13.7156775 2.342925,13.9485264 L2.342925,13.9485264 L2.342925,15.357311 C2.3439375,15.5911341 2.53935,15.7791669 2.78235,15.7801412 L2.78235,15.7801412 L4.246425,15.7801412 C4.4884125,15.7791669 4.6848375,15.5911341 4.68585,15.357311 L4.68585,15.357311 L4.68585,13.9485264 C4.6848375,13.7156775 4.4884125,13.5256961 4.246425,13.5256961 L4.246425,13.5256961 Z M8.932275,13.5256961 L7.4682,13.5256961 C7.2252,13.5256961 7.028775,13.7156775 7.028775,13.9485264 L7.028775,13.9485264 L7.028775,15.357311 C7.028775,15.5911341 7.2252,15.7791669 7.4682,15.7801412 L7.4682,15.7801412 L8.932275,15.7801412 C9.1742625,15.7791669 9.3706875,15.5911341 9.3717,15.357311 L9.3717,15.357311 L9.3717,13.9485264 C9.3706875,13.7156775 9.1742625,13.5256961 8.932275,13.5256961 L8.932275,13.5256961 Z M13.618125,13.5256961 L12.15,13.5256961 C11.9080125,13.5276447 11.7136125,13.7166517 11.7136125,13.9485264 L11.7136125,13.9485264 L11.710575,15.357311 C11.710575,15.5911341 11.907,15.7791669 12.15,15.7801412 L12.15,15.7801412 L13.618125,15.7801412 C13.8601125,15.7791669 14.0565375,15.5911341 14.05755,15.357311 L14.05755,15.357311 L14.05755,13.9485264 C14.0565375,13.7156775 13.8601125,13.5256961 13.618125,13.5256961 L13.618125,13.5256961 Z M13.618125,9.01778026 L12.15,9.01778026 C11.909025,9.01972879 11.714625,9.20776159 11.7136125,9.43963623 L11.7136125,9.43963623 L11.710575,10.8493951 C11.710575,11.0832183 11.907,11.2712511 12.15,11.2722253 L12.15,11.2722253 L13.618125,11.2722253 C13.8601125,11.2712511 14.0565375,11.0832183 14.05755,10.8493951 L14.05755,10.8493951 L14.05755,9.44061049 C14.0565375,9.20776159 13.8601125,9.01778026 13.618125,9.01778026 L13.618125,9.01778026 Z M4.246425,9.016806 L2.78235,9.016806 C2.53935,9.016806 2.3439375,9.20581306 2.342925,9.43963623 L2.342925,9.43963623 L2.342925,10.8484208 C2.3439375,11.082244 2.53935,11.2702768 2.78235,11.2712511 L2.78235,11.2712511 L4.246425,11.2712511 C4.4884125,11.2702768 4.6848375,11.082244 4.68585,10.8484208 L4.68585,10.8484208 L4.68585,9.43963623 C4.6848375,9.20581306 4.4884125,9.016806 4.246425,9.016806 L4.246425,9.016806 Z M8.932275,9.016806 L7.4682,9.016806 C7.2252,9.016806 7.028775,9.20581306 7.028775,9.43963623 L7.028775,9.43963623 L7.028775,10.8484208 C7.028775,11.082244 7.2252,11.2702768 7.4682,11.2712511 L7.4682,11.2712511 L8.932275,11.2712511 C9.1742625,11.2702768 9.3706875,11.082244 9.3717,10.8484208 L9.3717,10.8484208 L9.3717,9.43963623 C9.3706875,9.20581306 9.1742625,9.016806 8.932275,9.016806 L8.932275,9.016806 Z M5.271075,0 C5.5940625,0.000974263209 5.8563,0.252334171 5.8573125,0.563124135 L5.8573125,0.563124135 L5.8573125,2.25444506 L10.5431625,2.25444506 L10.5431625,0.563124135 C10.544175,0.252334171 10.8054,0.000974263209 11.1283875,0 L11.1283875,0 L12.29985,0 C12.621825,0.000974263209 12.8840625,0.252334171 12.885075,0.563124135 L12.885075,0.563124135 L12.885075,2.25736785 L14.642775,2.25736785 L14.642775,2.25444506 C15.6137625,2.25444506 16.4014875,3.01047331 16.4025,3.94479173 L16.4025,3.94479173 L16.4025,5.63611266 L0,5.63611266 L0,3.94479173 C0.0010125,3.01144758 0.7867125,2.25541933 1.7566875,2.25444506 L1.7566875,2.25444506 L3.5143875,2.25444506 L3.5143875,0.563124135 C3.5154,0.252334171 3.776625,0.000974263209 4.0996125,0 L4.0996125,0 L5.271075,0 Z" id="path-1"></path>
    </defs>
    <g id="Symbols" stroke="none" stroke-width="1" fill="none" fill-rule="evenodd">
        <g id="buscador-y-filtros" transform="translate(-628, -12)">
            <g id="icon-calendario" transform="translate(628, 12)">
                <mask id="mask-2" fill="white">
                    <use xlink:href="#path-1"></use>
                </mask>
                <g id="Clip-955"></g>
                <polygon id="Fill-954" fill="#DB3B2B" mask="url(#mask-2)" points="-5.0625 -4.87131604 21.465 -4.87131604 21.465 22.9059023 -5.0625 22.9059023"></polygon>
            </g>
        </g>
    </g>
</svg>