<?xml version="1.0" encoding="UTF-8"?>
<svg width="13px" height="16px" viewBox="0 0 13 16" version="1.1" xmlns="http://www.w3.org/2000/svg" xmlns:xlink="http://www.w3.org/1999/xlink">
    <title>Group</title>
    <g id="Symbols" stroke="none" stroke-width="1" fill="none" fill-rule="evenodd">
        <g id="Icon/Menú/Catálogos" transform="translate(-4, -2)" fill="#000000" fill-rule="nonzero">
            <g id="Group" transform="translate(4, 2)">
                <path d="M12.2630508,0 L2.07457627,0 C0.929877648,0 0.00149633807,0.927166762 0,2.07186441 L0,13.9281356 C0.00149633807,15.0728332 0.929877648,16 2.07457627,16 L12.2630508,16 C12.4877091,16 12.6698305,15.8178785 12.6698305,15.5932203 C12.6698305,15.3685621 12.4877091,15.1864407 12.2630508,15.1864407 L2.07457627,15.1864407 C1.61059913,15.2079745 1.17234717,14.9727052 0.933918377,14.5740949 C0.695489585,14.1754845 0.695489585,13.6780748 0.933918377,13.2794645 C1.17234717,12.8808541 1.61059913,12.6455848 2.07457627,12.6671186 L12.2630508,12.6671186 C12.4877091,12.6671186 12.6698305,12.4849972 12.6698305,12.260339 L12.6698305,0.406779661 C12.6698305,0.182121458 12.4877091,0 12.2630508,0 Z M0.813559322,12.2847458 L0.813559322,2.07186441 C0.815054769,1.37648326 1.37919352,0.813559322 2.07457627,0.813559322 L11.8562712,0.813559322 L11.8562712,11.8535593 L2.07457627,11.8535593 C1.61815317,11.8540809 1.17474447,12.0056981 0.813559322,12.2847458 L0.813559322,12.2847458 Z" id="Shape"></path>
                <path d="M12.2630508,13.5213559 L1.9959322,13.5213559 C1.771274,13.5213559 1.58915254,13.7034774 1.58915254,13.9281356 C1.58915254,14.1527938 1.771274,14.3349153 1.9959322,14.3349153 L12.2630508,14.3349153 C12.4877091,14.3349153 12.6698305,14.1527938 12.6698305,13.9281356 C12.6698305,13.7034774 12.4877091,13.5213559 12.2630508,13.5213559 Z" id="Path"></path>
            </g>
        </g>
    </g>
</svg>