<?xml version="1.0" encoding="UTF-8"?>
<svg width="16px" height="15px" viewBox="0 0 16 15" version="1.1" xmlns="http://www.w3.org/2000/svg" xmlns:xlink="http://www.w3.org/1999/xlink">
    <title>Group</title>
    <g id="Symbols" stroke="none" stroke-width="1" fill="none" fill-rule="evenodd">
        <g id="icons/ventas" transform="translate(-2, -3)" fill="#4C4C4C" fill-rule="nonzero">
            <g id="Group" transform="translate(2.5, 3)">
                <path d="M10.5822451,5.78888532 C10.5654935,5.33898435 10.103627,4.99916554 9.1822873,4.75507033 L9.1822873,1.40474398 C9.1822873,0.0406825343 5.06138588,3.97903932e-13 4.5899471,3.97903932e-13 C4.11850832,3.97903932e-13 0.00957236101,0.0311101733 0,1.39038544 L0,4.76942887 C0,5.29830182 0.619810375,5.62615518 1.40474398,5.83196095 L1.40474398,7.4879794 C0.461866419,7.72728843 0,8.08385887 0,8.54811838 L0,10.235247 C0,11.3432478 2.88606684,11.639991 4.5899471,11.639991 C5.10206842,11.639991 5.59983119,11.613667 6.08323542,11.5681983 C6.87387118,13.4185318 8.86926926,14.4444115 10.8341563,14.0107552 C12.7990434,13.5770989 14.177283,11.8066474 14.1156607,9.79541852 C14.0540383,7.78418961 12.5699953,6.10143614 10.5822451,5.78888532 L10.5822451,5.78888532 Z M6.12391796,8.18197557 L5.99469108,8.18197557 C3.80740659,8.18197557 2.43377279,7.77754332 2.16574668,7.51430339 C2.16574668,7.49994485 2.14181578,7.4879794 2.12985032,7.47362086 L2.12985032,6.63125309 C3.08708643,7.07876097 4.82925613,7.21995329 6.00187035,7.21995329 C6.2603241,7.21995329 6.51159858,7.21995329 6.76047996,7.20320166 C6.50363282,7.49989248 6.28938498,7.83092955 6.12391796,8.18676175 L6.12391796,8.18197557 Z M7.64831645,6.41108879 C7.09911668,6.47025599 6.54706594,6.49901695 5.99469108,6.49724004 C4.3458519,6.49724004 3.15887913,6.25793101 2.55821348,6.04255289 C3.23240296,6.12443936 3.91080787,6.16678973 4.5899471,6.16938667 C4.97284155,6.16938667 7.77036405,6.14306268 8.80178595,5.39881161 C9.13719406,5.45937753 9.46050283,5.57415214 9.75902205,5.73863043 C9.00690968,5.76796428 8.27708798,6.0021361 7.64831645,6.41587497 L7.64831645,6.41108879 Z M8.41889151,3.10623115 C6.44459205,4.01081926 2.64436473,4.0754327 0.717927076,3.05597625 L0.717927076,2.22078775 C1.9144722,2.77837778 4.24534211,2.7999156 4.5899471,2.7999156 C4.9345521,2.7999156 7.26063583,2.77837778 8.46436022,2.22078775 L8.46436022,3.06076243 C8.44760859,3.07751407 8.43803623,3.0942657 8.41889151,3.11101733 L8.41889151,3.10623115 Z M4.5899471,0.713140895 C6.83705885,0.713140895 8.2250512,1.13911096 8.44760859,1.3999578 C8.2250512,1.66080464 6.83705885,2.0867747 4.5899471,2.0867747 C2.34283536,2.0867747 0.957236101,1.65601845 0.732285617,1.39517162 C0.957236101,1.13432478 2.34522845,0.708354715 4.5899471,0.708354715 L4.5899471,0.713140895 Z M0.717927076,4.74789106 L0.717927076,3.90791638 C1.9144722,4.46550641 4.24534211,4.48704422 4.5899471,4.48704422 C4.9345521,4.48704422 7.26063583,4.46550641 8.46436022,3.90791638 L8.46436022,4.74789106 L8.43803623,4.77660814 C8.19872721,5.03984807 6.81312795,5.45624578 4.5899471,5.45624578 C2.27343574,5.45624578 0.880657213,5.00634481 0.717927076,4.74789106 Z M1.79481769,8.13411377 C2.61804074,8.71084852 4.54926457,8.89511647 5.86307112,8.90708192 C5.83914022,9.00041244 5.81999549,9.09374296 5.80324386,9.18946657 C5.41795633,9.21818365 5.0087379,9.23493529 4.58037474,9.23493529 C2.34044227,9.23493529 0.952449921,8.81135831 0.725106347,8.55051147 C0.816043776,8.46436022 1.10800079,8.28966464 1.79481769,8.13411377 Z M4.5899471,10.9220639 C2.28540119,10.9220639 0.883050303,10.474556 0.717927076,10.2041368 L0.717927076,9.36416216 C1.67516318,9.81167004 3.41733288,9.95286236 4.5899471,9.95286236 C4.99198627,9.95286236 5.3772738,9.93850382 5.74341661,9.91457292 L5.74341661,9.91457292 C5.74496619,10.239649 5.78513253,10.5633898 5.86307112,10.8789883 C5.44428033,10.9005261 5.02309644,10.9220639 4.5899471,10.9220639 Z M9.93132455,13.3917331 C8.01490703,13.3917331 6.46134368,11.8381697 6.46134368,9.92175219 C6.46134368,8.00533467 8.01490703,6.45177132 9.93132455,6.45177132 C11.8477421,6.45177132 13.4013054,8.00533467 13.4013054,9.92175219 C13.3999855,11.8376227 11.8471951,13.3904131 9.93132455,13.3917331 Z" id="Shape"></path>
                <path d="M9.92647059,9.83605567 C9.60790441,9.83605567 9.3487395,9.61173845 9.3487395,9.33602941 C9.3487395,9.06029412 9.60790441,8.83597689 9.92647059,8.83597689 C10.2450368,8.83597689 10.5042017,9.06029412 10.5042017,9.33602941 C10.5042017,9.48103992 10.6217962,9.59863445 10.7668067,9.59863445 C10.9118172,9.59863445 11.0294118,9.48103992 11.0294118,9.33602941 C11.0294118,8.85480567 10.6708508,8.45018382 10.1890756,8.34036239 L10.1890756,8.20378151 C10.1890756,8.05877101 10.0714811,7.94117647 9.92647059,7.94117647 C9.78146008,7.94117647 9.66386555,8.05877101 9.66386555,8.20378151 L9.66386555,8.34036239 C9.18209034,8.45018382 8.82352941,8.85480567 8.82352941,9.33602941 C8.82352941,9.90133929 9.31830357,10.3612658 9.92647059,10.3612658 C10.2450368,10.3612658 10.5042017,10.585583 10.5042017,10.8613183 C10.5042017,11.1370536 10.2450368,11.3613708 9.92647059,11.3613708 C9.60790441,11.3613708 9.3487395,11.1370536 9.3487395,10.8613183 C9.3487395,10.7163078 9.23114496,10.5987132 9.08613445,10.5987132 C8.94112395,10.5987132 8.82352941,10.7163078 8.82352941,10.8613183 C8.82352941,11.342542 9.18209034,11.7471639 9.66386555,11.8569853 L9.66386555,11.9704307 C9.66386555,12.1154412 9.78146008,12.2330357 9.92647059,12.2330357 C10.0714811,12.2330357 10.1890756,12.1154412 10.1890756,11.9704307 L10.1890756,11.8569853 C10.6708508,11.7471639 11.0294118,11.342542 11.0294118,10.8613183 C11.0294118,10.2959821 10.5346376,9.83605567 9.92647059,9.83605567 Z" id="Path"></path>
                <path d="M12.7215007,4.95935628 C12.6398012,4.93514901 12.579283,4.8927863 12.5248167,4.8231904 C12.4854799,4.77477587 12.4764022,4.50244411 12.4642985,2.96528262 L12.449169,1.16184119 L11.8016246,1.85780013 C11.4445674,2.2390646 11.1177693,2.57494043 11.0754066,2.60217361 C10.8756966,2.73833949 10.5882353,2.59309588 10.5882353,2.36010094 C10.5912612,2.29958277 10.6063907,2.21788324 10.6275721,2.18459825 C10.6487535,2.14828734 11.1026397,1.64901245 11.6412514,1.07408985 C12.4915317,0.160265502 12.6307235,0.0240996227 12.7245266,0.00594417208 C12.7941225,-0.00615946167 12.8637184,-0.000107644796 12.9212107,0.0271255311 C13.0210657,0.0755400661 14.8971289,2.08171736 14.9667248,2.21485733 C15.1028907,2.47811136 14.794248,2.75649494 14.5279681,2.61125134 C14.4825795,2.58704407 14.1527554,2.25116823 13.7956982,1.86082604 L13.1451279,1.15578938 L13.1299984,2.95923081 C13.1178947,4.4631073 13.108817,4.77174996 13.0694802,4.82621631 C12.9998843,4.93212311 12.8334594,4.99566718 12.7215007,4.95935628 Z" id="Path"></path>
            </g>
        </g>
    </g>
</svg>