<?xml version="1.0" encoding="UTF-8"?>
<svg width="15px" height="16px" viewBox="0 0 15 16" version="1.1" xmlns="http://www.w3.org/2000/svg" xmlns:xlink="http://www.w3.org/1999/xlink">
    <title>noun-company-6391953@2x</title>
    <g id="Symbols" stroke="none" stroke-width="1" fill="none" fill-rule="evenodd">
        <g id="Menú/Company" transform="translate(-3, -2)">
            <g id="Group" transform="translate(3, 2)">
                <rect id="Rectangle" x="2.41757848" y="11.6412556" width="2.40143498" height="3.82672646"></rect>
                <path d="M1.88556054,11.375426 C1.88556054,11.2283408 2.00466368,11.1095964 2.15139013,11.1095964 L8.01829596,11.1095964 C8.16538117,11.1095964 8.28412556,11.2286996 8.28412556,11.375426 L8.28412556,15.4683408 L9.63587444,15.4683408 L9.63587444,4.53201794 C9.63587444,4.52914798 9.63802691,4.52699552 9.63802691,4.5244843 L9.63802691,2.17363229 L8.01829596,2.17363229 L2.15174888,2.17363229 L0.532017937,2.17363229 L0.532017937,15.4683408 L1.88556054,15.4683408 L1.88556054,11.375426 Z M1.88556054,2.9761435 C1.88556054,2.8290583 2.00466368,2.7103139 2.15139013,2.7103139 L8.01829596,2.7103139 C8.16538117,2.7103139 8.28412556,2.82941704 8.28412556,2.9761435 L8.28412556,4.53201794 C8.28412556,4.67910314 8.16502242,4.79784753 8.01829596,4.79784753 L2.15174888,4.79784753 C2.00466368,4.79784753 1.88591928,4.67874439 1.88591928,4.53201794 L1.88591928,2.9761435 L1.88556054,2.9761435 Z M1.88556054,5.64591928 C1.88556054,5.49883408 2.00466368,5.38008969 2.15139013,5.38008969 L8.01829596,5.38008969 C8.16538117,5.38008969 8.28412556,5.49919283 8.28412556,5.64591928 L8.28412556,7.20215247 C8.28412556,7.34923767 8.16502242,7.46798206 8.01829596,7.46798206 L2.15174888,7.46798206 C2.00466368,7.46798206 1.88591928,7.34887892 1.88591928,7.20215247 L1.88591928,5.64591928 L1.88556054,5.64591928 Z M1.88556054,8.31569507 C1.88556054,8.16860987 2.00466368,8.04986547 2.15139013,8.04986547 L8.01829596,8.04986547 C8.16538117,8.04986547 8.28412556,8.16896861 8.28412556,8.31569507 L8.28412556,9.87156951 C8.28412556,10.0186547 8.16502242,10.1373991 8.01829596,10.1373991 L2.15174888,10.1373991 C2.00466368,10.1373991 1.88591928,10.018296 1.88591928,9.87156951 L1.88591928,8.31569507 L1.88556054,8.31569507 Z" id="Shape"></path>
                <rect id="Rectangle" x="5.35103139" y="11.6412556" width="2.40143498" height="3.82672646"></rect>
                <rect id="Rectangle" x="2.41757848" y="8.58188341" width="5.33488789" height="1.0238565"></rect>
                <rect id="Rectangle" x="11.6383857" y="7.80878924" width="1" height="1"></rect>
                <rect id="Rectangle" x="2.41757848" y="5.91174888" width="5.33488789" height="1.02421525"></rect>
                <rect id="Rectangle" x="2.41757848" y="0.531659193" width="5.33488789" height="1.10995516"></rect>
                <rect id="Rectangle" x="2.41757848" y="3.24233184" width="5.33488789" height="1.0238565"></rect>
                <rect id="Rectangle" x="11.6383857" y="13.4127354" width="1" height="1"></rect>
                <path d="M10.1700448,15.4676233 L14.0674439,15.4604484 L14.0674439,7.44573991 L10.1700448,5.01273543 L10.1700448,15.4676233 Z M11.1067265,7.54295964 C11.1067265,7.39587444 11.2258296,7.27713004 11.3725561,7.27713004 L12.8627803,7.27713004 C13.0098655,7.27713004 13.1286099,7.39623318 13.1286099,7.54295964 L13.1286099,9.03282511 C13.1286099,9.17991031 13.0095067,9.29865471 12.8627803,9.29865471 L11.3725561,9.29865471 C11.2254709,9.29865471 11.1067265,9.17955157 11.1067265,9.03282511 L11.1067265,7.54295964 Z M11.1067265,10.3447534 C11.1067265,10.1976682 11.2258296,10.0789238 11.3725561,10.0789238 L12.8627803,10.0789238 C13.0098655,10.0789238 13.1286099,10.1980269 13.1286099,10.3447534 L13.1286099,11.8346188 C13.1286099,11.981704 13.0095067,12.1004484 12.8627803,12.1004484 L11.3725561,12.1004484 C11.2254709,12.1004484 11.1067265,11.9813453 11.1067265,11.8346188 L11.1067265,10.3447534 Z M11.3725561,12.8807175 L12.8627803,12.8807175 C13.0098655,12.8807175 13.1286099,12.9998206 13.1286099,13.1465471 L13.1286099,14.6367713 C13.1286099,14.7838565 13.0095067,14.9026009 12.8627803,14.9026009 L11.3725561,14.9026009 C11.2254709,14.9026009 11.1067265,14.7834978 11.1067265,14.6367713 L11.1067265,13.1469058 C11.1067265,12.9998206 11.2254709,12.8807175 11.3725561,12.8807175 Z" id="Shape"></path>
                <rect id="Rectangle" x="11.6383857" y="10.6109417" width="1" height="1"></rect>
                <path d="M14.4742601,7.07264574 L10.1700448,4.38600897 L10.1700448,1.90780269 C10.1700448,1.76071749 10.0509417,1.64197309 9.90421525,1.64197309 L8.2844843,1.64197309 L8.2844843,0.265829596 C8.2844843,0.118744395 8.16538117,0 8.01865471,0 L2.15174888,0 C2.00466368,0 1.88591928,0.119103139 1.88591928,0.265829596 L1.88591928,1.64197309 L0.265829596,1.64197309 C0.118744395,1.64197309 0,1.76107623 0,1.90780269 L0,15.7341704 C0,15.8812556 0.119103139,16 0.265829596,16 L9.90170404,16 L9.90206278,16 L9.90349776,16 L9.90349776,16 L14.3336323,15.9917489 C14.4803587,15.9913901 14.5991052,15.872287 14.5991052,15.7259193 L14.5991052,7.29829596 C14.5994619,7.20609865 14.5521076,7.12107623 14.4742601,7.07264574 Z M2.41757848,0.531659193 L7.75246637,0.531659193 L7.75246637,1.64161435 L2.41757848,1.64161435 L2.41757848,0.531659193 Z M0.532017937,2.17363229 L2.15174888,2.17363229 L8.01865471,2.17363229 L9.63838565,2.17363229 L9.63838565,4.5244843 C9.63838565,4.52735426 9.63623318,4.52950673 9.63623318,4.53201794 L9.63623318,15.4683408 L8.2844843,15.4683408 L8.2844843,11.375426 C8.2844843,11.2283408 8.16538117,11.1095964 8.01865471,11.1095964 L2.15174888,11.1095964 C2.00466368,11.1095964 1.88591928,11.2286996 1.88591928,11.375426 L1.88591928,15.4683408 L0.532017937,15.4683408 L0.532017937,2.17363229 Z M5.35103139,11.6412556 L7.75246637,11.6412556 L7.75246637,15.4679821 L5.35103139,15.4679821 L5.35103139,11.6412556 Z M4.81901345,15.4683408 L2.41757848,15.4683408 L2.41757848,11.6412556 L4.81901345,11.6412556 L4.81901345,15.4683408 Z M14.0674439,15.4604484 L10.1700448,15.4676233 L10.1700448,5.01273543 L14.0674439,7.44573991 L14.0674439,15.4604484 Z" id="Shape" fill="#4C4C4C" fill-rule="nonzero"></path>
                <path d="M2.15174888,4.79820628 L8.01865471,4.79820628 C8.16573991,4.79820628 8.2844843,4.67910314 8.2844843,4.53237668 L8.2844843,2.97650224 C8.2844843,2.82941704 8.16538117,2.71067265 8.01865471,2.71067265 L2.15174888,2.71067265 C2.00466368,2.71067265 1.88591847,2.82977578 1.88591847,2.97650224 L1.88591847,4.53237668 C1.88556054,4.67910314 2.00466368,4.79820628 2.15174888,4.79820628 Z M2.41757848,3.24233184 L7.75246637,3.24233184 L7.75246637,4.26618834 L2.41757848,4.26618834 L2.41757848,3.24233184 Z" id="Shape" fill="#4C4C4C" fill-rule="nonzero"></path>
                <path d="M2.15174888,7.46798206 L8.01865471,7.46798206 C8.16573991,7.46798206 8.2844843,7.34887892 8.2844843,7.20215247 L8.2844843,5.64591928 C8.2844843,5.49883408 8.16538117,5.38008969 8.01865471,5.38008969 L2.15174888,5.38008969 C2.00466368,5.38008969 1.88591847,5.49919283 1.88591847,5.64591928 L1.88591847,7.20215247 C1.88556054,7.34923767 2.00466368,7.46798206 2.15174888,7.46798206 Z M2.41757848,5.91174888 L7.75246637,5.91174888 L7.75246637,6.93596413 L2.41757848,6.93596413 L2.41757848,5.91174888 Z" id="Shape" fill="#4C4C4C" fill-rule="nonzero"></path>
                <path d="M2.15174888,10.1377578 L8.01865471,10.1377578 C8.16573991,10.1377578 8.2844843,10.0186547 8.2844843,9.87192825 L8.2844843,8.31569507 C8.2844843,8.16860987 8.16538117,8.04986547 8.01865471,8.04986547 L2.15174888,8.04986547 C2.00466368,8.04986547 1.88591847,8.16896861 1.88591847,8.31569507 L1.88591847,9.87156951 C1.88556054,10.0186547 2.00466368,10.1377578 2.15174888,10.1377578 Z M2.41757848,8.58188341 L7.75246637,8.58188341 L7.75246637,9.60573991 L2.41757848,9.60573991 L2.41757848,8.58188341 Z" id="Shape" fill="#4C4C4C" fill-rule="nonzero"></path>
                <path d="M11.3725561,9.29865471 L12.8627803,9.29865471 C13.0098655,9.29865471 13.1286099,9.17955157 13.1286099,9.03282511 L13.1286099,7.54295964 C13.1286099,7.39587444 13.0095067,7.27713004 12.8627803,7.27713004 L11.3725561,7.27713004 C11.2254709,7.27713004 11.1067265,7.39623318 11.1067265,7.54295964 L11.1067265,9.03282511 C11.1067265,9.17955157 11.2254709,9.29865471 11.3725561,9.29865471 Z M11.6383857,7.80878924 L12.5969507,7.80878924 L12.5969507,8.76663677 L11.6383857,8.76663677 L11.6383857,7.80878924 L11.6383857,7.80878924 Z" id="Shape" fill="#4C4C4C" fill-rule="nonzero"></path>
                <path d="M11.3725561,12.1008072 L12.8627803,12.1008072 C13.0098655,12.1008072 13.1286099,11.981704 13.1286099,11.8349776 L13.1286099,10.3451121 C13.1286099,10.1980269 13.0095067,10.0792825 12.8627803,10.0792825 L11.3725561,10.0792825 C11.2254709,10.0792825 11.1067265,10.1983857 11.1067265,10.3451121 L11.1067265,11.8349776 C11.1067265,11.981704 11.2254709,12.1008072 11.3725561,12.1008072 Z M11.6383857,10.6109417 L12.5969507,10.6109417 L12.5969507,11.5687892 L11.6383857,11.5687892 L11.6383857,10.6109417 L11.6383857,10.6109417 Z" id="Shape" fill="#4C4C4C" fill-rule="nonzero"></path>
                <path d="M11.3725561,14.9026009 L12.8627803,14.9026009 C13.0098655,14.9026009 13.1286099,14.7834978 13.1286099,14.6367713 L13.1286099,13.1469058 C13.1286099,12.9998206 13.0095067,12.8810762 12.8627803,12.8810762 L11.3725561,12.8810762 C11.2254709,12.8810762 11.1067265,13.0001794 11.1067265,13.1469058 L11.1067265,14.6367713 C11.1067265,14.7834978 11.2254709,14.9026009 11.3725561,14.9026009 Z M11.6383857,13.4127354 L12.5969507,13.4127354 L12.5969507,14.370583 L11.6383857,14.370583 L11.6383857,13.4127354 L11.6383857,13.4127354 Z" id="Shape" fill="#4C4C4C" fill-rule="nonzero"></path>
            </g>
        </g>
    </g>
</svg>