<?xml version="1.0" encoding="UTF-8"?>
<svg width="16px" height="16px" viewBox="0 0 16 16" version="1.1" xmlns="http://www.w3.org/2000/svg" xmlns:xlink="http://www.w3.org/1999/xlink">
    <title>Group</title>
    <g id="Symbols" stroke="none" stroke-width="1" fill="none" fill-rule="evenodd">
        <g id="Icon/Menú/Dashboard-" transform="translate(-2, -2)" fill="#000000" fill-rule="nonzero">
            <g id="Group" transform="translate(2, 2)">
                <path d="M3.58225873,7.86466602 L0.406766699,7.86466602 C0.182115654,7.86466602 0,8.04678167 0,8.27143272 L0,15.5932333 C0,15.8178843 0.182115654,16 0.406766699,16 L3.58225873,16 C3.80690977,16 3.98902543,15.8178843 3.98902543,15.5932333 L3.98902543,8.27143272 C3.98902543,8.04678167 3.80690977,7.86466602 3.58225873,7.86466602 Z M3.17549203,15.1864666 L0.813533398,15.1864666 L0.813533398,8.67819942 L3.17549203,8.67819942 L3.17549203,15.1864666 Z" id="Shape"></path>
                <path d="M9.58884699,4.53189086 L6.41064318,4.53189086 C6.18599213,4.53189086 6.00387648,4.71400652 6.00387648,4.93865756 L6.00387648,15.5932333 C6.00387648,15.8178843 6.18599213,16 6.41064318,16 L9.58884699,16 C9.81349803,16 9.99561369,15.8178843 9.99561369,15.5932333 L9.99561369,4.93865756 C9.99561369,4.71400652 9.81349803,4.53189086 9.58884699,4.53189086 Z M9.18208029,15.1864666 L6.81740988,15.1864666 L6.81740988,5.34542426 L9.18208029,5.34542426 L9.18208029,15.1864666 Z" id="Shape"></path>
                <path d="M15.5927235,10.11273 L12.4172314,10.11273 C12.1925804,10.11273 12.0104647,10.2948456 12.0104647,10.5194967 L12.0104647,15.5932333 C12.0104647,15.8178843 12.1925804,16 12.4172314,16 L15.5927235,16 C15.8173745,16 15.9994902,15.8178843 15.9994902,15.5932333 L15.9994902,10.5194967 C15.9994902,10.2948456 15.8173745,10.11273 15.5927235,10.11273 L15.5927235,10.11273 Z M15.1859568,15.1864666 L12.8239981,15.1864666 L12.8239981,10.9262634 L15.1859568,10.9262634 L15.1859568,15.1864666 Z" id="Shape"></path>
                <path d="M0.406766699,6.12099277 C0.476111577,6.12132901 0.544344664,6.10356972 0.604726493,6.06946899 L0.949122298,5.87964453 C1.22732447,6.15874049 1.60451739,6.3166352 1.99858038,6.31895256 C2.22431671,6.31907775 2.4470372,6.26710963 2.6494071,6.16709299 C3.27319044,5.86419832 3.60250667,5.16834863 3.44124627,4.49392597 L6.94757522,2.54144581 C7.46243403,3.06352785 8.28259761,3.12821681 8.8729376,2.69330538 L12.6260383,5.64371984 C12.5542473,5.82025919 12.5174088,6.00905606 12.5175672,6.19963433 C12.5169068,6.75622975 12.8278923,7.26635291 13.3229525,7.52074297 C13.8180127,7.77513302 14.413821,7.73097202 14.865967,7.40637554 L15.3405281,7.77788912 C15.4122432,7.83471788 15.5012242,7.86533497 15.5927235,7.86467675 C15.7171706,7.86374054 15.8346301,7.80700165 15.9127133,7.71009467 C16.0508263,7.53304076 16.0205828,7.27778606 15.8449188,7.13790952 L15.378493,6.77181949 C15.4534152,6.59034555 15.4921069,6.3959658 15.4923877,6.19963433 C15.4927841,5.80369017 15.333415,5.42433311 15.0503679,5.14746447 L15.0503679,5.14746447 C14.528277,4.63811002 13.713697,4.58296215 13.1277173,5.01729912 L9.3773283,2.05332578 C9.60554127,1.49641957 9.47599558,0.856887153 9.04904772,0.432692381 C8.62209986,0.0084976092 7.98174278,-0.116908176 7.42632456,0.114902698 C6.87090634,0.346713573 6.50969375,0.890137227 6.51097896,1.49198773 C6.51197976,1.60613383 6.52562184,1.71981784 6.55165563,1.83095998 L3.04803847,3.78072836 C2.57917867,3.3092104 1.85415126,3.20655359 1.27282078,3.52937485 C0.69149031,3.85219612 0.395371663,4.52191017 0.547779155,5.16915869 L0.208806906,5.35898315 C0.0470738063,5.44919371 -0.0333105185,5.63726274 0.0132538432,5.81650364 C0.0598182049,5.99574454 0.221576169,6.12090828 0.406766699,6.12099277 Z M14.0036216,5.52439258 C14.2767078,5.52299135 14.5235327,5.68686052 14.6282293,5.93908407 C14.7329258,6.19130762 14.6747039,6.48180001 14.4808945,6.67419548 C14.2654799,6.89222904 13.9302333,6.93782514 13.6644122,6.78524333 C13.398591,6.63266153 13.2688817,6.32017996 13.3485092,6.02420437 C13.4281367,5.72822877 13.697125,5.52301044 14.0036216,5.52439258 L14.0036216,5.52439258 Z M7.99974508,0.816755011 C8.37266582,0.816755011 8.6749778,1.119067 8.6749778,1.49198773 C8.6749778,1.86490847 8.37266582,2.16722045 7.99974508,2.16722045 C7.62682435,2.16722045 7.32451236,1.86490847 7.32451236,1.49198773 C7.32599862,1.11968436 7.62744171,0.818241269 7.99974508,0.816755011 Z M1.69757302,4.22545995 C1.94048961,4.10889333 2.22945404,4.14789731 2.43277262,4.32469607 C2.6360912,4.50149483 2.71484262,4.78224377 2.63313643,5.03899335 C2.53970051,5.33260188 2.25935815,5.52572124 1.95172845,5.50839467 C1.64409875,5.4910681 1.38721467,5.26769064 1.32733881,4.96544715 C1.26746295,4.66320367 1.41978334,4.35876087 1.69757302,4.22545995 Z" id="Shape"></path>
            </g>
        </g>
    </g>
</svg>