<?xml version="1.0" encoding="UTF-8"?>
<svg width="16px" height="11px" viewBox="0 0 16 11" version="1.1" xmlns="http://www.w3.org/2000/svg" xmlns:xlink="http://www.w3.org/1999/xlink">
    <title>noun-deal-6104926</title>
    <g id="Symbols" stroke="none" stroke-width="1" fill="none" fill-rule="evenodd">
        <g id="Menú/Proveedores" transform="translate(-2, -5)" fill="#4C4C4C" fill-rule="nonzero">
            <g id="noun-deal-6104926" transform="translate(2, 5)">
                <path d="M15.5,1.57097594 L11.6513701,1.57097594 L9.80078008,0.336595937 C9.09729889,-0.128978739 8.17749293,-0.103786573 7.50055008,0.399595937 C6.82610578,-0.104395567 5.90890335,-0.134241985 5.20312008,0.324835937 L3.31250008,1.57097594 L0.5,1.57097594 C0.367368251,1.57089894 0.240146555,1.62355264 0.14636167,1.71733752 C0.052576786,1.81112241 0,1.9383441 0,2.07097594 L0,8.07097594 C0,8.20360777 0.052576786,8.33082947 0.14636167,8.42461435 C0.240146555,8.51839924 0.367368251,8.57105293 0.5,8.57097594 L4.14551008,8.57097594 C4.30074702,8.57107117 4.45384596,8.60717399 4.59277008,8.67644594 L7.60547008,10.1832759 C8.16896649,10.4632355 8.83103367,10.4632355 9.39453008,10.1832759 L10.8623001,9.44890594 C11.2407121,9.25801057 11.5474328,8.95011502 11.7368801,8.57097594 L15.5,8.57097594 C15.6326319,8.57105293 15.7598536,8.51839924 15.8536385,8.42461435 C15.9474234,8.33082947 16,8.20360777 16,8.07097594 L16,2.07097594 C16,1.9383441 15.9474234,1.81112241 15.8536385,1.71733752 C15.7598536,1.62355264 15.6326319,1.57089894 15.5,1.57097594 Z M9.24609008,1.16863594 L11.2226601,2.48697594 C11.3048018,2.54170983 11.4012931,2.57093485 11.5000001,2.57097594 L13.0000001,2.57097594 L13.0000001,7.57097594 L11.9597201,7.57097594 C11.9419537,7.07198018 11.7354121,6.59833693 11.3818401,6.24577594 L8.67743008,3.54137594 L8.72363008,3.51824594 C8.97065048,3.39473849 9.07077751,3.09436634 8.94727007,2.84734594 C8.82376264,2.60032555 8.52339048,2.50019851 8.27637008,2.62370594 L6.80664008,3.35906594 C6.68274689,3.42258812 6.53192874,3.39804424 6.43457008,3.29851594 C6.30956714,3.17257479 6.30956714,2.96937709 6.43457008,2.84343594 L7.98438008,1.29363594 C8.32176915,0.957353022 8.84927504,0.905092014 9.24609008,1.16863594 Z M1.00000008,2.57097594 L2.00000008,2.57097594 L2.00000008,7.57097594 L1.00000008,7.57097594 L1.00000008,2.57097594 Z M10.9550801,7.81997594 C10.9050258,8.13793944 10.7036628,8.41178574 10.4150801,8.55435594 L8.94731008,9.28872594 C8.66548204,9.42838019 8.33459812,9.42838019 8.05277008,9.28872594 L5.03906008,7.78191594 C4.76139289,7.6438285 4.45561775,7.57164428 4.14551008,7.57097594 L3.00000008,7.57097594 L3.00000008,2.57097594 L3.46289008,2.57097594 C3.56071123,2.57102909 3.65642116,2.54253054 3.73828008,2.48897594 L5.75293008,1.16081594 C6.05322984,0.96472606 6.435728,0.945100684 6.75452008,1.10942594 L5.72752008,2.13642594 C5.26907953,2.5949935 5.21086605,3.31835665 5.59007415,3.84433495 C5.96928225,4.37031324 6.67397881,4.54365053 7.25391008,4.25359594 L7.73491008,4.01293594 L10.6747901,6.95281594 C10.9037105,7.17906956 11.0082645,7.50253829 10.9550801,7.81997594 L10.9550801,7.81997594 Z M15.0000001,7.57097594 L14.0000001,7.57097594 L14.0000001,2.57097594 L15.0000001,2.57097594 L15.0000001,7.57097594 Z" id="Shape"></path>
            </g>
        </g>
    </g>
</svg>