<?xml version="1.0" encoding="UTF-8"?>
<svg width="16px" height="16px" viewBox="0 0 16 16" version="1.1" xmlns="http://www.w3.org/2000/svg" xmlns:xlink="http://www.w3.org/1999/xlink">
    <title>Group</title>
    <g id="Symbols" stroke="none" stroke-width="1" fill="none" fill-rule="evenodd">
        <g id="Icon-/-Eliminar" fill="#DB3B2B" fill-rule="nonzero">
            <g id="Group" transform="translate(0.5, -0)">
                <path d="M6.03942662,11.8958411 L6.06046258,11.8958411 C6.29209203,11.884493 6.47085962,11.6878487 6.46014599,11.456189 L6.2497863,6.87245143 C6.24264665,6.72214287 6.15586067,6.587061 6.02211982,6.51808985 C5.88837896,6.44911869 5.72800164,6.45673662 5.60140044,6.53807402 C5.47479924,6.61941142 5.4012079,6.76211121 5.40834755,6.91241977 L5.61870724,11.4961573 C5.62992626,11.7202606 5.81504288,11.8961214 6.03942662,11.8958411 Z" id="Path"></path>
                <path d="M9.16957876,11.895841 L9.19061473,11.895841 C9.41577448,11.8960688 9.60120202,11.7189855 9.6113341,11.4940538 L9.82169379,6.91031617 C9.83240742,6.67865653 9.65363983,6.48201218 9.42201038,6.47066443 C9.19035074,6.4599508 8.99370639,6.63871839 8.98235864,6.87034783 L8.77199895,11.4540854 C8.76006505,11.6857676 8.93792384,11.8833885 9.16957876,11.895841 Z" id="Path"></path>
                <path d="M15.2300887,2.79568069 C15.2300887,2.5633238 15.0416789,2.37496132 14.809322,2.37496132 L10.5263987,2.37496132 L10.2802779,1.02865932 C10.167926,0.431834149 9.64646384,-0.000360762168 9.03915575,2.25965584e-07 L6.19088559,2.25965584e-07 C5.58159989,0.00020351924 5.05943483,0.435636075 4.94976344,1.03497011 L4.7036426,2.38127211 L0.420719374,2.38127211 C0.18836248,2.38127211 0,2.56963459 0,2.80199148 C0,3.03434838 0.18836248,3.22271086 0.420719374,3.22271086 L1.59452643,3.22271086 L2.6231853,14.0940995 C2.72551804,15.1780393 3.63803319,16.0047781 4.72678217,15.9999792 L10.5137772,15.9999792 C11.6025261,16.0047781 12.5150413,15.1780393 12.617374,14.0940995 L13.6439293,3.22271086 L14.809322,3.22271086 C14.9220058,3.22272354 15.029985,3.17753263 15.1090691,3.09726224 C15.1881532,3.01699184 15.2317316,2.9083518 15.2300887,2.79568069 Z M5.7785806,1.1801183 C5.81559016,0.97771335 5.99356663,0.831772646 6.19929998,0.83512841 L9.03915575,0.83512841 C9.2448891,0.831772646 9.42286557,0.97771335 9.45987513,1.1801183 L9.67023481,2.37496132 L5.55980653,2.37496132 L5.7785806,1.1801183 Z M11.7717281,14.0120592 C11.7107364,14.6627565 11.1631132,15.1592681 10.50957,15.1564281 L4.71626418,15.1564281 C4.06272092,15.1592681 3.51509779,14.6627565 3.45410606,14.0120592 L2.44017237,3.21640007 L12.789869,3.21640007 L11.7717281,14.0120592 Z" id="Shape"></path>
            </g>
        </g>
    </g>
</svg>