<?xml version="1.0" encoding="UTF-8"?>
<svg width="18px" height="16px" viewBox="0 0 18 16" version="1.1" xmlns="http://www.w3.org/2000/svg" xmlns:xlink="http://www.w3.org/1999/xlink">
    <title>desarrollo@2x</title>
    <g id="Symbols" stroke="none" stroke-width="1" fill="none" fill-rule="evenodd">
        <g id="Menú/Desarrollo-" transform="translate(-1, -2)" fill="#4C4C4C" fill-rule="nonzero">
            <g id="desarrollo" transform="translate(1, 2)">
                <path d="M13.3791719,15.8296057 C13.0450656,15.6783787 12.8973554,15.4181274 12.876254,14.9538955 C12.8621864,14.6549583 12.8516356,14.6233061 12.7812975,14.588137 C12.7179931,14.5600017 12.6546887,14.5775863 12.4401573,14.6936442 C12.106051,14.8694897 11.9442732,14.8976249 11.6980896,14.8272868 C11.4589398,14.7569486 11.2795775,14.6022046 11.1142828,14.3138181 L10.9841572,14.0852191 L9.28549028,14.0676345 L7.58682342,14.05005 L7.50241761,13.9515765 C7.35822436,13.7827649 7.41449489,13.4943784 7.61144178,13.4064557 C7.67826304,13.3748035 8.10029208,13.3642528 9.13778012,13.3642528 L10.5726788,13.3642528 L10.5480605,13.2235764 C10.4742054,12.8261658 10.6676354,12.4955764 11.1107659,12.2529097 C11.4061862,12.0911319 11.3850847,11.9750739 11.0052586,11.7535086 C10.6395001,11.5354603 10.4706885,11.1943202 10.5515774,10.8355955 C10.5937803,10.6491993 11.1846209,9.60116055 11.3323311,9.45345039 C11.4870751,9.30222332 11.6312683,9.23891897 11.8844858,9.22133442 C12.0990172,9.20726679 12.1306694,9.2143006 12.3874037,9.35146004 C12.8164665,9.57654219 12.8516356,9.55895765 12.876254,9.08417499 C12.8938385,8.81688993 12.9114231,8.73248412 12.9887951,8.6023585 C13.1505729,8.32452272 13.4565439,8.15922802 13.8082348,8.15922802 L13.9594619,8.15922802 L13.952428,6.71026166 L13.9418773,5.2577784 L7.32305527,5.24722767 L0.700716324,5.24019386 L0.700716324,9.18264843 C0.700716324,12.1087164 0.71126705,13.1426875 0.742919227,13.1989581 C0.830841943,13.3642528 0.78863904,13.3607359 2.80734459,13.3642528 L4.71702598,13.3642528 L4.83660087,13.4838277 C4.9702434,13.6174702 4.98782794,13.7300113 4.90342213,13.8882722 C4.87528687,13.9445427 4.8084656,14.0043302 4.75571197,14.0289485 C4.68185689,14.0606007 4.13321914,14.0676345 2.6877697,14.0606007 L0.718300867,14.05005 L0.524870892,13.9410258 C0.419363634,13.8812384 0.278687289,13.7651804 0.218899842,13.6842915 C-0.0167330362,13.3783204 -0.00618231035,13.6737407 0.00436841553,8.313972 L0.0149191414,3.464155 L0.123943309,3.27072502 C0.257585837,3.03509215 0.524870892,2.83462835 0.774571405,2.78187472 C0.89062939,2.75725636 1.77337346,2.74318873 3.32081325,2.74318873 C4.62558635,2.74318873 5.69472658,2.73615491 5.69472658,2.7291211 C5.69472658,2.71857037 5.65252367,2.37039642 5.60328695,1.94836738 C5.51184733,1.17464748 5.46964442,1.00583587 5.31841735,0.87219334 C5.18829173,0.752618446 5.00189558,0.703381726 4.69240762,0.703381726 C4.523596,0.703381726 4.35478439,0.685797182 4.31258148,0.664695731 C4.09101624,0.552154655 4.04177952,0.274318873 4.21410804,0.10199035 L4.31609839,0 L7.50241761,0 L10.6852199,0 L10.7766595,0.0808888984 C10.836447,0.130125619 10.875133,0.207497609 10.8892006,0.302454142 C10.9067852,0.429062853 10.8927175,0.464231939 10.8012779,0.566222289 C10.6957706,0.685797182 10.6922537,0.685797182 10.3124276,0.703381726 C9.91501693,0.724483177 9.79192513,0.763169172 9.64421496,0.92143006 C9.60201206,0.963632964 9.54925843,1.05155568 9.52815698,1.10782622 C9.4965048,1.19223202 9.32065937,2.52514039 9.31714246,2.69746892 C9.31714246,2.732638 9.83412803,2.74318873 11.5960993,2.75022255 L13.8715391,2.76077327 L14.0544184,2.84517908 C14.1564087,2.89089889 14.3041189,2.99640615 14.3850078,3.08432887 C14.6593267,3.3832661 14.645259,3.2214883 14.6558098,5.82400069 L14.6663605,8.14867729 L14.8527566,8.16977874 C15.0778388,8.19088019 15.2747857,8.28583673 15.4260127,8.44761452 C15.5913075,8.61642614 15.647578,8.78523775 15.647578,9.0912088 C15.647578,9.23891897 15.6651625,9.39014604 15.6827471,9.42883203 C15.7355007,9.52378856 15.8621094,9.51323784 16.0590563,9.39717985 C16.4107472,9.18968224 16.6745153,9.16154698 16.9664187,9.29870641 C17.2020516,9.40773058 17.2442545,9.46048421 17.610013,10.0935278 C17.9722546,10.7195375 18.0214913,10.8461462 17.993356,11.0817791 C17.9546701,11.4088516 17.8104768,11.5952477 17.4236168,11.816813 C17.2442545,11.9188033 17.22667,11.9399048 17.2372207,12.0383782 C17.2442545,12.1298179 17.2829405,12.1685039 17.4412014,12.2634604 C17.6768343,12.4041367 17.842129,12.5553638 17.919501,12.703074 C18.0074237,12.8718856 18.0250082,13.1778566 17.9546701,13.3466682 C17.8561966,13.5823011 17.304042,14.510765 17.2020516,14.6127553 C17.0402738,14.7745331 16.8468438,14.8519051 16.611211,14.855422 C16.4283317,14.855422 16.3615104,14.8343206 16.1258776,14.7077119 C15.8163896,14.5424172 15.7882543,14.5353834 15.7073654,14.6233061 C15.6616456,14.6725428 15.647578,14.7569486 15.647578,14.9679631 C15.647578,15.4075767 15.4963509,15.6678279 15.1552108,15.8225719 C15.0110175,15.8893932 14.9266117,15.896427 14.2583991,15.896427 C13.6183217,15.896427 13.5022637,15.8858763 13.3791719,15.8296057 Z M14.9477132,14.8413544 C14.9688146,14.4544945 15.0391528,14.2891998 15.2572011,14.0922529 C15.5666891,13.8109002 15.9711336,13.7968325 16.3931626,14.0535669 C16.5549404,14.1520403 16.6217617,14.1766587 16.6639646,14.1485234 C16.7307858,14.1063205 17.300525,13.1286199 17.300525,13.0582817 C17.300525,13.0336634 17.1915009,12.9422238 17.0578584,12.8578179 C16.9242158,12.7698952 16.7765057,12.6573542 16.723752,12.6046005 C16.5197713,12.3830353 16.4670177,11.9610062 16.611211,11.6585521 C16.7026506,11.4616052 16.8257424,11.3420303 17.0895105,11.1978371 C17.1844671,11.1450834 17.2723898,11.0747453 17.2829405,11.0395762 C17.3145927,10.9411027 16.7167182,9.91768233 16.6287955,9.91768233 C16.5936264,9.91768233 16.4881192,9.96340214 16.3966795,10.0161558 C16.0344379,10.2306872 15.7425345,10.2588225 15.4435973,10.1075954 C15.1059741,9.93878378 14.9441963,9.63984655 14.9441963,9.17913152 C14.9441963,9.04548899 14.9266117,8.92943101 14.9019934,8.90481265 C14.8738581,8.87667738 14.6804281,8.86258337 14.2724667,8.86258337 C13.5550174,8.86258337 13.5726019,8.85205902 13.5726019,9.2529866 C13.5726019,9.69260018 13.4248917,9.94230069 13.0626502,10.1146292 C12.7777806,10.2482717 12.5526984,10.2306872 12.2010075,10.0513249 C11.9864761,9.93878378 11.9020703,9.91064851 11.8598674,9.93878378 C11.7789785,9.9880205 11.2549591,10.9059337 11.2549591,11.0008902 C11.2514422,11.0606776 11.2936451,11.1063974 11.4167369,11.1767356 C11.8915196,11.4545714 12.0779157,11.7957115 11.989993,12.2282913 C11.9372394,12.4815087 11.7789785,12.6749387 11.490592,12.8472672 C11.3112297,12.9527745 11.2514422,13.009045 11.2514422,13.0653156 C11.2514422,13.1602721 11.8071138,14.127422 11.873935,14.1555572 C11.9020703,14.162591 12.0392297,14.1098374 12.1799061,14.0324654 C12.5913844,13.8073833 12.8621864,13.8109002 13.2068434,14.0430162 C13.4635777,14.2118278 13.5726019,14.4474606 13.5726019,14.820253 C13.5726019,14.9996153 13.5901864,15.126224 13.6148048,15.1508424 C13.646457,15.1824945 13.8293362,15.1930453 14.2935682,15.1860115 L14.9266117,15.1754607 L14.9477132,14.8413544 Z M13.952428,4.07961401 C13.9418773,3.66110188 13.9348435,3.61889898 13.8609884,3.5450439 L13.7800995,3.464155 L7.333606,3.464155 L0.883595573,3.464155 L0.792155948,3.54856081 C0.704233232,3.63296661 0.700716324,3.64703425 0.700716324,4.08664783 L0.700716324,4.53681213 L7.333606,4.53681213 L13.9664957,4.53681213 L13.952428,4.07961401 Z M8.69816654,1.90968138 C8.75443708,1.43489872 8.82477525,0.991768233 8.85994434,0.889777883 L8.9232487,0.703381726 L7.4989007,0.703381726 C6.15544161,0.703381726 6.07455271,0.706898634 6.09917107,0.766686081 C6.19061069,0.991768233 6.22929669,1.19574893 6.31018559,1.89209684 C6.35942231,2.32115969 6.3981083,2.6904351 6.3981083,2.70801964 C6.3981083,2.7291211 6.79551898,2.74318873 7.4989007,2.74318873 L8.5996931,2.74318873 L8.69816654,1.90968138 Z" id="Shape" transform="translate(9, 7.9482) scale(-1, 1) rotate(-180) translate(-9, -7.9482)"></path>
                <path d="M13.8891237,5.244629 C13.1259545,5.0406483 12.6476549,4.23527623 12.8481187,3.48617469 C12.9606598,3.06414565 13.2842154,2.6737688 13.6675584,2.49440646 C13.8504377,2.41000065 13.9102251,2.39944992 14.2583991,2.39944992 C14.6206407,2.39944992 14.6593267,2.40648374 14.8808919,2.511991 C15.0215683,2.57881226 15.1938968,2.69838716 15.2958871,2.80389442 C15.7847374,3.28922781 15.8585925,4.08404916 15.4682157,4.65378835 C15.1200417,5.16374011 14.4834812,5.40288989 13.8891237,5.244629 Z M14.6382252,4.48497674 C14.7155972,4.43925693 14.8316552,4.33374967 14.8914426,4.25286077 C14.9863992,4.11218443 14.9969499,4.07349843 14.9969499,3.83083174 C14.9969499,3.59519886 14.9863992,3.54244523 14.9019934,3.42638724 C14.6171238,3.00787512 14.0192493,2.96567221 13.6992106,3.33494762 C13.336969,3.76049356 13.5233652,4.39353712 14.0579353,4.56586564 C14.2021285,4.61158545 14.4764474,4.57289946 14.6382252,4.48497674 Z" id="Shape" transform="translate(14.2603, 3.8462) scale(-1, 1) rotate(-180) translate(-14.2603, -3.8462)"></path>
                <path d="M6.01476526,2.47803683 C5.91277491,2.4217663 5.83891983,2.29515758 5.83540292,2.16854887 C5.83540292,2.04545707 5.98662999,1.86961164 6.11675561,1.84147637 C6.3172194,1.79927347 6.53878465,1.97160199 6.53878465,2.17558269 C6.53878465,2.43583393 6.24688123,2.60464554 6.01476526,2.47803683 Z" id="Path" transform="translate(6.1871, 2.178) scale(-1, 1) rotate(-180) translate(-6.1871, -2.178)"></path>
                <path d="M4.39251925,8.75733309 C4.19700085,8.6456083 2.84699289,7.18387554 2.81906169,7.05352994 C2.80509609,6.98370194 2.81440649,6.87197714 2.83768249,6.80680435 C2.89820009,6.63921715 4.27148405,5.20541559 4.42976085,5.14024279 C4.78355604,4.99127639 5.16993763,5.35903718 5.03493683,5.71283238 C5.00700563,5.78266037 4.74165924,6.08990357 4.44372645,6.39249156 L3.90372326,6.95111554 L4.44372645,7.50508433 C4.74165924,7.81232752 5.00235043,8.11957071 5.03028163,8.18939871 C5.09079923,8.34302031 5.02562643,8.5804355 4.89528084,8.6968155 C4.77890084,8.79922989 4.51820965,8.83181629 4.39251925,8.75733309 Z" id="Path" transform="translate(3.9375, 6.9521) scale(-1, 1) rotate(-180) translate(-3.9375, -6.9521)"></path>
                <path d="M7.3048417,8.75394917 C7.20381449,8.69425127 6.71245487,7.92736289 5.64248484,6.15938667 C5.32562677,5.64047417 5.31185033,5.52107837 5.53227334,5.30065536 C5.70677489,5.12615382 5.86290785,5.10319309 6.06037013,5.21799674 C6.14302876,5.2639182 6.49203186,5.79201499 7.0752344,6.74258922 C7.8329385,7.97328435 7.97070288,8.22585238 7.97070288,8.37280105 C7.96611073,8.68965913 7.58037046,8.91008214 7.3048417,8.75394917 Z" id="Path" transform="translate(6.677, 6.9763) scale(-1, 1) rotate(-180) translate(-6.677, -6.9763)"></path>
                <path d="M8.7375,8.7703125 C8.5921875,8.7046875 8.4375,8.4890625 8.4375,8.3484375 C8.4421875,8.1703125 8.503125,8.0859375 9.046875,7.5046875 C9.31875,7.21875 9.54375,6.965625 9.553125,6.946875 C9.5578125,6.9234375 9.3375,6.665625 9.05625,6.3703125 C8.5078125,5.79375 8.4375,5.6953125 8.4375,5.5078125 C8.4375,5.334375 8.7140625,5.0625 8.8921875,5.0625 C9.075,5.0625 9.1875,5.1515625 9.7265625,5.71875 C10.6828125,6.7171875 10.6875,6.7265625 10.6875,6.9375 C10.6875,7.115625 10.6546875,7.1625 10.1296875,7.725 C9.13125,8.79375 9.009375,8.8828125 8.7375,8.7703125 Z" id="Path" transform="translate(9.5625, 6.935) scale(-1, 1) rotate(-180) translate(-9.5625, -6.935)"></path>
            </g>
        </g>
    </g>
</svg>