<?xml version="1.0" encoding="UTF-8"?>
<svg width="15px" height="15px" viewBox="0 0 15 15" version="1.1" xmlns="http://www.w3.org/2000/svg" xmlns:xlink="http://www.w3.org/1999/xlink">
    <title>icons/editar</title>
    <g id="icons/editar" stroke="none" stroke-width="1" fill="none" fill-rule="evenodd">
        <path d="M13.8443915,9.36602538 C13.6380484,9.36602538 13.4708143,9.53325956 13.4708143,9.73960257 L13.4708143,13.0565595 C13.4700846,13.6752967 12.9688199,14.1767074 12.3500827,14.1772911 L1.86788598,14.1772911 C1.24914875,14.1767074 0.747884027,13.6752967 0.747154393,13.0565595 L0.747154393,3.32151716 C0.747884027,2.70292585 1.24914875,2.20151521 1.86788598,2.20078557 L5.18484287,2.20078557 C5.39118592,2.20078557 5.55842006,2.03355139 5.55842006,1.82720838 C5.55842006,1.62101128 5.39118592,1.45363118 5.18484287,1.45363118 L1.86788598,1.45363118 C0.836754567,1.45479861 0.00116742874,2.29038571 0,3.32151716 L0,13.0567054 C0.00116742874,14.0878369 0.836754567,14.923424 1.86788598,14.9245914 L12.3500827,14.9245914 C13.3812141,14.923424 14.2168013,14.0878369 14.2179687,13.0567054 L14.2179687,9.73960257 C14.2179687,9.53325956 14.0507345,9.36602538 13.8443915,9.36602538 Z" id="Path" fill="#333333" fill-rule="nonzero"></path>
        <path d="M14.0699971,0.492399532 C13.4134644,-0.164133177 12.3490612,-0.164133177 11.6925285,0.492399532 L5.02767778,7.1572502 C4.98200214,7.20292584 4.94902226,7.25954617 4.93180271,7.32171174 L4.0553556,10.4858814 C4.01931123,10.6156119 4.05593928,10.7545359 4.15108476,10.8498273 C4.24637612,10.9449727 4.38530014,10.9816008 4.51503065,10.9457024 L7.67920033,10.0691094 C7.74136589,10.0518898 7.79798618,10.0189099 7.84366186,9.97323424 L14.5083666,3.30823765 C15.1638778,2.65126715 15.1638778,1.58773956 14.5083666,0.930769023 L14.0699971,0.492399532 Z M5.84166749,7.40007538 L11.2963323,1.9452646 L13.0555015,3.70443379 L7.60069072,9.15924457 L5.84166749,7.40007538 Z M5.49027144,8.10520234 L6.89570972,9.51078654 L4.951649,10.049409 L5.49027144,8.10520234 Z M13.9801051,2.77997615 L13.583909,3.17617228 L11.8245939,1.41685717 L12.2209359,1.02066104 C12.5856114,0.655985474 13.1769141,0.655985474 13.5415897,1.02066104 L13.9801051,1.45903053 C14.3441969,1.82414388 14.3441969,2.41500875 13.9801051,2.77997615 L13.9801051,2.77997615 Z" id="Shape" fill="#333333" fill-rule="nonzero"></path>
    </g>
</svg>