<?xml version="1.0" encoding="UTF-8"?>
<svg width="15px" height="9px" viewBox="0 0 15 9" version="1.1" xmlns="http://www.w3.org/2000/svg" xmlns:xlink="http://www.w3.org/1999/xlink">
    <title>icon/email</title>
    <g id="icon/email" stroke="none" stroke-width="1" fill="none" fill-rule="evenodd">
        <path d="M14.7851971,9.42816605 L0.214395048,9.42816605 C0.0960534048,9.42816605 0.000118548013,9.33223132 0.000118548013,9.21388983 L0.000118548013,0.214288736 C0.000118548013,0.0959472496 0.0960534048,1.2519686e-05 0.214395048,1.2519686e-05 L14.7851971,1.2519686e-05 C14.9035387,1.2519686e-05 14.9994736,0.0959472496 14.9994736,0.214288736 L14.9994736,9.21388983 C14.9994736,9.33223132 14.9035387,9.42816605 14.7851971,9.42816605 Z M0.428671548,8.99961361 L14.5709206,8.99961361 L14.5709206,0.428564953 L0.428671548,0.428564953 L0.428671548,8.99961361 Z" id="Shape" stroke="#333333" stroke-width="0.5" fill="#333333" fill-rule="nonzero"></path>
        <path d="M7.49979605,6.19452608 C6.96485253,6.1953179 6.44810423,6.00035619 6.04700138,5.6464051 L0.072544005,0.374995899 C-0.0162122232,0.296713004 -0.0247024558,0.161301136 0.0535805396,0.0725450232 C0.131863535,-0.0162110899 0.267275582,-0.0247013153 0.356031815,0.0535815738 L6.33027491,5.3247765 C6.99883758,5.91302536 8.00032597,5.91302536 8.66888863,5.3247765 L14.6431317,0.0535815738 C14.7005469,0.00294141656 14.780617,-0.0132214054 14.8531804,0.0111814869 C14.9257437,0.0355843793 14.9797762,0.0968456057 14.9949243,0.171888654 C15.0100724,0.246931702 14.9840348,0.324355747 14.9266195,0.374995899 L8.95259072,5.6464051 C8.5514463,6.00028714 8.03472517,6.1952386 7.49979605,6.19452608 L7.49979605,6.19452608 Z" id="Path" stroke="#333333" stroke-width="0.5" fill="#333333" fill-rule="nonzero"></path>
        <path d="M14.7851971,9.42816667 C14.7382462,9.42807589 14.6926245,9.41256754 14.6553455,9.38402515 L9.19129474,5.20563892 C9.09727231,5.13374647 9.07933249,4.99924598 9.15122504,4.90522367 C9.22311758,4.81120136 9.35761825,4.79326156 9.45164069,4.86515402 L14.9156914,9.04354024 C14.9888309,9.09934726 15.0181841,9.19561359 14.988626,9.2827348 C14.9590678,9.36985601 14.8771958,9.42838632 14.7851971,9.42816667 Z" id="Path" stroke="#333333" stroke-width="0.5" fill="#333333" fill-rule="nonzero"></path>
        <path d="M0.214395048,9.42816606 C0.122552287,9.42816606 0.0409180369,9.36965019 0.0114387994,9.28266716 C-0.018040438,9.19568413 0.0111917828,9.09958729 0.084114936,9.04375451 L5.54816569,4.86536829 C5.64218812,4.79347584 5.77668879,4.81141563 5.84858134,4.90543794 C5.92047389,4.99946026 5.90253407,5.13396075 5.80851164,5.2058532 L0.344460884,9.38423942 C0.307096326,9.4127497 0.261394492,9.42816606 0.214395048,9.42816606 Z" id="Path" stroke="#333333" stroke-width="0.5" fill="#333333" fill-rule="nonzero"></path>
    </g>
</svg>