<?xml version="1.0" encoding="UTF-8"?>
<svg width="15px" height="15px" viewBox="0 0 15 15" version="1.1" xmlns="http://www.w3.org/2000/svg" xmlns:xlink="http://www.w3.org/1999/xlink">
    <title>filtro-relleno</title>
    <g id="Symbols" stroke="none" stroke-width="1" fill="none" fill-rule="evenodd">
        <g id="buscador-y-filtros" transform="translate(-538, -14)" fill-rule="nonzero">
            <g id="filtro-relleno" transform="translate(539, 15)">
                <path d="M4.93734196,6.14298498 C5.07501281,6.2914438 5.15059681,6.48537648 5.15059681,6.6859965 L5.15059681,12.5975997 C5.15059681,12.9533793 5.5838551,13.1339373 5.84030082,12.8838176 L7.50449854,10.993977 C7.7272014,10.7291586 7.8500254,10.5980735 7.8500254,10.3359434 L7.8500254,6.68733397 C7.8500254,6.48671395 7.92695911,6.29278126 8.06328026,6.14430908 L12.8385559,1.00978743 C13.1962302,0.624596993 12.920902,0 12.3918005,0 L0.608794727,0 C0.0797067242,0 -0.196984706,0.623259526 0.162039296,1.00978743 L4.93734196,6.14298498 Z" id="Path" stroke="#DB3B2B" fill="#DB3B2B"></path>
                <path d="M6.09262145,5.72108729 C6.15686785,5.79036806 6.19214038,5.88086998 6.19214038,5.97449266 L6.05793447,10.953661 C6.05793447,11.1196914 6.26012167,11.2039518 6.37979634,11.0872293 C6.77244277,10.4266852 6.96876598,10.0556373 6.96876598,9.9740857 L6.96876598,6.03504983 C6.96876598,5.94142715 7.00466839,5.85092523 7.06828492,5.78163821 L11.5339253,1.2703733 C11.7008399,1.09061777 11.5723534,0.79913917 11.3254394,0.79913917 L1.81043711,0.79913917 C1.56352938,0.79913917 1.43440671,1.08999362 1.60195124,1.2703733 L6.09262145,5.72108729 Z" id="Path" fill="#FFFFFF"></path>
            </g>
        </g>
    </g>
</svg>