<?xml version="1.0" encoding="UTF-8"?>
<svg width="16px" height="16px" viewBox="0 0 16 16" version="1.1" xmlns="http://www.w3.org/2000/svg" xmlns:xlink="http://www.w3.org/1999/xlink">
    <title>noun-flow-6253455</title>
    <g id="Symbols" stroke="none" stroke-width="1" fill="none" fill-rule="evenodd">
        <g id="Menú/flujo" transform="translate(-2, -2)" fill="#4C4C4C">
            <g id="noun-flow-6253455" transform="translate(2, 2)">
                <path d="M14.4,0 C15.2836533,0 16,0.716344 16,1.6 L16,3.2 C16,4.08365333 15.2836533,4.8 14.4,4.8 L14.1333333,4.8 L14.1333333,9.88632 L14.8176,9.18250667 C15.0229333,8.97130667 15.3605867,8.96656 15.5717867,9.17189333 C15.78296,9.37722667 15.7877333,9.71488 15.5824,9.92605333 L14.0403467,11.51216 C15.00728,11.7150933 15.7333333,12.5727467 15.7333333,13.6 C15.7333333,14.7782133 14.7782133,15.7333333 13.6,15.7333333 C12.6059467,15.7333333 11.7706933,15.0534667 11.5338667,14.1333333 L6.11368,14.1333333 L6.81749333,14.8176 C7.02869333,15.0229333 7.03344,15.3605867 6.82810667,15.5717867 C6.62277333,15.78296 6.28512,15.7877333 6.07394667,15.5824 L4.8,14.34384 L4.8,14.4 C4.8,15.2836533 4.08365333,16 3.2,16 L1.6,16 C0.716344,16 0,15.2836533 0,14.4 L0,12.8 C0,11.9163467 0.716344,11.2 1.6,11.2 L3.2,11.2 C4.08365333,11.2 4.8,11.9163467 4.8,12.8 L4.8,12.85616 L6.07394667,11.6176 C6.28512,11.4122667 6.62277333,11.41704 6.82810667,11.6282133 C7.03344,11.8394133 7.02869333,12.1770667 6.81749333,12.3824 L6.11368,13.0666667 L11.5338667,13.0666667 C11.7347467,12.2862667 12.3660533,11.6786933 13.1596533,11.51216 L11.6176,9.92605333 C11.4122667,9.71488 11.41704,9.37722667 11.6282133,9.17189333 C11.8394133,8.96656 12.1770667,8.97130667 12.3824,9.18250667 L13.0666667,9.88632 L13.0666667,4.8 L12.8,4.8 C11.9163467,4.8 11.2,4.08365333 11.2,3.2 L11.2,2.88458667 L9.65938667,4.3824 C9.44821333,4.58773333 9.11056,4.58296 8.90522667,4.37178667 C8.69989333,4.16058667 8.70464,3.82293333 8.91584,3.6176 L9.61965333,2.93333333 L4.19946667,2.93333333 C3.96264,3.85346667 3.12738667,4.53333333 2.13333333,4.53333333 C0.955125333,4.53333333 0,3.57821333 0,2.4 C0,1.221792 0.955125333,0.266666667 2.13333333,0.266666667 C3.12738667,0.266666667 3.96264,0.946546667 4.19946667,1.86666667 L9.61965333,1.86666667 L8.91584,1.18239733 C8.70464,0.977072 8.69989333,0.639416 8.90522667,0.428224 C9.11056,0.217032 9.44821333,0.212277333 9.65938667,0.417602667 L11.2,1.91541333 L11.2,1.6 C11.2,0.716344 11.9163467,0 12.8,0 L14.4,0 Z M12.5333333,13.6 C12.5333333,14.1890933 13.0109067,14.6666667 13.6,14.6666667 C14.1890933,14.6666667 14.6666667,14.1890933 14.6666667,13.6 C14.6666667,13.0109067 14.1890933,12.5333333 13.6,12.5333333 C13.0109067,12.5333333 12.5333333,13.0109067 12.5333333,13.6 Z M14.9333333,1.6 C14.9333333,1.305448 14.69456,1.06666667 14.4,1.06666667 L12.8,1.06666667 C12.50544,1.06666667 12.2666667,1.305448 12.2666667,1.6 L12.2666667,3.2 C12.2666667,3.49456 12.50544,3.73333333 12.8,3.73333333 L14.4,3.73333333 C14.69456,3.73333333 14.9333333,3.49456 14.9333333,3.2 L14.9333333,1.6 Z M3.2,12.2666667 C3.49456,12.2666667 3.73333333,12.50544 3.73333333,12.8 L3.73333333,14.4 C3.73333333,14.69456 3.49456,14.9333333 3.2,14.9333333 L1.6,14.9333333 C1.305448,14.9333333 1.06666667,14.69456 1.06666667,14.4 L1.06666667,12.8 C1.06666667,12.50544 1.305448,12.2666667 1.6,12.2666667 L3.2,12.2666667 Z M2.13333333,1.33333333 C1.54422933,1.33333333 1.06666667,1.810896 1.06666667,2.4 C1.06666667,2.98909333 1.54422933,3.46666667 2.13333333,3.46666667 C2.72242667,3.46666667 3.2,2.98909333 3.2,2.4 C3.2,1.810896 2.72242667,1.33333333 2.13333333,1.33333333 Z" id="Shape"></path>
            </g>
        </g>
    </g>
</svg>