<?xml version="1.0" encoding="UTF-8"?>
<svg width="20px" height="20px" viewBox="0 0 20 20" version="1.1" xmlns="http://www.w3.org/2000/svg" xmlns:xlink="http://www.w3.org/1999/xlink">
    <title>Icon/Menú/Generar guías</title>
    <g id="Icon/Menú/Generar-guías" stroke="none" stroke-width="1" fill="none" fill-rule="evenodd">
        <path d="M18,8.56444354 C18,5.60889829 15.6040571,3.21295549 12.6485119,3.21295549 C9.69296662,3.21295549 7.29702378,5.60889829 7.29702374,8.56444354 C7.29702374,10.8091407 10.2791093,14.4391521 11.6671346,16.0061026 L10.9053473,15.9654378 C8.21604829,15.8380214 5.16889902,15.6943391 4.61856868,13.9891283 C3.98690874,12.0372178 4.80020481,10.5814178 5.58639101,9.17441559 C6.26142674,7.96260445 6.89850866,6.82127897 6.5,5.51458328 C5.91170943,3.59791555 4.43693256,2.72768875 2.34676167,3.07469508 C2.20148031,3.09794009 2.07963588,3.19692605 2.02712597,3.3343659 C1.97461607,3.47180575 1.99941821,3.6268191 2.09218966,3.74101394 C2.18496111,3.85520877 2.33160769,3.91123616 2.47688904,3.88799115 C4.16312289,3.61689246 5.2556506,4.25126339 5.73007331,5.78568197 C6.02828187,6.75892627 5.49692844,7.71048267 4.8842454,8.81114335 C4.03841749,10.2642323 3.105838,11.9504662 3.84593742,14.2412501 C4.56705993,16.4751033 7.91241776,16.6377625 10.8646825,16.7787338 C11.4882095,16.8085547 12.0737826,16.8356646 12.613269,16.8844623 C12.7354582,16.8920035 12.854978,16.8465662 12.9412985,16.7597569 C13.1473335,16.542878 18,11.4272457 18,8.56444354 Z M12.6485119,4.02625148 C15.1536476,4.02923912 17.1837163,6.05930784 17.1867039,8.56444354 C17.1867039,10.53262 14.1449766,14.257516 12.6485119,15.8841082 C11.1493361,14.257516 8.11031981,10.535331 8.11031981,8.56444354 C8.11330745,6.05930784 10.1433762,4.02923912 12.6485119,4.02625148 Z" id="Shape" fill="#000000" fill-rule="nonzero"></path>
        <path d="M15.4760712,8.56444354 C15.4760712,7.41945946 14.7862038,6.38726911 13.7282714,5.94935636 C12.670339,5.51144361 11.4527768,5.75408682 10.6435388,6.56410067 C9.83430086,7.37411452 9.59282457,8.59190863 10.0317509,9.64942089 C10.4706773,10.7069331 11.5035283,11.3958106 12.6485119,11.3947152 C14.2105682,11.3932176 15.4760712,10.1265006 15.4760712,8.56444354 Z M10.6315376,8.56444354 C10.6315376,7.45049942 11.5345677,6.54746929 12.6485119,6.54746929 C13.762456,6.54746929 14.6654861,7.45049942 14.6654861,8.56444354 C14.6654861,9.67838766 13.762456,10.5814178 12.6485119,10.5814178 C11.5345677,10.5814178 10.6315376,9.67838766 10.6315376,8.56444354 Z" id="Shape" fill="#000000" fill-rule="nonzero"></path>
    </g>
</svg>