<?xml version="1.0" encoding="UTF-8"?>
<svg width="16px" height="16px" viewBox="0 0 16 16" version="1.1" xmlns="http://www.w3.org/2000/svg" xmlns:xlink="http://www.w3.org/1999/xlink">
    <title>Shape</title>
    <g id="Symbols" stroke="none" stroke-width="1" fill="none" fill-rule="evenodd">
        <g id="Icon/Menú/Generar-recolecciones" transform="translate(-2, -2)" fill="#000000" fill-rule="nonzero">
            <path d="M17.5932203,17.1864407 L16.6440678,17.1864407 L16.6440678,2.40677966 C16.6440678,2.18212146 16.4619463,2 16.2372881,2 L6.97898305,2 C6.75432485,2 6.57220339,2.18212146 6.57220339,2.40677966 L6.57220339,5.53627119 L3.41559322,5.53627119 C2.63440162,5.53776344 2.00149225,6.1706728 2,6.95186441 L2,13.0481356 C2.00149225,13.8293272 2.63440162,14.4622366 3.41559322,14.4637288 L6.57220339,14.4637288 L6.57220339,17.1755932 L5.35186441,17.1755932 C5.1272062,17.1755932 4.94508475,17.3577147 4.94508475,17.5823729 C4.94508475,17.8070311 5.1272062,17.9891525 5.35186441,17.9891525 L17.5932203,17.9891525 C17.8178785,17.9891525 18,17.8070311 18,17.5823729 C18,17.3577147 17.8178785,17.1755932 17.5932203,17.1755932 L17.5932203,17.1864407 Z M7.67050847,6.33898305 L7.67050847,9.08067797 L6.74576271,8.22915254 C6.5913488,8.09104054 6.35780375,8.09104054 6.20338983,8.22915254 L5.25423729,9.08067797 L5.25423729,6.34983051 L7.67050847,6.33898305 Z M2.81355932,13.0481356 L2.81355932,6.95186441 C2.81504425,6.61998729 3.0837161,6.35131544 3.41559322,6.34983051 L4.44067797,6.34983051 L4.44067797,10 C4.441533,10.1600193 4.53612724,10.3046711 4.68238094,10.3696077 C4.82863465,10.4345444 4.99937305,10.4077003 5.11864407,10.3010169 L6.47457627,9.08067797 L7.81423729,10.3010169 C7.93445016,10.4002019 8.10054354,10.4225501 8.24269753,10.3586671 C8.38485153,10.2947842 8.47841914,10.1557462 8.4840678,10 L8.4840678,6.34983051 L9.50915254,6.34983051 C9.84164668,6.34983051 10.1111864,6.61937027 10.1111864,6.95186441 L10.1111864,13.0481356 C10.1111864,13.3806297 9.84164668,13.6501695 9.50915254,13.6501695 L3.41559322,13.6501695 C3.0837161,13.6486846 2.81504425,13.3800127 2.81355932,13.0481356 Z M7.38576271,14.4637288 L8.08542373,14.4637288 L8.08542373,17.1755932 L7.38576271,17.1755932 L7.38576271,14.4637288 Z M8.89898305,17.1755932 L8.89898305,14.4637288 L9.50915254,14.4637288 C10.2903441,14.4622366 10.9232535,13.8293272 10.9247458,13.0481356 L10.9247458,6.95186441 C10.9232535,6.1706728 10.2903441,5.53776344 9.50915254,5.53627119 L8.89898305,5.53627119 L8.89898305,4.3240678 L14.3227119,4.3240678 L14.3227119,17.1864407 L8.89898305,17.1755932 Z M15.1362712,17.1755932 L15.1362712,3.91728814 C15.1362712,3.69262993 14.9541497,3.51050847 14.7294915,3.51050847 L8.49220339,3.51050847 C8.26754519,3.51050847 8.08542373,3.69262993 8.08542373,3.91728814 L8.08542373,5.54440678 L7.38576271,5.54440678 L7.38576271,2.81355932 L15.8305085,2.81355932 L15.8305085,17.1864407 L15.1362712,17.1755932 Z" id="Shape"></path>
        </g>
    </g>
</svg>