<?xml version="1.0" encoding="UTF-8"?>
<svg width="20px" height="28px" viewBox="0 0 20 28" version="1.1" xmlns="http://www.w3.org/2000/svg" xmlns:xlink="http://www.w3.org/1999/xlink">
    <title>icons/globo-envio@2x</title>
    <g id="icons/globo-envio" stroke="none" stroke-width="1" fill="none" fill-rule="evenodd">
        <path d="M15.3427749,21.2675966 C17.6786284,17.8093919 20,13.4946225 20,9.99978699 C20,4.48599723 15.5140028,0 10.000213,0 C9.91715474,0 9.83452237,0.000851933978 9.75231603,0.00298160536 L8.11287404,0.179320599 C3.49824297,1.0639975 0,5.13087003 0,9.99978699 C0,16.4421255 8.99712492,26.9236503 9.38004477,27.3666276 C9.53380898,27.5442445 9.75657538,27.6477479 9.99126819,27.6503034 L10.000213,27.6503034 C10.2319242,27.6503034 10.4534129,27.5519113 10.6088809,27.3794058 C10.7652007,27.2056224 12.359919,25.4234905 14.1923118,22.9070386 L15.3427749,21.2675966 Z M10.0117133,25.5644766 C7.99105523,23.0931744 1.63944199,14.9308913 1.63944199,9.99978699 C1.63944199,5.38984138 5.38984138,1.6394421 10.000213,1.6394421 C14.6101586,1.6394421 18.3605579,5.38984138 18.3605579,9.99978699 C18.3605579,15.2763285 12.0434459,23.1643062 10.0117133,25.5644766 Z" id="Shape" stroke="#FFFFFF" stroke-width="0.3" fill="#333333" fill-rule="nonzero"></path>
        <path d="M9.89074642,5.31274632 C7.43690767,5.31274632 5.44052813,7.30912575 5.44052813,9.76296461 C5.44052813,12.2168034 7.43690767,14.2131829 9.89074642,14.2131829 C12.3445853,14.2131829 14.3409647,12.2168034 14.3409647,9.76296461 C14.3409647,7.30912575 12.3445853,5.31274632 9.89074642,5.31274632 Z M9.89074642,12.5737408 C8.34075183,12.5737408 7.07997023,11.3129592 7.07997023,9.76296461 C7.07997023,8.21296991 8.34075183,6.95218831 9.89074642,6.95218831 C11.4407411,6.95218831 12.7015227,8.21296991 12.7015227,9.76296461 C12.7015227,11.3129592 11.4407411,12.5737408 9.89074642,12.5737408 Z" id="Shape" stroke="#FFFFFF" stroke-width="0.3" fill="#333333" fill-rule="nonzero"></path>
    </g>
</svg>