<?xml version="1.0" encoding="UTF-8"?>
<svg width="150px" height="27px" viewBox="0 0 150 27" version="1.1" xmlns="http://www.w3.org/2000/svg" xmlns:xlink="http://www.w3.org/1999/xlink">
    <title>Group@2x</title>
    <g id="Symbols" stroke="none" stroke-width="1" fill="none" fill-rule="evenodd">
        <g id="Toolbars/head-responsive" transform="translate(-15, -39)">
            <g id="Group-12" transform="translate(0, 24)">
                <g id="Group" transform="translate(15, 15)">
                    <path d="M38.357558,19.2127925 L39.2902944,19.7610224 C38.4739708,20.7827888 36.9584534,22.1036158 34.0727913,22.1036158 C30.6043481,22.1036158 27.7479325,19.4619618 27.7479325,16.1225477 C27.7479325,12.7831335 30.6043481,10.1416229 34.0727913,10.1416229 C36.9584534,10.1416229 38.5033608,11.3377218 39.2902944,12.3345426 L38.357558,12.8829159 C37.6870372,12.0853733 36.4337354,11.1384437 34.0727913,11.1384437 C31.1872725,11.1384437 28.9137813,13.3812546 28.9137813,16.1225477 C28.9137813,18.8638407 31.1872725,21.106795 34.0727913,21.106795 C36.4337354,21.106795 37.657934,20.0351374 38.357558,19.2127925" id="Fill-80" fill="#1C1E1E"></path>
                    <path d="M34.0727913,9.78320899 C36.6490647,9.78320899 38.4422423,10.6818697 39.5716114,12.1124587 L39.826357,12.4351489 L39.4719448,12.6435146 L38.5392084,13.1918879 L38.2781199,13.3453867 L38.0832178,13.1135629 C37.2393204,12.1097996 35.9780764,11.4968576 34.0727913,11.4968576 C31.3995648,11.4968576 29.2721952,13.5653833 29.2721952,16.1225477 C29.2721952,18.6797432 31.3995959,20.7483811 34.0727913,20.7483811 C35.9364662,20.7483811 37.1248134,20.1086541 38.0845717,18.9805447 L38.2796424,18.7512567 L38.5391731,18.9037998 L39.4719095,19.4520297 L39.8284758,19.661607 L39.5703142,19.9847397 C38.3389489,21.5260007 36.6186161,22.4620297 34.0727913,22.4620297 C30.3894337,22.4620297 27.3895186,19.6446175 27.3895186,16.1225477 C27.3895186,12.600502 30.3894066,9.78320899 34.0727913,9.78320899 Z M34.0727913,10.5000368 C30.7755867,10.5000368 28.1063464,13.0068078 28.1063464,16.1225477 C28.1063464,19.2383175 30.7756187,21.7452019 34.0727913,21.7452019 C36.1759382,21.7452019 37.6245004,21.0610714 38.6988993,19.8997953 L38.7407741,19.8537799 L38.4298142,19.6709888 L38.3929585,19.7105997 C37.3589018,20.8080324 36.0558849,21.4454034 34.162001,21.464755 L34.0727913,21.4652089 C31.0081267,21.4652089 28.5553674,19.0801994 28.5553674,16.1225477 C28.5553674,13.1649205 31.0081018,10.7800298 34.0727913,10.7800298 C36.0404835,10.7800298 37.4393798,11.3905738 38.4117428,12.4067684 L38.428954,12.4250063 L38.7393405,12.2425019 L38.7226607,12.224488 C37.7328349,11.1727311 36.255069,10.5189047 34.1640902,10.5004386 L34.0727913,10.5000368 Z" id="Stroke-81" fill="#1C1E1E" fill-rule="nonzero"></path>
                    <path d="M42.9045116,16.1225907 C42.9045116,18.8638837 45.2363526,21.106838 48.151118,21.106838 C51.0658833,21.106838 53.3974375,18.8638837 53.3974375,16.1225907 C53.3974375,13.3812976 51.0658833,11.1383433 48.151118,11.1383433 C45.2363526,11.1383433 42.9045116,13.3812976 42.9045116,16.1225907 M41.7386628,16.1225907 C41.7386628,12.7831765 44.6532848,10.1415226 48.151118,10.1415226 C51.6486643,10.1415226 54.5634297,12.7831765 54.5634297,16.1225907 C54.5634297,19.4620048 51.6486643,22.1036588 48.151118,22.1036588 C44.6532848,22.1036588 41.7386628,19.4620048 41.7386628,16.1225907" id="Fill-82" fill="#1C1E1E"></path>
                    <path d="M48.151118,9.78310863 C51.869261,9.78310863 54.9218436,12.6051686 54.9218436,16.1225907 C54.9218436,19.6400127 51.869261,22.4620727 48.151118,22.4620727 C44.4327598,22.4620727 41.3802489,19.640079 41.3802489,16.1225907 C41.3802489,12.6051024 44.4327598,9.78310863 48.151118,9.78310863 Z M48.151118,10.4999365 C44.8166277,10.4999365 42.0970768,13.0141145 42.0970768,16.1225907 C42.0970768,19.2310669 44.8166277,21.7452449 48.151118,21.7452449 C51.4853931,21.7452449 54.2050158,19.2310006 54.2050158,16.1225907 C54.2050158,13.0141807 51.4853931,10.4999365 48.151118,10.4999365 Z M48.151118,10.7799294 C51.2500156,10.7799294 53.7558515,13.1698058 53.7558515,16.1225907 C53.7558515,19.0753756 51.2500156,21.4652519 48.151118,21.4652519 C45.0521717,21.4652519 42.5460977,19.0753294 42.5460977,16.1225907 C42.5460977,13.169852 45.0521717,10.7799294 48.151118,10.7799294 Z M48.151118,11.4967573 C45.4406555,11.4967573 43.2629256,13.5735539 43.2629256,16.1225907 C43.2629256,18.6716274 45.4406555,20.7484241 48.151118,20.7484241 C50.8615202,20.7484241 53.0390236,18.6716864 53.0390236,16.1225907 C53.0390236,13.5734949 50.8615202,11.4967573 48.151118,11.4967573 Z" id="Stroke-83" fill="#1C1E1E" fill-rule="nonzero"></path>
                    <path d="M67.0674878,12.2847661 C67.9127712,13.7551234 66.7469224,10.7645176 71.5853669,10.1415942 C74.2377733,9.79264244 76.4821612,12.1601814 76.4821612,14.8018354 L76.4821612,21.6052484 L76.5112644,22.1285327 L75.3743755,22.1285327 L75.3452723,21.630194 L75.3161691,14.8018354 C75.3161691,12.8080504 73.6839521,11.138415 71.5853669,11.138415 C69.4866384,11.138415 67.8544214,12.8080504 67.8544214,14.8018354 L67.8544214,15.3001741 L67.8544214,21.6052484 L67.8835246,22.1285327 L66.7469224,22.1285327 L66.7178192,21.630194 C66.7178192,19.5118244 66.6884292,17.4185437 66.6884292,15.3001741 L66.6884292,14.8018354 C66.6884292,12.8080504 65.0563556,11.138415 62.957627,11.138415 C60.8590419,11.138415 59.2268249,12.8080504 59.2268249,14.8018354 L59.2268249,15.3001741 L59.2268249,21.6052484 L59.2268249,22.1035871 L58.0609761,22.1035871 L58.0609761,21.6052484 L58.0609761,15.3001741 L58.0609761,14.8018354 L58.0609761,10.6399329 L58.0609761,10.1415942 L59.2268249,10.1415942 L59.2268249,10.6399329 L59.2268249,11.7614818 C60.1303147,10.7645176 61.4712128,10.1415942 62.957627,10.1415942 C64.8230998,10.1415942 66.251451,10.8144088 67.0674878,12.2847661" id="Fill-84" fill="#1C1E1E"></path>
                    <path d="M71.5386166,9.78624236 C74.3446537,9.41707885 76.8405752,11.873365 76.8405752,14.8018354 L76.8405752,21.5956114 L76.8691253,22.1086298 L76.890166,22.4869466 L75.0362824,22.4869466 L75.0165712,22.1494286 L74.987468,21.6510899 L74.9868616,21.6317216 L74.9577552,14.8018354 C74.9577552,12.983179 73.4630541,11.4968289 71.5853669,11.4968289 C69.7075567,11.4968289 68.2128353,12.9831595 68.2128353,14.8018354 L68.2128353,21.5956114 L68.2413855,22.1086298 L68.2624261,22.4869466 L66.4088293,22.4869466 L66.3891181,22.1494286 L66.3600149,21.6510899 L66.3594052,21.630194 C66.3594052,21.6132412 66.3594039,21.5963547 66.3594011,21.5795269 L66.3593002,21.3799325 C66.3592859,21.3634545 66.3592702,21.3470053 66.359253,21.3305772 L66.3591312,21.2322035 C66.3581019,20.5117821 66.3540397,19.8033703 66.344719,18.4676851 C66.3366608,17.312923 66.3325278,16.6263153 66.3308865,15.9954193 L66.3306478,15.896207 C66.3305023,15.8302939 66.3303834,15.7647577 66.3302897,15.6991171 L66.3301678,15.6005179 C66.3301505,15.5840517 66.3301348,15.5675639 66.3301205,15.551047 L66.3300153,14.8018354 C66.3300153,12.9831273 64.8354062,11.4968289 62.957627,11.4968289 C61.0799399,11.4968289 59.5852388,12.983179 59.5852388,14.8018354 L59.5852388,22.462001 L57.7025622,22.462001 L57.7025622,9.78318031 L59.5852388,9.78318031 L59.5852388,10.9378151 L59.6213075,10.9096282 C60.5292741,10.20502 61.6702868,9.800621 62.8787222,9.78373151 L62.957627,9.78318031 C64.9984203,9.78318031 66.5177998,10.5557315 67.3808728,12.1108398 L67.363681,12.0805821 L67.3778381,12.0547177 L67.4099876,11.9972591 C67.5992679,11.6650033 67.8287072,11.3703823 68.1469213,11.0899424 C68.8849676,10.4395073 69.9803917,9.98685395 71.5386166,9.78624236 Z M68.0333416,12.3511129 C68.038775,12.344687 67.7920673,12.8228348 67.7030911,12.911198 C67.5083237,13.1046235 67.2428772,13.0809194 67.0553311,12.8967022 C66.967843,12.810767 66.8846969,12.6859406 66.7567608,12.4633978 L66.7541027,12.4586924 C66.0264299,11.1475518 64.7529033,10.5000082 62.957627,10.5000082 C61.6061352,10.5000082 60.3505223,11.0552662 59.4924061,12.0021624 L58.868411,12.6907156 L58.868411,10.4999767 L58.41939,10.4999767 L58.41939,21.7451417 L58.868411,21.7451417 L58.868411,14.8018354 C58.868411,12.6085386 60.648794,10.8161697 62.8895847,10.7805416 L62.957627,10.7800011 C65.2304073,10.7800011 67.0468431,12.5863367 67.0468431,14.8018354 L67.0469482,15.5504356 C67.0469624,15.5669136 67.0469782,15.5833628 67.0469954,15.5997909 L67.0471172,15.6981646 C67.0471873,15.7472843 67.0472716,15.7963481 67.0473707,15.8455587 L67.0475888,15.9442357 C67.0491376,16.5876888 67.0532678,17.2787802 67.0615294,18.462683 L67.0621574,18.5528833 C67.07001,19.6832913 67.0739751,20.3563987 67.0754863,20.9846481 L67.0757047,21.0835327 C67.0758039,21.1328488 67.0758883,21.1820206 67.0759586,21.231251 L67.0760806,21.3298501 C67.0760978,21.3463164 67.0761136,21.3628042 67.0761278,21.3793211 L67.076229,21.5794 L67.0762331,21.6211305 L67.0849784,21.7700873 L67.504466,21.7700873 L67.4965605,21.6251513 L67.4960075,21.6052484 L67.4960075,14.8018354 C67.4960075,12.5863603 69.3125641,10.7800011 71.5853669,10.7800011 C73.8580509,10.7800011 75.674583,12.5863841 75.6745797,14.8003078 L75.7035428,21.6182632 L75.7124315,21.7700873 L76.1322059,21.7700873 L76.1243004,21.6251513 L76.1237473,21.6052484 L76.1237473,14.8018354 C76.1237473,12.2882059 73.9885654,10.1869307 71.631133,10.4970742 C70.20657,10.6804789 69.244716,11.0779381 68.6208696,11.6277297 C68.3663983,11.8519934 68.1851213,12.0847696 68.0328364,12.3520851 L68.0333416,12.3511129 Z" id="Stroke-85" fill="#1C1E1E" fill-rule="nonzero"></path>
                    <path d="M81.1746453,15.6241659 L91.638468,15.6241659 C91.638468,13.3812116 89.3069137,11.1384007 86.3921484,11.1384007 C83.6230425,11.1384007 81.4370043,13.1070967 81.1746453,15.6241659 M90.9973372,19.1131104 L91.9300735,19.7112315 C91.0556869,20.7579435 89.4233266,22.1285184 86.3921484,22.1035728 C82.8652121,22.1035728 79.9796933,19.4620622 79.9796933,16.122648 C79.9796933,12.7832338 82.8652121,10.1415799 86.3921484,10.1415799 C89.8896948,10.1415799 92.8044601,12.7832338 92.8044601,16.122648 L92.8044601,16.6209867 L92.2215357,16.6209867 L81.1746453,16.6209867 C81.4370043,19.138056 83.6230425,21.106752 86.3921484,21.106752 C88.898752,21.1316976 90.2395068,20.0102921 90.9973372,19.1131104" id="Fill-86" fill="#1C1E1E"></path>
                    <path d="M86.3921484,9.78316598 C90.1102915,9.78316598 93.1628741,12.605226 93.1628741,16.122648 L93.1628741,16.9794006 L81.5902621,16.9792573 L81.5948519,17.0033954 C82.0224571,19.1366842 83.9518454,20.7144724 86.3191983,20.7478171 L86.3957151,20.7483558 C88.395454,20.7682571 89.7132684,20.0778614 90.7235298,18.8818311 L90.926296,18.6417799 L91.1908099,18.8114005 L92.1235463,19.4095217 L92.4657931,19.6289889 L92.2051397,19.9410122 C90.8834872,21.523138 89.0527527,22.4838947 86.3921484,22.4619867 C82.6545253,22.4619867 79.6212794,19.6491193 79.6212794,16.122648 C79.6212794,12.5961524 82.6545528,9.78316598 86.3921484,9.78316598 Z M86.3921484,10.4999938 C83.0388764,10.4999938 80.3381072,13.0046235 80.3381072,16.122648 C80.3381072,19.2406424 83.038844,21.7451588 86.3950979,21.745171 C88.647135,21.7637045 90.2138853,21.0315138 91.3792937,19.792657 L91.3844242,19.7870719 L91.0622818,19.5804821 L91.0347942,19.6103146 C89.9392073,20.7805414 88.5089925,21.4657806 86.4819642,21.4656184 L86.3921484,21.4651659 C83.4780456,21.4651659 81.1034257,19.394955 80.8181626,16.6581436 L80.7769315,16.2625728 L92.4460462,16.2624294 L92.4460462,16.122648 C92.4460462,13.0453222 89.7805441,10.5503381 86.4919901,10.5007462 L86.3921484,10.4999938 Z M86.3921484,10.7799868 C89.398823,10.7799868 91.9968819,13.0868657 91.9968819,15.6241659 L91.9968819,15.9825799 L80.7769315,15.9825799 L80.8181626,15.5870091 C81.1034257,12.8501977 83.4780456,10.7799868 86.3921484,10.7799868 Z M86.3921484,11.4968146 C83.9932972,11.4968146 82.0270422,13.0855299 81.5948511,15.2417572 L81.5902621,15.2656086 L91.2585492,15.2656086 L91.2560608,15.2440047 C91.0102406,13.2904765 88.9083606,11.5345535 86.470891,11.4974146 L86.3921484,11.4968146 Z" id="Stroke-87" fill="#1C1E1E" fill-rule="nonzero"></path>
                    <path d="M97.4677836,12.4093651 C98.6337758,10.9140622 100.615805,10.1416086 102.947646,10.1416086 L103.53057,10.1416086 L103.53057,11.1384294 L102.947646,11.1384294 C99.7705214,11.1384294 97.4970302,12.8829016 97.4677836,15.9979486 L97.4677836,16.1225333 L97.4677836,16.6210154 L97.4677836,21.6052627 L97.4677836,22.1036014 L96.3019348,22.1036014 L96.3019348,21.6052627 L96.3019348,16.6210154 L96.3019348,16.1225333 L96.3019348,15.9979486 L96.3019348,10.6399473 L96.3019348,10.1416086 L97.4677836,10.1416086 L97.4677836,10.6399473 L97.4677836,12.4093651 Z" id="Fill-88" fill="#1C1E1E"></path>
                    <path d="M97.8261976,9.78319465 L97.8260542,11.5008575 L97.8273587,11.4998526 C99.0521673,10.3950561 100.810771,9.8005692 102.857177,9.78356975 L102.947646,9.78319465 L103.888984,9.78319465 L103.888984,11.4968433 L102.947646,11.4968433 C99.8434934,11.4968433 97.8525518,13.1926465 97.8261976,15.9979486 L97.8261976,22.4620154 L95.9435209,22.4620154 L95.9435209,9.78319465 L97.8261976,9.78319465 Z M97.1092263,10.5000225 L96.6603488,10.5000225 L96.6603488,21.7451875 L97.1092263,21.7451875 L97.1093697,16.1225333 L97.1093855,15.9945837 C97.1396915,12.7666997 99.4721392,10.7800154 102.947646,10.7800154 L103.172013,10.7798721 L103.172013,10.5000225 L102.947646,10.5000225 C100.705608,10.5000225 98.871141,11.2354228 97.7931411,12.5758223 L97.7504254,12.6297606 L97.1093697,13.4518694 L97.1092263,10.5000225 Z" id="Stroke-89" fill="#1C1E1E" fill-rule="nonzero"></path>
                    <path d="M115.597507,19.2127925 L116.530243,19.7610224 C115.714063,20.7827888 114.198402,22.1036158 111.31274,22.1036158 C107.844297,22.1036158 104.987738,19.4619618 104.987738,16.1225477 C104.987738,12.7831335 107.844297,10.1416229 111.31274,10.1416229 C114.198402,10.1416229 115.743309,11.3377218 116.530243,12.3345426 L115.597507,12.8829159 C114.926986,12.0853733 113.673684,11.1384437 111.31274,11.1384437 C108.427221,11.1384437 106.15373,13.3812546 106.15373,16.1225477 C106.15373,18.8638407 108.427221,21.106795 111.31274,21.106795 C113.673684,21.106795 114.897883,20.0351374 115.597507,19.2127925" id="Fill-90" fill="#1C1E1E"></path>
                    <path d="M111.31274,9.78320899 C113.889013,9.78320899 115.682191,10.6818697 116.81156,12.1124587 L117.066306,12.4351489 L116.711893,12.6435146 L115.779157,13.1918879 L115.518068,13.3453867 L115.323166,13.1135629 C114.479269,12.1097996 113.218025,11.4968576 111.31274,11.4968576 C108.639513,11.4968576 106.512144,13.5653833 106.512144,16.1225477 C106.512144,18.6797432 108.639544,20.7483811 111.31274,20.7483811 C113.176415,20.7483811 114.364762,20.1086541 115.32452,18.9805447 L115.519591,18.7512567 L115.779122,18.9037998 L116.711858,19.4520297 L117.068394,19.6615888 L116.810282,19.9847157 C115.579215,21.5258746 113.858613,22.4620297 111.31274,22.4620297 C107.629357,22.4620297 104.629324,19.6445948 104.629324,16.1225477 C104.629324,12.6005248 107.629324,9.78320899 111.31274,9.78320899 Z M111.31274,10.5000368 C108.015505,10.5000368 105.346152,13.0068359 105.346152,16.1225477 C105.346152,19.2382894 108.015537,21.7452019 111.31274,21.7452019 C113.415926,21.7452019 114.864691,21.0609775 115.938899,19.8997877 L115.980723,19.8537799 L115.669763,19.6709888 L115.632907,19.7105997 C114.59885,20.8080324 113.295833,21.4454034 111.40195,21.464755 L111.31274,21.4652089 C108.248075,21.4652089 105.795316,19.0801994 105.795316,16.1225477 C105.795316,13.1649205 108.24805,10.7800298 111.31274,10.7800298 C113.280432,10.7800298 114.679328,11.3905738 115.651691,12.4067684 L115.668903,12.4250063 L115.979289,12.2425019 L115.962609,12.224488 C114.972784,11.1727311 113.495018,10.5189047 111.404039,10.5004386 L111.31274,10.5000368 Z" id="Stroke-91" fill="#1C1E1E" fill-rule="nonzero"></path>
                    <path d="M120.14446,10.639976 L120.14446,10.1414939 L121.36402,10.1414939 L121.36402,10.639976 L121.36402,21.605148 L121.36402,22.1036301 L120.14446,22.1036301 L120.14446,21.605148 L120.14446,10.639976 Z M120.754165,8.12290669 L120.14446,8.12290669 L120.14446,7.12608589 L120.754165,7.12608589 L120.784755,7.12608589 L121.39446,7.12608589 L121.39446,8.12290669 L120.784755,8.12290669 L120.754165,8.12290669 Z" id="Fill-92" fill="#1C1E1E"></path>
                    <path d="M121.668866,9.78307996 L121.668866,22.462044 L119.786046,22.462044 L119.786046,9.78307996 L121.668866,9.78307996 Z M120.952038,10.4997644 L120.502874,10.4997644 L120.502874,21.7452162 L120.952038,21.7452162 L120.952038,10.4997644 Z M121.69797,6.76767198 L121.69797,8.4813206 L119.786046,8.4813206 L119.786046,6.76767198 L120.14446,6.76767198 L121.69797,6.76767198 Z M120.981142,7.48449981 L120.502874,7.48449981 L120.502874,7.7643494 L120.981142,7.7643494 L120.981142,7.48449981 Z" id="Stroke-93" fill="#1C1E1E" fill-rule="nonzero"></path>
                    <path d="M149.145881,13.3563664 L147.980032,13.3563664 C147.980032,12.060485 146.172909,11.1383577 144.219983,11.1383577 C142.267201,11.1383577 140.459935,12.060485 140.459935,13.3563664 C140.459935,15.7985988 149.670456,15.3998992 149.641421,18.8888436 C149.641421,20.558479 147.397108,22.1036731 144.219983,22.1036731 C141.042859,22.1036731 138.798471,20.558479 138.798471,18.8888436 L139.964463,18.8888436 C139.964463,20.2096706 142.033945,21.1068523 144.219983,21.1068523 C146.406022,21.1068523 148.475504,20.2096706 148.475504,18.8888436 C148.475504,16.4216656 139.323189,16.8702564 139.294086,13.3563664 C139.294086,11.6617854 141.392671,10.1415369 144.219983,10.1415369 C147.047296,10.1415369 149.145881,11.6617854 149.145881,13.3563664" id="Fill-94" fill="#1C1E1E"></path>
                    <path d="M144.219983,9.78312297 C147.143855,9.78312297 149.504295,11.3742534 149.504295,13.3563664 L149.504295,13.7147803 L147.621618,13.7147803 L147.621618,13.3563664 C147.621618,12.3621427 146.087395,11.4967716 144.219983,11.4967716 C142.352664,11.4967716 140.818349,12.3621727 140.818349,13.3563664 C140.818349,13.9778854 141.733942,14.4384639 144.092705,15.0915178 C144.147745,15.1067561 144.380591,15.1706456 144.61934,15.2362733 L144.703569,15.2594317 C144.885384,15.3094337 145.058824,15.3572247 145.147016,15.3818259 C146.679808,15.8094013 147.616416,16.1393275 148.392656,16.5823276 C149.437819,17.1788031 150.007847,17.9275756 149.999918,18.8888436 C149.999918,20.877413 147.447806,22.462087 144.219983,22.462087 C140.992148,22.462087 138.440057,20.8774054 138.440057,18.8888436 L138.440057,18.5304297 L140.322877,18.5304297 L140.322877,18.8888436 C140.322877,19.8816105 142.082862,20.7484384 144.219983,20.7484384 C146.357105,20.7484384 148.11709,19.8816105 148.11709,18.8888436 C148.11709,18.2550236 147.204908,17.7957156 144.83858,17.1447577 C144.789389,17.1312257 144.547003,17.0651328 144.301124,16.9979404 L144.219295,16.9755728 C144.042846,16.9273274 143.87557,16.881491 143.788928,16.8574499 C142.268058,16.4354403 141.334425,16.1072878 140.559304,15.6652988 C139.517742,15.071379 138.943674,14.3239942 138.935672,13.3563664 C138.935672,11.3742534 141.296112,9.78312297 144.219983,9.78312297 Z M144.219983,10.4999508 C141.645932,10.4999508 139.6525,11.8436875 139.652487,13.353398 C139.662767,14.5945518 140.940563,15.3231763 143.980591,16.1667202 C144.198561,16.2272021 144.937017,16.4283805 145.028711,16.4536047 C146.282834,16.7986039 146.988857,17.0311529 147.577207,17.3274028 C148.38672,17.7350147 148.833917,18.2316559 148.833917,18.8888436 C148.833917,20.415651 146.702806,21.4652662 144.219983,21.4652662 C141.960615,21.4652662 139.992498,20.5960799 139.656538,19.2890686 L139.646478,19.2472575 L139.198174,19.2472575 L139.2088,19.2899812 C139.551305,20.6092449 141.552413,21.7205883 144.133726,21.7448542 L144.219983,21.7452592 C147.102274,21.7452592 149.283081,20.3911399 149.283081,18.8858611 C149.293258,17.655504 148.015171,16.9260986 144.954409,16.0722929 C144.860269,16.0460323 144.667073,15.992824 144.470714,15.9388369 L144.386646,15.9157281 C144.163438,15.8543846 143.953989,15.7969066 143.901438,15.782357 C142.651675,15.4363442 141.944373,15.2023563 141.356742,14.9067556 C140.548274,14.500065 140.101521,14.0074276 140.101521,13.3563664 C140.101521,11.8560235 142.00936,10.7799438 144.219983,10.7799438 C146.231735,10.7799438 147.992598,11.671025 148.293258,12.9620531 L148.301028,12.9978091 L148.750049,12.9978091 C148.467901,11.6520708 146.628721,10.5247019 144.297029,10.5003528 L144.219983,10.4999508 Z" id="Stroke-95" fill="#1C1E1E" fill-rule="nonzero"></path>
                    <path d="M16.893324,9.81261327 L19.8551132,9.81261327 C19.943283,9.81261327 20.0284422,9.83669868 20.1029923,9.87956499 C20.1021321,9.89246789 20.1011285,9.90522742 20.1011285,9.91841705 L20.1011285,15.593113 L20.1011285,17.9724079 L20.1011285,21.0321159 L20.1011285,21.437697 L20.1011285,21.7639971 L20.1011285,23.3563584 C20.1011285,23.6872462 20.422124,23.9232259 20.7379584,23.8243037 L21.2000256,23.6796478 C22.4225038,23.1966492 23.8809617,22.6758021 25.6122443,22.1328767 C25.6429245,22.0683622 25.6607019,21.9971095 25.6607019,21.922416 L25.6607019,21.437697 L25.6607019,21.0321159 L25.6607019,9.91841705 C25.6607019,9.89590866 25.6592682,9.873687 25.656831,9.85175207 L25.656831,9.81261327 L25.6607019,9.81261327 L25.6607019,1.57124361 C25.6607019,1.29598172 25.4376251,1.0729049 25.1625065,1.0729049 L22.6127499,1.0729049 C22.3988485,1.0729049 22.2093192,1.20967565 22.1410772,1.41239456 C21.359018,3.73964782 19.8181249,5.49286535 17.4500125,5.91679733 C17.2564689,5.9514918 17.0571908,5.9772976 16.8524648,5.99378464 C16.59412,6.01457265 16.3949852,6.23062456 16.3949852,6.48982951 L16.3949852,9.31427455 C16.3949852,9.58953644 16.6182054,9.81261327 16.893324,9.81261327" id="Fill-127" fill="#CC4236"></path>
                    <path d="M20.7515924,0.18436812 C20.6401974,0.0705358593 20.4873697,0 20.3183417,0 L8.11922219,0 L7.66059574,0 L1.09387928,0 C0.489736779,0 0,0.443859797 0,0.991086169 L0,4.5608888 C0,4.75529251 0.173902434,4.91285127 0.388233957,4.91285127 L7.73700959,4.91285127 L7.73700959,7.66145593 C7.73700959,7.67220835 7.73500247,7.68138375 7.73414228,7.6915627 L7.73414228,23.8725175 C7.73414228,24.0210442 7.8314875,24.1515069 7.97341941,24.1955201 C9.79573914,24.7603805 11.4418626,25.4419404 12.7457724,26.0472298 C12.9699962,26.1514566 13.2260471,25.9877331 13.2260471,25.7404275 L13.2260471,5.68602178 C13.2260471,5.64559269 13.2183053,5.60588042 13.2098468,5.56645489 C13.1623928,5.34753567 13.2478386,5.09291842 13.4669012,5.00560879 C13.5170792,4.98568098 13.574282,4.97449847 13.6383664,4.97449847 L15.7419694,4.97449847 C15.7497112,4.97363827 15.7551591,4.97306481 15.7551591,4.97306481 C20.3333951,4.52648107 20.8029173,0.990369341 20.8414827,0.590236042 C20.8426296,0.568014379 20.8436331,0.546366178 20.8446367,0.524287881 L20.8446367,0.426512564 C20.8446367,0.336478987 20.8135264,0.247592335 20.7515924,0.18436812" id="Fill-129" fill="#CC4236"></path>
                    <path d="M128.472408,14.7841441 C128.391263,14.804502 128.311265,14.82529 128.233705,14.8469382 C127.856223,16.1011002 127.573363,17.7367579 127.536231,19.8522602 C127.536231,19.8522602 127.701962,17.0716851 128.472408,14.7841441" id="Fill-131" fill="#1C1E1E"></path>
                    <path d="M126.026506,19.8202754 C126.068799,19.8295941 126.111952,19.8430705 126.155248,19.8588407 C126.120123,19.8148275 126.084712,19.7713877 126.050448,19.7256541 C126.050448,19.7256541 128.425012,20.8225441 130.167907,20.442912 C130.167907,20.442912 127.118951,20.3968917 125.642429,18.960082 C125.665798,19.0157078 125.689167,19.0713337 125.711962,19.1271029 C125.800418,19.3438716 125.896186,19.5970552 126.026506,19.8202754" id="Fill-133" fill="#1C1E1E"></path>
                    <path d="M131.291692,11.8357595 C131.291692,11.8357595 133.726613,11.79361 133.850481,18.9238965 C133.850481,18.9238965 134.015495,12.7323677 131.952034,11.5246562 C131.952034,11.5246562 131.975689,11.5272368 132.018842,11.5349785 C131.601362,11.2531218 130.94274,11.1871737 130.349064,11.1933384 C129.972442,11.4988504 129.001857,12.4536651 128.305101,14.6179117 C128.387393,14.5979839 128.469254,14.5789163 128.550256,14.561569 C129.114543,12.9938665 129.978894,11.7167661 131.291692,11.8357595" id="Fill-135" fill="#1C1E1E"></path>
                    <path d="M128.23369,14.8469382 C128.257059,14.7690907 128.280858,14.6928202 128.305086,14.61784 C127.247335,14.8740343 126.094389,15.3412627 125.003807,16.1623173 C124.961945,16.4967891 124.967966,16.8423002 125.03033,17.1984202 C125.292116,16.5922706 126.058978,15.4536613 128.23369,14.8469382" id="Fill-137" fill="#1C1E1E"></path>
                    <path d="M132.24093,14.451622 C132.24093,14.451622 130.605702,14.1191572 128.55027,14.5615834 C128.523748,14.6352733 128.497655,14.7092499 128.472423,14.7840867 C129.443438,14.5420856 130.675808,14.4034511 132.24093,14.451622" id="Fill-139" fill="#1C1E1E"></path>
                    <path d="M134.156337,14.5579562 C134.156337,14.9322837 133.859427,15.235932 133.493271,15.235932 C133.126972,15.235932 132.830062,14.9322837 132.830062,14.5579562 C132.830062,14.1834853 133.126972,13.8799804 133.493271,13.8799804 C133.859427,13.8799804 134.156337,14.1834853 134.156337,14.5579562" id="Fill-141" fill="#1C1E1E"></path>
                    <path d="M129.686944,12.8677478 C129.686944,13.2308928 129.398923,13.5252223 129.04395,13.5252223 C128.68869,13.5252223 128.400668,13.2308928 128.400668,12.8677478 C128.400668,12.5046029 128.68869,12.2102734 129.04395,12.2102734 C129.398923,12.2102734 129.686944,12.5046029 129.686944,12.8677478" id="Fill-143" fill="#1C1E1E"></path>
                    <path d="M128.400726,17.5803318 C128.400726,17.9717198 128.090339,18.2889878 127.707553,18.2889878 C127.324624,18.2889878 127.014237,17.9717198 127.014237,17.5803318 C127.014237,17.1889438 127.324624,16.8715324 127.707553,16.8715324 C128.090339,16.8715324 128.400726,17.1889438 128.400726,17.5803318" id="Fill-145" fill="#1C1E1E"></path>
                    <path d="M131.73733,20.4428834 C131.73733,20.8107594 131.445581,21.1091032 131.085733,21.1091032 C130.725742,21.1091032 130.433993,20.8107594 130.433993,20.4428834 C130.433993,20.0750073 130.725742,19.7766636 131.085733,19.7766636 C131.445581,19.7766636 131.73733,20.0750073 131.73733,20.4428834" id="Fill-147" fill="#1C1E1E"></path>
                    <path d="M134.224665,20.1057449 C134.224665,20.385021 134.003165,20.6113953 133.730054,20.6113953 C133.456942,20.6113953 133.235443,20.385021 133.235443,20.1057449 C133.235443,19.8264688 133.456942,19.5999512 133.730054,19.5999512 C134.003165,19.5999512 134.224665,19.8264688 134.224665,20.1057449" id="Fill-149" fill="#1C1E1E"></path>
                    <path d="M132.075859,21.1090888 C132.075859,21.1090888 125.679174,16.8172972 126.628254,14.0312741 C126.628254,14.0312741 127.165301,12.3034323 131.085776,13.5251937 C131.085776,13.5251937 133.974162,14.4714064 135.047254,15.3475134 C135.047254,15.3475134 128.485412,11.0376577 126.256794,13.5251937 C126.256794,13.5251937 123.904452,15.6574698 132.075859,21.1090888" id="Fill-151" fill="#1C1E1E"></path>
                    <path d="M124.960081,16.3253956 C124.960081,19.1299128 127.345684,21.424192 130.327401,21.424192 C133.309262,21.424192 135.694865,19.1299128 135.694865,16.3253956 C135.694865,13.5210217 133.309262,11.2267426 130.327401,11.2267426 C127.345684,11.2267426 124.960081,13.5210217 124.960081,16.3253956 M123.767279,16.3253956 C123.767279,12.9092809 126.74914,10.2068399 130.327401,10.2068399 C133.905662,10.2068399 136.887523,12.9092809 136.887523,16.3253956 C136.887523,19.7416537 133.905662,22.4440947 130.327401,22.4440947 C126.74914,22.4440947 123.767279,19.7416537 123.767279,16.3253956" id="Fill-153" fill="#1C1E1E"></path>
                </g>
            </g>
        </g>
    </g>
</svg>