<?xml version="1.0" encoding="UTF-8"?>
<svg width="15px" height="15px" viewBox="0 0 15 15" version="1.1" xmlns="http://www.w3.org/2000/svg" xmlns:xlink="http://www.w3.org/1999/xlink">
    <title>help</title>
    <g id="Symbols" stroke="none" stroke-width="1" fill="none" fill-rule="evenodd">
        <g id="icons/help" transform="translate(-3, -3)" fill="#4C4C4C" fill-rule="nonzero">
            <g id="help" transform="translate(3, 3)">
                <path d="M6.75129698,14.9669263 C6.33551118,14.9262856 5.67900727,14.7856062 5.25071663,14.6511792 C1.29918838,13.3881907 -0.892284177,9.19594436 0.345694612,5.26629957 C0.864645317,3.61878739 1.91192535,2.21824573 3.3437291,1.26162576 C6.31675392,-0.723516997 10.2682822,-0.332740864 12.8005115,2.19948848 C15.3327409,4.73171782 15.723517,8.67699366 13.7383742,11.6562709 C12.3347064,13.7602096 9.95878748,15.0231981 7.44218919,14.9981884 C7.20772351,14.9950622 6.89822881,14.9825573 6.75129698,14.9669263 Z M8.22686766,13.9540346 C9.94003023,13.7539572 11.4406106,12.9317642 12.5629196,11.5749895 C13.0068413,11.0372815 13.4413844,10.236972 13.6727239,9.53044873 C14.1103931,8.18305263 14.1103931,6.81377306 13.6727239,5.46637695 C12.8755405,3.02793388 10.6809418,1.28038301 8.09869309,1.02716008 C6.67001555,0.88960688 5.16005657,1.26475197 3.95333987,2.05880907 C2.31520632,3.14047741 1.2741787,4.8286303 1.04596544,6.77313234 C0.730218327,9.47730318 2.17765312,12.1189498 4.64110587,13.3287927 C5.76028871,13.8790055 7.01077234,14.0978402 8.22686766,13.9540346 Z" id="Shape" transform="translate(7.5, 7.4993) scale(-1, 1) rotate(-180) translate(-7.5, -7.4993)"></path>
                <path d="M7.22022834,10.4961457 C6.95762678,10.4617575 6.64187967,10.3867284 6.41679261,10.2991946 C5.31949323,9.87403015 4.53168855,8.77360456 4.51918371,7.64816929 C4.5160575,7.3730629 4.52543613,7.31991734 4.58170789,7.24176211 C4.80679495,6.93851984 5.19131866,6.93539363 5.41640571,7.23863591 C5.46017264,7.29490767 5.48518231,7.40119878 5.50081336,7.5825189 C5.53520166,7.92952811 5.58209479,8.11084823 5.70714316,8.3734498 C5.95098746,8.88927429 6.4449285,9.29255526 7.01077234,9.4426133 C7.29525736,9.51764231 7.77044114,9.50826369 8.04867375,9.42072983 C8.89900261,9.15500206 9.50236096,8.35781875 9.50236096,7.49811126 C9.50236096,6.98853918 9.28665253,6.48521952 8.91150745,6.10694822 C8.69267281,5.88498738 8.63640105,5.84747287 8.17997453,5.62551203 C7.74855768,5.41605602 7.65789761,5.35665805 7.48908232,5.18784276 C7.12018965,4.81269767 6.99201508,4.43442638 7.00764613,3.76229143 C7.01702475,3.38089392 7.02640338,3.31836974 7.08267514,3.24021451 C7.31088841,2.93384602 7.69228591,2.93384602 7.92049917,3.24021451 C7.97677094,3.31836974 7.98927577,3.38714634 8.00178061,3.77167005 C8.02053786,4.26873729 8.04554754,4.35001873 8.24249871,4.5125816 C8.3081491,4.56572716 8.50197406,4.67201826 8.67391556,4.74704728 C9.06469169,4.92211499 9.33354567,5.10656132 9.60239965,5.37854151 C9.86812742,5.6505217 9.93377781,5.73180314 10.0900883,5.99127849 C10.4370975,6.56962717 10.5746507,7.31991734 10.4558547,7.99205229 C10.3433112,8.63292515 10.0744572,9.13937102 9.5836424,9.62393342 C9.15222554,10.0522241 8.6895466,10.3085732 8.14246002,10.4336216 C7.90799434,10.4836409 7.40467468,10.5180292 7.22022834,10.4961457 Z" id="Path" transform="translate(7.5082, 6.7567) scale(-1, 1) rotate(-180) translate(-7.5082, -6.7567)"></path>
                <path d="M7.28900494,11.9324289 C7.23273318,11.9042931 7.14832553,11.8323902 7.1014324,11.7729923 C6.99201508,11.6291867 6.98263645,11.3509541 7.08267514,11.2165271 C7.2045973,11.0539642 7.30463599,11.0008186 7.49846095,11.0008186 C7.64851898,11.0008186 7.69853833,11.0164497 7.79545081,11.0914787 C8.26438217,11.4478665 7.81733427,12.1919043 7.28900494,11.9324289 Z" id="Path" transform="translate(7.5029, 11.4935) scale(-1, 1) rotate(-180) translate(-7.5029, -11.4935)"></path>
            </g>
        </g>
    </g>
</svg>