<?xml version="1.0" encoding="UTF-8"?>
<svg width="16px" height="16px" viewBox="0 0 16 16" version="1.1" xmlns="http://www.w3.org/2000/svg" xmlns:xlink="http://www.w3.org/1999/xlink">
    <title>Group</title>
    <g id="Symbols" stroke="none" stroke-width="1" fill="none" fill-rule="evenodd">
        <g id="Icon/Menú/Historial-de-guías" transform="translate(-2, -2)" fill="#000000" fill-rule="nonzero">
            <g id="Group" transform="translate(2, 2)">
                <path d="M3.7299403,3.13339764 C3.65380001,3.0563222 3.54996876,3.01294218 3.44162686,3.01294218 C3.33328496,3.01294218 3.2294537,3.0563222 3.15331342,3.13339764 C1.80896916,4.47895549 1.80896916,6.65924889 3.15331342,8.00480674 C3.23024817,8.08059868 3.33363412,8.1235136 3.44162686,8.12448402 C3.60417931,8.12223116 3.74988193,8.02369033 3.81249198,7.87366248 C3.87510203,7.72363462 3.84266976,7.55075403 3.7299403,7.43361974 C2.70377804,6.40664015 2.70377804,4.74244398 3.7299403,3.71546439 C3.80871173,3.63912835 3.85317565,3.53412208 3.85317565,3.42443101 C3.85317565,3.31473994 3.80871173,3.20973368 3.7299403,3.13339764 L3.7299403,3.13339764 Z" id="Path"></path>
                <path d="M15.4555934,13.1454897 L12.6839765,10.3820326 C12.1587525,9.86155931 11.3528246,9.75070264 10.7065815,10.1100388 L9.83348135,9.23693869 C11.7945514,6.95489437 11.5983959,3.53023124 9.38958708,1.48702644 C7.18077827,-0.556178364 3.75123276,-0.485381705 1.62862615,1.6472372 C-0.493980459,3.77985611 -0.548637386,7.2096968 1.50493913,9.40886613 C3.55851564,11.6080355 6.98406394,11.7880729 9.25685447,9.8162855 L10.1027552,10.6621862 C9.67797454,11.3227312 9.77081494,12.1899964 10.3257901,12.7456588 L13.0946871,15.5118358 C13.7481355,16.1637821 14.806367,16.1625643 15.4583133,15.5091159 C16.1102596,14.8556675 16.1090418,13.797436 15.4555934,13.1454897 Z M2.19589522,8.96222495 C0.325436804,7.08588814 0.32861321,4.04899815 2.2029926,2.17657822 C4.07737199,0.304158295 7.11426365,0.304158295 8.98864304,2.17657822 C10.8630224,4.04899815 10.8661988,7.08588814 8.99574042,8.96222495 C7.11787005,10.8396003 4.07376558,10.8396003 2.19589522,8.96222495 Z M14.8762465,14.9460887 C14.5400867,15.2704429 14.0074738,15.2704429 13.671314,14.9460887 L10.902417,12.166312 C10.6483604,11.9602959 10.5342817,11.6272743 10.6086544,11.3087526 C10.6830271,10.9902308 10.9327863,10.742163 11.251806,10.6699564 C11.5708258,10.5977497 11.9030645,10.7140886 12.1073496,10.9695392 L14.8762465,13.7302764 C15.0368677,13.8896148 15.1272123,14.1064953 15.1272123,14.3327427 C15.1272123,14.55899 15.0368677,14.7758706 14.8762465,14.935209 L14.8762465,14.9460887 Z" id="Shape"></path>
            </g>
        </g>
    </g>
</svg>