<?xml version="1.0" encoding="UTF-8"?>
<svg width="17px" height="16px" viewBox="0 0 17 16" version="1.1" xmlns="http://www.w3.org/2000/svg" xmlns:xlink="http://www.w3.org/1999/xlink">
    <title>Home@2x</title>
    <g id="Symbols" stroke="none" stroke-width="1" fill="none" fill-rule="evenodd">
        <g id="Menú/Home-" transform="translate(-2, -2)" fill="#4D4D4D" fill-rule="nonzero" stroke="#4C4C4C" stroke-width="0.3">
            <g id="Home" transform="translate(3, 3)">
                <path d="M12.6221137,7.60258414 L12.6221137,13.1601375 C12.6221137,13.4013478 12.4237269,13.5976058 12.1798069,13.5976058 L11.8390169,13.5976058 C11.7176131,13.5976058 11.6192908,13.6948644 11.6192908,13.8149113 C11.6192908,13.9350104 11.7176131,14.0322666 11.8390169,14.0322666 L12.1798069,14.0322666 C12.6660492,14.0322666 13.0616622,13.6410576 13.0616622,13.1601375 L13.0616622,8.05505185 L13.5089536,8.51555231 C13.7109699,8.72347233 14.0462441,8.72700445 14.2526644,8.52290759 L14.8485995,7.93350334 C15.047568,7.7367617 15.0508584,7.41334167 14.8559074,7.21263224 L8.09254625,0.249763476 C7.76922338,-0.0831095564 7.23106097,-0.0833993961 6.90744876,0.249763476 L0.144085981,7.21263224 C-0.0508546568,7.41334167 -0.0475730426,7.7367135 0.151411316,7.93350334 L0.747369544,8.52290759 C0.953590685,8.72681076 1.28882148,8.72371421 1.49108949,8.51555231 L1.93834145,8.05510084 L1.93834145,9.11085965 C1.93834145,9.23090848 2.03673654,9.3281666 2.15810124,9.3281666 C2.27946563,9.3281666 2.37786096,9.23090848 2.37786096,9.11085965 L2.37786096,7.60263235 L7.33291611,2.50134152 C7.42402925,2.40753816 7.57557757,2.40727699 7.66707807,2.50134152 C11.616146,6.56690536 10.8343544,5.76203442 12.6221137,7.60258414 Z M14.5377612,7.62610059 L13.9418254,8.21555303 C13.9028739,8.24724619 13.8642108,8.24685882 13.8258907,8.21439101 L7.98406227,2.20025727 C7.98401407,2.20022843 7.98401407,2.20022843 7.98401407,2.20019943 C7.98367491,2.1998801 7.98338403,2.19961877 7.98309465,2.19930411 C7.71870728,1.92812333 7.28012639,1.92823957 7.01598094,2.20022843 L1.99960912,7.36451971 C1.99949303,7.3646644 1.99940587,7.3648098 1.99928979,7.36490629 L1.1741393,8.21439101 C1.13581174,8.24685882 1.097136,8.24724619 1.05816495,8.21550332 L0.46220866,7.62610059 C0.43117846,7.59542254 0.430680535,7.54500372 0.461065734,7.51374533 L7.22443293,0.550875637 C7.37501283,0.395871832 7.62507784,0.395900849 7.77561025,0.550904694 L14.5389221,7.51369713 C14.5693574,7.54500372 14.568824,7.59547083 14.5377612,7.62610059 Z" id="Fill-1669"></path>
                <path d="M10.4344466,13.7089845 L9.18537282,13.7089845 L9.18537282,11.8784995 C9.18537282,11.0650534 8.3234249,10.4032622 7.26390409,10.4032622 C6.20447598,10.4032622 5.34252917,11.0650534 5.34252917,11.8784995 L5.34252917,13.7089845 L2.7801362,13.7089845 C2.5464533,13.7089845 2.356337,13.5630247 2.356337,13.3835675 L2.356337,11.1259485 C2.356337,11.0366379 2.26206512,10.9642744 2.14578057,10.9642744 C2.02950053,10.9642744 1.93522857,11.0366379 1.93522857,11.1259485 L1.93522857,13.3835675 C1.93522857,13.7412808 2.31425048,14.032294 2.7801362,14.032294 L10.4344466,14.032294 C10.5507454,14.032294 10.6449944,13.9599312 10.6449944,13.8706207 C10.6449944,13.7813101 10.5507454,13.7089845 10.4344466,13.7089845 Z M5.76362361,11.878535 C5.76362361,11.2433474 6.43665992,10.7266096 7.26390409,10.7266096 C8.09119568,10.7266096 8.7642327,11.2433822 8.7642327,11.878535 L8.7642327,13.7089845 L5.76362361,13.7089845 L5.76362361,11.878535 Z" id="Fill-1673"></path>
            </g>
        </g>
    </g>
</svg>