<?xml version="1.0" encoding="UTF-8"?>
<svg width="18px" height="16px" viewBox="0 0 18 16" version="1.1" xmlns="http://www.w3.org/2000/svg" xmlns:xlink="http://www.w3.org/1999/xlink">
    <title>icon/inventario@1x</title>
    <g id="icon/inventario" stroke="none" stroke-width="1" fill="none" fill-rule="evenodd">
        <path d="M12.8202156,1.184051 L11.4293347,1.184051 C11.2665928,0.607127288 10.7330896,0.205640854 10.1218261,0.2 C9.33130912,0.2 8.56332641,0.2 7.81787793,0.2 C7.13537548,0.2 6.69928325,0.528017 6.50960125,1.184051 C5.61588961,1.184051 5.1275266,1.184051 5.04451223,1.184051 C4.01484076,1.184051 3.50000503,1.73408081 3.50000503,2.83414044 L3.50000503,7.35115293 L3.50000503,11.6320953 L3.50000503,13.8831093 C3.49891579,14.3159689 3.6747383,14.7313383 3.98823905,15.0365357 C4.30178775,15.3417303 4.72700007,15.5114314 5.16910093,15.508085 L12.8202156,15.508085 C13.2634042,15.5118521 13.69,15.3426139 14.0053079,15.037603 C14.3206615,14.7326005 14.4987211,14.317081 14.500005,13.8831093 L14.500005,2.83414044 C14.4994824,1.92512945 13.7485905,1.18754524 12.8202156,1.184051 Z M10.1357136,0.965361984 C10.4490752,0.965361984 10.7030791,1.21406571 10.7030791,1.5208911 L10.7030791,1.55794506 C10.7030791,1.864771 10.4490752,2.11347543 10.1357136,2.11347543 L7.86434878,2.11347543 C7.55104036,2.11347543 7.29703377,1.864771 7.29703377,1.55794506 L7.29703377,1.5208911 C7.29703377,1.21406571 7.55104036,0.965361984 7.86434878,0.965361984 L10.1357136,0.965361984 Z M13.7182971,13.8831093 C13.7172024,14.1141486 13.6215669,14.3351672 13.4527803,14.4966695 C13.2839952,14.6581661 13.0561502,14.7466771 12.8202156,14.7423827 L5.16910093,14.7423827 C4.9342605,14.7463026 4.70774091,14.6572783 4.54076456,14.4955966 C4.37379094,14.3338615 4.2804337,14.1130729 4.28168108,13.8831093 L4.28168108,2.83414044 C4.27943613,2.60156071 4.37160333,2.37755986 4.53805563,2.21163423 C4.70450922,2.0456591 4.93155014,1.951323 5.16910093,1.94945983 L6.57519677,1.94945983 C6.747355,2.50587642 7.27372823,2.88438332 7.86748502,2.87883812 L10.1218261,2.87883812 C10.7155856,2.8844289 11.2419104,2.50587642 11.4140714,1.94945983 L12.8202156,1.94945983 C13.3170519,1.95253473 13.7181554,2.34768413 13.7182971,2.83414044 L13.7182971,13.8831093 Z" id="Fill-1695" fill="#4C4C4C" fill-rule="nonzero"></path>
        <path d="M10.7645089,12.1806013 C10.8835564,12.1806013 10.9787947,12.2737804 10.9787947,12.3902544 C10.9787947,12.5067277 10.8835564,12.5999076 10.7645089,12.5999076 L6.19308042,12.5999076 C6.07403279,12.5999076 5.97879466,12.5067277 5.97879466,12.3902544 C5.97879466,12.2737804 6.07403279,12.1806013 6.19308042,12.1806013 L10.7645089,12.1806013 Z" id="Fill-2132-path" fill="#4C4C4C" fill-rule="nonzero"></path>
        <path d="M11.3999565,11.1527635 C11.5348111,11.1527635 11.6426951,11.258315 11.6426951,11.3902544 C11.6426951,11.5221931 11.5348111,11.6277454 11.3999565,11.6277454 L6.22153331,11.6277454 C6.08667851,11.6277454 5.97879466,11.5221931 5.97879466,11.3902544 C5.97879466,11.258315 6.08667851,11.1527635 6.22153331,11.1527635 L11.3999565,11.1527635 Z" id="Fill-2132-path" fill="#4C4C4C" fill-rule="nonzero"></path>
        <path d="M11.4211618,13.2087874 C11.5560164,13.2087874 11.6639005,13.3143389 11.6639005,13.4462784 C11.6639005,13.578217 11.5560164,13.6837693 11.4211618,13.6837693 L6.24273865,13.6837693 C6.10788385,13.6837693 6,13.578217 6,13.4462784 C6,13.3143389 6.10788385,13.2087874 6.24273865,13.2087874 L11.4211618,13.2087874 Z" id="Fill-2132-path" fill="#4C4C4C" fill-rule="nonzero"></path>
        <path d="M10.4096875,9.4423125 L10.4100625,9.4420625 C10.4100625,9.4420625 11.9179062,8.18515625 11.9211875,8.181875 C11.9714839,8.13476078 12,8.06891644 12,8 C12,8 11.9940625,4.19337501 11.9892812,4.17756251 C11.9573589,4.07211644 11.8601722,4 11.75,4 L7.75,4 C7.70063628,4 7.65237585,4.01460332 7.6113125,4.04200001 L6.1113125,5.04200001 C6.04989459,5.08318784 6.0099307,5.14951577 6.00221875,5.22306251 C6.00153125,5.22706251 6.00109375,5.23168751 6.00075,5.23650001 C6.00075,5.23962501 6.00028125,5.24275001 6.00025,5.24587501 C6.00025,5.24740626 6,5.24850001 6,5.25012501 L6,9.25 C6,9.38807119 6.11192881,9.5 6.25,9.5 L10.25,9.5 C10.3083447,9.50007838 10.3648633,9.47966089 10.4096875,9.4423125 L10.4096875,9.4423125 Z M11.5,7.8829375 L10.5,8.71625 L10.5,5.38378126 L11.5,4.71712501 L11.5,7.8829375 Z M10,9.00000001 L6.5,9.00000001 L6.5,5.50000001 L7.5,5.50000001 L7.5,7.00000001 C7.5,7.13807119 7.61192881,7.25 7.75,7.25 L8.75,7.25 C8.88807118,7.25 9,7.13807119 9,7.00000001 L9,5.50000001 L10,5.50000001 L10,9.00000001 Z M8,6.75 L8,5.50000001 L8.5,5.50000001 L8.5,6.75 L8,6.75 Z M7.0756875,5.00000001 L7.8256875,4.50000001 L10.9243125,4.50000001 L10.1743125,5.00000001 L7.0756875,5.00000001 Z" id="Shape" fill="#4C4C4C" fill-rule="nonzero"></path>
    </g>
</svg>