<?xml version="1.0" encoding="UTF-8"?>
<svg width="17px" height="12px" viewBox="0 0 17 12" version="1.1" xmlns="http://www.w3.org/2000/svg" xmlns:xlink="http://www.w3.org/1999/xlink">
    <title>linkPago@2x</title>
    <g id="Symbols" stroke="none" stroke-width="1" fill="none" fill-rule="evenodd">
        <g id="Menú/linkPago-" transform="translate(-2, -4)">
            <g id="linkPago" transform="translate(2, 4)">
                <g id="Group" transform="translate(7.5, 4.9216) scale(-1, 1) rotate(-180) translate(-7.5, -4.9216)" fill-rule="nonzero">
                    <path d="M1.02638353,9.78442728 C0.534105534,9.62676963 0.144787645,9.1988417 0.0386100386,8.69369369 C-0.0128700129,8.45238095 -0.0128700129,1.39317889 0.0386100386,1.15186615 C0.148005148,0.643500644 0.537323037,0.215572716 1.03603604,0.0611325611 C1.22586873,0.00321750322 1.43822394,0 7.5,0 C13.5617761,0 13.7741313,0.00321750322 13.963964,0.0611325611 C14.462677,0.215572716 14.8519949,0.643500644 14.96139,1.15186615 C15.01287,1.39317889 15.01287,8.45238095 14.96139,8.69369369 C14.8519949,9.2020592 14.462677,9.62998713 13.963964,9.78442728 C13.7741313,9.84234234 13.5649936,9.84555985 7.49034749,9.84234234 C1.48970399,9.84234234 1.2001287,9.83912484 1.02638353,9.78442728 Z M13.9543115,9.24388674 C14.2406692,9.08944659 14.481982,8.71621622 14.481982,8.42342342 L14.481982,8.33333333 L7.5,8.33333333 L0.518018018,8.33333333 L0.518018018,8.42342342 C0.518018018,8.74839125 0.794723295,9.14414414 1.10682111,9.26319176 C1.27091377,9.32754183 1.34169884,9.32754183 7.54826255,9.32110682 L13.8223938,9.31467181 L13.9543115,9.24388674 Z M14.481982,3.4009009 C14.481982,1.64736165 14.475547,1.30630631 14.4337194,1.16795367 C14.3758044,0.971685972 14.1505792,0.704633205 13.9543115,0.601673102 L13.8223938,0.530888031 L7.55791506,0.521235521 C1.2998713,0.514800515 1.29343629,0.514800515 1.11647362,0.579150579 C0.987773488,0.627413127 0.894465894,0.694980695 0.778635779,0.823680824 C0.508365508,1.11647362 0.517975118,1.02960103 0.517975118,3.4009009 L0.517975118,5.46975547 L7.5,5.46975547 L14.481982,5.46975547 L14.481982,3.4009009 Z" id="Shape" fill="#4C4C4C"></path>
                    <polygon id="Path" fill="#6F6F6F" points="14.481982 6.9015444 14.481982 5.98455598 7.5 5.98455598 0.518018018 5.98455598 0.518018018 6.9015444 0.518018018 7.81853282 7.5 7.81853282 14.481982 7.81853282"></polygon>
                </g>
                <circle id="Oval" stroke="#4C4C4C" stroke-width="0.6" fill="#FFFFFF" cx="12.5" cy="7.5" r="4.2"></circle>
                <g id="link" transform="translate(10, 5)" fill="#4C4C4C" fill-rule="nonzero" stroke="#4C4C4C" stroke-width="0.2">
                    <g id="Group" transform="translate(2.5, 2.4995) scale(-1, 1) rotate(-180) translate(-2.5, -2.4995)">
                        <path d="M3.64787947,4.99568344 C3.37994783,4.95461362 3.18731085,4.87345185 2.95849332,4.70428333 C2.82843892,4.60943162 2.01095406,3.79194677 1.91610235,3.66189236 C1.7684466,3.46241041 1.68924053,3.29226404 1.6423036,3.07518075 C1.61687943,2.95881628 1.61687943,2.71141954 1.6423036,2.59603293 C1.69315194,2.35939257 1.80951641,2.14915425 1.98455204,1.97509647 C2.08135946,1.87828905 2.23194877,1.77170311 2.29355349,1.75507961 C2.36395889,1.73650041 2.43534213,1.75899102 2.48619047,1.81766218 C2.52628243,1.86166555 2.54192808,1.91251389 2.53410525,1.9682515 C2.52530458,2.03278977 2.48912403,2.08070456 2.40894011,2.1335086 C2.12536283,2.32027847 1.97868493,2.61656783 2.01779903,2.92556928 C2.03051112,3.02433241 2.07060308,3.15732037 2.1136286,3.24337141 C2.18892325,3.39493858 2.23781589,3.45067618 2.66904893,3.88484278 C2.90080001,4.11854957 3.12472828,4.33661072 3.16579809,4.36985771 C3.3682136,4.53218126 3.61756604,4.62116585 3.83367148,4.60649806 C4.03315343,4.59378598 4.19058772,4.52533629 4.33922133,4.38648121 C4.49665561,4.2398033 4.57781738,4.08334687 4.60324155,3.87897566 C4.62279861,3.72643064 4.58564021,3.53281581 4.50741199,3.37635938 C4.43505089,3.23163718 4.37735758,3.16318749 4.04782122,2.83071757 C3.75935468,2.53931747 3.72219628,2.49824766 3.7114399,2.45913355 C3.66939223,2.30365497 3.80042449,2.17262271 3.95590307,2.21467038 C3.99403933,2.2244489 4.02826417,2.25476234 4.22872397,2.45228858 C4.64528922,2.86494242 4.77925504,3.02726596 4.8731289,3.23163718 C5.10390213,3.73229776 5.01589539,4.26522747 4.64137781,4.64072291 C4.47318715,4.80793572 4.26881593,4.92136663 4.04390981,4.97319282 C3.96274804,4.99177203 3.71535131,5.00546196 3.64787947,4.99568344 Z" id="Path"></path>
                        <path d="M2.63091267,3.24630497 C2.62602341,3.24434926 2.60939991,3.24043785 2.59375427,3.23750429 C2.55366231,3.22870362 2.49303544,3.16807675 2.47347839,3.11820626 C2.45294348,3.06344651 2.4607663,2.99695253 2.49401329,2.94610419 C2.50770323,2.92556928 2.55268446,2.88743303 2.59962139,2.85614174 C2.96533829,2.61558998 3.08561417,2.17946768 2.89591075,1.77854807 C2.81279327,1.6044903 2.77954628,1.56537619 2.29453135,1.0793834 C1.82027279,0.605124843 1.77724727,0.566988588 1.61394587,0.485826814 C1.47704649,0.417377125 1.29223233,0.37924087 1.15533296,0.38999725 C0.960740271,0.40466504 0.803305988,0.474092582 0.658583789,0.610014106 C0.501149505,0.75669201 0.419987732,0.913148441 0.394563562,1.11751965 C0.375006508,1.27006467 0.41216491,1.46367951 0.490393126,1.62013594 C0.562754225,1.76485814 0.620447534,1.83330783 0.949983892,2.16577774 C1.23845044,2.45717784 1.27560884,2.49824766 1.28636522,2.53736176 C1.30983368,2.62536851 1.2785424,2.71141954 1.20520344,2.76031218 C1.15142155,2.79551488 1.05461413,2.79747058 1.00181008,2.76520144 C0.94216107,2.72804304 0.368161539,2.13937572 0.292866882,2.03865689 C0.146188978,1.8421085 0.0660050568,1.67000643 0.0190681275,1.45194528 C-0.00635604251,1.3355808 -0.00635604251,1.08818407 0.0190681275,0.972797455 C0.0982741957,0.608058401 0.340781664,0.293189833 0.674229432,0.12499917 C0.770058996,0.0770843882 0.894246288,0.0340588697 0.997898674,0.0135239631 C1.09568394,-0.00603309075 1.33819141,-0.00407738536 1.44477735,0.0174353739 C1.71270899,0.071217272 1.94837149,0.199315975 2.19087896,0.423244242 C2.3678703,0.585567789 2.98196179,1.2074821 3.04845577,1.29059958 C3.50022372,1.85677629 3.48653378,2.5510517 3.01325307,3.02139885 C2.86266376,3.17101031 2.69740665,3.26879558 2.63091267,3.24630497 Z" id="Path"></path>
                    </g>
                </g>
            </g>
        </g>
    </g>
</svg>