<?xml version="1.0" encoding="UTF-8"?>
<svg width="13px" height="16px" viewBox="0 0 13 16" version="1.1" xmlns="http://www.w3.org/2000/svg" xmlns:xlink="http://www.w3.org/1999/xlink">
    <title>noun-list-2041127</title>
    <g id="Symbols" stroke="none" stroke-width="1" fill="none" fill-rule="evenodd">
        <g id="Menú/Lista" transform="translate(-4, -2)" fill="#4C4C4C" fill-rule="nonzero">
            <g id="Group" transform="translate(4, 2)">
                <path d="M12.3452632,2.34105263 L10.6105263,0.606315789 C10.2231579,0.218947368 9.71789474,0.0168421053 9.17894737,0.0168421053 L2.02105263,0 C2.02105263,0 2.02105263,0 2.02105263,0 C1.48210526,0 0.976842105,0.202105263 0.589473684,0.589473684 C0.202105263,0.976842105 0,1.48210526 0,2.02105263 L0,13.9789474 C0,15.0905263 0.909473684,16 2.02105263,16 L10.9136842,16 C12.0252632,16 12.9347368,15.0905263 12.9347368,13.9789474 L12.9347368,3.75578947 C12.9347368,3.23368421 12.7157895,2.71157895 12.3452632,2.34105263 Z M11.6042105,3.08210526 C11.6715789,3.14947368 11.7389474,3.25052632 11.7894737,3.33473684 L9.68421053,3.33473684 C9.65052632,3.33473684 9.61684211,3.30105263 9.61684211,3.26736842 L9.61684211,1.17894737 C9.70105263,1.22947368 9.80210526,1.28 9.86947368,1.36421053 L11.6042105,3.08210526 Z M10.9136842,14.9389474 L2.02105263,14.9389474 C1.49894737,14.9389474 1.06105263,14.5010526 1.06105263,13.9789474 L1.06105263,2.02105263 C1.06105263,1.76842105 1.16210526,1.51578947 1.34736842,1.34736842 C1.53263158,1.16210526 1.76842105,1.06105263 2.02105263,1.06105263 C2.02105263,1.06105263 2.02105263,1.06105263 2.02105263,1.06105263 L8.55578947,1.07789474 L8.55578947,3.28421053 C8.55578947,3.90736842 9.06105263,4.41263158 9.68421053,4.41263158 L11.8905263,4.41263158 L11.8905263,13.9957895 C11.8736842,14.5010526 11.4526316,14.9389474 10.9136842,14.9389474 Z" id="Shape"></path>
                <path d="M10.0210526,8.97684211 L6.34947368,8.97684211 C6.06315789,8.97684211 5.82736842,9.21263158 5.82736842,9.49894737 C5.82736842,9.78526316 6.06315789,10.0210526 6.34947368,10.0210526 L10.0210526,10.0210526 C10.3073684,10.0210526 10.5431579,9.78526316 10.5431579,9.49894737 C10.5431579,9.21263158 10.3073684,8.97684211 10.0210526,8.97684211 Z" id="Path"></path>
                <path d="M10.0210526,5.97894737 L6.34947368,5.97894737 C6.06315789,5.97894737 5.82736842,6.21473684 5.82736842,6.50105263 C5.82736842,6.78736842 6.06315789,7.02315789 6.34947368,7.02315789 L10.0210526,7.02315789 C10.3073684,7.02315789 10.5431579,6.78736842 10.5431579,6.50105263 C10.5431579,6.21473684 10.3073684,5.97894737 10.0210526,5.97894737 Z" id="Path"></path>
                <path d="M10.0210526,11.9578947 L6.34947368,11.9578947 C6.06315789,11.9578947 5.82736842,12.1936842 5.82736842,12.48 C5.82736842,12.7663158 6.06315789,13.0021053 6.34947368,13.0021053 L10.0210526,13.0021053 C10.3073684,13.0021053 10.5431579,12.7663158 10.5431579,12.48 C10.5431579,12.1936842 10.3073684,11.9578947 10.0210526,11.9578947 Z" id="Path"></path>
                <path d="M4.34526316,5.44 L3.52,6.26526316 L3.30105263,6.04631579 C3.09894737,5.84421053 2.76210526,5.84421053 2.56,6.04631579 C2.35789474,6.24842105 2.35789474,6.58526316 2.56,6.78736842 L3.16631579,7.39368421 C3.26736842,7.49473684 3.40210526,7.54526316 3.53684211,7.54526316 C3.67157895,7.54526316 3.80631579,7.49473684 3.90736842,7.39368421 L5.12,6.18105263 C5.32210526,5.97894737 5.32210526,5.64210526 5.12,5.44 C4.88421053,5.22105263 4.54736842,5.22105263 4.34526316,5.44 Z" id="Path"></path>
                <path d="M4.34526316,8.42105263 L3.52,9.24631579 L3.30105263,9.02736842 C3.09894737,8.82526316 2.76210526,8.82526316 2.56,9.02736842 C2.35789474,9.22947368 2.35789474,9.56631579 2.56,9.76842105 L3.16631579,10.3747368 C3.26736842,10.4757895 3.40210526,10.5263158 3.53684211,10.5263158 C3.67157895,10.5263158 3.80631579,10.4757895 3.90736842,10.3747368 L5.12,9.16210526 C5.32210526,8.96 5.32210526,8.62315789 5.12,8.42105263 C4.88421053,8.21894737 4.54736842,8.21894737 4.34526316,8.42105263 Z" id="Path"></path>
                <path d="M4.34526316,11.4021053 L3.52,12.2273684 L3.30105263,12.0084211 C3.09894737,11.8063158 2.76210526,11.8063158 2.56,12.0084211 C2.35789474,12.2105263 2.35789474,12.5473684 2.56,12.7494737 L3.16631579,13.3557895 C3.26736842,13.4568421 3.40210526,13.5073684 3.53684211,13.5073684 C3.67157895,13.5073684 3.80631579,13.4568421 3.90736842,13.3557895 L5.12,12.1431579 C5.32210526,11.9410526 5.32210526,11.6042105 5.12,11.4021053 C4.88421053,11.2 4.54736842,11.2 4.34526316,11.4021053 Z" id="Path"></path>
            </g>
        </g>
    </g>
</svg>