<?xml version="1.0" encoding="UTF-8"?>
<svg width="18px" height="16px" viewBox="0 0 18 16" version="1.1" xmlns="http://www.w3.org/2000/svg" xmlns:xlink="http://www.w3.org/1999/xlink">
    <title>Group</title>
    <g id="Symbols" stroke="none" stroke-width="1" fill="none" fill-rule="evenodd">
        <g id="icon/mispedidos" fill="#4C4C4C" fill-rule="nonzero" stroke="#4C4C4C" stroke-width="0.15">
            <g id="Group" transform="translate(0.5, 0.5)">
                <path d="M0.483698571,8.69976186 L0.878345999,8.30529152 C1.21075545,12.1613048 4.37049219,15.1617236 8.23853306,15.2943684 C12.1065739,15.4270132 15.4644299,12.6500992 16.0602126,8.82591587 C16.0840954,8.67126425 15.9780864,8.52653348 15.8234348,8.50265065 C15.6687832,8.47876781 15.5240524,8.58477686 15.5001696,8.73942848 C14.9521255,12.2593769 11.87537,14.8248183 8.31424434,14.7311527 C4.75311866,14.6374871 1.81547781,11.9138535 1.45322862,8.36996227 L1.7829928,8.69976186 C1.89364406,8.81041313 2.0730452,8.81041313 2.18369647,8.69976186 C2.29434773,8.5891106 2.29434773,8.40970946 2.18369647,8.29905819 L1.33369752,7.44905924 C1.28056186,7.39592085 1.20849279,7.36606777 1.13334568,7.36606777 C1.05819857,7.36606777 0.986129509,7.39592085 0.932993848,7.44905924 L0.0829949009,8.29905819 C0.0114160843,8.37063701 -0.0165386257,8.47496541 0.00966103951,8.57274389 C0.0358607048,8.67052237 0.112234393,8.74689606 0.210012875,8.77309572 C0.307791357,8.79929539 0.412119755,8.77134068 0.483698571,8.69976186 Z" id="Path"></path>
                <path d="M16.5163079,6.5990603 L16.1217667,6.99360148 C15.7893585,3.13760678 12.6296372,0.137202535 8.761615,0.00455771529 C4.89359281,-0.128087104 1.53575233,2.64881253 0.939970923,6.47297712 C0.916088089,6.62762874 1.02209714,6.77235951 1.17674875,6.79624234 C1.33140037,6.82012518 1.47613115,6.71411613 1.50001398,6.55946451 C2.04849424,3.03981601 5.1252021,0.474822363 8.68609651,0.568562242 C12.2469909,0.662302122 15.184485,3.38561851 15.5470257,6.92924947 L15.2170137,6.59920196 C15.1454348,6.52762315 15.0411064,6.49966844 14.943328,6.5258681 C14.8455495,6.55206777 14.7691758,6.62844146 14.7429761,6.72621994 C14.7167765,6.82399842 14.7447312,6.92832682 14.81631,6.99990563 L15.6663089,7.84990458 C15.7194446,7.90304298 15.7915137,7.93289605 15.8666608,7.93289605 C15.9418079,7.93289605 16.0138769,7.90304298 16.0670126,7.84990458 L16.9170116,6.99990563 C17.0276628,6.88925437 17.0276628,6.70985323 16.9170116,6.59920196 C16.8063603,6.4885507 16.6269591,6.4885507 16.5163079,6.59920196 L16.5163079,6.5990603 Z" id="Path"></path>
                <path d="M10.0976471,10.7006948 L10.0980721,10.7004115 C10.0980721,10.7004115 11.8069595,9.27591948 11.8106783,9.27220074 C11.8676808,9.21880468 11.899999,9.14418119 11.899999,9.06607599 C11.899999,9.06607599 11.8932699,4.75190633 11.8878511,4.73398552 C11.8516724,4.61448013 11.7415277,4.53274826 11.616666,4.53274826 L7.08333831,4.53274826 C7.02739283,4.53274826 6.97269775,4.54929868 6.92615934,4.58034821 L5.22616145,5.71368014 C5.15655457,5.76035963 5.11126222,5.83553119 5.10252202,5.91888406 C5.10174285,5.92341738 5.10124702,5.92865904 5.10085744,5.9341132 C5.10085744,5.93765487 5.10032619,5.94119653 5.10029077,5.94473819 C5.10029077,5.94647361 5.10000744,5.94771319 5.10000744,5.94955485 L5.10000744,10.4827409 C5.10000744,10.6392214 5.22685993,10.7660741 5.38334042,10.7660741 L9.91666814,10.7660741 C9.98279204,10.7661627 10.0468464,10.7430229 10.0976471,10.7006948 L10.0976471,10.7006948 Z M11.3333331,8.93340532 L10.2000011,9.87782499 L10.2000011,6.10103175 L11.3333331,5.34548893 L11.3333331,8.93340532 Z M9.63333516,10.1994079 L5.6666734,10.1994079 L5.6666734,6.23274617 L6.80000533,6.23274617 L6.80000533,7.93274406 C6.80000533,8.08922455 6.92685783,8.21607704 7.08333831,8.21607704 L8.21667024,8.21607704 C8.37315073,8.21607704 8.50000323,8.08922455 8.50000323,7.93274406 L8.50000323,6.23274617 L9.63333516,6.23274617 L9.63333516,10.1994079 Z M7.3666713,7.64941108 L7.3666713,6.23274617 L7.93333726,6.23274617 L7.93333726,7.64941108 L7.3666713,7.64941108 Z M6.31911843,5.6660802 L7.16911738,5.09941424 L10.680888,5.09941424 L9.83088908,5.6660802 L6.31911843,5.6660802 Z" id="Shape"></path>
                <path d="M7.3666713,9.06607599 L6.80000533,9.06607599 C6.64352485,9.06607599 6.51667235,9.19292849 6.51667235,9.34940897 C6.51667235,9.50588946 6.64352485,9.63274196 6.80000533,9.63274196 L7.3666713,9.63274196 C7.52315178,9.63274196 7.65000428,9.50588946 7.65000428,9.34940897 C7.65000428,9.19292849 7.52315178,9.06607599 7.3666713,9.06607599 Z" id="Path"></path>
                <path d="M8.21667024,9.34940897 C8.21667024,9.50588946 8.34352274,9.63274196 8.50000323,9.63274196 L8.78333621,9.63274196 C8.93981669,9.63274196 9.06666919,9.50588946 9.06666919,9.34940897 C9.06666919,9.19292849 8.93981669,9.06607599 8.78333621,9.06607599 L8.50000323,9.06607599 C8.34352274,9.06607599 8.21667024,9.19292849 8.21667024,9.34940897 Z" id="Path"></path>
                <circle id="Oval" cx="8.50000323" cy="12.1827388" r="1"></circle>
                <circle id="Oval" cx="7.3666713" cy="12.1827388" r="1"></circle>
                <circle id="Oval" cx="9.63333516" cy="12.1827388" r="1"></circle>
            </g>
        </g>
    </g>
</svg>