<?xml version="1.0" encoding="UTF-8"?>
<svg width="19px" height="18px" viewBox="0 0 19 18" version="1.1" xmlns="http://www.w3.org/2000/svg" xmlns:xlink="http://www.w3.org/1999/xlink">
    <title>Stroke-1697</title>
    <g id="Symbols" stroke="none" stroke-width="1" fill="none" fill-rule="evenodd">
        <g id="icon/misproductos" transform="translate(1, 1)" fill="#4C4C4C" stroke="#4C4C4C" stroke-width="0.4">
            <path d="M16.4342804,6.88034074 L15.5518563,6.88034074 C15.448607,6.51431989 15.1101337,6.25960266 14.7223265,6.25602391 L13.7803748,6.25602391 L13.7803748,4.00064399 C13.7825159,3.91474269 13.7372285,3.83437061 13.6618272,3.79040023 L7.01689784,0.0325408508 C6.94065206,-0.0108469503 6.84651378,-0.0108469503 6.77026836,0.0325408508 L0.123284221,3.79040023 C0.0467332114,3.83383897 -0.000278014756,3.9140032 1.2372022e-06,4.00064399 L1.2372022e-06,11.5163892 C1.2372022e-06,11.6031191 0.0472708812,11.6832837 0.123992961,11.7266338 L6.77165544,15.4845065 C6.80934127,15.505797 6.85212611,15.5170348 6.89563471,15.5170348 C6.94029053,15.5170651 6.9842204,15.5058557 7.02317429,15.4845065 L10.5212422,13.5089503 L10.5212422,14.9370734 C10.5205175,15.2116948 10.6320655,15.4752199 10.8309615,15.6688479 C11.0298879,15.8624742 11.2996577,15.9701386 11.5801421,15.9679751 L16.4342804,15.9679751 C16.7154549,15.9704055 16.9861025,15.8630348 17.1861449,15.6695251 C17.3862165,15.4760207 17.4991838,15.2124004 17.5000012,14.9370734 L17.5000012,7.92721595 C17.4996668,7.35050716 17.0232743,6.88255761 16.4342804,6.88034074 Z M14.7311372,6.74159667 C14.9299449,6.74159667 15.091094,6.89938313 15.091094,7.09404403 L15.091094,7.11755238 C15.091094,7.31221363 14.9299449,7.47000053 14.7311372,7.47000053 L13.2901029,7.47000053 C13.0913289,7.47000053 12.9301781,7.31221363 12.9301781,7.11755238 L12.9301781,7.09404403 C12.9301781,6.89938313 13.0913289,6.74159667 13.2901029,6.74159667 L14.7311372,6.74159667 Z M6.89563471,0.523162329 L9.65788742,2.08461504 L3.50657949,5.56186378 L0.74439194,4.00040803 L6.89563471,0.523162329 Z M6.65992819,14.8536845 L0.495955403,11.376197 L0.495955403,4.42065994 L6.65992819,7.89814874 L6.65992819,14.8536845 Z M6.89563471,7.47762989 L4.00255359,5.84218957 L10.1538314,2.36497322 L13.047064,4.00040803 L6.89563471,7.47762989 Z M10.5212422,7.92721595 L10.5212422,12.948269 L7.15587124,14.8536845 L7.15587124,7.89814874 L13.2844014,4.42065994 L13.2844014,6.25602391 L13.2920926,6.25602391 C12.9042887,6.25957295 12.565815,6.51431989 12.4625643,6.88034074 L11.5801421,6.88034074 C10.9925046,6.88314948 10.5184056,7.35183853 10.5212422,7.92721595 Z M17.0040551,14.9370734 C17.0033606,15.0836529 16.9426861,15.2238749 16.8356019,15.3263377 C16.7285186,15.4287969 16.5839657,15.4849513 16.4342804,15.4822269 L11.5801421,15.4822269 C11.431151,15.4847138 11.287439,15.4282336 11.1815033,15.325657 C11.0755693,15.2230465 11.0163401,15.0829704 11.0171315,14.9370734 L11.0171315,7.92721595 C11.0157072,7.77965913 11.0741814,7.63754505 11.1797846,7.53227595 C11.2853887,7.42697545 11.4294315,7.36712528 11.5801421,7.36594322 L12.4722192,7.36594322 C12.5814424,7.71895362 12.9153923,7.95909182 13.2920926,7.95557374 L14.7223265,7.95557374 C15.0990285,7.95912074 15.4329477,7.71895362 15.5421727,7.36594322 L16.4342804,7.36594322 C16.7494909,7.36789405 17.0039653,7.61859083 17.0040551,7.92721595 L17.0040551,14.9370734 Z" id="Stroke-1697"></path>
        </g>
    </g>
</svg>