<?xml version="1.0" encoding="UTF-8"?>
<svg width="14px" height="14px" viewBox="0 0 14 14" version="1.1" xmlns="http://www.w3.org/2000/svg" xmlns:xlink="http://www.w3.org/1999/xlink">
    <title>dinero</title>
    <g id="Symbols" stroke="none" stroke-width="1" fill="none" fill-rule="evenodd">
        <g id="icons/Precios" transform="translate(-3, -3)" fill="#4C4C4C" fill-rule="nonzero">
            <g id="dinero" transform="translate(3.001, 3.001)">
                <path d="M6.99806471,6.56175882 C6.49855294,6.56175882 6.09218235,6.21002941 6.09218235,5.77771765 C6.09218235,5.34536471 6.49855294,4.99363529 6.99806471,4.99363529 C7.49757647,4.99363529 7.90394706,5.34536471 7.90394706,5.77771765 C7.90394706,6.00509412 8.08833529,6.18948235 8.31571176,6.18948235 C8.54308824,6.18948235 8.72747647,6.00509412 8.72747647,5.77771765 C8.72747647,5.02315882 8.16525294,4.38871176 7.40982941,4.21651176 L7.40982941,4.00235294 C7.40982941,3.77497647 7.22544118,3.59058824 6.99806471,3.59058824 C6.77068824,3.59058824 6.5863,3.77497647 6.5863,4.00235294 L6.5863,4.21651176 C5.83087647,4.38871176 5.26865294,5.02315882 5.26865294,5.77771765 C5.26865294,6.66412353 6.04445882,7.38528824 6.99806471,7.38528824 C7.49757647,7.38528824 7.90394706,7.73701765 7.90394706,8.16937059 C7.90394706,8.60172353 7.49757647,8.95345294 6.99806471,8.95345294 C6.49855294,8.95345294 6.09218235,8.60172353 6.09218235,8.16937059 C6.09218235,7.94199412 5.90779412,7.75760588 5.68041765,7.75760588 C5.45304118,7.75760588 5.26865294,7.94199412 5.26865294,8.16937059 C5.26865294,8.92392941 5.83087647,9.55837647 6.5863,9.73057647 L6.5863,9.90845882 C6.5863,10.1358353 6.77068824,10.3202235 6.99806471,10.3202235 C7.22544118,10.3202235 7.40982941,10.1358353 7.40982941,9.90845882 L7.40982941,9.73057647 C8.16525294,9.55837647 8.72747647,8.92392941 8.72747647,8.16937059 C8.72747647,7.28292353 7.95167059,6.56175882 6.99806471,6.56175882 Z" id="Path"></path>
                <path d="M7,0 C10.8598,0 14,3.1402 14,7 C14,10.8598 10.8598,14 7,14 C3.1402,14 0,10.8598 0,7 C0,3.1402 3.1402,0 7,0 Z M7,0.823529412 C3.59429412,0.823529412 0.823529412,3.59429412 0.823529412,7 C0.823529412,10.4057059 3.59429412,13.1764706 7,13.1764706 C10.4057059,13.1764706 13.1764706,10.4057059 13.1764706,7 C13.1764706,3.59429412 10.4057059,0.823529412 7,0.823529412 Z" id="Shape"></path>
            </g>
        </g>
    </g>
</svg>