<?xml version="1.0" encoding="UTF-8"?>
<svg width="31px" height="32px" viewBox="0 0 31 32" version="1.1" xmlns="http://www.w3.org/2000/svg" xmlns:xlink="http://www.w3.org/1999/xlink">
    <title>Group</title>
    <g id="Symbols" stroke="none" stroke-width="1" fill="none" fill-rule="evenodd">
        <g id="07.-iPhone-14-Midnight" transform="translate(-52, -617)" fill="#4C4C4C" fill-rule="nonzero">
            <g id="iPhone-14-screen" transform="translate(21, 19)">
                <g id="Group-13" transform="translate(0, -1)">
                    <g id="Group-63-Copy" transform="translate(15, 575)">
                        <g id="Group" transform="translate(16.3376, 24.8941)">
                            <path d="M21.0066199,6.77235976 L22.7485566,2.88909754 C23.0551272,2.20358339 22.9613747,1.40652275 22.5039775,0.809746979 C22.0465804,0.212971208 21.2982496,-0.0886520729 20.5517521,0.0228801967 C17.0416138,0.618760584 13.4552015,0.618760584 9.94506315,0.0228801967 C9.19856569,-0.0886520729 8.45023491,0.212971208 7.99283775,0.809746979 C7.53544058,1.40652275 7.44168806,2.20358339 7.74825866,2.88909754 L9.4901954,6.77235976 C3.92840333,9.23792307 0,15.1450018 0,22.0639889 C0,24.8839769 0.661625823,26.8975203 2.01589118,28.2278971 C7.94984778,31.5101783 22.2575062,31.5975003 28.4809241,28.2278971 C29.8351895,26.9026569 30.4968153,24.8891135 30.4968153,22.0639889 C30.4968153,15.1450018 26.568412,9.23792307 21.0066199,6.77235976 Z M9.16455144,2.26243354 C9.04566555,1.77959406 9.22657886,1.5433109 9.68144662,1.53817431 C13.3659648,2.16485424 17.1308505,2.16485424 20.8153687,1.53817431 C21.2340538,1.53817431 21.4718255,1.81555019 21.3322638,2.26243354 L19.5541444,6.2227446 C16.7557538,5.31857507 13.7410615,5.31857507 10.9426708,6.2227446 L9.16455144,2.26243354 Z M27.3954442,27.1183937 C23.1569038,29.7175083 7.35024938,29.7226449 3.10137105,27.1183937 C2.0675807,26.0910756 1.55068552,24.4525033 1.55068552,22.0639889 C1.55068552,13.8043518 7.69656915,7.08569176 15.2484076,7.08569176 C22.8002461,7.08569176 28.9461298,13.8043518 28.9461298,22.0639889 C28.9461298,24.4525033 28.4395725,26.1013488 27.3954442,27.1183937 Z" id="Shape"></path>
                            <path d="M15.2484076,15.5507925 L17.3159883,15.5507925 C17.7441983,15.5507925 18.0913311,15.205833 18.0913311,14.7803039 C18.0913311,14.3547749 17.7441983,14.0098154 17.3159883,14.0098154 L16.0237504,14.0098154 L16.0237504,13.0903657 C16.0237504,12.6648367 15.6766176,12.3198772 15.2484076,12.3198772 C14.8201977,12.3198772 14.4730649,12.6648367 14.4730649,13.0903657 L14.4730649,14.1176838 C13.0847109,14.4889337 12.1911969,15.8287068 12.3880901,17.2439843 C12.5849833,18.6592617 13.8107697,19.7078784 15.2484076,19.6908842 C15.9706551,19.6908842 16.5561524,20.2727158 16.5561524,20.9904415 C16.5561524,21.7081672 15.9706551,22.2899988 15.2484076,22.2899988 L13.1808269,22.2899988 C12.752617,22.2899988 12.4054842,22.6349583 12.4054842,23.0604874 C12.4054842,23.4860164 12.752617,23.8309759 13.1808269,23.8309759 L14.4730649,23.8309759 L14.4730649,24.7709719 C14.4730649,25.196501 14.8201977,25.5414605 15.2484076,25.5414605 C15.6766176,25.5414605 16.0237504,25.196501 16.0237504,24.7709719 L16.0237504,23.7179709 C17.402113,23.3389411 18.2851614,22.0044137 18.0891287,20.59662 C17.893096,19.1888264 16.6785514,18.1427391 15.2484076,18.1499071 C14.5261601,18.1499071 13.9406629,17.5680755 13.9406629,16.8503498 C13.9406629,16.1326241 14.5261601,15.5507925 15.2484076,15.5507925 Z" id="Path"></path>
                        </g>
                    </g>
                </g>
            </g>
        </g>
    </g>
</svg>