<?xml version="1.0" encoding="UTF-8"?>
<svg width="16px" height="18px" viewBox="0 0 16 18" version="1.1" xmlns="http://www.w3.org/2000/svg" xmlns:xlink="http://www.w3.org/1999/xlink">
    <title>notification2</title>
    <g id="Symbols" stroke="none" stroke-width="1" fill="none" fill-rule="evenodd">
        <g id="icons/notification" transform="translate(-2, -1)" fill="#4C4C4C" fill-rule="nonzero" stroke="#4C4C4C" stroke-width="0.2">
            <g id="notification2" transform="translate(3, 2)">
                <path d="M6.64752941,16.8152914 C6.18305882,16.690115 5.824,16.3508209 5.66258824,15.8929385 C5.61976471,15.7710561 5.6,15.5734091 5.58682353,15.1418797 L5.56705882,14.5522326 L5.28705882,14.4435267 C4.648,14.199762 4.10117647,13.8571738 3.63341176,13.4124679 C3.02070588,12.8294091 2.59905882,12.1705856 2.34211765,11.3964679 C2.11811765,10.7211738 2.11811765,10.7211738 2.09176471,8.87646791 C2.06541176,7.11411497 2.05223529,6.94611497 1.89411765,6.3729385 C1.80188235,6.05011497 1.71952941,5.84258556 1.53505882,5.47364438 C1.29788235,5.00258556 1.00470588,4.61387968 0.556705882,4.16587968 C0.0461176471,3.65858556 -7.46069873e-14,3.5729385 -7.46069873e-14,3.1611738 C-7.46069873e-14,2.89764438 0.0131764706,2.8251738 0.0757647059,2.70658556 C0.191058824,2.4891738 0.365647059,2.31458556 0.569882353,2.21576203 L0.757647059,2.12352674 L2.65505882,2.11364438 L4.55576471,2.10376203 L4.61505882,1.86658556 C4.64470588,1.73811497 4.74023529,1.49764438 4.81929412,1.33623262 C4.93788235,1.09905615 5.02682353,0.980467914 5.25082353,0.753173796 C5.64282353,0.361173796 6.01505882,0.153644384 6.51247059,0.0515267372 C7.35905882,-0.123061498 8.19247059,0.150350267 8.80517647,0.805879678 C9.11811765,1.14187968 9.30917647,1.51740909 9.41788235,2.01482085 L9.43764706,2.10376203 L11.3416471,2.11364438 L13.2423529,2.12352674 L13.4301176,2.21576203 C13.6343529,2.31458556 13.8089412,2.4891738 13.9242353,2.70658556 C13.9868235,2.8251738 14,2.89764438 14,3.1611738 C14,3.57623262 13.9505882,3.66187968 13.4432941,4.16587968 C12.6296471,4.97623262 12.1915294,5.7931738 11.9872941,6.89999733 C11.9444706,7.1371738 11.928,7.52587968 11.9082353,8.87646791 C11.8818824,10.7211738 11.8818824,10.7244679 11.6578824,11.3931738 C11.1934118,12.7964679 10.1294118,13.8967032 8.71294118,14.4435267 L8.43294118,14.5522326 L8.41317647,15.1418797 C8.39670588,15.6162326 8.38023529,15.7644679 8.32752941,15.9159973 C8.07058824,16.6143503 7.34588235,17.0030561 6.64752941,16.8152914 Z M7.34588235,16.0642326 C7.41505882,16.0247032 7.52047059,15.9291738 7.57647059,15.850115 C7.67529412,15.7084679 7.67529412,15.7018797 7.68517647,15.2242326 L7.69505882,14.7399973 L7,14.7399973 L6.30494118,14.7399973 L6.31482353,15.2209385 C6.32470588,15.6788209 6.328,15.7051738 6.41364706,15.8369385 C6.62447059,16.1564679 7.00658824,16.2487032 7.34588235,16.0642326 Z M7.77082353,13.9790561 C9.26964706,13.6924679 10.5247059,12.602115 10.9990588,11.1658797 C11.1868235,10.5992914 11.1901176,10.5465856 11.2164706,8.74470321 C11.2362353,7.35129144 11.2494118,7.01199733 11.2988235,6.75176203 C11.5162353,5.5691738 12.0268235,4.59082085 12.8701176,3.74423262 C13.0842353,3.53340909 13.272,3.3291738 13.2917647,3.29623262 C13.3741176,3.14140909 13.2818824,2.91740909 13.1105882,2.8449385 C12.9425882,2.77576203 1.05741176,2.77576203 0.889411765,2.8449385 C0.718117647,2.91740909 0.625882353,3.14140909 0.708235294,3.29623262 C0.728,3.3291738 0.915764706,3.53340909 1.12988235,3.74423262 C1.97317647,4.59082085 2.48047059,5.56587968 2.70117647,6.75176203 C2.75058824,7.01199733 2.76376471,7.34799733 2.78352941,8.74470321 C2.80988235,10.5498797 2.81317647,10.5959973 3.00094118,11.1658797 C3.584,12.9249385 5.31670588,14.1272914 7.14823529,14.0449385 C7.34917647,14.0350561 7.62917647,14.0054091 7.77082353,13.9790561 Z M8.69976471,2.01811497 C8.65364706,1.82376203 8.45270588,1.45811497 8.30447059,1.29340909 C7.95858824,0.911291443 7.53035294,0.72023262 7.01647059,0.713644384 C6.50258824,0.710350267 6.05458824,0.904703208 5.71529412,1.27364438 C5.55058824,1.45482085 5.34964706,1.81387968 5.30023529,2.01811497 L5.28047059,2.10705615 L7,2.10705615 L8.71952941,2.10705615 L8.69976471,2.01811497 Z" id="Shape" transform="translate(7, 8.4312) scale(-1, 1) rotate(-180) translate(-7, -8.4312)"></path>
            </g>
        </g>
    </g>
</svg>