<?xml version="1.0" encoding="UTF-8"?>
<svg width="27px" height="32px" viewBox="0 0 27 32" version="1.1" xmlns="http://www.w3.org/2000/svg" xmlns:xlink="http://www.w3.org/1999/xlink">
    <title>Group</title>
    <g id="Symbols" stroke="none" stroke-width="1" fill="none" fill-rule="evenodd">
        <g id="07.-iPhone-14-Midnight" transform="translate(-240, -415)" fill="#4A4A4A" fill-rule="nonzero" stroke="#4A4A4A" stroke-width="0.2">
            <g id="iPhone-14-screen" transform="translate(21, 19)">
                <g id="Group-13" transform="translate(0, -1)">
                    <g id="Group-63" transform="translate(203, 374)">
                        <g id="Group" transform="translate(16.3376, 23.8118)">
                            <path d="M22.4312176,5.79395296 L4.09106127,5.79395296 C2.51075144,5.79395296 1.22515978,4.51641007 1.22515978,2.94599416 L1.22515978,2.8479588 C1.22515978,1.27754289 2.51075144,0 4.09106127,0 L22.4312176,0 C24.0115274,0 25.2971191,1.27754289 25.2971191,2.8479588 L25.2971191,2.94599416 C25.2971191,4.51641007 24.0115275,5.79395296 22.4312176,5.79395296 Z M4.09106127,1.2627451 C3.21125001,1.2627451 2.49586042,1.97365581 2.49586042,2.8479588 L2.49586042,2.94599416 C2.49586042,3.82029715 3.21125001,4.53120787 4.09106127,4.53120787 L22.4312176,4.53120787 C23.3110288,4.53120787 24.0264184,3.82029715 24.0264184,2.94599416 L24.0264184,2.8479588 C24.0264184,1.97365581 23.3110289,1.2627451 22.4312176,1.2627451 L4.09106127,1.2627451 Z" id="Shape"></path>
                            <path d="M16.1763674,10.4355277 L10.3459115,10.4355277 L10.3459115,4.53120787 L16.1763674,4.53120787 L16.1763674,10.4355277 Z M11.6166121,9.17278262 L14.9056668,9.17278262 L14.9056668,5.79395296 L11.6166121,5.79395296 L11.6166121,9.17278262 Z" id="Shape"></path>
                            <path d="M23.606988,30.3058824 L2.91529093,30.3058824 C2.08139364,30.3058824 1.28534436,29.9501187 0.732515115,29.3292279 C0.179685875,28.7089537 -0.0796660947,27.8808938 0.0214687784,27.0577665 L1.90146046,11.7198529 C2.07953225,10.2678194 3.3235532,9.17278262 4.79528261,9.17278262 L21.7269963,9.17278262 C23.1987258,9.17278262 24.4427466,10.2678194 24.6208184,11.7198529 L26.5008101,27.0577666 C26.601945,27.8808938 26.342593,28.7089538 25.7897638,29.329228 C25.2369345,29.9501187 24.4408853,30.3058824 23.606988,30.3058824 Z M4.79528261,10.4355277 C3.96510809,10.4355277 3.26336862,11.0533356 3.16223375,11.8727635 L1.28224207,27.2106771 C1.22578026,27.6749579 1.37158821,28.1423215 1.68367921,28.4919195 C1.99577027,28.8421339 2.44498277,29.0431373 2.91529093,29.0431373 L23.606988,29.0431373 C24.0772961,29.0431373 24.5265086,28.8421339 24.8385997,28.4919194 C25.1506907,28.1423215 25.2964986,27.6749579 25.2400368,27.2106771 L23.3600452,11.8727634 C23.2589103,11.0533355 22.5571708,10.4355277 21.7269963,10.4355277 L4.79528261,10.4355277 L4.79528261,10.4355277 Z" id="Shape"></path>
                            <path d="M13.2608292,27.5454772 C8.92940287,27.5454772 5.40519408,24.0433326 5.40519408,19.7390242 C5.40519408,15.4347159 8.92940287,11.9325713 13.2608292,11.9325713 C17.5922555,11.9325713 21.1164643,15.4347159 21.1164643,19.7390242 C21.1164643,24.0433326 17.5922555,27.5454772 13.2608292,27.5454772 Z M13.2608292,13.1953164 C9.62990138,13.1953164 6.67589471,16.1308288 6.67589471,19.7390242 C6.67589471,23.3472197 9.62990144,26.2827321 13.2608292,26.2827321 C16.891757,26.2827321 19.8457637,23.3472197 19.8457637,19.7390242 C19.8457637,16.1308288 16.891757,13.1953164 13.2608292,13.1953164 Z" id="Shape"></path>
                            <path d="M13.2608292,21.8810049 C12.0726496,21.8810049 11.1059741,20.9203814 11.1059741,19.7390242 C11.1059741,18.557667 12.0726496,17.5970435 13.2608292,17.5970435 C14.4496292,17.5970435 15.4163048,18.557667 15.4163048,19.7390242 C15.4163048,20.9203814 14.4496292,21.8810049 13.2608292,21.8810049 Z M13.2608292,18.8597886 C12.7731482,18.8597886 12.3766747,19.2543965 12.3766747,19.7390242 C12.3766747,20.223652 12.7731482,20.6182598 13.2608292,20.6182598 C13.7485103,20.6182598 14.1456041,20.223652 14.1456041,19.7390242 C14.1456041,19.2543965 13.7485102,18.8597886 13.2608292,18.8597886 Z" id="Shape"></path>
                            <path d="M13.2608292,18.8597886 C12.9096492,18.8597886 12.6254789,18.5773974 12.6254789,18.2284161 L12.6254789,15.3175666 C12.6254789,14.9685853 12.9096492,14.6861941 13.2608292,14.6861941 C13.6120092,14.6861941 13.8961795,14.9685853 13.8961795,15.3175666 L13.8961795,18.2284161 C13.8961795,18.5773973 13.6120092,18.8597886 13.2608292,18.8597886 Z" id="Path"></path>
                        </g>
                    </g>
                </g>
            </g>
        </g>
    </g>
</svg>