<?xml version="1.0" encoding="UTF-8"?>
<svg width="20px" height="23px" viewBox="0 0 20 23" version="1.1" xmlns="http://www.w3.org/2000/svg" xmlns:xlink="http://www.w3.org/1999/xlink">
    <title>fluent:box-search-16-regular</title>
    <g id="Symbols" stroke="none" stroke-width="1" fill="none" fill-rule="evenodd">
        <g id="rastrea-envio/Default" transform="translate(-99, -39)" fill-rule="nonzero">
            <g id="Group-2" transform="translate(15, 23)">
                <g id="fluent:box-search-16-regular" transform="translate(84, 16)">
                    <polygon id="ViewBox" points="0 0 20 0 20 22.0134392 0 22.0134392"></polygon>
                    <path d="M12.5962493,0.521307211 C11.7296955,0.154439595 10.7703039,0.154439595 9.90375015,0.521307211 L3.70250007,3.14641144 C2.97816738,3.45274097 2.49999997,4.21850955 2.49999997,5.07258821 L2.49999997,8.608499 C2.90427717,8.45066006 3.32369548,8.34448245 3.74999997,8.29205574 L3.74999997,5.46607874 L10.6249997,8.70893531 L10.6249997,18.4072353 L11.1774995,19.0153588 C11.6621289,19.025421 12.1439343,18.9319742 12.5962493,18.7401906 L18.7987506,16.1150862 C19.5225915,15.8083114 20.0000007,15.0426425 20.0000007,14.1889092 L20.0000007,5.07258821 C20.0000007,4.2188549 19.5225915,3.45318627 18.7987506,3.14641144 L12.5962493,0.521307211 Z M10.3524997,1.80496659 C10.9302022,1.56038818 11.5697972,1.56038818 12.1474998,1.80496659 L18.0450008,4.3021176 L15.6112497,5.4495688 L8.62250015,2.53828982 L10.3524997,1.80496659 Z M11.8749997,8.70893531 L18.7500007,5.46607874 L18.7500007,14.1889092 C18.7502713,14.4735395 18.5912597,14.7289609 18.3500011,14.8314276 L12.1474998,17.456531 C12.058503,17.4946185 11.9675052,17.5267801 11.8749997,17.5528404 L11.8749997,8.70893531 Z M11.2499997,7.5064508 L4.45500013,4.30074173 L6.87125036,3.27849202 L13.9549997,6.23104638 L11.2499997,7.5064508 Z M4.37500021,19.2616333 C5.35750022,19.2616333 6.26500007,18.9039146 6.99500009,18.3026722 L10.1824996,21.811066 C10.3403663,21.9850714 10.570581,22.0531598 10.7864244,21.9896822 C11.0022677,21.9262048 11.1709479,21.7408049 11.2289245,21.503322 C11.2869011,21.2658392 11.2253665,21.0123531 11.0674998,20.8383477 L7.88000032,17.3299539 C9.09467765,15.542025 9.03356668,13.0696103 7.73236677,11.3570173 C6.43116685,9.64442424 4.23113605,9.14080548 2.41746399,10.1403589 C0.60379192,11.1399123 -0.347859974,13.3804905 0.118433629,15.5532181 C0.584727233,17.7259458 2.34667441,19.2609926 4.37500021,19.2616333 Z M4.37500021,17.8857926 C2.6491104,17.8857926 1.24999997,16.3458314 1.24999997,14.4461918 C1.24999997,12.5465521 2.6491104,11.00659 4.37500021,11.00659 C6.10089001,11.00659 7.50000021,12.5465521 7.50000021,14.4461918 C7.50000021,16.3458314 6.10089001,17.8857926 4.37500021,17.8857926 Z" id="Shape" fill="#4C4C4C"></path>
                </g>
            </g>
        </g>
    </g>
</svg>