<?xml version="1.0" encoding="UTF-8"?>
<svg width="14px" height="18px" viewBox="0 0 14 18" version="1.1" xmlns="http://www.w3.org/2000/svg" xmlns:xlink="http://www.w3.org/1999/xlink">
    <title>reporte@2x</title>
    <g id="Symbols" stroke="none" stroke-width="1" fill="none" fill-rule="evenodd">
        <g id="Menú/Reportes" transform="translate(-3, -1)" fill="#4C4C4C" fill-rule="nonzero" stroke="#4C4C4C">
            <g id="reporte" transform="translate(4, 2)">
                <path d="M0.87563249,16.3014647 C0.536884154,16.211984 0.207723036,15.9147803 0.0735019973,15.5856192 L1.42108547e-14,15.4034621 L1.42108547e-14,8.16511318 L1.42108547e-14,0.926764314 L0.0735019973,0.74460719 C0.178961385,0.48575233 0.418641811,0.233288948 0.68069241,0.105459387 L0.894806924,1.42108547e-14 L5.99201065,1.42108547e-14 L11.0892144,1.42108547e-14 L11.3033289,0.105459387 C11.5653795,0.233288948 11.8050599,0.48575233 11.9105193,0.74460719 L11.9840213,0.926764314 L11.9840213,3.58561917 C11.9840213,6.50972037 11.9968043,6.32117177 11.7890812,6.36271638 C11.7219707,6.37549933 11.6708389,6.36271638 11.6165113,6.31797603 L11.5366178,6.25406125 L11.5206391,3.6207723 L11.5046605,0.990679095 L11.4343542,0.856458056 C11.3480692,0.693475366 11.1723036,0.549667111 11.0125166,0.498535286 C10.836751,0.447403462 1.14727031,0.447403462 0.97150466,0.498535286 C0.81171771,0.549667111 0.635952064,0.693475366 0.549667111,0.856458056 L0.479360852,0.990679095 L0.479360852,8.16511318 L0.479360852,15.3395473 L0.549667111,15.4737683 C0.635952064,15.636751 0.81171771,15.7805593 0.97150466,15.8316911 C1.06098535,15.857257 2.00053262,15.8668442 4.34300932,15.8668442 L7.58988016,15.8668442 L7.58988016,15.3874834 L7.58988016,14.9081225 L7.58668442,14.4287617 L7.59627164,13.6202397 L7.60585885,12.8117177 L7.7081225,12.6039947 C7.83275632,12.3515313 8.03408788,12.1565912 8.28655126,12.0383489 L8.46870839,11.9520639 L9.99627164,11.9424767 L11.5206391,11.9328895 L11.5206391,9.5424767 L11.5206391,7.15206391 L11.5941411,7.0849534 C11.6932091,6.99227696 11.8242344,6.9954727 11.9233023,7.09454061 L12,7.17123835 L11.9936085,9.7310253 L11.9840213,12.2876165 L9.95472703,14.3169108 L7.92543276,16.3462051 L4.47403462,16.3430093 C1.84394141,16.3430093 0.987483356,16.3334221 0.87563249,16.3014647 Z M9.93235686,12.4218375 C9.07909454,12.4154461 8.65086551,12.4250333 8.56138482,12.4505992 C8.38561917,12.4985353 8.21944075,12.6391478 8.13635153,12.808522 C8.07243675,12.942743 8.06924101,12.9938748 8.06924101,14.240213 L8.06924101,15.5312916 L9.61917443,13.9813582 L11.1691079,12.4314248 L9.93235686,12.4218375 Z" id="Shape" stroke-width="0.2" transform="translate(6, 8.1731) scale(-1, 1) rotate(-180) translate(-6, -8.1731)"></path>
                <path d="M1.75765646,7.47327282 C1.59786951,7.40296656 1.49241012,7.25276683 1.47003995,7.06421822 C1.45725699,6.97154179 1.45406125,6.51455111 1.46045273,6.04797322 C1.47643142,4.79843926 1.39973369,4.86554978 2.78988016,4.86554978 C3.87003995,4.86554978 3.91797603,4.875137 4.04260985,5.07327282 C4.10332889,5.17234073 4.10652463,5.22986403 4.10652463,6.17899852 C4.10652463,7.60110238 4.20559254,7.49883873 2.82822903,7.50842595 C2.0644474,7.51481742 1.83115846,7.50842595 1.75765646,7.47327282 Z M3.62716378,6.19178147 L3.62716378,5.34491063 L2.78029294,5.34491063 L1.9334221,5.34491063 L1.9334221,6.1694113 C1.9334221,6.62320624 1.94300932,7.00669492 1.95579228,7.01628214 C1.96537949,7.02906509 2.34886818,7.03865231 2.80266312,7.03865231 L3.62716378,7.03865231 L3.62716378,6.19178147 Z" id="Shape" stroke-width="0.1" transform="translate(2.7827, 6.1878) scale(-1, 1) rotate(-180) translate(-2.7827, -6.1878)"></path>
                <path d="M5.18029234,5.2665779 C5.06524573,5.16111851 5.05565852,5.02689747 5.1611179,4.92143808 C5.22503268,4.8575233 5.26657729,4.8575233 7.73049207,4.8575233 C10.0729688,4.8575233 10.2391472,4.86071904 10.303062,4.9150466 C10.4085214,4.99813582 10.4021299,5.16750999 10.2934748,5.26338216 L10.2071898,5.33688415 L7.73368781,5.33688415 L5.26018581,5.33688415 L5.18029234,5.2665779 Z" id="Path" stroke-width="0.05" transform="translate(7.7332, 5.0972) scale(-1, 1) rotate(-180) translate(-7.7332, -5.0972)"></path>
                <path d="M1.59262834,2.65905459 C1.47758173,2.55359521 1.46799452,2.41937417 1.5734539,2.31391478 C1.63736868,2.25 1.67891329,2.25 4.14282807,2.25 C6.48530477,2.25 6.6514832,2.25319574 6.71539798,2.3075233 C6.82085737,2.39061252 6.81446589,2.55998668 6.70581076,2.65585885 L6.61952581,2.72936085 L4.14602381,2.72936085 L1.67252181,2.72936085 L1.59262834,2.65905459 Z" id="Path" stroke-width="0.05" transform="translate(4.1455, 2.4897) scale(-1, 1) rotate(-180) translate(-4.1455, -2.4897)"></path>
                <path d="M5.18029234,6.55905459 C5.06524573,6.45359521 5.05565852,6.31937417 5.1611179,6.21391478 C5.22503268,6.15 5.26657729,6.15 7.73049207,6.15 C10.0729688,6.15 10.2391472,6.15319574 10.303062,6.2075233 C10.4085214,6.29061252 10.4021299,6.45998668 10.2934748,6.55585885 L10.2071898,6.62936085 L7.73368781,6.62936085 L5.26018581,6.62936085 L5.18029234,6.55905459 Z" id="Path" stroke-width="0.05" transform="translate(7.7332, 6.3897) scale(-1, 1) rotate(-180) translate(-7.7332, -6.3897)"></path>
                <path d="M1.75765646,11.0844579 C1.59786951,11.0141516 1.49241012,10.8639519 1.47003995,10.6754033 C1.45725699,10.5827269 1.45406125,10.1257362 1.46045273,9.6591583 C1.47643142,8.40962435 1.39973369,8.47673487 2.78988016,8.47673487 C3.87003995,8.47673487 3.91797603,8.48632208 4.04260985,8.6844579 C4.10332889,8.78352581 4.10652463,8.84104912 4.10652463,9.7901836 C4.10652463,11.2122875 4.20559254,11.1100238 2.82822903,11.119611 C2.0644474,11.1260025 1.83115846,11.119611 1.75765646,11.0844579 Z M3.62716378,9.80296656 L3.62716378,8.95609572 L2.78029294,8.95609572 L1.9334221,8.95609572 L1.9334221,9.78059639 C1.9334221,10.2343913 1.94300932,10.61788 1.95579228,10.6274672 C1.96537949,10.6402502 2.34886818,10.6498374 2.80266312,10.6498374 L3.62716378,10.6498374 L3.62716378,9.80296656 Z" id="Shape" stroke-width="0.1" transform="translate(2.7827, 9.799) scale(-1, 1) rotate(-180) translate(-2.7827, -9.799)"></path>
                <path d="M5.18029234,8.87776298 C5.06524573,8.7723036 5.05565852,8.63808256 5.1611179,8.53262317 C5.22503268,8.46870839 5.26657729,8.46870839 7.73049207,8.46870839 C10.0729688,8.46870839 10.2391472,8.47190413 10.303062,8.52623169 C10.4085214,8.60932091 10.4021299,8.77869507 10.2934748,8.87456724 L10.2071898,8.94806924 L7.73368781,8.94806924 L5.26018581,8.94806924 L5.18029234,8.87776298 Z" id="Path" stroke-width="0.05" transform="translate(7.7332, 8.7084) scale(-1, 1) rotate(-180) translate(-7.7332, -8.7084)"></path>
                <path d="M5.18029234,10.1590546 C5.06524573,10.0535952 5.05565852,9.91937417 5.1611179,9.81391478 C5.22503268,9.75 5.26657729,9.75 7.73049207,9.75 C10.0729688,9.75 10.2391472,9.75319574 10.303062,9.8075233 C10.4085214,9.89061252 10.4021299,10.0599867 10.2934748,10.1558589 L10.2071898,10.2293609 L7.73368781,10.2293609 L5.26018581,10.2293609 L5.18029234,10.1590546 Z" id="Path" stroke-width="0.05" transform="translate(7.7332, 9.9897) scale(-1, 1) rotate(-180) translate(-7.7332, -9.9897)"></path>
                <path d="M1.75765646,14.695643 C1.59786951,14.6253367 1.49241012,14.475137 1.47003995,14.2865884 C1.45725699,14.193912 1.45406125,13.7369213 1.46045273,13.2703434 C1.47643142,12.0208094 1.39973369,12.08792 2.78988016,12.08792 C3.87003995,12.08792 3.91797603,12.0975072 4.04260985,12.295643 C4.10332889,12.3947109 4.10652463,12.4522342 4.10652463,13.4013687 C4.10652463,14.8234726 4.20559254,14.7212089 2.82822903,14.7307961 C2.0644474,14.7371876 1.83115846,14.7307961 1.75765646,14.695643 Z M3.62716378,13.4141516 L3.62716378,12.5672808 L2.78029294,12.5672808 L1.9334221,12.5672808 L1.9334221,13.3917815 C1.9334221,13.8455764 1.94300932,14.2290651 1.95579228,14.2386523 C1.96537949,14.2514353 2.34886818,14.2610225 2.80266312,14.2610225 L3.62716378,14.2610225 L3.62716378,13.4141516 Z" id="Shape" stroke-width="0.1" transform="translate(2.7827, 13.4101) scale(-1, 1) rotate(-180) translate(-2.7827, -13.4101)"></path>
                <path d="M5.18029234,12.4889481 C5.06524573,12.3834887 5.05565852,12.2492676 5.1611179,12.1438083 C5.22503268,12.0798935 5.26657729,12.0798935 7.73049207,12.0798935 C10.0729688,12.0798935 10.2391472,12.0830892 10.303062,12.1374168 C10.4085214,12.220506 10.4021299,12.3898802 10.2934748,12.4857523 L10.2071898,12.5592543 L7.73368781,12.5592543 L5.26018581,12.5592543 L5.18029234,12.4889481 Z" id="Path" stroke-width="0.05" transform="translate(7.7332, 12.3196) scale(-1, 1) rotate(-180) translate(-7.7332, -12.3196)"></path>
                <path d="M5.18029234,13.9090546 C5.06524573,13.8035952 5.05565852,13.6693742 5.1611179,13.5639148 C5.22503268,13.5 5.26657729,13.5 7.73049207,13.5 C10.0729688,13.5 10.2391472,13.5031957 10.303062,13.5575233 C10.4085214,13.6406125 10.4021299,13.8099867 10.2934748,13.9058589 L10.2071898,13.9793609 L7.73368781,13.9793609 L5.26018581,13.9793609 L5.18029234,13.9090546 Z" id="Path" stroke-width="0.05" transform="translate(7.7332, 13.7397) scale(-1, 1) rotate(-180) translate(-7.7332, -13.7397)"></path>
            </g>
        </g>
    </g>
</svg>