<?xml version="1.0" encoding="UTF-8"?>
<svg width="15px" height="14px" viewBox="0 0 15 14" version="1.1" xmlns="http://www.w3.org/2000/svg" xmlns:xlink="http://www.w3.org/1999/xlink">
    <title>icon/reportes@1x</title>
    <g id="icon/reportes" stroke="none" stroke-width="1" fill="none" fill-rule="evenodd">
        <path d="M2.18914032,8.60207274 L0.673484795,8.60207274 C0.302124023,8.60207274 0,8.9004889 0,9.2674052 L0,13.1558586 C0,13.5226619 0.302124023,13.8210781 0.673484795,13.8210781 L2.18914032,13.8210781 C2.56061555,13.8210781 2.86273957,13.5226619 2.86273957,13.1558586 L2.86273957,9.2674052 C2.86273957,8.9004889 2.56061555,8.60207274 2.18914032,8.60207274 Z M2.42328644,13.1558586 C2.42328644,13.2832507 2.31822967,13.3870181 2.18914032,13.3870181 L0.673484795,13.3870181 C0.544509902,13.3870181 0.439453125,13.2832507 0.439453125,13.1558586 L0.439453125,9.2674052 C0.439453125,9.13990013 0.544509902,9.03613269 0.673484795,9.03613269 L2.18914032,9.03613269 C2.31822967,9.03613269 2.42328644,9.13990013 2.42328644,9.2674052 L2.42328644,13.1558586 Z" id="Shape" stroke="#4C4C4C" stroke-width="0.4" fill="#4C4C4C" fill-rule="nonzero"></path>
        <path d="M6.23497008,5.55438438 L4.7193146,5.55438438 C4.3479538,5.55438438 4.04582978,5.85280054 4.04582978,6.2196038 L4.04582978,7.45362257 C4.04582978,7.57344119 4.14413453,7.67065254 4.26555633,7.67065254 C4.3868637,7.67065254 4.4852829,7.57344119 4.4852829,7.45362257 L4.4852829,6.2196038 C4.4852829,6.09221175 4.59022523,5.98844429 4.7193146,5.98844429 L6.23497008,5.98844429 C6.36405943,5.98844429 6.46900178,6.09221175 6.46900178,6.2196038 L6.46900178,13.1558586 C6.46900178,13.2832507 6.36405943,13.3870181 6.23497008,13.3870181 L4.7193146,13.3870181 C4.59022523,13.3870181 4.4852829,13.2832507 4.4852829,13.1558586 L4.4852829,8.32174235 C4.4852829,8.20192377 4.3868637,8.10471245 4.26555633,8.10471245 C4.14413453,8.10471245 4.04582978,8.20192377 4.04582978,8.32174235 L4.04582978,13.1558586 C4.04582978,13.5226619 4.3479538,13.8210781 4.7193146,13.8210781 L6.23497008,13.8210781 C6.60633088,13.8210781 6.9084549,13.5226619 6.9084549,13.1558586 L6.9084549,6.21971685 C6.9084549,5.85280054 6.60633088,5.55438438 6.23497008,5.55438438 Z" id="Path" stroke="#4C4C4C" stroke-width="0.4" fill="#4C4C4C" fill-rule="nonzero"></path>
        <path d="M10.2806854,7.38308784 L8.76502992,7.38308784 C8.39366917,7.38308784 8.0915451,7.68150403 8.0915451,8.04830726 L8.0915451,13.1558586 C8.0915451,13.5226619 8.39366917,13.8210781 8.76502992,13.8210781 L10.2806854,13.8210781 C10.6521607,13.8210781 10.9542847,13.5226619 10.9542847,13.1558586 L10.9542847,8.04830726 C10.9542847,7.68150403 10.6521607,7.38308784 10.2806854,7.38308784 Z M10.5148316,13.1558586 C10.5148316,13.2832507 10.4097748,13.3870181 10.2806854,13.3870181 L8.76502992,13.3870181 C8.63594058,13.3870181 8.53099825,13.2832507 8.53099825,13.1558586 L8.53099825,8.04830726 C8.53099825,7.92080217 8.63594058,7.81714775 8.76502992,7.81714775 L10.2806854,7.81714775 C10.4097748,7.81714775 10.5148316,7.92080217 10.5148316,8.04830726 L10.5148316,13.1558586 Z" id="Shape" stroke="#4C4C4C" stroke-width="0.4" fill="#4C4C4C" fill-rule="nonzero"></path>
        <path d="M14.3265152,4.03054018 L12.8108597,4.03054018 C12.4394989,4.03054018 12.1372604,4.32895637 12.1372604,4.69575962 L12.1372604,10.8971645 C12.1372604,11.0169831 12.2356797,11.1141945 12.356987,11.1141945 C12.4784088,11.1141945 12.5767136,11.0169831 12.5767136,10.8971645 L12.5767136,4.69575962 C12.5767136,4.56825453 12.6817703,4.46460009 12.8108597,4.46460009 L14.3265152,4.46460009 C14.4554901,4.46460009 14.5605468,4.56825453 14.5605468,4.69575962 L14.5605468,13.1558586 C14.5605468,13.2832507 14.4554901,13.3870181 14.3265152,13.3870181 L12.8108597,13.3870181 C12.6817703,13.3870181 12.5767136,13.2832507 12.5767136,13.1558586 L12.5767136,11.7652844 C12.5767136,11.6454657 12.4784088,11.5482544 12.356987,11.5482544 C12.2356797,11.5482544 12.1372604,11.6454657 12.1372604,11.7652844 L12.1372604,13.1558586 C12.1372604,13.5226619 12.4394989,13.8210781 12.8108597,13.8210781 L14.3265152,13.8210781 C14.697876,13.8210781 15,13.5226619 15,13.1558586 L15,4.69575962 C15,4.32895637 14.697876,4.03054018 14.3265152,4.03054018 L14.3265152,4.03054018 Z" id="Path" stroke="#4C4C4C" stroke-width="0.4" fill="#4C4C4C" fill-rule="nonzero"></path>
        <path d="M1.43131257,4.57153258 C0.676460272,4.57153258 0.0622558595,5.17819909 0.0622558595,5.92378745 C0.0622558595,6.66948884 0.676460272,7.27615535 1.43131257,7.27615535 C2.1862793,7.27615535 2.8004837,6.66948884 2.8004837,5.92378745 C2.8004837,5.86455635 2.79613495,5.80645563 2.7886963,5.7492592 L4.94739532,4.12300401 C5.1103592,4.19082587 5.28945922,4.22846698 5.47714232,4.22846698 C5.77308657,4.22846698 6.04717255,4.13487282 6.2713623,3.97662182 L8.15986635,4.83015994 C8.22418213,5.51719538 8.81080633,6.0570574 9.52285767,6.0570574 C10.2778244,6.0570574 10.8920288,5.45039085 10.8920288,4.70480254 C10.8920288,4.6239815 10.8843613,4.544969 10.8706283,4.46810423 L13.0979919,2.62221925 C13.2448197,2.67557246 13.4034348,2.7046228 13.5686874,2.7046228 C14.3235398,2.7046228 14.9377442,2.09795625 14.9377442,1.35225489 C14.9377442,0.606666559 14.3235398,0 13.5686874,0 C12.8137207,0 12.1995163,0.606666559 12.1995163,1.35225489 C12.1995163,1.43307595 12.2071838,1.51208839 12.2209168,1.58895317 L9.99343875,3.43483817 C9.84672542,3.38159801 9.68811033,3.35243459 9.52285767,3.35243459 C9.22691342,3.35243459 8.95282742,3.4460288 8.72863767,3.60439283 L6.84013365,2.75074167 C6.77581788,2.0637062 6.18930817,1.52384418 5.47714232,1.52384418 C4.7221756,1.52384418 4.10808562,2.13051074 4.10808562,2.87609908 C4.10808562,2.93533016 4.11231995,2.99354395 4.11987305,3.05074035 L1.96105957,4.67688255 C1.79798127,4.60906069 1.61911011,4.57153258 1.43131257,4.57153258 Z M13.5686874,0.434059913 C14.0812683,0.434059913 14.498291,0.845964688 14.498291,1.35225489 C14.498291,1.85854506 14.0812683,2.27056289 13.5686874,2.27056289 C13.0637741,2.27056289 12.6389694,1.85097165 12.6389694,1.35225489 C12.6389694,0.845964688 13.0559921,0.434059913 13.5686874,0.434059913 Z M12.3803329,2.02346523 C12.3839951,2.02979527 12.3880005,2.03589925 12.391777,2.04211623 C12.4711991,2.17425585 12.5733947,2.29294409 12.6928711,2.39139883 L10.7112122,4.03347914 C10.7075501,4.02714911 10.6474686,3.9328767 10.6180572,3.89410519 C10.5541992,3.8100061 10.4806137,3.73314132 10.398674,3.66554555 L12.3803329,2.02346523 Z M8.5933685,4.69123818 C8.60092158,4.19907752 9.02172092,3.7864945 9.52285767,3.7864945 C10.0225067,3.7864945 10.4524612,4.20845955 10.4524612,4.70480254 C10.4524612,5.21109272 10.0354386,5.62299748 9.52285767,5.62299748 C9.01027675,5.62299748 8.59325408,5.21109272 8.59325408,4.70480254 C8.59325408,4.70028109 8.59325408,4.69575962 8.5933685,4.69123818 L8.5933685,4.69123818 Z M6.60610197,3.63999929 C6.69605255,3.50955526 6.76391602,3.36452951 6.80351255,3.2115912 L8.39927675,3.93276368 C8.31802368,4.04839994 8.25450897,4.17680935 8.21296692,4.31154878 C8.20701597,4.33065193 8.20152282,4.34986812 8.19648745,4.36919735 L6.60072327,3.6480249 C6.60255432,3.64542505 6.60427092,3.64271216 6.60610197,3.63999929 Z M5.47714232,1.9579041 C5.98972322,1.9579041 6.40674592,2.36980887 6.40674592,2.87609908 C6.40674592,3.37074652 5.9771347,3.79440707 5.47714232,3.79440707 C4.97692107,3.79440707 4.54742432,3.37300725 4.54742432,2.87609908 C4.54742432,2.36980887 4.96444702,1.9579041 5.47714232,1.9579041 Z M4.258461,3.49214765 C4.26109312,3.49712123 4.2640686,3.50209486 4.26670075,3.50706843 C4.3401718,3.64429469 4.43756102,3.76908692 4.55348967,3.87387169 L2.6499939,5.3078519 C2.6147461,5.24003004 2.5733185,5.17492105 2.52708432,5.11399442 C2.47581481,5.04639865 2.41836547,4.98332432 2.35496519,4.92601484 L4.258461,3.49214765 Z M1.98532104,5.19436333 C2.2108841,5.36391798 2.36103058,5.63091004 2.36103058,5.92378745 C2.36103058,6.4301907 1.94400788,6.84209544 1.43131257,6.84209544 C0.918731692,6.84209544 0.501708985,6.4301907 0.501708985,5.92378745 C0.501708985,5.41749726 0.918731692,5.00559249 1.43131257,5.00559249 C1.63570403,5.00559249 1.82876587,5.07646635 1.98532104,5.19436333 Z" id="Shape" stroke="#4C4C4C" stroke-width="0.4" fill="#4C4C4C" fill-rule="nonzero"></path>
    </g>
</svg>