<?xml version="1.0" encoding="UTF-8"?>
<svg width="15px" height="21px" viewBox="0 0 15 21" version="1.1" xmlns="http://www.w3.org/2000/svg" xmlns:xlink="http://www.w3.org/1999/xlink">
    <title>Group</title>
    <g id="Symbols" stroke="none" stroke-width="1" fill="none" fill-rule="evenodd">
        <g id="Group" fill="#4C4C4C" transform="translate(0.5, 0.5)">
            <path d="M7,6.25531915 C10.8659932,6.25531915 14,9.3559854 14,13.1808511 C14,17.0057167 10.8659932,20.106383 7,20.106383 C3.13400675,20.106383 0,17.0057167 0,13.1808511 C0,9.3559854 3.13400675,6.25531915 7,6.25531915 Z M7.07446809,7.59574468 C3.90764383,7.59574468 1.34042553,10.1296225 1.34042553,13.2553191 C1.34042553,16.3810158 3.90764383,18.9148936 7.07446809,18.9148936 C10.2412923,18.9148936 12.8085106,16.3810158 12.8085106,13.2553191 C12.8085106,10.1296225 10.2412923,7.59574468 7.07446809,7.59574468 Z" id="Combined-Shape" stroke="#FFFFFF" stroke-width="0.3"></path>
            <path d="M10.4449785,12.1500185 L8.26610185,11.8508079 L7.29155438,9.98718761 C7.18198328,9.77732044 6.81801672,9.77732044 6.70844562,9.98718761 L5.73389815,11.8508079 L3.55502152,12.1500185 C3.43258776,12.1668078 3.3307978,12.2477566 3.29252731,12.3589862 C3.25425683,12.469916 3.28617538,12.5919387 3.37494384,12.6734871 L4.95149708,14.1242687 L4.579273,16.1728719 C4.55847039,16.287999 4.60865074,16.4043253 4.70869391,16.4729819 C4.80921347,16.5419383 4.94196918,16.5512324 5.05122267,16.4963671 L7,15.5291793 L8.94877736,16.4963671 C8.99641697,16.5200521 9.04834411,16.5317447 9.10011249,16.5317447 C9.16744311,16.5317447 9.23461496,16.5119572 9.29130609,16.4729819 C9.39134926,16.4043254 9.44152965,16.287999 9.420727,16.1728719 L9.04850292,14.1242687 L10.6250562,12.6734871 C10.7138246,12.5919387 10.7457432,12.469916 10.7074727,12.3589862 C10.6692022,12.2477566 10.5674123,12.1668079 10.4449785,12.1500185 L10.4449785,12.1500185 Z" id="Shape" fill-rule="nonzero"></path>
            <ellipse id="Oval" cx="7" cy="4.9893617" rx="1" ry="1"></ellipse>
            <rect id="Rectangle" x="6.40425532" y="0" width="1.19148936" height="3.42553191" rx="0.595744681"></rect>
            <path d="M11.0157176,2.54850928 C11.2257414,2.77353484 11.2257414,3.12273592 11.0157176,3.34776148 L9.98557029,4.45149072 C9.79330962,4.6574843 9.47046077,4.66861702 9.26446719,4.47635635 C9.25589538,4.468356 9.24760192,4.46006253 9.23960157,4.45149072 C9.0295777,4.22646516 9.0295777,3.87726408 9.23960157,3.65223852 L10.2697489,2.54850928 C10.4620095,2.3425157 10.7848584,2.33138298 10.990852,2.52364365 C10.9994238,2.531644 11.0077172,2.53993747 11.0157176,2.54850928 Z" id="Rectangle"></path>
            <path d="M2.98428242,2.54850928 C3.17654309,2.3425157 3.49939194,2.33138298 3.70538552,2.52364365 C3.71395733,2.531644 3.72225079,2.53993747 3.73025114,2.54850928 L4.76039843,3.65223852 C4.9704223,3.87726408 4.9704223,4.22646516 4.76039843,4.45149072 C4.56813776,4.6574843 4.24528891,4.66861702 4.03929533,4.47635635 C4.03072353,4.468356 4.02243006,4.46006253 4.01442971,4.45149072 L2.98428242,3.34776148 C2.77425855,3.12273592 2.77425855,2.77353484 2.98428242,2.54850928 Z" id="Rectangle"></path>
        </g>
    </g>
</svg>