<?xml version="1.0" encoding="UTF-8"?>
<svg width="16px" height="13px" viewBox="0 0 16 13" version="1.1" xmlns="http://www.w3.org/2000/svg" xmlns:xlink="http://www.w3.org/1999/xlink">
    <title>noun-rules-2560148</title>
    <g id="Symbols" stroke="none" stroke-width="1" fill="none" fill-rule="evenodd">
        <g id="Menú/Set-reglas" transform="translate(-2, -4)" fill="#4C4C4C" fill-rule="nonzero">
            <g id="Group" transform="translate(2, 4)">
                <path d="M8.29491856,3.30447975 L10.4866653,3.30447975 C10.70584,3.30447975 10.8744359,3.13588384 10.8744359,2.91670917 C10.8744359,2.69753449 10.70584,2.52893858 10.4866653,2.52893858 L8.29491856,2.52893858 C8.07574388,2.52893858 7.90714797,2.69753449 7.90714797,2.91670917 C7.90714797,3.13588384 8.07574388,3.30447975 8.29491856,3.30447975 Z" id="Path"></path>
                <path d="M5.24333266,3.15274343 L5.73226079,3.67539074 C5.79969915,3.75968869 5.91771629,3.79340788 6.01887383,3.79340788 C6.12003137,3.79340788 6.23804851,3.7428291 6.30548687,3.67539074 L7.21590476,2.69753449 C7.36764107,2.54579817 7.35078148,2.29290432 7.19904517,2.141168 C7.04730885,1.98943169 6.794415,2.00629128 6.64267868,2.15802759 L6.01887383,2.83241121 L5.81655874,2.61323654 C5.66482243,2.46150022 5.41192857,2.44464063 5.26019225,2.59637695 C5.10845594,2.74811326 5.09159635,3.00100712 5.24333266,3.15274343 Z" id="Path"></path>
                <path d="M8.29491856,5.46250734 L10.4866653,5.46250734 C10.70584,5.46250734 10.8744359,5.29391144 10.8744359,5.07473676 C10.8744359,4.85556208 10.70584,4.68696618 10.4866653,4.68696618 L8.29491856,4.68696618 C8.07574388,4.68696618 7.90714797,4.85556208 7.90714797,5.07473676 C7.90714797,5.29391144 8.07574388,5.46250734 8.29491856,5.46250734 Z" id="Path"></path>
                <path d="M6.64267868,4.31605518 L6.01887383,4.99043881 L5.81655874,4.77126413 C5.66482243,4.61952781 5.41192857,4.60266822 5.26019225,4.75440454 C5.10845594,4.90614085 5.09159635,5.15903471 5.24333266,5.31077103 L5.73226079,5.83341833 C5.79969915,5.91771629 5.91771629,5.95143547 6.01887383,5.95143547 C6.12003137,5.95143547 6.23804851,5.9008567 6.30548687,5.83341833 L7.21590476,4.85556208 C7.36764107,4.70382577 7.35078148,4.45093191 7.19904517,4.29919559 C7.03044926,4.14745928 6.794415,4.14745928 6.64267868,4.31605518 Z" id="Path"></path>
                <path d="M8.29491856,7.63739452 L10.4866653,7.63739452 C10.70584,7.63739452 10.8744359,7.46879862 10.8744359,7.24962394 C10.8744359,7.03044926 10.70584,6.86185336 10.4866653,6.86185336 L8.29491856,6.86185336 C8.07574388,6.86185336 7.90714797,7.03044926 7.90714797,7.24962394 C7.90714797,7.46879862 8.07574388,7.63739452 8.29491856,7.63739452 Z" id="Path"></path>
                <path d="M6.64267868,6.47408278 L6.01887383,7.1484664 L5.81655874,6.94615131 C5.66482243,6.794415 5.41192857,6.77755541 5.26019225,6.92929172 C5.10845594,7.08102804 5.09159635,7.33392189 5.24333266,7.48565821 L5.73226079,8.00830552 C5.79969915,8.09260347 5.91771629,8.12632265 6.01887383,8.12632265 C6.12003137,8.12632265 6.23804851,8.07574388 6.30548687,8.00830552 L7.21590476,7.03044926 C7.36764107,6.87871295 7.35078148,6.62581909 7.19904517,6.47408278 C7.03044926,6.30548687 6.794415,6.30548687 6.64267868,6.47408278 Z" id="Path"></path>
                <path d="M14.1283369,0 C13.2684978,0 5.37820939,0 5.37820939,0 C4.06316133,0 3.00100712,1.06215421 3.00100712,2.37720227 L3.00100712,9.18847686 L0.387770583,9.18847686 C0.168595906,9.18847686 0,9.35707276 0,9.57624744 L0,10.5709633 C0,11.8860113 1.06215421,12.9481656 2.37720227,12.9481656 L11.1273298,12.9481656 C12.1726244,12.9481656 13.0156039,12.105186 13.0156039,11.0598914 L13.0156039,3.89456542 L15.6119809,3.89456542 C15.8311555,3.89456542 15.9997514,3.72596951 15.9997514,3.50679484 L15.9997514,1.88827414 C16.016611,0.842979528 15.1736315,0 14.1283369,0 Z M2.37720227,12.1726244 C1.50050356,12.1726244 0.775541166,11.4645216 0.775541166,10.5709633 L0.775541166,9.98087761 L9.23905563,9.98087761 L9.23905563,11.0598914 C9.23905563,11.4645216 9.37393235,11.8522922 9.59310703,12.1557648 L2.37720227,12.1557648 L2.37720227,12.1726244 Z M12.2400627,1.88827414 L12.2400627,11.076751 C12.2400627,11.6836963 11.7511346,12.1726244 11.1441894,12.1726244 C10.5372441,12.1726244 10.048316,11.6836963 10.048316,11.076751 L10.048316,9.59310703 C10.048316,9.37393235 9.87972007,9.20533645 9.66054539,9.20533645 L3.77654829,9.20533645 L3.77654829,2.37720227 C3.77654829,1.50050356 4.48465109,0.775541166 5.37820939,0.775541166 L12.6109737,0.775541166 C12.3749395,1.09587339 12.2400627,1.46678438 12.2400627,1.88827414 Z M15.2242103,3.10216466 L13.0324635,3.10216466 L13.0324635,1.88827414 C13.0324635,1.28132888 13.5213916,0.792400756 14.1283369,0.792400756 C14.7352821,0.792400756 15.2242103,1.28132888 15.2242103,1.88827414 L15.2242103,3.10216466 Z" id="Shape"></path>
            </g>
        </g>
    </g>
</svg>