<?xml version="1.0" encoding="UTF-8"?>
<svg width="20px" height="20px" viewBox="0 0 20 20" version="1.1" xmlns="http://www.w3.org/2000/svg" xmlns:xlink="http://www.w3.org/1999/xlink">
    <title>Icon/Menú/Saldo</title>
    <g id="Icon/Menú/Saldo" stroke="none" stroke-width="1" fill="none" fill-rule="evenodd">
        <g id="Group" transform="translate(4.7, 2)" fill="#000000" fill-rule="nonzero">
            <path d="M8.53241379,0 L2.11034483,0 C0.945910021,0 0.001522137,0.943152396 0,2.10758621 L0,13.8924138 C0.001522137,15.0568476 0.945910021,16 2.11034483,16 L8.53241379,16 C9.6968486,16 10.6412365,15.0568476 10.6427586,13.8924138 L10.6427586,2.10758621 C10.6412365,0.943152396 9.6968486,0 8.53241379,0 L8.53241379,0 Z M10.0910345,13.8924138 C10.0895128,14.7521387 9.39214007,15.4482759 8.53241379,15.4482759 L2.11034483,15.4482759 C1.25061855,15.4482759 0.553245777,14.7521387 0.551724138,13.8924138 L0.551724138,2.10758621 C0.553245777,1.24786127 1.25061855,0.551724138 2.11034483,0.551724138 L8.53241379,0.551724138 C9.39214007,0.551724138 10.0895128,1.24786127 10.0910345,2.10758621 L10.0910345,13.8924138 Z" id="Shape" stroke="#000000" stroke-width="0.3"></path>
            <path d="M5.32137931,12.5710345 C4.79880367,12.5710345 4.37517241,12.9946657 4.37517241,13.5172414 C4.37517241,14.039817 4.79880367,14.4634483 5.32137931,14.4634483 C5.84395495,14.4634483 6.26758621,14.039817 6.26758621,13.5172414 C6.26607111,12.9952946 5.84332609,12.5725496 5.32137931,12.5710345 Z M5.32137931,13.9117241 C5.1035125,13.9117241 4.92689655,13.7351082 4.92689655,13.5172414 C4.92689655,13.2993746 5.1035125,13.1227586 5.32137931,13.1227586 C5.53924612,13.1227586 5.71586207,13.2993746 5.71586207,13.5172414 C5.71586207,13.7351082 5.53924612,13.9117241 5.32137931,13.9117241 Z" id="Shape"></path>
            <path d="M4.82758621,2.75862069 L5.81517241,2.75862069 C5.96752683,2.75862069 6.09103448,2.63511303 6.09103448,2.48275862 C6.09103448,2.33040421 5.96752683,2.20689655 5.81517241,2.20689655 L4.82758621,2.20689655 C4.67523179,2.20689655 4.55172414,2.33040421 4.55172414,2.48275862 C4.55172414,2.63511303 4.67523179,2.75862069 4.82758621,2.75862069 Z" id="Path"></path>
        </g>
        <g id="noun-digital-money-5017583" transform="translate(6.6, 6.5)" fill="#000000" fill-rule="nonzero">
            <path d="M3.5,6.98189687 C5.43208374,6.97969136 6.99779449,5.41398062 7,3.48190002 C6.80770335,-1.16131348 0.191597053,-1.15996156 0,3.48192523 C0.00222287619,5.413997 1.56793136,6.97969139 3.5,6.98189687 Z M3.50000315,0.612167003 C5.08418579,0.61392111 6.36798206,1.89771738 6.36973617,3.48190002 C6.2150064,7.28789626 0.784416907,7.28680276 0.63026698,3.48187481 C0.63203498,1.89770079 1.91582911,0.613919347 3.50000315,0.612167003 Z" id="Shape"></path>
            <path d="M3.50000315,4.71288406 C3.060079,4.71288406 2.75356594,4.47161277 2.75356594,4.25495958 C2.75021459,4.08331113 2.61010592,3.94591543 2.43842476,3.94592058 C2.2667436,3.94592573 2.12664317,4.08332984 2.12330211,4.25497848 C2.12330211,4.77885693 2.57030098,5.20298982 3.18487124,5.31316309 L3.18487124,5.60503827 C3.18487124,5.77908082 3.3259606,5.92017018 3.50000315,5.92017018 C3.6740457,5.92017018 3.81513507,5.77908082 3.81513507,5.60503827 L3.81513507,5.31316309 C5.40754075,5.00590947 5.10830409,3.16522396 3.49997479,3.16677756 C3.060079,3.16677756 2.75356594,2.92549681 2.75356594,2.70884362 C2.79813505,2.1084669 4.20169793,2.10776731 4.24644036,2.70886568 C4.24644645,2.88290823 4.38754075,3.02399266 4.5615833,3.02398657 C4.73562585,3.02398047 4.87670419,2.88288617 4.87670419,2.70884362 C4.87670419,2.18494312 4.42970532,1.76081023 3.81513507,1.65063065 L3.81513507,1.35875548 C3.81178371,1.18710703 3.67167504,1.04971648 3.49999388,1.04971648 C3.32831272,1.04971648 3.18821229,1.18712574 3.18487124,1.35877438 L3.18487124,1.65063065 C1.59246556,1.95788427 1.89170222,3.79856978 3.50003151,3.79701618 C4.47927873,3.82306499 4.47931654,4.6868195 3.50000315,4.71288406 Z" id="Path"></path>
        </g>
    </g>
</svg>