<?xml version="1.0" encoding="UTF-8"?>
<svg width="16px" height="16px" viewBox="0 0 16 16" version="1.1" xmlns="http://www.w3.org/2000/svg" xmlns:xlink="http://www.w3.org/1999/xlink">
    <title>icon/canalesventa@1x</title>
    <g id="icon/canalesventa" stroke="none" stroke-width="1" fill="none" fill-rule="evenodd">
        <path d="M3.08349398,7.31248571 C2.31974547,7.31248571 1.69843418,7.93382825 1.69843418,8.69757677 C1.69843418,9.46132527 2.31977672,10.0826678 3.08349398,10.0826678 C3.84721123,10.0826678 4.46858502,9.46132527 4.46858502,8.69757677 C4.46861627,7.93385951 3.84724249,7.31248571 3.08349398,7.31248571 Z M3.08349398,9.58060629 C2.59658867,9.58060629 2.20052695,9.18448206 2.20052695,8.69760801 C2.20052695,8.21070271 2.59661993,7.81460974 3.08349398,7.81460974 C3.57039928,7.81460974 3.96649225,8.21073397 3.96649225,8.69760801 C3.96652351,9.18448206 3.57039928,9.58060629 3.08349398,9.58060629 Z" id="Shape" fill="#4C4C4C" fill-rule="nonzero"></path>
        <path d="M12.9164122,4.46867878 C13.6801608,4.46867878 14.3014721,3.84733624 14.3014721,3.08361898 C14.3014721,2.31987047 13.6801295,1.69852793 12.9164122,1.69852793 C12.1526638,1.69852793 11.5313525,2.31987047 11.5313525,3.08361898 C11.5313525,3.84733624 12.1526638,4.46867878 12.9164122,4.46867878 Z M12.9164122,2.20058945 C13.4033176,2.20058945 13.7993793,2.59671368 13.7993793,3.08358773 C13.7993793,3.57049303 13.4032551,3.96655475 12.9164122,3.96655475 C12.4295382,3.96655475 12.0334453,3.57043053 12.0334453,3.08355648 C12.0334453,2.59668242 12.4295382,2.20058945 12.9164122,2.20058945 Z" id="Shape" fill="#4C4C4C" fill-rule="nonzero"></path>
        <path d="M13.1674743,9.49473145 L13.1674743,6.15683173 C14.7507525,6.02864448 16,4.69930333 16,3.08355648 C16,1.38330979 14.6167215,0 12.9164122,0 C11.2161656,0 9.83285579,1.3832473 9.83285579,3.08355648 C9.83285579,3.54996182 9.93716809,3.9924297 10.123324,4.38911642 L5.62686401,6.95629891 C5.0706151,6.14633175 4.13808567,5.61402029 3.08343147,5.61402029 C1.3832473,5.61408279 0,6.99736134 0,8.69760801 C0,10.3978547 1.3832473,11.7811019 3.08349398,11.7811019 C4.29627286,11.7811019 5.34755206,11.0772284 5.85083232,10.0566679 L9.96463679,11.6759459 C9.87907446,11.9584767 9.83288704,12.2579448 9.83288704,12.5680379 C9.83288704,14.2682847 11.2161343,15.6515944 12.9164435,15.6515944 C14.6166902,15.6515944 16,14.2683471 16,12.5680379 C16,10.9522911 14.7507525,9.62294995 13.1674743,9.49473145 Z M3.08349398,11.2790092 C1.6600905,11.2790092 0.502061519,10.1209802 0.502061519,8.69757677 C0.502061519,7.27417329 1.6600905,6.11614431 3.08349398,6.11614431 C4.50689745,6.11614431 5.66495768,7.27417329 5.66495768,8.69757677 C5.66495768,10.1209802 4.50689745,11.2790092 3.08349398,11.2790092 Z M12.9164122,0.50215527 C14.3398158,0.50215527 15.497876,1.66018426 15.497876,3.08361898 C15.497876,4.50702245 14.339847,5.66505144 12.9164122,5.66505144 C11.4930088,5.66505144 10.3349486,4.50702245 10.3349486,3.08361898 C10.3350111,1.66018426 11.49304,0.50215527 12.9164122,0.50215527 Z M6.03530071,9.58966877 C6.12086304,9.30713807 6.16705046,9.00766991 6.16705046,8.69757677 C6.16705046,8.23117143 6.06273816,7.78870354 5.87658227,7.39201681 L10.3730422,4.82483433 C10.8846975,5.56986413 11.7147896,6.07989438 12.6654128,6.15686297 L12.6654128,9.49476271 C11.5598525,9.58426253 10.617323,10.25948 10.1491364,11.2089469 L6.03530071,9.58966877 Z M12.9164122,15.1494392 C11.4930088,15.1494392 10.3349486,13.9914102 10.3349486,12.5679754 C10.3349486,11.144572 11.4929776,9.98654299 12.9164122,9.98654299 C14.3398158,9.98654299 15.497876,11.144572 15.497876,12.5679754 C15.497876,13.9914102 14.339847,15.1494392 12.9164122,15.1494392 Z" id="Shape" stroke="#4C4C4C" stroke-width="0.4" fill="#4C4C4C" fill-rule="nonzero"></path>
        <path d="M12.9164122,11.1829157 C12.1526638,11.1829157 11.5313525,11.8042582 11.5313525,12.5679754 C11.5313525,13.331724 12.1526638,13.9530665 12.9164122,13.9530665 C13.6801608,13.9530665 14.3014721,13.331724 14.3014721,12.5679754 C14.3015345,11.8042582 13.6801608,11.1829157 12.9164122,11.1829157 Z M12.9164122,13.451005 C12.429507,13.451005 12.0334453,13.0548808 12.0334453,12.5680067 C12.0334453,12.0811014 12.4295382,11.6850397 12.9164122,11.6850397 C13.4033176,11.6850397 13.7993793,12.0811639 13.7993793,12.5680067 C13.7994418,13.054912 13.4033176,13.451005 12.9164122,13.451005 Z" id="Shape" fill="#4C4C4C" fill-rule="nonzero"></path>
    </g>
</svg>