<?xml version="1.0" encoding="UTF-8"?>
<svg width="16px" height="16px" viewBox="0 0 16 16" version="1.1" xmlns="http://www.w3.org/2000/svg" xmlns:xlink="http://www.w3.org/1999/xlink">
    <title>Group</title>
    <g id="Symbols" stroke="none" stroke-width="1" fill="none" fill-rule="evenodd">
        <g id="Icon/Menú/Caneles-de-venta" transform="translate(-2, -2)" fill="#000000" fill-rule="nonzero">
            <g id="Group" transform="translate(2, 2)">
                <path d="M13.9660774,2.71183693 C13.7414201,2.71183693 13.5592994,2.89397407 13.5592994,3.11863136 C13.5592994,3.34328864 13.7414201,3.52540936 13.9660774,3.52540936 C14.2906176,3.5224854 14.6027161,3.65011678 14.8322101,3.8796107 C15.061704,4.10910462 15.1893354,4.42120312 15.1864114,4.74574337 L15.1864114,11.7965621 C15.1893354,12.1211023 15.061704,12.4332008 14.8322101,12.6626948 C14.6027161,12.8921887 14.2906176,13.0198201 13.9660774,13.0168961 L2.03392262,13.0168961 C1.70938238,13.0198201 1.39728387,12.8921887 1.16778995,12.6626948 C0.938296027,12.4332008 0.810664648,12.1211023 0.813588612,11.7965621 L0.813588612,4.74574337 C0.810664648,4.42120312 0.938296027,4.10910462 1.16778995,3.8796107 C1.39728387,3.65011678 1.70938238,3.5224854 2.03392262,3.52540936 C2.25857991,3.52540936 2.44070062,3.34328864 2.44070062,3.11863136 C2.44070062,2.89397407 2.25857991,2.71183693 2.03392262,2.71183693 C1.4938381,2.70967995 0.975246466,2.92326617 0.593345946,3.30516669 C0.211445427,3.68706721 -0.00214079888,4.20565885 1.61798715e-05,4.74574337 L1.61798715e-05,11.7965621 C-0.00214079888,12.3366466 0.211445427,12.8552382 0.593345946,13.2371388 C0.975246466,13.6190393 1.4938381,13.8326255 2.03392262,13.8304521 L5.61899276,13.8304521 L4.94102942,15.1863788 L3.58510274,15.1863788 C3.36044545,15.1863788 3.17832474,15.3684995 3.17832474,15.5931568 C3.17832474,15.8178141 3.36044545,15.9999348 3.58510274,15.9999348 L12.4094736,15.9999348 C12.6341308,15.9999348 12.8162516,15.8178141 12.8162516,15.5931568 C12.8162516,15.3684995 12.6341308,15.1863788 12.4094736,15.1863788 L11.0535469,15.1863788 L10.3755835,13.8304521 L13.9660774,13.8304521 C14.5061619,13.8326255 15.0247535,13.6190393 15.4066541,13.2371388 C15.7885546,12.8552382 16.0021408,12.3366466 15.9999838,11.7965621 L15.9999838,4.74574337 C16.0021408,4.20565885 15.7885546,3.68706721 15.4066541,3.30516669 C15.0247535,2.92326617 14.5061619,2.70967995 13.9660774,2.71183693 Z M10.1396523,15.1863788 L5.84950029,15.1863788 L6.52746363,13.8304521 L9.47253637,13.8304521 L10.1396523,15.1863788 Z" id="Shape"></path>
                <path d="M4.31187944,9.89826474 L11.6881206,9.89826474 C12.018963,9.89784196 12.3315257,9.74645769 12.5369754,9.48713686 C12.7424252,9.22781603 12.8182985,8.88891202 12.7430315,8.56674475 L11.4386301,3.05897058 C11.3232452,2.57073528 10.8881129,2.22532104 10.386431,2.22371975 L10.1152456,2.22371975 L10.1152456,2.10982191 C10.1152456,0.944599444 9.17064617,0 8.00542371,0 C6.84020124,0 5.8956018,0.944599444 5.8956018,2.10982191 L5.8956018,2.22371975 L5.62441646,2.22371975 C5.12273447,2.22532104 4.68760225,2.57073528 4.57221736,3.05897058 L3.25696848,8.56674475 C3.18170151,8.88891202 3.25757485,9.22781603 3.46302455,9.48713686 C3.66847425,9.74645769 3.98103704,9.89784196 4.31187944,9.89826474 Z M6.7037341,2.10982191 C6.7037341,1.39391402 7.28409211,0.813556006 8,0.813556006 C8.71590789,0.813556006 9.2962659,1.39391402 9.2962659,2.10982191 L9.2962659,2.22371975 L6.7037341,2.22371975 L6.7037341,2.10982191 Z M4.04882966,8.75386263 L5.35323113,3.24608846 C5.3827393,3.12102657 5.49596641,3.0338417 5.62441646,3.03727576 L5.8956018,3.03727576 L5.8956018,4.05693262 C5.8956018,4.28158991 6.07772251,4.46371062 6.3023798,4.46371062 L6.85830974,4.46371062 C7.08296703,4.46371062 7.26508774,4.28158991 7.26508774,4.05693262 C7.26508774,3.83227533 7.08296703,3.65015461 6.85830974,3.65015461 L6.7091578,3.65015461 L6.7091578,3.03727576 L9.30168961,3.03727576 L9.30168961,3.66100203 L9.15253768,3.66100203 C8.92788039,3.66100203 8.74575967,3.84312274 8.74575967,4.06778003 C8.74575967,4.29243732 8.92788039,4.47455803 9.15253768,4.47455803 L9.70846761,4.47455803 C9.9331249,4.47455803 10.1152456,4.29243732 10.1152456,4.06778003 L10.1152456,3.03727576 L10.386431,3.03727576 C10.514881,3.0338417 10.6281081,3.12102657 10.6576163,3.24608846 L11.9620178,8.75386263 C11.9804326,8.83539822 11.9602171,8.92086997 11.9072276,8.98551722 C11.854238,9.05016448 11.7743964,9.08676238 11.6908324,9.08470874 L4.31187944,9.08470874 C4.22831543,9.08676238 4.14847385,9.05016448 4.09548429,8.98551722 C4.04249474,8.92086997 4.02227924,8.83539822 4.0406941,8.75386263 L4.04882966,8.75386263 Z" id="Shape"></path>
            </g>
        </g>
    </g>
</svg>