<?xml version="1.0" encoding="UTF-8"?>
<svg width="12px" height="12px" viewBox="0 0 12 12" version="1.1" xmlns="http://www.w3.org/2000/svg" xmlns:xlink="http://www.w3.org/1999/xlink">
    <title>salir@2x</title>
    <g id="Symbols" stroke="none" stroke-width="1" fill="none" fill-rule="evenodd">
        <g id="Menú/Salir-" transform="translate(-4, -4)" fill="#4C4C4C" fill-rule="nonzero">
            <g id="salir" transform="translate(4, 4)">
                <path d="M2.47624532,11.770806 C2.45781745,11.766199 2.3633746,11.7500746 2.26893176,11.7362537 C1.73452347,11.6487213 1.21163259,11.3746067 0.803915923,10.9668901 C0.414627124,10.5752978 0.161243881,10.114601 0.0437661964,9.57097875 C0.00230348402,9.38439654 0,9.20472479 0,5.88540432 C0,2.56608384 0.00230348402,2.38641209 0.0437661964,2.19982989 C0.161243881,1.65620766 0.414627124,1.19551085 0.803915923,0.80391857 C1.1241002,0.486037775 1.48344371,0.262599825 1.89576735,0.128997752 C2.29657357,-0.0023008371 2.27584221,0 4.15778866,0 C5.76792399,0 5.91073999,0.00230613094 6.09271523,0.0437688433 C7.07399942,0.257992857 7.86179096,0.962858967 8.16354737,1.89577 C8.2741146,2.23668563 8.29254247,2.38180512 8.29254247,2.89317858 L8.29254247,3.3653928 L8.2303484,3.45983564 C8.13590556,3.60265165 8.02303484,3.66254224 7.84336309,3.66254224 C7.66369133,3.66254224 7.55082062,3.60265165 7.45637777,3.45983564 C7.39648719,3.36999977 7.3941837,3.35617886 7.3803628,2.904696 C7.36423841,2.43708874 7.34811402,2.32652151 7.24676073,2.06392433 C7.08782033,1.64469024 6.6455514,1.20011782 6.23553124,1.04808788 C5.88770515,0.916789287 5.97523755,0.923699739 4.24992802,0.914485803 C2.52922545,0.905271867 2.44630003,0.909878835 2.12841923,1.02274955 C1.66311546,1.1886004 1.21163259,1.61935191 1.04808523,2.05701388 C0.912179672,2.41635738 0.921393608,2.15376021 0.921393608,5.88540432 C0.921393608,9.61704843 0.912179672,9.35445125 1.04808523,9.71379476 C1.21163259,10.1514567 1.66311546,10.5822082 2.12841923,10.7480591 C2.44630003,10.8609298 2.52922545,10.8655368 4.24992802,10.8563228 C5.65505327,10.8494124 5.8669738,10.8425019 5.97754103,10.8102532 C6.48200403,10.6605267 6.82291967,10.4140539 7.08551684,10.0132477 C7.30204434,9.68154598 7.35963144,9.45580455 7.3803628,8.86611264 C7.3941837,8.41462977 7.39648719,8.40080887 7.45637777,8.31097299 C7.55082062,8.16815698 7.66369133,8.1082664 7.84336309,8.1082664 C8.02303484,8.1082664 8.13590556,8.16815698 8.2303484,8.31097299 L8.29254247,8.40541583 L8.29254247,8.87763006 C8.29254247,9.1886004 8.28102505,9.40743138 8.26029369,9.51339165 C8.04146271,10.6167605 7.24215376,11.4483182 6.13878491,11.7201293 C5.94989922,11.766199 5.8807947,11.7685025 4.22689318,11.7731095 C3.28246473,11.775413 2.49467319,11.775413 2.47624532,11.770806 Z" id="Path" transform="translate(4.1463, 5.8873) scale(-1, 1) rotate(-180) translate(-4.1463, -5.8873)"></path>
                <path d="M9.68384682,8.0335267 C9.51108552,7.95520824 9.43967751,7.73868075 9.5272099,7.56361596 C9.55024475,7.52215325 9.84739418,7.20657594 10.1883098,6.86335682 L10.812554,6.23450568 L7.05342191,6.23450568 C4.60942537,6.23450568 4.5472313,6.23450568 4.46200239,6.188436 C4.36755954,6.14006284 4.27542018,5.99263986 4.27542018,5.88898308 C4.27542018,5.7853263 4.36755954,5.63790332 4.46200239,5.58953016 C4.5472313,5.54346047 4.60942537,5.54346047 7.06724281,5.54346047 L10.8378923,5.54346047 L10.1883098,4.89387798 C9.83357328,4.53453447 9.52951339,4.21895716 9.51569248,4.19131536 C9.47422977,4.11069341 9.48574719,3.95635999 9.53642384,3.87113108 C9.60322488,3.76286733 9.76216527,3.69145932 9.88655341,3.71219068 C9.97869277,3.72601158 10.0477973,3.79050914 10.959977,4.69808184 C11.4966887,5.23249013 11.9504751,5.6977939 11.968903,5.73234616 C12.0103657,5.81296811 12.0103657,5.96499805 11.968903,6.04561999 C11.9504751,6.08017225 11.5012957,6.54086906 10.9714944,7.0683669 C9.88655341,8.15330787 9.90958825,8.13488 9.68384682,8.0335267 Z" id="Path" transform="translate(8.1377, 5.8933) scale(-1, 1) rotate(-180) translate(-8.1377, -5.8933)"></path>
            </g>
        </g>
    </g>
</svg>