<?xml version="1.0" encoding="UTF-8"?>
<svg width="14px" height="14px" viewBox="0 0 14 14" version="1.1" xmlns="http://www.w3.org/2000/svg" xmlns:xlink="http://www.w3.org/1999/xlink">
    <title>Shape</title>
    <g id="Symbols" stroke="none" stroke-width="1" fill="none" fill-rule="evenodd">
        <g id="icons/lupa" transform="translate(1, 1)" fill="#8E8E8E" fill-rule="nonzero" stroke="#979797" stroke-width="0.5">
            <path d="M11.9267491,11.5732415 L8.27551738,7.92198639 C9.03390745,7.07994794 9.5,5.96973782 9.5,4.7499809 C9.49998523,2.13086563 7.36914304,0 4.75000433,0 C2.13086563,0 0,2.13086563 0,4.75000433 C0,7.36914304 2.13086563,9.5 4.75000433,9.5 C5.96976125,9.5 7.07994794,9.03390745 7.92200982,8.27551738 L11.5732415,11.9267491 C11.6220618,11.9755694 11.6860461,12 11.750007,12 C11.8139679,12 11.8779288,11.9755694 11.9267725,11.9267491 C12.0244131,11.8290851 12.0244131,11.6708821 11.9267491,11.5732415 Z M4.75000433,8.99999182 C2.40674824,8.99999182 0.500015259,7.0934948 0.500015259,4.75000433 C0.500015259,2.40651386 2.40674824,0.499991821 4.75000433,0.499991821 C7.09326043,0.499991821 8.99999341,2.40649042 8.99999341,4.75000433 C8.99999341,7.09351824 7.09326043,8.99999182 4.75000433,8.99999182 Z" id="Shape"></path>
        </g>
    </g>
</svg>