<?xml version="1.0" encoding="UTF-8"?>
<svg width="32px" height="32px" viewBox="0 0 32 32" version="1.1" xmlns="http://www.w3.org/2000/svg" xmlns:xlink="http://www.w3.org/1999/xlink">
    <title>logo/t1pagina</title>
    <defs>
        <rect id="path-1" x="0" y="0" width="32" height="32" rx="7"></rect>
    </defs>
    <g id="logo/t1pagina" stroke="none" stroke-width="1" fill="none" fill-rule="evenodd">
        <mask id="mask-2" fill="white">
            <use xlink:href="#path-1"></use>
        </mask>
        <rect stroke="#4C4C4C" x="0.5" y="0.5" width="31" height="31" rx="7"></rect>
        <g id="Group" mask="url(#mask-2)">
            <g transform="translate(3, 3)">
                <rect id="Rectangle" fill="#FFFFFF" x="0" y="0" width="26" height="25.2121212"></rect>
                <g id="Group-7" stroke-width="1" fill="none" transform="translate(0, 4.7273)">
                    <path d="M9.75115316,5.92785293 L11.5139682,5.92785293 C11.5666087,5.92785293 11.6171883,5.94202292 11.661585,5.9673083 C11.6610698,5.97485997 11.6603828,5.98241164 11.6603828,5.99004817 L11.6603828,9.32746341 L11.6603828,10.7268139 L11.6603828,12.5263182 L11.6603828,12.7648322 L11.6603828,12.9566787 L11.6603828,13.893171 C11.6603828,14.0878175 11.8516235,14.2266325 12.0395151,14.1684252 L12.3145685,14.0833204 C13.0422621,13.7993266 13.9103592,13.4929323 14.9408434,13.1736408 C14.9590486,13.1357127 14.969697,13.0937967 14.969697,13.0499291 L14.969697,12.7648322 L14.969697,12.5263182 L14.969697,5.99004817 C14.969697,5.97681153 14.9688382,5.96382944 14.9672925,5.95084735 L14.9672925,5.92785293 L14.969697,5.92785293 L14.969697,1.08086673 C14.969697,0.919057288 14.8369363,0.787878788 14.6730034,0.787878788 L13.1554436,0.787878788 C13.028093,0.787878788 12.9153408,0.868316833 12.8747226,0.987446597 C12.4092013,2.35616613 11.4919845,3.38735132 10.0825397,3.63664138 C9.96729722,3.65700545 9.84870567,3.67219364 9.72685091,3.68186657 C9.57305114,3.69416986 9.45454545,3.8211907 9.45454545,3.97366661 L9.45454545,5.63478013 C9.45454545,5.79667443 9.58739204,5.92785293 9.75115316,5.92785293" id="Fill-98" fill="#CC4236"></path>
                    <path d="M12.5497839,0.111320223 C12.4824264,0.0425405396 12.3899408,0 12.2877702,0 L4.91011736,0 L4.63292206,0 L0.661534399,0 C0.296215944,0 0,0.268057703 0,0.598792963 L0,2.75580753 C0,2.87322988 0.105137029,2.96833589 0.234878739,2.96833589 L4.67907765,2.96833589 L4.67907765,4.62916039 C4.67907765,4.63561121 4.67776889,4.64127747 4.67724539,4.6473796 L4.67724539,14.4242068 C4.67724539,14.5139952 4.73613957,14.592887 4.82199421,14.6194748 C5.92414437,14.9607581 6.91967424,15.3724773 7.70815833,15.7383433 C7.84374584,15.8011952 7.99861573,15.7023408 7.99861573,15.5529259 L7.99861573,3.43549726 C7.99861573,3.41117593 7.9939042,3.38711612 7.98884366,3.36331782 C7.96005095,3.23107602 8.01179058,3.07712809 8.14432431,3.02447545 C8.17460029,3.01235837 8.20923879,3.00564603 8.24797808,3.00564603 L9.5200925,3.00564603 C9.52480404,3.00503582 9.52811956,3.0047743 9.52811956,3.0047743 C12.2968443,2.73497313 12.5807579,0.598269924 12.6041411,0.356538538 C12.6048391,0.34311386 12.6054499,0.330125048 12.6060606,0.316613196 L12.6060606,0.257684088 C12.6060606,0.203287988 12.5872145,0.149502101 12.5497839,0.111320223" id="Fill-99" fill="#CC4236"></path>
                    <path d="M16.4892186,9.06060606 C16.4892186,10.6856164 17.9186819,12.015193 19.7055111,12.015193 C21.4922545,12.015193 22.9217178,10.6856164 22.9217178,9.06060606 C22.9217178,7.43559568 21.4922545,6.1060191 19.7055111,6.1060191 C17.9186819,6.1060191 16.4892186,7.43559568 16.4892186,9.06060606 M15.7575758,9.03304663 C15.7575758,7.0534991 17.5613161,5.51515152 19.7055111,5.51515152 C21.0276703,5.51515152 22.2069003,6.1060191 22.9217178,7.02195517 L22.9217178,5.81058531 L22.9217178,5.51515152 L23.6363636,5.51515152 L23.6363636,5.81058531 L23.6363636,9.06060606 L23.6363636,12.3106268 L23.6363636,12.6060606 L22.9217178,12.6060606 L22.9217178,12.3106268 L22.9217178,11.099257 C22.2069003,12.015193 21.0276703,12.6060606 19.7055111,12.6060606 C17.5613161,12.6060606 15.7575758,11.0125942 15.7575758,9.03304663" id="Fill-120" fill="#1C1E1E"></path>
                    <path d="M16.4892186,9.06060606 C16.4892186,10.6856164 17.9186819,12.015193 19.7055111,12.015193 C21.4922545,12.015193 22.9217178,10.6856164 22.9217178,9.06060606 C22.9217178,7.43559568 21.4922545,6.1060191 19.7055111,6.1060191 C17.9186819,6.1060191 16.4892186,7.43559568 16.4892186,9.06060606 Z M15.7575758,9.03304663 C15.7575758,7.0534991 17.5613161,5.51515152 19.7055111,5.51515152 C21.0276703,5.51515152 22.2069003,6.1060191 22.9217178,7.02195517 L22.9217178,5.81058531 L22.9217178,5.51515152 L23.6363636,5.51515152 L23.6363636,5.81058531 L23.6363636,9.06060606 L23.6363636,12.3106268 L23.6363636,12.6060606 L22.9217178,12.6060606 L22.9217178,12.3106268 L22.9217178,11.099257 C22.2069003,12.015193 21.0276703,12.6060606 19.7055111,12.6060606 C17.5613161,12.6060606 15.7575758,11.0125942 15.7575758,9.03304663 Z" id="Stroke-121" stroke="#1C1E1E" stroke-width="0.2"></path>
                    <path d="M18.6718633,6.3030303 L18.6718633,5.09185977 C18.6718633,4.32104333 19.3084754,3.69388906 20.0910389,3.69388906 C20.873516,3.69388906 21.5100414,4.32104333 21.5100414,5.09185977 L21.5100414,6.3030303 L22.0606061,6.3030303 L22.0606061,5.09185977 C22.0606061,4.02191113 21.1770191,3.15151515 20.0910389,3.15151515 C19.0048857,3.15151515 18.1212121,4.02191113 18.1212121,5.09185977 L18.1212121,6.3030303 L18.6718633,6.3030303 Z" id="Fill-122" fill="#1C1E1E"></path>
                    <path d="M18.6718633,6.3030303 L18.6718633,5.09185977 C18.6718633,4.32104333 19.3084754,3.69388906 20.0910389,3.69388906 C20.873516,3.69388906 21.5100414,4.32104333 21.5100414,5.09185977 L21.5100414,6.3030303 L22.0606061,6.3030303 L22.0606061,5.09185977 C22.0606061,4.02191113 21.1770191,3.15151515 20.0910389,3.15151515 C19.0048857,3.15151515 18.1212121,4.02191113 18.1212121,5.09185977 L18.1212121,6.3030303 L18.6718633,6.3030303 Z" id="Stroke-123"></path>
                    <path d="M23.6363636,5.58861732 L15.9877435,5.51515152 L15.7575758,9.45454545 C15.7575758,9.45454545 16.0418863,6.22063544 19.6639141,6.01730047 C19.6639141,6.01730047 22.3713773,6.59477178 23.6348167,9.09729476 L23.6363636,5.58861732 Z" id="Fill-124" fill="#1C1E1E"></path>
                    <path d="M19.0779502,12.5556261 L23.6363636,12.6060606 L23.5020228,9.45454545 C22.1587875,11.633816 19.2802405,12.136649 19.2802405,12.136649 C19.1540363,12.1377076 19.0319004,12.135666 18.9133134,12.1314316 C18.9133134,12.1314316 18.8614641,12.4032639 19.1211436,12.5492745" id="Fill-125" fill="#1C1E1E"></path>
                </g>
            </g>
        </g>
    </g>
</svg>