<?xml version="1.0" encoding="UTF-8"?>
<svg width="16px" height="17px" viewBox="0 0 16 17" version="1.1" xmlns="http://www.w3.org/2000/svg" xmlns:xlink="http://www.w3.org/1999/xlink">
    <title>Shape</title>
    <g id="Symbols" stroke="none" stroke-width="1" fill="none" fill-rule="evenodd">
        <g id="icon/Tarifas" transform="translate(-1, 0)" fill="#4C4C4C" fill-rule="nonzero">
            <path d="M9.18767753,6.57634522 C9.35198834,6.41203442 9.61854582,6.41203442 9.78285663,6.57634522 C9.94716744,6.74065603 9.94716744,7.00721352 9.78285663,7.17172325 L8.51929458,8.43429068 C8.36672026,8.59641333 8.29033364,8.80647654 8.29033364,9.0169376 C8.29033364,9.23455991 8.37248904,9.45198329 8.53660092,9.61609517 C8.70071281,9.78040598 8.91833511,9.86256138 9.13595742,9.86256138 C9.35377865,9.86256138 9.57140095,9.78040598 9.73551284,9.61609517 L10.2588806,9.09272745 C10.6004322,8.75137473 11.0498004,8.5808973 11.4983729,8.5808973 C11.9471443,8.5808973 12.3969103,8.75177258 12.7380641,9.09292638 L12.7625317,9.11958213 C13.0875727,9.45775207 13.2502921,9.89578161 13.2502921,10.3326176 C13.2502921,10.7559268 13.0981156,11.1802306 12.7941605,11.5132286 L13.0917501,11.8104203 C13.2560609,11.9737365 13.2566576,12.2396972 13.0933415,12.4042069 C12.9298263,12.5685177 12.6638656,12.5691145 12.4995548,12.4057983 L12.2017663,12.1080098 L11.4293464,12.8806287 C11.2650356,13.0449395 10.9984781,13.0449395 10.8341673,12.8806287 C10.6698565,12.7163179 10.6698565,12.4497604 10.8341673,12.2852506 L12.142885,10.9767319 C12.3195291,10.8000878 12.4078511,10.5663527 12.4078511,10.3326176 C12.4078511,10.1058448 12.3254968,9.8796688 12.161186,9.70541182 L12.1432828,9.68850332 C11.9664398,9.51166034 11.7325058,9.42313938 11.4983729,9.42313938 C11.2644388,9.42313938 11.0307037,9.51146141 10.8542586,9.68790655 L10.3306919,10.2114732 C10.0018714,10.5402937 9.5684171,10.7048035 9.13595742,10.7048035 C8.70369666,10.7048035 8.27024236,10.5402937 7.94142182,10.2114732 C7.61240236,9.88265266 7.44789263,9.44919836 7.44789263,9.0169376 C7.44789263,8.59641333 7.60464434,8.17469552 7.917551,7.84885883 L7.92948641,7.83533203 L7.63110117,7.53694679 C7.46778498,7.37263598 7.46838175,7.10667527 7.63269256,6.94316015 C7.79720229,6.77984396 8.063163,6.78044073 8.22647919,6.94475154 L8.52267628,7.2415454 L9.18767753,6.57634522 L9.18767753,6.57634522 Z M5.13819191,4.48526143 C5.29235762,4.31160122 5.55831834,4.29628411 5.73177963,4.45044982 C5.90524091,4.60481445 5.92055802,4.87077517 5.76639231,5.04423646 C5.34029818,5.52284639 4.77455976,5.82083379 4.17639681,5.92029553 L4.3363313,9.00818497 C4.33593345,9.12475414 4.35841181,9.24251685 4.40376636,9.35272046 C4.44613707,9.45556391 4.5115829,9.55462781 4.59891031,9.64195523 L10.1655854,15.2088293 C10.3396435,15.3826884 10.5684055,15.4700158 10.7969686,15.4700158 C11.0255317,15.4700158 11.2542937,15.3826884 11.4281529,15.2088293 L15.8965714,10.7406097 C16.0710273,10.5671484 16.1577579,10.3383864 16.1577579,10.1092265 C16.1577579,9.88086235 16.0704305,9.6519014 15.8965714,9.47804227 L10.327907,3.91315746 C10.2495312,3.8347816 10.1586231,3.77092716 10.0603549,3.72716399 C9.96427486,3.68419651 9.85804971,3.65773969 9.74585686,3.65177198 C8.5889178,3.59149816 7.35380181,3.4876601 6.16185222,3.43753138 C6.13082016,3.4478754 6.09799778,3.4546388 6.06398186,3.45742373 C5.99415972,3.46319251 5.92672465,3.45145602 5.86645083,3.42619274 C5.54518939,3.41525194 5.22770749,3.40868747 4.91639221,3.40868747 C4.68046895,3.42619274 4.47159928,3.53639635 4.32300342,3.70110501 C4.17580004,3.86462012 4.08847262,4.08244135 4.09364463,4.31737 L4.09603172,4.36590733 L4.13263364,5.07467175 C4.50999151,4.99191958 4.86467211,4.79220039 5.13819191,4.48526143 Z M3.31843977,5.92666109 C2.98862461,5.87673129 2.66378254,5.76553305 2.3612199,5.59028145 C1.80105134,5.26603615 1.39286032,4.76634033 1.17643156,4.19423636 C0.960599566,3.62352484 0.935734129,2.97941056 1.14102318,2.36473696 C1.34591438,1.75085905 1.7533097,1.25056646 2.27011294,0.923536229 C2.78691619,0.596506001 3.41253058,0.442539215 4.05366101,0.519522608 C4.69638283,0.596903848 5.26888465,0.895488016 5.69358631,1.33630248 C6.0355358,1.691182 6.28200202,2.13836202 6.3928024,2.63586969 L9.78842649,2.81311052 C10.0066456,2.82484701 10.2137249,2.87676604 10.4027022,2.96091068 C10.6000344,3.04883486 10.7764795,3.17117281 10.923285,3.31797835 L16.4899602,8.88266424 C16.8303183,9.22143096 17,9.66562712 17,10.1092265 C17,10.5518313 16.8305172,10.9950328 16.4919494,11.3339985 L12.023332,15.8040084 C11.6847642,16.1425762 11.240568,16.3122579 10.7969686,16.3122579 C10.3533692,16.3122579 9.90897413,16.1425762 9.57040633,15.8040084 L4.00373121,10.2373333 C3.83882363,10.0724257 3.71290506,9.87927096 3.62756688,9.67179375 C3.54322332,9.46630578 3.49965907,9.24709209 3.49766984,9.02787839 C3.44455726,8.00620732 3.37254696,6.96205788 3.31843977,5.92666109 Z M5.50540469,2.58952051 C5.41449665,2.3362909 5.27127173,2.10812565 5.08846104,1.91855156 C4.79564565,1.61459646 4.39998682,1.40871064 3.95499496,1.35500129 C3.50900848,1.30149087 3.07475849,1.40791494 2.71749189,1.63409096 C2.36082206,1.85986913 2.07894746,2.20619493 1.93711501,2.63129444 C1.79528256,3.05599611 1.81278782,3.50218151 1.96257722,3.89823819 C2.11196876,4.29330026 2.39463905,4.63902929 2.78214202,4.863415 C2.94048512,4.95511873 3.10777979,5.02155918 3.27825722,5.06353203 C3.26870889,4.82482384 3.26055303,4.58711026 3.25458533,4.35059022 C3.23986499,3.88749632 3.40954673,3.45901511 3.6979858,3.13854936 C3.99438181,2.80972882 4.41709424,2.59349898 4.89470955,2.5682357 L5.06200421,2.56644539 L5.50540469,2.58952051 Z" id="Shape"></path>
        </g>
    </g>
</svg>