<?xml version="1.0" encoding="UTF-8"?>
<svg width="13px" height="16px" viewBox="0 0 13 16" version="1.1" xmlns="http://www.w3.org/2000/svg" xmlns:xlink="http://www.w3.org/1999/xlink">
    <title>Group</title>
    <g id="Symbols" stroke="none" stroke-width="1" fill="none" fill-rule="evenodd">
        <g id="Icon/Menú/Cotizar-guías" transform="translate(-4, -2)" fill="#000000" fill-rule="nonzero">
            <g id="Group" transform="translate(4, 2)">
                <path d="M11.8725424,0 L10.5437288,0 C10.3190706,0 10.1369492,0.182121458 10.1369492,0.406779661 C10.1369492,0.77072595 9.84191239,1.06576271 9.4779661,1.06576271 C9.11401981,1.06576271 8.81898305,0.77072595 8.81898305,0.406779661 C8.81898305,0.182121458 8.63686159,0 8.41220339,0 L7.20542373,0 C6.98076553,0 6.79864407,0.182121458 6.79864407,0.406779661 C6.79864407,0.77072595 6.50360731,1.06576271 6.13966102,1.06576271 C5.77571473,1.06576271 5.48067797,0.77072595 5.48067797,0.406779661 C5.48067797,0.182121458 5.29855651,0 5.07389831,0 L3.86711864,0 C3.64246044,0 3.46033898,0.182121458 3.46033898,0.406779661 C3.46033897,0.770725943 3.16530221,1.06576269 2.80135593,1.06576269 C2.43740965,1.06576269 2.14237289,0.770725943 2.14237288,0.406779661 C2.14237288,0.182121458 1.96025142,0 1.73559322,0 L0.406779661,0 C0.182121458,0 0,0.182121458 0,0.406779661 L0,15.5932203 C0,15.8178785 0.182121458,16 0.406779661,16 L1.73559322,16 C1.96025142,16 2.14237288,15.8178785 2.14237288,15.5932203 C2.14237289,15.2292741 2.43740965,14.9342373 2.80135593,14.9342373 C3.16530221,14.9342373 3.46033897,15.2292741 3.46033898,15.5932203 C3.46033898,15.8178785 3.64246044,16 3.86711864,16 L5.07389831,16 C5.29855651,16 5.48067797,15.8178785 5.48067797,15.5932203 C5.48067797,15.229274 5.77571473,14.9342373 6.13966102,14.9342373 C6.50360731,14.9342373 6.79864407,15.229274 6.79864407,15.5932203 C6.79864407,15.8178785 6.98076553,16 7.20542373,16 L8.41220339,16 C8.63686159,16 8.81898305,15.8178785 8.81898305,15.5932203 C8.81898305,15.229274 9.11401981,14.9342373 9.4779661,14.9342373 C9.84191239,14.9342373 10.1369492,15.229274 10.1369492,15.5932203 C10.1369492,15.8178785 10.3190706,16 10.5437288,16 L11.8725424,16 C12.0972006,16 12.279322,15.8178785 12.279322,15.5932203 L12.279322,0.406779661 C12.279322,0.182121458 12.0972006,0 11.8725424,0 L11.8725424,0 Z M11.4657627,15.1864407 L10.8935593,15.1864407 C10.7125941,14.5547838 10.1350345,14.1194558 9.4779661,14.1194558 C8.82089773,14.1194558 8.24333813,14.5547838 8.06237288,15.1864407 L7.55525424,15.1864407 C7.37428899,14.5547838 6.79672938,14.1194558 6.13966102,14.1194558 C5.48259265,14.1194558 4.90503304,14.5547838 4.7240678,15.1864407 L4.21694915,15.1864407 C4.0359839,14.5547838 3.4584243,14.1194558 2.80135593,14.1194558 C2.14428757,14.1194558 1.56672796,14.5547838 1.38576271,15.1864407 L0.813559322,15.1864407 L0.813559322,0.813559322 L1.38576271,0.813559322 C1.56672796,1.44521621 2.14428757,1.88054421 2.80135593,1.88054421 C3.4584243,1.88054421 4.0359839,1.44521621 4.21694915,0.813559322 L4.7240678,0.813559322 C4.90503304,1.44521621 5.48259265,1.88054421 6.13966102,1.88054421 C6.79672938,1.88054421 7.37428899,1.44521621 7.55525424,0.813559322 L8.06237288,0.813559322 C8.24333813,1.44521621 8.82089773,1.88054421 9.4779661,1.88054421 C10.1350345,1.88054421 10.7125941,1.44521621 10.8935593,0.813559322 L11.4657627,0.813559322 L11.4657627,15.1864407 Z" id="Shape"></path>
                <path d="M9.32610169,3.16745763 L2.95322034,3.16745763 C2.72856214,3.16745763 2.54644068,3.34957908 2.54644068,3.57423729 C2.54644068,3.79889549 2.72856214,3.98101695 2.95322034,3.98101695 L9.32610169,3.98101695 C9.5507599,3.98101695 9.73288136,3.79889549 9.73288136,3.57423729 C9.73288136,3.34957908 9.5507599,3.16745763 9.32610169,3.16745763 Z" id="Path"></path>
                <path d="M4.32,5.52949153 L7.95932203,5.52949153 C8.18398024,5.52949153 8.36610169,5.34737007 8.36610169,5.12271186 C8.36610169,4.89805366 8.18398024,4.7159322 7.95932203,4.7159322 L4.32,4.7159322 C4.0953418,4.7159322 3.91322034,4.89805366 3.91322034,5.12271186 C3.91322034,5.34737007 4.0953418,5.52949153 4.32,5.52949153 Z" id="Path"></path>
                <path d="M4.32,7.08067797 L7.95932203,7.08067797 C8.18398024,7.08067797 8.36610169,6.89855651 8.36610169,6.67389831 C8.36610169,6.4492401 8.18398024,6.26711864 7.95932203,6.26711864 L4.32,6.26711864 C4.0953418,6.26711864 3.91322034,6.4492401 3.91322034,6.67389831 C3.91322034,6.89855651 4.0953418,7.08067797 4.32,7.08067797 L4.32,7.08067797 Z" id="Path"></path>
                <path d="M9.32610169,7.81559322 L2.95322034,7.81559322 C2.72856214,7.81559322 2.54644068,7.99771468 2.54644068,8.22237288 C2.54644068,8.44703108 2.72856214,8.62915254 2.95322034,8.62915254 L9.32610169,8.62915254 C9.5507599,8.62915254 9.73288136,8.44703108 9.73288136,8.22237288 C9.73288136,7.99771468 9.5507599,7.81559322 9.32610169,7.81559322 Z" id="Path"></path>
                <path d="M6.13966102,10.2942373 L6.82847458,10.2942373 C7.05313278,10.2942373 7.23525424,10.1121158 7.23525424,9.88745763 C7.23525424,9.66279942 7.05313278,9.48067797 6.82847458,9.48067797 L6.55728814,9.48067797 L6.55728814,9.3179661 C6.55728814,9.0933079 6.37516668,8.91118644 6.15050847,8.91118644 C5.92585027,8.91118644 5.74372881,9.0933079 5.74372881,9.3179661 L5.74372881,9.5620339 C5.23444633,9.73688042 4.93051286,10.2588482 5.02982713,10.7880709 C5.12914141,11.3172935 5.60163739,11.693556 6.13966102,11.6718644 C6.29542404,11.6718644 6.42169492,11.7981353 6.42169492,11.9538983 C6.42169492,12.1096613 6.29542404,12.2359322 6.13966102,12.2359322 L5.45084746,12.2359322 C5.22618925,12.2359322 5.0440678,12.4180537 5.0440678,12.6427119 C5.0440678,12.8673701 5.22618925,13.0494915 5.45084746,13.0494915 L5.7220339,13.0494915 L5.7220339,13.2122034 C5.7220339,13.4368616 5.90415536,13.6189831 6.12881356,13.6189831 C6.35347176,13.6189831 6.53559322,13.4368616 6.53559322,13.2122034 L6.53559322,12.9681356 C7.0448757,12.7932891 7.34880918,12.2713213 7.2494949,11.7420986 C7.15018062,11.212876 6.67768464,10.8366134 6.13966102,10.8583051 C5.983898,10.8583051 5.85762712,10.7320342 5.85762712,10.5762712 C5.85762712,10.4205082 5.983898,10.2942373 6.13966102,10.2942373 L6.13966102,10.2942373 Z" id="Path"></path>
            </g>
        </g>
    </g>
</svg>