<?xml version="1.0" encoding="UTF-8"?>
<svg width="18px" height="14px" viewBox="0 0 18 14" version="1.1" xmlns="http://www.w3.org/2000/svg" xmlns:xlink="http://www.w3.org/1999/xlink">
    <title>Shape</title>
    <g id="Symbols" stroke="none" stroke-width="1" fill="none" fill-rule="evenodd">
        <g id="Icon/Menú/Trackeo-guías" transform="translate(-1, -3)" fill="#000000" fill-rule="nonzero">
            <path d="M18.0379782,9.25381587 L15.8740991,8.44346226 L15.1958684,6.09461123 C15.1412924,5.90612292 14.969301,5.77593494 14.7730752,5.77458028 L12.4007357,5.77458028 L12.4007357,4.65006785 C12.3991196,3.73943077 11.6613049,3.00161604 10.7506678,3 L2.65006785,3 C1.73943077,3.00161604 1.00161604,3.73943077 1,4.65006785 L1,12.7506678 C1,13.6619751 1.73876054,14.4007357 2.65006785,14.4007357 L4.45574708,14.4007357 C4.66589936,15.3857993 5.53605744,16.0899005 6.54328843,16.0899005 C7.55051942,16.0899005 8.4206775,15.3857993 8.63082978,14.4007357 L12.8352731,14.4007357 C13.0425304,15.3875949 13.9129583,16.094207 14.9213464,16.094207 C15.9297346,16.094207 16.8001625,15.3875949 17.0074198,14.4007357 L17.8882389,14.4007357 C18.0055635,14.3991949 18.1174229,14.3509002 18.1990016,14.2665654 C18.2805803,14.1822307 18.3251332,14.068829 18.3228653,13.9515179 L18.3228653,9.67367299 C18.325214,9.48786549 18.211519,9.32025331 18.0379782,9.25381587 Z M7.8997499,3.8837552 L7.8997499,6.61135846 L6.85744725,5.577864 C6.68584367,5.40807742 6.40954138,5.40807742 6.2379378,5.577864 L5.19269909,6.61135846 L5.19269909,3.8837552 L7.8997499,3.8837552 Z M6.54328843,15.2140254 C5.85203982,15.2140254 5.29123101,14.6544883 5.28962006,13.9632416 C5.28801604,13.2719948 5.84621648,12.7098726 6.53745753,12.7066266 C7.22869858,12.7034086 7.79213112,13.2602864 7.79698767,13.9515179 C7.79933451,14.2855432 7.66828548,14.606694 7.43291642,14.8437167 C7.19754736,15.0807394 6.8773219,15.2140254 6.54328843,15.2140254 L6.54328843,15.2140254 Z M6.54328843,11.8287438 C5.536151,11.8292087 4.6667693,12.5345099 4.45868314,13.5199165 L2.65006785,13.5199165 C2.2258921,13.5183068 1.88242893,13.1748436 1.88081914,12.7506678 L1.88081914,4.65006785 C1.88242893,4.2258921 2.2258921,3.88242893 2.65006785,3.88081914 L4.31187995,3.88081914 L4.31187995,7.66834142 C4.31202339,7.84560432 4.41842772,8.00550414 4.58188387,8.07409162 C4.74534002,8.14267911 4.9339852,8.10658438 5.06057622,7.98250025 L6.54328843,6.51446835 L8.02600064,7.98250025 C8.15405088,8.10489699 8.34236963,8.13997461 8.50590034,8.07188984 C8.66943105,8.00380507 8.77721454,7.84544753 8.78056903,7.66834142 L8.78056903,3.88081914 L10.7536039,3.88081914 C11.1777796,3.88242893 11.5212428,4.2258921 11.5228526,4.65006785 L11.5228526,13.5199165 L8.63082978,13.5199165 C8.42048512,12.5346758 7.55073193,11.8300656 6.54328843,11.8287438 L6.54328843,11.8287438 Z M14.9198784,15.2140254 C14.2286298,15.2140254 13.667821,14.6544883 13.66621,13.9632416 C13.664606,13.2719948 14.2228065,12.7098726 14.9140475,12.7066266 C15.6052886,12.7034086 16.1687211,13.2602864 16.1735777,13.9515179 C16.1759245,14.2855432 16.0448755,14.606694 15.8095064,14.8437167 C15.5741373,15.0807394 15.2539119,15.2140254 14.9198784,15.2140254 L14.9198784,15.2140254 Z M17.4419572,13.5199165 L17.0015476,13.5199165 C16.7942904,12.5330574 15.9238625,11.8264452 14.9154743,11.8264452 C13.9070862,11.8264452 13.0366583,12.5330574 12.829401,13.5199165 L12.4007357,13.5199165 L12.4007357,6.67007973 L14.4559803,6.67007973 L15.1048504,8.90736034 C15.1413896,9.04256849 15.240859,9.15187556 15.3720322,9.20096672 L17.4566375,9.98195968 L17.4419572,13.5199165 Z" id="Shape"></path>
        </g>
    </g>
</svg>