<?xml version="1.0" encoding="UTF-8"?>
<svg width="18px" height="16px" viewBox="0 0 18 16" version="1.1" xmlns="http://www.w3.org/2000/svg" xmlns:xlink="http://www.w3.org/1999/xlink">
    <title>Transacciones@2x</title>
    <g id="Symbols" stroke="none" stroke-width="1" fill="none" fill-rule="evenodd">
        <g id="Menú/Transaccion-" transform="translate(-1, -2)">
            <g id="Transacciones" transform="translate(2, 3)">
                <path d="M0.455245714,8.18801116 L0.826678587,7.81674496 C1.13953454,11.445934 4.11340441,14.2698575 7.75391346,14.3946997 C11.3944225,14.5195419 14.5547576,11.9059757 15.1154942,8.30674435 C15.1379722,8.16118989 15.038199,8.02497269 14.8926445,8.00249473 C14.74709,7.98001677 14.6108728,8.07978999 14.5883949,8.22534445 C14.0725887,11.5382371 11.1768188,13.9527702 7.82517114,13.8646143 C4.47352345,13.7764584 1.708685,11.2130386 1.36774458,7.87761155 L1.67811087,8.18801116 C1.78225323,8.29215353 1.95110137,8.29215353 2.05524373,8.18801116 C2.1593861,8.0838688 2.1593861,7.91502066 2.05524373,7.8108783 L1.25524472,7.01087929 C1.20523469,6.96086668 1.13740498,6.93276967 1.06667829,6.93276967 C0.9959516,6.93276967 0.928121891,6.96086668 0.878111857,7.01087929 L0.0781128479,7.8108783 C0.0107445499,7.8782466 -0.0155657654,7.97643803 0.00909274307,8.06846484 C0.0337512515,8.16049164 0.10563237,8.23237276 0.197659176,8.25703127 C0.289685983,8.28168978 0.387877416,8.25537946 0.455245714,8.18801116 Z" id="Path" stroke="#4C4C4C" stroke-width="0.2" fill="#4C4C4C" fill-rule="nonzero"></path>
                <path d="M15.5447604,6.21088028 L15.1734275,6.58221315 C14.8605727,2.95304167 11.8867174,0.129131797 8.24622589,0.00428961439 C4.60573441,-0.120552569 1.44541395,2.49300002 0.884678516,6.09221376 C0.862200554,6.23776823 0.961973774,6.37398542 1.10752824,6.39646338 C1.25308271,6.41894134 1.3892999,6.31916812 1.41177786,6.17361366 C1.92799458,2.86100331 4.82371962,0.446891635 8.17514965,0.535117404 C11.5265797,0.623343173 14.29128,3.18646448 14.6324948,6.52164656 L14.3218952,6.21101361 C14.2545269,6.14364531 14.1563355,6.117335 14.0643087,6.14199351 C13.9722819,6.16665202 13.9004007,6.23853313 13.8757422,6.33055994 C13.8510837,6.42258675 13.877394,6.52077818 13.9447623,6.58814648 L14.7447614,7.38814549 C14.7947714,7.4381581 14.8626011,7.46625511 14.9333278,7.46625511 C15.0040545,7.46625511 15.0718842,7.4381581 15.1218942,7.38814549 L15.9218932,6.58814648 C16.0260356,6.48400411 16.0260356,6.31515598 15.9218932,6.21101361 C15.8177509,6.10687125 15.6489027,6.10687125 15.5447604,6.21101361 L15.5447604,6.21088028 Z" id="Path" stroke="#4C4C4C" stroke-width="0.2" fill="#4C4C4C" fill-rule="nonzero"></path>
                <path d="M7.99999009,2.83332982 C10.4116305,2.83332982 12.3666514,4.78835066 12.3666514,7.19999108 C12.3666514,9.6116315 10.4116305,11.5666523 7.99999009,11.5666523 C5.58834967,11.5666523 3.63332883,9.6116315 3.63332883,7.19999108 C3.63332883,4.78835066 5.58834967,2.83332982 7.99999009,2.83332982 Z M7.96482526,3.50768339 C5.94504103,3.50768339 4.3076824,5.14504202 4.3076824,7.16482625 C4.3076824,9.18461048 5.94504103,10.8219691 7.96482526,10.8219691 C9.98460948,10.8219691 11.6219681,9.18461048 11.6219681,7.16482625 C11.6219681,5.14504202 9.98460948,3.50768339 7.96482526,3.50768339 Z" id="Combined-Shape" fill="#4C4C4C"></path>
                <path d="M8.09127601,4.66138135 C8.29482743,4.66138135 8.45767046,4.82422232 8.45767046,5.02777415 L8.45767046,5.19061512 C8.90548306,5.35345623 9.19045538,5.76055975 9.19045538,6.24908349 C9.19045538,6.4526356 9.02761372,6.6154767 8.8240623,6.6154767 C8.62051088,6.6154767 8.45767046,6.45263628 8.45767046,6.24908487 C8.45767046,6.04553276 8.29482743,5.88269165 8.09127601,5.88269165 C7.88772459,5.88269165 7.7248828,6.04553276 7.7248828,6.24908487 L7.7248828,6.41192584 C7.7248828,6.57476694 7.84701345,6.73760791 7.96914411,6.77831836 L8.41695671,6.90044902 C8.90548182,7.06329068 9.19045538,7.47039351 9.19045538,7.99962839 L9.19045538,8.16246949 C9.19045538,8.69170354 8.82406092,9.18022796 8.29482619,9.26164886 L8.29482619,9.38377952 C8.29482619,9.58733163 8.13198439,9.75017259 7.92843297,9.75017259 C7.72488156,9.75017259 7.5620399,9.58733163 7.5620399,9.38377952 L7.5620399,9.22093841 C7.19564668,9.01738699 6.95138551,8.65099378 6.95138551,8.2031798 C6.95138551,7.99962839 7.11422579,7.83678742 7.31777734,7.83678742 C7.52133014,7.83678742 7.6841718,7.99962839 7.6841718,8.2031798 C7.6841718,8.40673191 7.84701345,8.56957302 8.05056487,8.56957302 C8.25411643,8.56957302 8.41695809,8.40673191 8.41695809,8.2031798 L8.41695809,8.04033884 C8.41695809,7.87749773 8.29482743,7.71465676 8.17269677,7.67394631 L7.72488417,7.55181579 C7.23636044,7.38897399 6.95138551,6.98187116 6.95138551,6.45263628 L6.95138551,6.28979532 C6.95138551,5.80127089 7.2770702,5.35345747 7.68417441,5.23132626 L7.68417441,5.06848515 C7.72488417,4.86493305 7.88772459,4.66138135 8.09127601,4.66138135 Z" id="Fill-2132-path" stroke="#4D4D4D" stroke-width="0.1" fill="#4D4D4D" fill-rule="nonzero"></path>
            </g>
        </g>
    </g>
</svg>