<?xml version="1.0" encoding="UTF-8"?>
<svg width="11px" height="15px" viewBox="0 0 11 15" version="1.1" xmlns="http://www.w3.org/2000/svg" xmlns:xlink="http://www.w3.org/1999/xlink">
    <title>user@2x</title>
    <g id="Symbols" stroke="none" stroke-width="1" fill="none" fill-rule="evenodd">
        <g id="Menú/Perfil-" transform="translate(-4, -3)" fill="#4C4C4C" fill-rule="nonzero">
            <g id="user" transform="translate(4, 3)">
                <path d="M4.65509686,14.006424 C3.36635219,13.6695322 2.35567691,12.6481619 2.02413264,11.3540698 C1.73536827,10.2204023 2.0883025,8.94235259 2.92785815,8.07071201 L3.28079238,7.70708281 L2.88507825,7.56804811 L2.48401663,7.4343609 L1.70863083,6.99586687 L1.3129167,6.60550023 C0.580310811,5.87824182 0.152511751,5.00125375 0.0455619858,3.97453601 C0.0134770563,3.68577164 -0.00791289666,3.00664063 0.00278207984,2.47189181 C0.0241720328,1.32218184 -0.0293028497,1.41843662 0.767472899,1.05480742 C3.81019371,-0.346234498 7.18980629,-0.351581986 10.2057897,1.03876496 C11.0346503,1.42378411 10.975828,1.32218184 10.9972179,2.47189181 C11.0079129,3.00664063 10.9865229,3.68577164 10.954438,3.97453601 C10.8474882,5.00125375 10.4196892,5.87824182 9.68173581,6.61084771 L9.28067419,7.00656184 L8.51598337,7.4343609 L8.10422678,7.5733956 L7.69247018,7.71777778 L7.87963227,7.86750745 C8.35555873,8.26322158 8.85822262,9.12951468 9.0026048,9.80864569 C9.33414907,11.3754597 8.52667835,13.0117911 7.06146657,13.7390496 C6.3181657,14.1080262 5.42513516,14.204281 4.65509686,14.006424 Z M6.0454438,13.1989532 C7.05611908,12.9904012 7.95984459,12.0866757 8.16839664,11.0760004 C8.35555873,10.1722749 8.08818431,9.31132928 7.40370582,8.62685078 C6.29677575,7.51992072 4.70322425,7.51992072 3.59629418,8.62685078 C2.48936412,9.73378085 2.48936412,11.3326798 3.59629418,12.4342624 C4.28612017,13.1187409 5.14171829,13.3861153 6.0454438,13.1989532 Z M7.45183321,6.86752715 C8.67106053,6.61084771 9.71382074,5.6162149 10.0186276,4.40768256 C10.1362723,3.93710359 10.1950947,2.0227028 10.0934924,1.94249047 C9.93841525,1.81949824 8.92239248,1.42378411 8.33416877,1.25266449 C7.32884098,0.963900123 6.68714239,0.878340311 5.5,0.878340311 C4.31285761,0.878340311 3.67115902,0.963900123 2.66583123,1.25266449 C2.07760752,1.42378411 1.06158475,1.81949824 0.906507594,1.94249047 C0.804905317,2.0227028 0.863727688,3.93710359 0.981372429,4.40768256 C1.28617926,5.60017244 2.32359198,6.60550023 3.52142935,6.86217966 C4.02944073,6.97447692 6.93312685,6.97447692 7.45183321,6.86752715 Z" id="Shape" transform="translate(5.5, 7.0535) scale(-1, 1) rotate(-180) translate(-5.5, -7.0535)"></path>
            </g>
        </g>
    </g>
</svg>