<?xml version="1.0" encoding="UTF-8"?>
<svg width="17px" height="12px" viewBox="0 0 17 12" version="1.1" xmlns="http://www.w3.org/2000/svg" xmlns:xlink="http://www.w3.org/1999/xlink">
    <title>users@2x</title>
    <g id="Symbols" stroke="none" stroke-width="1" fill="none" fill-rule="evenodd">
        <g id="Menú/AdminUser-" transform="translate(-2, -4)" fill="#4C4C4C" fill-rule="nonzero">
            <g id="users" transform="translate(2, 4)">
                <path d="M7.82858582,11.1304021 C6.80446672,10.8626863 6.00131937,10.05104 5.73785305,9.02267147 C5.50838238,8.12178662 5.78884653,7.10616643 6.45601125,6.41350497 L6.73647541,6.1245419 L6.4220156,6.01405602 L6.10330634,5.9078196 L5.85683784,6.14153973 C5.70385739,6.2817718 5.46163835,6.44325116 5.23216768,6.55373704 L4.85821548,6.73646369 L5.01969484,6.92343979 C5.7718487,7.79457844 5.7421025,9.02692093 4.95595299,9.8768123 C4.42052142,10.4547384 3.55363222,10.7139553 2.80997727,10.5142308 C2.04507504,10.3145064 1.36516195,9.62184489 1.19518367,8.87818994 C1.13994073,8.63172144 1.13994073,8.10478879 1.19518367,7.8583203 C1.25892552,7.57360669 1.46714891,7.1784072 1.67962175,6.93618816 L1.86659785,6.72371532 L1.62437881,6.62597781 C0.846728209,6.30726854 0.234806422,5.58486088 0.0648281482,4.76896516 C-0.0116620751,4.41626024 -0.0244104456,3.0521846 0.0478303208,2.92045143 C0.175314026,2.68248185 1.88784514,2.07905898 2.44027453,2.07905898 C2.62725063,2.07905898 2.76323325,2.22778997 2.76323325,2.42751444 C2.76323325,2.63998728 2.6697452,2.70372913 2.2065544,2.79721718 C1.70511849,2.90345361 1.29292118,3.03093731 0.94021626,3.18816721 L0.672500478,3.31140146 L0.689498306,3.97856619 C0.706496133,4.54374395 0.72349396,4.68822548 0.804233641,4.89219941 C1.01245703,5.42338152 1.43740271,5.83982829 1.97708373,6.03955276 C2.2065544,6.1245419 2.33403811,6.13304081 3.17968002,6.15003864 C3.78735235,6.15853755 4.22929586,6.15003864 4.41202251,6.11604299 C4.73498123,6.06080005 5.13867963,5.87382395 5.34690302,5.68684784 L5.48713509,5.55936414 L5.17267528,5.24915379 C4.5904997,4.67122766 4.25054315,3.97431673 4.16555401,3.15842102 C4.14005727,2.92895035 4.12305944,2.38926933 4.13155836,1.96432364 C4.14855618,1.05069042 4.10606161,1.12718064 4.73923069,0.838217575 C7.15717163,-0.27514012 9.84282837,-0.279389577 12.239522,0.825469205 C12.8981878,1.1314301 12.8514438,1.05069042 12.8684416,1.96432364 C12.8769406,2.38926933 12.8599427,2.92895035 12.834446,3.15842102 C12.7494569,3.97431673 12.4095003,4.67122766 11.8230753,5.25340324 L11.504366,5.56786305 L11.6488475,5.6910973 C11.8698193,5.88232286 12.2735177,6.06080005 12.5879775,6.11604299 C12.7707041,6.15003864 13.2126476,6.15853755 13.82032,6.15003864 C14.6659619,6.13304081 14.7934456,6.1245419 15.0229163,6.03955276 C15.5625973,5.83982829 15.987543,5.42338152 16.1957664,4.89219941 C16.276506,4.68822548 16.2935039,4.54374395 16.3105017,3.98281565 L16.3274995,3.31565092 L16.1660202,3.23491124 C15.8770571,3.08618025 15.290632,2.89920415 14.8359402,2.8057161 C14.3302548,2.70372913 14.2367668,2.64423674 14.2367668,2.41901552 C14.2367668,2.21929105 14.3769988,2.07905898 14.5809728,2.07905898 C14.7806972,2.08330843 15.3841201,2.21929105 15.792068,2.35527367 C16.276506,2.51675303 16.8969267,2.82271393 16.9521697,2.92045143 C17.0244104,3.0521846 17.0116621,4.41626024 16.9351719,4.77321462 C16.7651936,5.57636197 16.1490223,6.311518 15.3756212,6.62597781 L15.1334021,6.72371532 L15.3203782,6.93618816 C15.6688337,7.3356371 15.8515604,7.82432464 15.8515604,8.36825512 C15.8473109,9.00567365 15.6603348,9.45611607 15.197144,9.91505741 C14.7339532,10.3782482 14.2622635,10.5779727 13.6205955,10.5779727 C12.4392465,10.5737232 11.4321252,9.55810304 11.4321252,8.36825512 C11.4321252,7.85407084 11.6318497,7.32713819 11.9803052,6.92343979 L12.1417845,6.73646369 L11.7678323,6.55373704 C11.5383616,6.44325116 11.2961426,6.2817718 11.1431622,6.14153973 L10.8966937,5.9078196 L10.5694855,6.01830548 L10.2422773,6.13304081 L10.3910083,6.2520256 C10.76921,6.56648541 11.1686589,7.25489742 11.2833942,7.79457844 C11.5468606,9.0396693 10.9051926,10.3400031 9.7408414,10.9179292 C9.1501669,11.2111418 8.4405076,11.287632 7.82858582,11.1304021 Z M8.9334446,10.4887341 C9.73659194,10.3230053 10.4547502,9.60484706 10.620479,8.80169972 C10.76921,8.08354151 10.5567371,7.39937896 10.0128066,6.85544848 C9.13316907,5.97581091 7.86683093,5.97581091 6.98719336,6.85544848 C6.10755579,7.73508605 6.10755579,9.00567365 6.98719336,9.88106176 C7.53537329,10.4249922 8.21528639,10.6374651 8.9334446,10.4887341 Z M3.96582954,9.77907479 C4.24204423,9.65584054 4.60749752,9.29888617 4.7477296,9.0099231 C4.85396602,8.80169972 4.86671439,8.72096004 4.86671439,8.36825512 C4.86671439,8.00705128 4.85396602,7.93905998 4.74348014,7.71808822 C4.59474915,7.42912515 4.24204423,7.08066969 3.96582954,6.95318599 C3.80010072,6.87669576 3.68536539,6.85969793 3.35815721,6.85969793 C3.00120283,6.85969793 2.92471261,6.87244631 2.71223977,6.97868273 C1.81560437,7.41637678 1.54788859,8.52973448 2.14706201,9.315884 C2.30004245,9.51560847 2.59750443,9.72808131 2.87371913,9.83431773 C3.11593817,9.92780578 3.70236321,9.89805958 3.96582954,9.77907479 Z M14.2877602,9.75782751 C14.610719,9.6005976 14.8954326,9.315884 15.0356646,9.01417256 C15.1334021,8.80594917 15.1504,8.71671058 15.1504,8.36825512 C15.1504,8.01130074 15.1376516,7.93481052 15.0314152,7.72233768 C14.8784347,7.40787787 14.60222,7.13166317 14.2877602,6.97868273 C14.0752874,6.87244631 13.9987972,6.85969793 13.6418428,6.85969793 C13.3146346,6.85969793 13.1998993,6.87669576 13.0341705,6.95318599 C12.7537063,7.08491915 12.388253,7.44187352 12.2522704,7.72658713 C12.146034,7.93481052 12.1332856,8.01130074 12.1332856,8.36825512 C12.1375351,8.8526932 12.2182747,9.06516604 12.5199862,9.38812476 C12.8854395,9.77907479 13.178652,9.90230904 13.7055846,9.88531121 C13.9775499,9.8768123 14.0922852,9.85556502 14.2877602,9.75782751 Z M10.0510518,5.45737717 C11.0199279,5.25340324 11.848572,4.46300427 12.090791,3.50262702 C12.1842791,3.12867482 12.2310231,1.60736927 12.1502834,1.54362741 C12.0270492,1.44588991 11.2196524,1.1314301 10.7522121,0.995447479 C9.95331424,0.765976809 9.44337942,0.697985499 8.5,0.697985499 C7.55662058,0.697985499 7.04668576,0.765976809 6.24778787,0.995447479 C5.78034761,1.1314301 4.97295081,1.44588991 4.84971656,1.54362741 C4.76897688,1.60736927 4.81572091,3.12867482 4.90920896,3.50262702 C5.151428,4.4502559 5.97582263,5.24915379 6.92770096,5.45312772 C7.33139937,5.54236631 9.63885444,5.54236631 10.0510518,5.45737717 Z" id="Shape" transform="translate(8.5, 5.6052) scale(-1, 1) rotate(-180) translate(-8.5, -5.6052)"></path>
            </g>
        </g>
    </g>
</svg>