<?xml version="1.0" encoding="UTF-8"?>
<svg width="30px" height="30px" viewBox="0 0 30 30" version="1.1" xmlns="http://www.w3.org/2000/svg" xmlns:xlink="http://www.w3.org/1999/xlink">
    <title>Group</title>
    <g id="Symbols" stroke="none" stroke-width="1" fill="none" fill-rule="evenodd">
        <g id="icon/ventas" fill="#4C4C4C" fill-rule="nonzero">
            <g id="Group" transform="translate(1, 1)">
                <path d="M6.18534905,13.5829622 C5.90504716,13.4895282 5.67730188,13.3493773 5.50795283,13.1566697 C5.2685283,12.8822075 2.3253585,8.17547166 2.23776416,7.91852826 C2.01001888,7.27616977 2.31367926,6.5345377 2.9443585,6.20167921 C3.11370756,6.11408487 3.32393397,6.07320752 3.69183019,6.05568865 L4.19987736,6.03233016 L4.19987736,3.56800942 C4.19987736,1.22048113 4.20571698,1.09784905 4.32250944,0.846745279 C4.4685,0.525566035 4.68456604,0.291981131 4.98822641,0.128471697 C5.21013207,0.00583962261 5.30356603,2.84217094e-14 6.53572641,2.84217094e-14 C7.76788678,2.84217094e-14 7.86132074,0.00583962261 8.0832264,0.128471697 C8.38688677,0.291981131 8.60295281,0.525566035 8.74894338,0.846745279 C8.86573583,1.09784905 8.87157545,1.22048113 8.87157545,3.56800942 L8.87157545,6.03233016 L9.38546224,6.05568865 C9.74751884,6.07320752 9.95774526,6.11408487 10.1270943,6.20167921 C10.7577736,6.5345377 11.0614339,7.27616977 10.8336886,7.91852826 C10.7460943,8.17547166 7.80292451,12.8822075 7.56349998,13.1566697 C7.47006602,13.2617829 7.28903772,13.4019339 7.16056602,13.4661697 C6.90362263,13.6004811 6.41309433,13.6588773 6.18534905,13.5829622 Z M6.78683018,12.6311037 C6.96785848,12.4909528 9.98110375,7.60318864 9.98110375,7.44551883 C9.97526412,7.08346223 9.7358396,6.97834902 8.90077356,6.97834902 C8.25841508,6.97834902 8.21753772,6.9725094 8.0832264,6.83235845 L7.93723583,6.69220751 L7.93723583,4.00598111 C7.93723583,2.16066037 7.91971696,1.27303773 7.87299998,1.17960377 C7.76204715,0.94017924 7.58685848,0.905141505 6.53572641,0.905141505 C5.48459434,0.905141505 5.30940566,0.94017924 5.19845283,1.17960377 C5.15173585,1.27303773 5.13421698,2.16066037 5.13421698,4.00598111 L5.13421698,6.69220751 L4.98822641,6.83235845 C4.85391509,6.9725094 4.81303774,6.97834902 4.17067925,6.97834902 C3.30057548,6.97834902 3.09034907,7.07178298 3.09034907,7.46887732 C3.09034907,7.60902826 6.11527358,12.4909528 6.28462263,12.6194245 C6.41893395,12.718698 6.65835848,12.7245377 6.78683018,12.6311037 Z" id="Shape" stroke="#4C4C4C" stroke-width="0.3" transform="translate(6.5357, 6.8083) scale(-1, 1) rotate(-180) translate(-6.5357, -6.8083)"></path>
                <path d="M18.2733679,28.0035196 C16.9127358,27.8283309 15.7039339,27.4253969 14.6528018,26.8005573 C13.0761037,25.8603781 11.7738679,24.406312 11.0614339,22.8004158 L10.8979245,22.4325196 L6.13279245,22.4208404 L1.36766039,22.4033215 L1.07567926,22.2573309 C0.701943417,22.0763026 0.351566061,21.7259253 0.17053776,21.3521894 C0.0303868169,21.0777272 0.0245471943,21.0018121 0.0245471943,20.0966706 C0.0245471943,19.1681706 0.0303868169,19.1214536 0.176377382,18.8411517 C0.263971721,18.6834819 0.404122664,18.4732555 0.485877381,18.3856611 L0.643547191,18.2163121 L0.485877381,18.0644819 C0.404122664,17.9768875 0.263971721,17.7783404 0.176377382,17.6148309 C0.0303868169,17.3345291 0.0245471943,17.2878121 0.0245471943,16.3593121 C0.0245471943,15.4308121 0.0303868169,15.3840951 0.176377382,15.1037932 C0.263971721,14.9402838 0.404122664,14.7417366 0.485877381,14.6541423 L0.643547191,14.5023121 L0.485877381,14.332963 C0.404122664,14.2453687 0.263971721,14.0409819 0.182217005,13.8774725 C0.0420660621,13.6146895 0.0303868169,13.5095763 0.00702832647,12.7562649 C-0.0104905414,12.090548 0.00118870386,11.8686423 0.0829434204,11.6116989 C0.228933986,11.1445291 0.538433984,10.7707932 0.988084925,10.5255291 L1.36766039,10.3153027 L8.17082074,10.3153027 L14.9739811,10.3153027 L15.2659622,10.4729725 C15.4294716,10.5605668 15.6338584,10.6890385 15.7272924,10.7649536 L15.8908018,10.9051046 L16.4572452,10.7065574 C19.4880094,9.6495857 23.067698,10.5722461 25.5144999,13.0307272 C26.7233018,14.2512083 27.5291697,15.7519913 27.8912263,17.4688404 C28.0372169,18.1754347 28.0372169,19.903963 27.8853867,20.7098309 C27.5408489,22.5609913 26.7466603,24.0676139 25.3977074,25.4165668 C24.0954716,26.7246422 22.6472452,27.5071516 20.8486414,27.8692083 C20.2997169,27.9801611 18.734698,28.0619158 18.2733679,28.0035196 Z M20.9070377,26.8764724 C23.7275754,26.2282743 25.8006414,24.3595951 26.6532263,21.7025668 C27.0619999,20.4178498 27.184632,18.806114 26.9510471,17.6732272 C26.4429999,15.2089064 24.8838206,13.1591989 22.6764433,12.0496706 C22.185915,11.8044064 21.2632546,11.4890668 20.638415,11.3605951 C19.9026226,11.2087649 18.3959999,11.2087649 17.6602075,11.3605951 C15.4820282,11.8102461 13.6425471,13.0599253 12.4804622,14.8702083 C12.1067264,15.4424913 11.8906603,15.8979819 11.6570754,16.5695385 C11.3358962,17.4921989 11.2424622,18.0761611 11.2424622,19.0747366 C11.2424622,20.4470479 11.4994056,21.5624158 12.112566,22.8179347 C13.2337735,25.118746 15.3418773,26.5903309 18.1273773,27.0107837 C18.2266509,27.022463 18.7755754,27.0283026 19.353698,27.0166233 C20.1420471,26.9991045 20.5333018,26.9640667 20.9070377,26.8764724 Z M10.565066,21.4573026 C10.565066,21.4281045 10.5125094,21.1594819 10.4482736,20.8558215 C10.3840377,20.5521611 10.3139622,19.9390007 10.2906037,19.4951894 L10.255566,18.6951611 L5.89336792,18.7068404 L1.53116983,18.7243592 L1.31510379,18.8937083 C0.97640568,19.1506517 0.918009454,19.3550385 0.941367944,20.1842649 C0.958886812,20.8499819 0.970566057,20.9083781 1.11655662,21.1010856 C1.43189624,21.5156988 1.1632736,21.49818 6.11527358,21.49818 C8.56207545,21.49818 10.565066,21.4806611 10.565066,21.4573026 Z M10.4190754,17.6031517 C10.5592264,16.9199159 10.7869717,16.1724442 11.0263962,15.6118404 L11.3125377,14.9578027 L6.41893395,14.9694819 L1.53116983,14.9870008 L1.31510379,15.1563498 C0.97640568,15.4132932 0.918009454,15.61768 0.941367944,16.4469064 C0.958886812,17.1126234 0.970566057,17.1710196 1.11655662,17.3637272 C1.43189624,17.7783404 1.16911323,17.7608215 6.02183962,17.7608215 L10.3898773,17.7608215 L10.4190754,17.6031517 Z M12.2293585,13.6380479 C12.7666037,12.9372932 13.7126226,12.0963876 14.5243301,11.6000197 C14.7228773,11.4773876 14.8863867,11.3605951 14.8863867,11.331397 C14.8863867,11.3080385 14.7987924,11.2671612 14.6995188,11.2496423 C14.5944056,11.2321234 11.587,11.2262838 8.01899055,11.2321234 L1.53116983,11.2496423 L1.31510379,11.4189914 C0.97640568,11.6759348 0.918009454,11.8803215 0.941367944,12.709548 C0.958886812,13.3752649 0.970566057,13.4336612 1.11655662,13.6263687 C1.43773587,14.0468215 1.08151889,14.023463 6.79850942,14.0176234 L11.9373773,14.0176234 L12.2293585,13.6380479 Z" id="Shape" stroke="#4C4C4C" stroke-width="0.3" transform="translate(14, 19.1487) scale(-1, 1) rotate(-180) translate(-14, -19.1487)"></path>
                <path d="M19.0001605,21.9499886 C18.9956657,21.9499886 18.991278,21.9506307 18.9867832,21.9507377 C18.3211948,21.9428336 17.7855312,21.4014953 17.7846413,20.7358605 C17.7846413,20.3812315 17.4971576,20.0937479 17.1425286,20.0937479 C16.7878996,20.0937479 16.5004159,20.3812315 16.5004159,20.7358605 C16.5020383,21.8685517 17.2637647,22.8591296 18.3580479,23.1515954 L18.3580479,23.6986754 C18.3580479,24.0533044 18.6455315,24.340788 19.0001605,24.340788 C19.3547896,24.340788 19.6422732,24.0533044 19.6422732,23.6986754 L19.6422732,23.1515954 C20.8555089,22.8290786 21.6413566,21.6567642 21.4787516,20.411968 C21.3161465,19.1671717 20.2555322,18.2360568 19.0001605,18.2360089 C18.5085094,18.2360955 18.0652213,17.9399986 17.8770146,17.4857971 C17.6888078,17.0315955 17.7927497,16.5087439 18.1403689,16.1610635 C18.4879881,15.813383 19.0108214,15.7093491 19.4650561,15.8974758 C19.9192908,16.0856026 20.2154657,16.5288385 20.2154658,17.0204897 C20.2154658,17.3751187 20.5029494,17.6626023 20.8575784,17.6626023 C21.2122074,17.6626023 21.4996911,17.3751187 21.4996911,17.0204897 C21.4981041,15.8877282 20.7363161,14.8970834 19.6419521,14.6046478 L19.6419521,14.1421127 C19.6419521,13.7874836 19.3544685,13.5 18.9998395,13.5 C18.6452104,13.5 18.3577268,13.7874836 18.3577268,14.1421127 L18.3577268,14.6046478 C17.1444911,14.9271646 16.3586434,16.099479 16.5212484,17.3442752 C16.6838535,18.5890715 17.7444678,19.5201864 18.9998395,19.5202343 C19.6674281,19.5216339 20.2089039,20.0612679 20.2125783,20.7288479 C20.2162526,21.396428 19.6807496,21.9419896 19.0132168,21.9507377 C19.0090431,21.9507377 19.0046553,21.9499886 19.0001605,21.9499886 Z" id="Path"></path>
            </g>
        </g>
    </g>
</svg>