<?xml version="1.0" encoding="UTF-8"?>
<svg width="17px" height="17px" viewBox="0 0 17 17" version="1.1" xmlns="http://www.w3.org/2000/svg" xmlns:xlink="http://www.w3.org/1999/xlink">
    <title>Shape</title>
    <g id="Symbols" stroke="none" stroke-width="1" fill="none" fill-rule="evenodd">
        <g id="icon/Video" fill="#4C4C4C" fill-rule="nonzero" stroke="#FFFFFF" stroke-width="0.2">
            <path d="M5.10324218,0.5 L11.8967578,0.5 C13.160881,0.5 14.3110365,1.01874898 15.1454888,1.85189127 C15.981251,2.68634354 16.5,3.83780907 16.5,5.10324218 L16.5,11.9950057 C16.5,13.2578189 15.981251,14.4079745 15.1481087,15.2424267 L15.1454888,15.2450467 C14.3097265,16.0794989 13.159571,16.5969379 11.8980678,16.5969379 L5.10324218,16.5969379 C3.83780907,16.5969379 2.68634354,16.078189 1.85189127,15.2450467 L1.82045194,15.2096774 C1.00564925,14.3791551 0.5,13.2420992 0.5,11.9936958 L0.5,5.10324218 C0.5,3.8364991 1.017439,2.68634354 1.85189127,1.85189127 C2.68634354,1.017439 3.8364991,0.5 5.10324218,0.5 L5.10324218,0.5 Z M12.4875553,4.56353365 L12.4967251,4.57794334 L15.3262649,4.57794334 C15.2122974,3.83387916 14.8572949,3.16579335 14.3464058,2.65359424 C13.7176191,2.0248076 12.8504176,1.63443589 11.8967578,1.63443589 L10.7348125,1.63443589 L12.4875553,4.56353365 L12.4875553,4.56353365 Z M11.1788931,4.57794334 L9.41698051,1.63443589 L5.55256263,1.63443589 L7.33543475,4.57794334 L11.1788931,4.57794334 L11.1788931,4.57794334 Z M6.01629278,4.57794334 L4.29236941,1.73006386 C3.6622728,1.88202063 3.0976748,2.2082037 2.65359424,2.65359424 C2.14270509,3.16448338 1.78901261,3.83387916 1.67373506,4.57794334 L6.01629278,4.57794334 L6.01629278,4.57794334 Z M15.3655641,5.71237924 L1.63443589,5.71237924 L1.63443589,11.9950057 C1.63443589,12.9342558 2.01301785,13.7896676 2.62477485,14.4158343 L2.65359424,14.4433437 C3.28238087,15.0721303 4.15089242,15.463812 5.10324218,15.463812 L11.8967578,15.463812 C12.8504176,15.463812 13.7176191,15.0734403 14.3450958,14.4459636 L14.3477157,14.4433437 C14.9751924,13.815867 15.3655641,12.9486655 15.3655641,11.9950057 L15.3655641,5.71237924 L15.3655641,5.71237924 Z M7.17430817,7.69829704 L10.6889635,9.98419846 C10.7452923,10.0208777 10.7963812,10.0680367 10.8369903,10.1256755 C10.9968069,10.3575405 10.9378582,10.6758638 10.7059931,10.8356804 L7.2057475,12.9015065 C7.11797937,12.9735549 7.00532176,13.016784 6.88087441,13.016784 C6.59792042,13.016784 6.36867529,12.7875389 6.36867529,12.5045849 L6.36867529,8.11748813 L6.37129523,8.11748813 C6.37129523,8.01662027 6.40142459,7.91444244 6.46299329,7.82536434 C6.62542983,7.59349926 6.94375307,7.53717046 7.17430817,7.69829704 L7.17430817,7.69829704 L7.17430817,7.69829704 Z" id="Shape"></path>
        </g>
    </g>
</svg>