<?xml version="1.0" encoding="UTF-8"?>
<svg width="24px" height="24px" viewBox="0 0 24 24" version="1.1" xmlns="http://www.w3.org/2000/svg" xmlns:xlink="http://www.w3.org/1999/xlink">
    <title>Icon/WhatsApp</title>
    <defs>
        <polygon id="path-1" points="0 0 21.9998429 0 21.9998429 21.9997643 0 21.9997643"></polygon>
    </defs>
    <g id="Symbols" stroke="none" stroke-width="1" fill="none" fill-rule="evenodd">
        <g id="Bar/Top/3elementos" transform="translate(-371, -13)">
            <g id="Icon/WhatsApp" transform="translate(372, 14.0002)">
                <g transform="translate(0, -0)" id="Group-3">
                    <g transform="translate(0, 0)">
                        <mask id="mask-2" fill="white">
                            <use xlink:href="#path-1"></use>
                        </mask>
                        <g id="Clip-2"></g>
                        <path d="M15.9647714,13.1850714 C15.6944857,13.0475714 14.3540571,12.3891429 14.1034143,12.3011429 C13.8527714,12.2076429 13.6712714,12.1636429 13.4897714,12.4386429 C13.3082714,12.7136429 12.7873429,13.3225714 12.6254857,13.5095714 C12.4683429,13.6910714 12.3064857,13.7154286 12.0362,13.5779286 C10.4349143,12.7772857 9.38441429,12.1487143 8.32841429,10.3368571 C8.0487,9.856 8.60812857,9.88978571 9.12905714,8.84871429 C9.21784286,8.66721429 9.17305714,8.51007143 9.1047,8.37257143 C9.03555714,8.23507143 8.49027143,6.89464286 8.26477143,6.34935714 C8.0432,5.819 7.8177,5.89285714 7.65034286,5.88264286 C7.49398571,5.87321429 7.3117,5.87321429 7.1302,5.87321429 C6.9487,5.87321429 6.65405714,5.94157143 6.40341429,6.21185714 C6.15277143,6.48685714 5.45112857,7.14528571 5.45112857,8.48571429 C5.45112857,9.82614286 6.42777143,11.1225714 6.56055714,11.3040714 C6.69805714,11.4855714 8.48084286,14.2355714 11.2159143,15.4196429 C12.9444857,16.1660714 13.6225571,16.2297143 14.4868429,16.1016429 C15.0124857,16.0230714 16.0967714,15.444 16.3230571,14.806 C16.5493429,14.1672143 16.5493429,13.6219286 16.4802,13.5095714 C16.4165571,13.3862143 16.2350571,13.3178571 15.9647714,13.1850714 M10.9951286,19.9720714 C9.36477143,19.9720714 7.76898571,19.5344286 6.37905714,18.7094286 L6.04984286,18.513 L2.62255714,19.4118571 L3.53555714,16.0678571 L3.31948571,15.7237143 C2.4112,14.2803571 1.93505714,12.6154286 1.93505714,10.9017857 C1.93505714,5.907 6.00112857,1.84092857 10.9998429,1.84092857 C13.4206286,1.84092857 15.6944857,2.78457143 17.4034143,4.49821429 C19.1123429,6.21185714 20.1636286,8.48571429 20.15815,10.9065 C20.15815,15.9052143 15.9891286,19.9720714 10.9951286,19.9720714 M18.7045571,3.19707143 C16.6475571,1.13457143 13.9069857,0 10.9951286,0 C4.98441429,0 0.0933428571,4.89107143 0.0933428571,10.9017857 C0.0933428571,12.8220714 0.594628571,14.6975714 1.54691429,16.3522857 L-0.000157142857,22 L5.78034286,20.4827857 C7.37062857,21.3517857 9.16362857,21.8082857 10.9896286,21.8082857 L10.9951286,21.8082857 C17.0011286,21.8082857 21.9998429,16.9172143 21.9998429,10.9065 C21.9998429,7.99464286 20.7623429,5.25957143 18.7045571,3.19707143" id="Fill-1" fill="#2D2926" mask="url(#mask-2)"></path>
                    </g>
                </g>
            </g>
        </g>
    </g>
</svg>