<?xml version="1.0" encoding="UTF-8"?>
<svg width="20px" height="18px" viewBox="0 0 20 18" version="1.1" xmlns="http://www.w3.org/2000/svg" xmlns:xlink="http://www.w3.org/1999/xlink">
    <title>Group</title>
    <defs>
        <radialGradient cx="16.7002719%" cy="17.2599784%" fx="16.7002719%" fy="17.2599784%" r="118.801453%" gradientTransform="translate(0.167, 0.1726), scale(0.9976, 1), translate(-0.167, -0.1726)" id="radialGradient-1">
            <stop stop-color="#97D5F6" offset="0%"></stop>
            <stop stop-color="#91D3F5" offset="4.83%"></stop>
            <stop stop-color="#80CDF3" offset="11.27%"></stop>
            <stop stop-color="#64C4EF" offset="18.61%"></stop>
            <stop stop-color="#3EB7EA" offset="26.61%"></stop>
            <stop stop-color="#0DA7E3" offset="35.08%"></stop>
            <stop stop-color="#00A3E1" offset="37.08%"></stop>
            <stop stop-color="#0099D9" offset="44.22%"></stop>
            <stop stop-color="#0087CA" offset="61.73%"></stop>
            <stop stop-color="#007CC1" offset="79.99%"></stop>
            <stop stop-color="#0078BE" offset="100%"></stop>
        </radialGradient>
    </defs>
    <g id="Symbols" stroke="none" stroke-width="1" fill="none" fill-rule="evenodd">
        <g id="icons/logos/american" transform="translate(-15, -4)" fill-rule="nonzero">
            <g id="Group" transform="translate(15, 4)">
                <g transform="translate(2.3237, 0)">
                    <path d="M17.572208,0 L0,0 L0,17.6332783 L17.572208,17.6332783 L17.572208,11.8145868 C17.6422886,11.7144716 17.6763278,11.584322 17.6763278,11.4271412 C17.6763278,11.2449317 17.6422886,11.1338039 17.572208,11.0396956 L17.572208,0 Z" id="SVGID_1_" fill="url(#radialGradient-1)"></path>
                    <g transform="translate(0, 6.047)" fill="#FFFFFF" id="Shape">
                        <path d="M0.00100115132,2.88131351 L0.845972869,2.88131351 L1.03519047,2.4207839 L1.46168093,2.4207839 L1.65089853,2.88131351 L3.31080743,2.88131351 L3.31080743,2.5299094 L3.45897782,2.88331581 L4.31896681,2.88331581 L4.46513491,2.52690594 L4.46513491,2.88231466 L8.59188066,2.88231466 L8.58987836,2.12944887 L8.66997047,2.12944887 C8.72603494,2.12944887 8.74105221,2.13645693 8.74105221,2.229564 L8.74105221,2.88231466 L10.8755068,2.88231466 L10.8755068,2.70611203 C11.0477049,2.7992191 11.3160134,2.88231466 11.6674175,2.88231466 L12.5654503,2.88231466 L12.755669,2.42178505 L13.1831606,2.42178505 L13.3713771,2.88231466 L15.1023677,2.88231466 L15.1023677,2.44381038 L15.3646694,2.88231466 L16.751264,2.88231466 L16.751264,0 L15.3796866,0 L15.3796866,0.341392601 L15.1884667,0 L13.7818491,0 L13.7818491,0.341392601 L13.6046453,0 L11.703459,0 C11.386094,0 11.1047705,0.0440506583 10.8795114,0.168193422 L10.8795114,0 L9.5680032,0 L9.5680032,0.168193422 C9.42183511,0.040046053 9.22560945,0 9.00835961,0 L4.21384592,0 L3.8914752,0.742854282 L3.56309756,0 L2.05436252,0 L2.05436252,0.341392601 L1.88616909,0 L0.599689643,0 L0,1.36857386 L0.00100115132,2.88131351 L0.00100115132,2.88131351 Z M16.3137608,2.47484607 L15.6149572,2.47484607 L14.6778796,0.924062672 L14.6788807,2.47484607 L13.6727236,2.47484607 L13.4815037,2.01231416 L12.4553236,2.01231416 L12.2691095,2.47484607 L11.690444,2.47484607 C11.4501677,2.47484607 11.1468188,2.41978275 10.9746208,2.24558242 C10.7994193,2.06737748 10.7103169,1.83210692 10.7103169,1.45567403 C10.7103169,1.14832057 10.7653802,0.870000501 10.9766231,0.647744907 C11.1368073,0.481553787 11.386094,0.405466286 11.7264855,0.405466286 L12.2050358,0.405466286 L12.2050358,0.848976323 L11.7374981,0.848976323 C11.5572909,0.848976323 11.4541723,0.875006257 11.3560595,0.971116784 C11.2739651,1.05821695 11.213896,1.22240577 11.213896,1.4396556 C11.213896,1.66291235 11.2569455,1.82109426 11.3510537,1.92421284 C11.4251389,2.0053061 11.5653001,2.02933373 11.6944486,2.02933373 L11.9177054,2.02933373 L12.6135055,0.404465135 L13.3523552,0.404465135 L14.1883166,2.35771137 L14.1883166,0.406467438 L14.9421835,0.406467438 L15.8091806,1.84612304 L15.8091806,0.406467438 L16.3137608,0.406467438 L16.3137608,2.47484607 L16.3137608,2.47484607 Z M10.4690394,2.47484607 L9.96445913,2.47484607 L9.96445913,0.40846974 L10.4690394,0.40846974 L10.4690394,2.47484607 Z M9.67812985,0.965109876 C9.67812985,1.29248636 9.45787656,1.46468439 9.33073034,1.51674426 C9.43685238,1.55779146 9.5289583,1.62787205 9.57200781,1.69094459 C9.64108725,1.79206087 9.65610452,1.88516794 9.65610452,2.06837864 L9.65610452,2.47484607 L9.15753116,2.47484607 L9.15552886,2.21354558 C9.15552886,2.09040396 9.16854383,1.90919557 9.07543675,1.8140862 C9.00535616,1.740001 8.89522951,1.72398258 8.71802573,1.72398258 L8.18841668,1.72398258 L8.18841668,2.47484607 L7.69585023,2.47484607 L7.69585023,0.40846974 L8.83215698,0.40846974 C9.08344596,0.40846974 9.27066126,0.417480102 9.42984432,0.509586024 C9.58602393,0.599689643 9.67812985,0.734845072 9.67812985,0.965109876 Z M7.35145417,2.47484607 L5.70255794,2.47484607 L5.70255794,0.40846974 L7.35145417,0.40846974 L7.35145417,0.840967112 L6.19612554,0.840967112 L6.19612554,1.21239425 L7.32242078,1.21239425 L7.32242078,1.63688241 L6.19612554,1.63488011 L6.19612554,2.04735446 L7.35145417,2.04735446 L7.35145417,2.47484607 Z M5.33413425,2.47484607 L4.82755168,2.47484607 L4.82554938,0.857986685 L4.10872503,2.47484607 L3.67522651,2.47484607 L2.95539871,0.853982079 L2.95539871,2.47484607 L1.95024278,2.47484607 L1.76202633,2.01231416 L0.733843921,2.01231416 L0.54462632,2.47484607 L0.00901036192,2.47484607 L0.891024678,0.40846974 L1.6248686,0.40846974 L2.46483456,2.36572058 L2.46483456,0.40846974 L3.27276368,0.40846974 L3.91950743,1.81008159 L4.51519247,0.40846974 L5.33613656,0.40846974 L5.33413425,2.47484607 L5.33413425,2.47484607 Z M13.3123092,1.58282024 L12.9699154,0.760875006 L12.6305251,1.58282024 L13.3123092,1.58282024 Z M9.03138609,1.25644491 C8.96531011,1.29448866 8.885218,1.29849327 8.78710517,1.29849327 L8.18641438,1.29849327 L8.18641438,0.83896481 L8.79411323,0.83896481 C8.8812134,0.83896481 8.97131701,0.841968264 9.02838264,0.874005106 C9.09145517,0.906041948 9.13250238,0.970115633 9.13250238,1.0572158 C9.13350353,1.14932172 9.09545978,1.21940231 9.03138609,1.25644491 Z M1.5858237,1.58282024 L1.24743455,0.760875006 L0.911047705,1.58282024 L1.5858237,1.58282024 Z"></path>
                        <path d="M9.57300896,4.64534214 C9.57300896,5.2180007 9.1465185,5.33713771 8.71402112,5.33713771 L8.09831306,5.33713771 L8.09831306,6.02893327 L7.14021124,6.02893327 L6.53151124,5.34614807 L5.89978475,6.02893327 L3.94453622,6.02893327 L3.94453622,3.96355809 L5.92981929,3.96355809 L6.53651699,4.64133754 L7.16524003,3.96355809 L8.74205336,3.96355809 C9.13350353,3.96556039 9.57300896,4.07468589 9.57300896,4.64534214 Z M5.64849577,5.59943936 L4.43409921,5.59943936 L4.43409921,5.18896731 L5.51734495,5.18896731 L5.51734495,4.76848376 L4.43409921,4.76848376 L4.43409921,4.39305201 L5.6705211,4.39305201 L6.21014166,4.9937428 L5.64849577,5.59943936 Z M7.60574661,5.84372028 L6.8468739,5.00075086 L7.60574661,4.18781599 L7.60574661,5.84372028 Z M8.73604645,4.91865645 L8.09631076,4.91865645 L8.09631076,4.39305201 L8.74205336,4.39305201 C8.92125945,4.39305201 9.04440106,4.46513491 9.04440106,4.64534214 C9.04440106,4.82554938 8.9262652,4.91865645 8.73604645,4.91865645 Z M12.0678781,3.96556039 L13.7157731,3.96556039 L13.7157731,4.39305201 L12.5594434,4.39305201 L12.5594434,4.76848376 L13.6877409,4.76848376 L13.6877409,5.19096962 L12.5594434,5.19096962 L12.5594434,5.60144166 L13.7157731,5.60344396 L13.7157731,6.03193673 L12.0678781,6.03193673 L12.0678781,3.96556039 L12.0678781,3.96556039 Z M11.4441608,5.07083146 C11.5522851,5.10987636 11.6423887,5.18195925 11.6844371,5.24503179 C11.7545177,5.34714922 11.7655304,5.43825399 11.7665315,5.62246584 L11.7665315,6.03093558 L11.2719628,6.03093558 L11.2719628,5.77063623 C11.2719628,5.64749462 11.2839766,5.46328278 11.1918707,5.3681734 C11.1197878,5.2940882 11.0096611,5.27606748 10.830455,5.27606748 L10.3028483,5.27606748 L10.3028483,6.03093558 L9.80827952,6.03093558 L9.80827952,3.96556039 L10.9485909,3.96556039 C11.1988787,3.96556039 11.3820894,3.97757421 11.5432748,4.06567553 C11.6974521,4.15778145 11.7965661,4.28893227 11.7965661,4.52220053 C11.7945637,4.85057816 11.5733093,5.01877159 11.4441608,5.07083146 Z M11.1448165,4.81553787 C11.0807429,4.85258047 10.9986484,4.85658507 10.9025379,4.85658507 L10.300846,4.85658507 L10.300846,4.39305201 L10.909546,4.39305201 C10.995645,4.39305201 11.0857486,4.39505431 11.1428142,4.42809231 C11.2058868,4.4631326 11.2459328,4.52620514 11.2459328,4.61630876 C11.246934,4.70340892 11.2098914,4.77449066 11.1448165,4.81553787 Z M15.6019422,4.94068178 C15.7010562,5.04279922 15.7491115,5.16794313 15.7491115,5.38018722 C15.7491115,5.82369725 15.4717926,6.03093558 14.9742204,6.03093558 L14.0121139,6.03093558 L14.0121139,5.58942784 L14.9702157,5.58942784 C15.0653251,5.58942784 15.1304,5.57541172 15.1724483,5.53636682 C15.2054863,5.50733343 15.2305151,5.46027932 15.2305151,5.40121139 C15.2305151,5.34014116 15.2064875,5.2940882 15.1684437,5.26405366 C15.1324023,5.23301797 15.0803424,5.21900185 14.9942434,5.21699955 C14.5327126,5.20098113 13.9540472,5.23301797 13.9540472,4.57726385 C13.9540472,4.27892076 14.1422636,3.96255694 14.6598588,3.96255694 L15.6489963,3.96255694 L15.6489963,4.40106122 L14.7439555,4.40106122 C14.6538519,4.40106122 14.5957852,4.40506583 14.5447264,4.43810382 C14.4916654,4.47114181 14.4726435,4.52220053 14.4726435,4.58827652 C14.4726435,4.66436402 14.5186965,4.71942734 14.5797667,4.74045152 C14.6318266,4.76047455 14.6858888,4.763478 14.7699855,4.763478 L15.0372929,4.76948491 C15.3076037,4.78149872 15.4898133,4.82855284 15.6019422,4.94068178 Z M17.572208,5.76763278 C17.4510687,5.94383541 17.2178005,6.03193673 16.9014367,6.03193673 L15.9473394,6.03193673 L15.9473394,5.59042899 L16.897432,5.59042899 C16.9915403,5.59042899 17.0566151,5.57641287 17.0966612,5.53736797 C17.1296992,5.50833458 17.1577314,5.46128047 17.1577314,5.40221254 C17.1577314,5.34114231 17.1327026,5.29508935 17.09566,5.26505481 C17.0586174,5.23401912 17.0065575,5.220003 16.9204585,5.2180007 C16.4569255,5.20198228 15.87826,5.23401912 15.87826,4.578265 C15.87826,4.27992191 16.0694799,3.96355809 16.586074,3.96355809 L17.5712069,3.96355809 L17.5712069,3.55308605 L16.6561546,3.55308605 C16.380838,3.55308605 16.1786054,3.61916204 16.0384442,3.72328177 L16.0384442,3.55308605 L14.6848876,3.55308605 C14.4696401,3.55308605 14.2163488,3.60814937 14.0952095,3.72328177 L14.0962106,3.55308605 L11.6804325,3.55308605 L11.6804325,3.72328177 C11.4902137,3.58412174 11.1648396,3.55308605 11.0146669,3.55308605 L9.42283626,3.55308605 L9.42283626,3.72328177 C9.27066126,3.57711368 8.93427442,3.55308605 8.72703609,3.55308605 L6.94598789,3.55308605 L6.5385193,3.99459378 L6.15607949,3.55308605 L3.49401812,3.55308605 L3.49401812,6.43840416 L6.10502077,6.43840416 L6.52550433,5.98888722 L6.92196025,6.43840416 L8.52880813,6.43840416 L8.52880813,5.75962357 L8.68899234,5.75962357 C8.90023527,5.76362817 9.15452771,5.75561896 9.3767833,5.65750613 L9.3767833,6.43540071 L10.7053111,6.43540071 L10.7053111,5.68353607 L10.7673825,5.68353607 C10.8494769,5.68353607 10.8574861,5.68954297 10.8574861,5.76963508 L10.8574861,6.43640186 L14.8921259,6.43640186 C15.1474195,6.43640186 15.4147269,6.37232818 15.5638985,6.25219002 L15.5638985,6.43640186 L16.8433699,6.43640186 C17.1106773,6.43640186 17.3679732,6.39935926 17.5682034,6.30324874 L17.5682034,5.76763278 L17.572208,5.76763278 Z M17.572208,4.40406467 L16.6711718,4.40406467 C16.5810682,4.40406467 16.5230015,4.40806928 16.473945,4.44110727 C16.420884,4.47414527 16.400861,4.52520398 16.400861,4.58927767 C16.400861,4.66736747 16.4449116,4.72042849 16.5099865,4.74145267 C16.5610452,4.7614757 16.6161085,4.76447915 16.7002052,4.76648145 L16.9665115,4.77248836 C17.2368223,4.78049757 17.4160284,4.82554938 17.5281574,4.93867948 C17.5481804,4.9546979 17.5601942,4.97371978 17.5752115,4.9897382 L17.5752115,4.40306352 L17.572208,4.40306352 L17.572208,4.40406467 Z"></path>
                    </g>
                </g>
                <path d="M1.20038044,17.2718626 L1.04620313,17.2718626 C1.02618011,17.2097913 1.02517896,17.0936577 1.02517896,17.0666266 C1.02517896,17.0075587 1.01516744,16.9514942 0.911047705,16.9514942 L0.682785203,16.9514942 L0.684787506,17.2718626 L0.547629774,17.2718626 L0.547629774,16.4919658 L0.909045402,16.4919658 C1.03418932,16.4919658 1.17134705,16.5370176 1.17134705,16.7092156 C1.17134705,16.8073284 1.13029984,16.8553837 1.08725034,16.8854182 C1.12429294,16.9064424 1.15232517,16.9404816 1.15733093,17.0285829 L1.16333784,17.1637383 C1.16534014,17.2027832 1.16934475,17.2107924 1.20038044,17.227812 L1.20038044,17.2718626 Z M1.03218702,16.718226 C1.03218702,16.6201131 0.966111028,16.6131051 0.917054613,16.6131051 L0.682785203,16.6131051 L0.682785203,16.8303549 L0.90003504,16.8303549 C0.970115633,16.8293538 1.03218702,16.8123342 1.03218702,16.718226 Z M1.67392501,16.8884217 C1.67392501,16.4268909 1.29849327,16.0574661 0.836962507,16.0574661 C0.373429444,16.0574661 0,16.4268909 0,16.8884217 C0,17.3519547 0.373429444,17.7213796 0.836962507,17.7213796 C1.29849327,17.7213796 1.67392501,17.3519547 1.67392501,16.8884217 Z M1.5467788,16.8884217 C1.5467788,17.2818742 1.2444311,17.6002403 0.836962507,17.6002403 C0.428492767,17.6002403 0.127146218,17.2818742 0.127146218,16.8884217 C0.127146218,16.4949692 0.426490464,16.1786054 0.836962507,16.1786054 C1.24743455,16.1786054 1.5467788,16.4949692 1.5467788,16.8884217 Z" id="Shape" fill="#0078BE"></path>
                <g transform="translate(2.3307, 6.4554)" id="Path">
                    <path d="M9.67112179,0.556640136 C9.67112179,0.88501777 9.4508685,1.05621465 9.32372228,1.10827452 C9.43184662,1.14932172 9.52195024,1.22040346 9.56499975,1.28247485 C9.63508034,1.38459228 9.64909646,1.4766982 9.64909646,1.6599089 L9.64909646,2.06637633 L9.1505231,2.06637633 L9.1485208,1.80607699 C9.1485208,1.68193422 9.16253692,1.50072583 9.070431,1.40561646 C8.9983481,1.33153126 8.88822145,1.31551284 8.71101767,1.31551284 L8.18140862,1.31551284 L8.18140862,2.06637633 L7.68884217,2.06637633 L7.68884217,0 L8.82615007,0 C9.0764379,0 9.26465435,0.00901036192 9.42383741,0.101116284 C9.57901587,0.191219903 9.67112179,0.326375332 9.67112179,0.556640136 Z" fill="#00A3E1"></path>
                    <polygon fill="#11ADE5" points="7.34444611 2.06637633 5.69554988 2.06637633 5.69554988 0 7.34444611 0 7.34444611 0.430495069 6.18911749 0.430495069 6.18911749 0.802923362 7.31541272 0.802923362 7.31541272 1.22641037 6.18911749 1.22540922 6.18911749 1.63888472 7.34444611 1.63888472"></polygon>
                    <polygon fill="#58BAEA" points="5.3271262 2.06637633 4.82154478 2.06637633 4.81954247 0.449516944 4.10271813 2.06637633 3.67022075 2.06637633 2.95039295 0.447514642 2.95039295 2.06637633 1.94723933 2.06637633 1.75601942 1.60484557 0.727837013 1.60484557 0.537618261 2.06637633 0 2.06637633 0.884016619 0 1.61786054 0 2.4578265 1.95725084 2.4578265 0 3.26575562 0 3.91049707 1.40361416 4.50518096 0 5.3271262 0"></polygon>
                    <path d="M9.02437803,0.847975171 C8.9593032,0.887020073 8.87820994,0.890023527 8.78209941,0.890023527 L8.17940632,0.890023527 L8.17940632,0.430495069 L8.78710517,0.430495069 C8.87420534,0.430495069 8.96430896,0.433498523 9.02137458,0.466536517 C9.08544827,0.497572208 9.12549432,0.561645893 9.12549432,0.650748361 C9.12749662,0.74085198 9.08845172,0.811933724 9.02437803,0.847975171 Z" fill="#FFFFFF"></path>
                    <polygon fill="#FFFFFF" points="1.57881564 1.17535165 1.24042649 0.351404115 0.904039646 1.17535165"></polygon>
                </g>
            </g>
        </g>
    </g>
</svg>