<?xml version="1.0" encoding="UTF-8"?>
<svg width="30px" height="17px" viewBox="0 0 30 17" version="1.1" xmlns="http://www.w3.org/2000/svg"
    xmlns:xlink="http://www.w3.org/1999/xlink">
    <title>carnet</title>
    <g id="Symbols" stroke="none" stroke-width="1" fill="none" fill-rule="evenodd">
        <g id="icons/logos/carnet" transform="translate(-10, -5)" fill="#D3262B" fill-rule="nonzero">
            <g id="carnet" transform="translate(10, 5)">
                <path
                    d="M14.9176955,5.18518519 C20.0823045,5.18518519 24.382716,7.16049383 25.2263374,9.75308642 C25.3292181,9.44444444 25.3909465,9.13580247 25.3909465,8.80658436 C25.3909465,5.76131687 20.6995885,3.27160494 14.8971193,3.27160494 C9.11522634,3.27160494 4.40329218,5.74074074 4.40329218,8.80658436 C4.40329218,9.13580247 4.46502058,9.44444444 4.56790123,9.75308642 C5.4526749,7.16049383 9.75308642,5.18518519 14.9176955,5.18518519 Z M14.9176955,1.91358025 C20.0823045,1.91358025 24.382716,3.88888889 25.2263374,6.48148148 C25.3292181,6.17283951 25.3910139,5.86419753 25.3910139,5.53497942 C25.4115226,2.4691358 20.7201646,0 14.9176955,0 C9.13580247,0 4.42386831,2.4691358 4.42386831,5.53497942 C4.42386831,5.86419753 4.48559671,6.17283951 4.58847737,6.48148148 C5.4526749,3.88888889 9.75308642,1.91358025 14.9176955,1.91358025 Z M19.218107,15.1440329 L17.0781893,12.3868313 L16.0493827,12.3868313 L16.0493827,16.4814815 L17.037037,16.4814815 L17.037037,13.8065844 L19.1563786,16.4814815 L20.2057613,16.4814815 L20.2057613,12.3868313 L19.218107,12.3868313 L19.218107,15.1440329 L19.218107,15.1440329 Z M3.10699588,15.6378601 C2.90123457,15.781893 2.65432099,15.8436214 2.38683128,15.8436214 C2.01646091,15.8436214 1.6872428,15.7407407 1.46090535,15.5144033 C1.21399177,15.2880658 1.11111111,14.9176955 1.11111111,14.4032922 C1.11111111,13.909465 1.2345679,13.5596708 1.48148148,13.3539095 C1.72839506,13.127572 2.03703704,13.0246914 2.42798354,13.0246914 C2.71604938,13.0246914 2.94238683,13.0864198 3.14814815,13.2098765 C3.33333333,13.3333333 3.47736626,13.4979424 3.53909465,13.7037037 L4.58847737,13.5185185 C4.46502058,13.1893004 4.30041152,12.9423868 4.05349794,12.7572016 C3.66255144,12.4691358 3.12757202,12.3251029 2.48971193,12.3251029 C1.74897119,12.3251029 1.17283951,12.5102881 0.720164609,12.8806584 C0.226337449,13.2716049 0,13.7860082 0,14.4855967 C0,15.1234568 0.226337449,15.6378601 0.679012346,16.0082305 C1.13168724,16.3786008 1.6872428,16.563786 2.38683128,16.563786 C2.94238683,16.563786 3.41563786,16.4609053 3.78600823,16.2345679 C4.1563786,16.0082305 4.40329218,15.6790123 4.56790123,15.2263374 L3.53909465,14.9794239 C3.43621399,15.2880658 3.29218107,15.4938272 3.10699588,15.6378601 Z M25.8436214,12.3868313 L25.8436214,13.0864198 L27.4074074,13.0864198 L27.4074074,16.4814815 L28.4567901,16.4814815 L28.4567901,13.0864198 L30,13.0864198 L30,12.3868313 L25.8436214,12.3868313 Z M22.3868313,14.691358 L25.0205761,14.691358 L25.0205761,13.9917695 L22.3868313,13.9917695 L22.3868313,13.0864198 L25.2057613,13.0864198 L25.2057613,12.3868313 L21.3374486,12.3868313 L21.3374486,16.4814815 L25.308642,16.4814815 L25.308642,15.781893 L22.3868313,15.781893 L22.3868313,14.691358 Z M14.218107,15.0205761 C14.0740741,14.8971193 13.8888889,14.7736626 13.6625514,14.6707819 C14.1152263,14.6090535 14.4650206,14.4855967 14.691358,14.3004115 C14.9176955,14.0946502 15.0411523,13.8477366 15.0411523,13.5390947 C15.0411523,13.2921811 14.9588477,13.0864198 14.8148148,12.9012346 C14.6707819,12.7160494 14.4650206,12.5720165 14.1975309,12.5102881 C13.9506173,12.4279835 13.5390947,12.4074074 12.9835391,12.4074074 L10.7613169,12.4074074 L10.7613169,16.5020576 L11.8106996,16.5020576 L11.8106996,14.7942387 L12.0164609,14.7942387 C12.2633745,14.7942387 12.4279835,14.8148148 12.5514403,14.8353909 C12.654321,14.8559671 12.7777778,14.9176955 12.8600823,15 C12.962963,15.0823045 13.1481481,15.2880658 13.4156379,15.5967078 L14.1769547,16.4814815 L15.4320988,16.4814815 L14.7942387,15.6790123 C14.5679012,15.3703704 14.382716,15.1440329 14.218107,15.0205761 Z M12.5925926,14.1358025 L11.8106996,14.1358025 L11.8106996,13.0864198 L12.6337449,13.0864198 C13.0658436,13.0864198 13.3127572,13.0864198 13.3950617,13.1069959 C13.5596708,13.127572 13.7037037,13.1893004 13.7860082,13.2716049 C13.8888889,13.3539095 13.9300412,13.4773663 13.9300412,13.600823 C13.9300412,13.7242798 13.8888889,13.8271605 13.8271605,13.909465 C13.7654321,13.9917695 13.6625514,14.0534979 13.5390947,14.0740741 C13.4156379,14.1152263 13.1069959,14.1358025 12.5925926,14.1358025 Z M6.97530864,12.3868313 L4.9382716,16.4814815 L6.06995885,16.4814815 L6.50205761,15.5555556 L8.60082305,15.5555556 L9.05349794,16.4814815 L10.2057613,16.4814815 L8.10699588,12.3868313 L6.97530864,12.3868313 Z M6.81069959,14.8559671 L7.51028807,13.3333333 L8.23045267,14.8559671 L6.81069959,14.8559671 Z"
                    id="Shape"></path>
            </g>
        </g>
    </g>
</svg>