<?xml version="1.0" encoding="UTF-8"?>
<svg width="174px" height="43px" viewBox="0 0 174 43" version="1.1" xmlns="http://www.w3.org/2000/svg" xmlns:xlink="http://www.w3.org/1999/xlink">
    <title>Group 16</title>
    <defs>
        <polygon id="path-1" points="0 1.77635684e-15 71.1497013 1.77635684e-15 71.1497013 32.4374359 0 32.4374359"></polygon>
    </defs>
    <g id="Symbols" stroke="none" stroke-width="1" fill="none" fill-rule="evenodd">
        <g id="Logos/claroshop" transform="translate(-1, -1)">
            <g id="Group-16" transform="translate(1, 0.9998)">
                <g id="Group-3" transform="translate(102.1972, 10.1166)">
                    <mask id="mask-2" fill="white">
                        <use xlink:href="#path-1"></use>
                    </mask>
                    <g id="Clip-2"></g>
                    <path d="M63.3040633,10.8216667 C60.5101519,10.8216667 60.1434304,13.1392564 60.1434304,16.1900513 C60.1434304,19.2419487 60.5101519,21.5871026 63.3040633,21.5871026 C66.0979747,21.5871026 66.4646962,19.2419487 66.4646962,16.1900513 C66.4646962,13.1392564 66.1266076,10.8503333 63.3040633,10.8216667 L63.3040633,10.8216667 Z M69.2310759,24.1020513 C68.1870759,25.1483846 66.4933291,25.7977949 64.6586203,25.7977949 C62.7677468,25.7977949 61.384557,25.3170769 60.1434304,23.933359 L60.1434304,32.4374359 L55.4861772,32.4374359 L55.4861772,6.83810256 L60.0024684,6.83810256 L60.0024684,8.61764103 C61.3008608,7.17658974 62.7115823,6.63964103 64.6872532,6.63964103 C66.521962,6.63964103 68.2146076,7.28905128 69.2586076,8.33538462 C71.1219494,10.1998205 71.1505823,13.3928462 71.1505823,16.1900513 C71.1505823,18.988359 71.0933165,22.2376154 69.2310759,24.1020513 L69.2310759,24.1020513 Z M46.6804557,11.6133077 C46.1441392,11.0752564 45.4382278,10.7941026 44.5076582,10.7941026 C43.5759873,10.7941026 42.8987089,11.0752564 42.3623924,11.6408718 C41.4020886,12.6298718 41.2897595,14.2120513 41.2897595,16.1624872 C41.2897595,18.1118205 41.4020886,19.7788974 42.3623924,20.7403333 C42.8987089,21.2761795 43.5759873,21.5871026 44.5076582,21.5871026 C45.4382278,21.5871026 46.1441392,21.3048462 46.7090886,20.7678974 C47.6969241,19.8075641 47.7806203,18.1691538 47.7806203,16.2187179 C47.7806203,14.2682821 47.6969241,12.6585385 46.7090886,11.6971026 L46.6804557,11.6133077 Z M50.3212405,23.4802051 C49.1638101,24.6952308 47.2729367,25.7691282 44.4790253,25.7691282 C41.7412785,25.7691282 39.8504051,24.6952308 38.6929747,23.4802051 C37.028962,21.7006667 36.5763418,19.5815385 36.5763418,16.1624872 C36.5763418,12.7721026 36.9992278,10.6518718 38.6929747,8.89989744 C39.8228734,7.68487179 41.7137468,6.61207692 44.4514937,6.61207692 C47.2167722,6.61207692 49.1362785,7.68487179 50.2650759,8.89989744 C51.9577215,10.6805385 52.3817089,12.7721026 52.3817089,16.1624872 C52.4378734,19.5815385 51.9874557,21.7006667 50.3212405,23.4802051 L50.3212405,23.4802051 Z M29.1262785,25.5717692 L29.1262785,14.1282564 C29.1262785,11.6408718 27.5448608,10.8216667 26.0768734,10.8216667 C24.6099873,10.8216667 23.0296709,11.6971026 23.0296709,14.1558205 L23.0296709,25.5717692 L18.3724177,25.5717692 L18.3724177,0 L23.0296709,0 L23.0296709,8.59007692 C24.2994304,7.28905128 25.8808481,6.63964103 27.5173291,6.63964103 C31.6096329,6.63964103 33.7824304,9.52174359 33.7824304,13.4777436 L33.7824304,25.5717692 L29.1262785,25.5717692 Z M7.95774684,25.7977949 C5.02287342,25.7977949 2.36992405,25.4868718 0,23.1130513 L3.04720253,20.0611538 C4.59888608,21.6157692 6.60429114,21.8417949 8.0425443,21.8417949 C9.65149367,21.8417949 11.3441392,21.3048462 11.3441392,19.8637949 C11.3441392,18.9310256 10.8650886,18.2816154 9.36846835,18.1404872 L6.43359494,17.8571282 C3.04720253,17.5473077 0.959202532,16.0489231 0.959202532,12.6023077 C0.959202532,8.73120513 4.37312658,6.63964103 8.18350633,6.63964103 C11.0908481,6.63964103 13.5455696,7.12035897 15.3252152,8.84366667 L12.4454051,11.7544359 C11.3738734,10.7941026 9.70765823,10.4820769 8.09870886,10.4820769 C6.23646835,10.4820769 5.44686076,11.3586154 5.44686076,12.2913846 C5.44686076,12.9694615 5.72878481,13.7611026 7.39279747,13.9011282 L10.3287722,14.1844872 C14.0268228,14.551641 15.8890633,16.5009744 15.8890633,19.694 C15.8890633,23.7911282 12.3606076,25.7691282 7.95774684,25.7977949 L7.95774684,25.7977949 Z" id="Fill-1" fill="#212121" mask="url(#mask-2)"></path>
                </g>
                <path d="M77.8963861,29.6693385 C76.9085506,30.6870051 75.6949557,31.2239538 74.2556013,31.2239538 C72.8724114,31.2239538 71.6312848,30.7145692 70.6148165,29.6693385 C69.626981,28.6527744 69.0631329,27.4090821 69.0631329,25.9680308 C69.0631329,24.4707487 69.626981,23.2270564 70.6148165,22.2667231 C71.6026519,21.2490564 72.8162468,20.7121077 74.2556013,20.7683385 C75.6949557,20.7121077 76.9360823,21.2203897 77.9525506,22.2667231 C78.9403861,23.2557231 79.3919051,24.4707487 79.4491709,25.9680308 C79.3919051,27.4090821 78.8842215,28.6527744 77.8963861,29.6693385 M74.1994367,16.0493641 C71.5178544,16.0493641 69.2029937,17.0383641 67.3132215,18.9888 C65.3650823,20.9381333 64.4334114,23.3119538 64.4334114,26.0242615 C64.4334114,28.7365692 65.3650823,31.1103897 67.3132215,33.032159 C69.2029937,34.9814923 71.5178544,35.9704923 74.1994367,35.9704923 C76.8799177,35.9704923 79.2234114,34.9814923 81.1990823,33.032159 C83.0888544,31.1390564 84.0766899,28.7652359 84.0766899,26.0242615 C84.0766899,23.2832872 83.0888544,20.9381333 81.1990823,18.9888 C79.250943,17.0108 76.9360823,16.0493641 74.1994367,16.0493641" id="Fill-4" fill="#D9252B"></path>
                <path d="M12.1360595,15.8237795 C13.5754139,15.8237795 14.9024392,16.2471641 16.1997304,17.0674718 C17.3285278,17.8304462 18.2601987,18.9319077 18.8813127,20.2042667 L23.8204899,20.2042667 C23.1145785,17.5757538 21.703857,15.3717282 19.5585911,13.7333179 C17.4133253,11.9813436 14.8738063,11.1610359 12.1635911,11.1610359 C8.77719873,11.1610359 5.98328734,12.3484974 3.64089494,14.7498821 C1.18507215,17.1799333 0.000110126583,20.0620359 0.000110126583,23.4524205 C0.000110126583,26.7876769 1.18507215,29.782241 3.58473038,32.2122923 C5.9557557,34.5861128 8.77719873,35.7724718 12.1635911,35.7724718 C14.9024392,35.7724718 17.4133253,34.9532667 19.5585911,33.2586256 C21.6752241,31.5066513 23.1145785,29.3875231 23.8204899,26.7876769 L18.9099456,26.7876769 C18.2888316,28.0876 17.3571608,29.1041641 16.2283633,29.9244718 C14.9299709,30.6863436 13.6602114,31.1108308 12.1635911,31.1108308 C10.0480595,31.1108308 8.2981481,30.3478564 6.85879367,28.9068051 C5.36217342,27.4095231 4.65626203,25.6564462 4.71352785,23.5659846 C4.65626203,21.4468564 5.39080633,19.6948821 6.85879367,18.2251641 C8.26951519,16.6154205 10.0755911,15.8237795 12.1360595,15.8237795" id="Fill-6" fill="#D9252B"></path>
                <path d="M44.9595076,28.087159 C44.9595076,29.7255692 44.5079886,30.8568 43.6335835,31.4786462 C42.7019127,32.0993897 41.7702418,32.4665436 40.6976089,32.4665436 C40.0203304,32.4665436 39.4564823,32.2691846 39.0049633,31.9020308 C38.5534443,31.4786462 38.3276848,30.9130308 38.3276848,30.0375949 C38.3276848,29.0485949 38.6944063,28.3980821 39.4564823,27.8898 C39.9080013,27.6351077 40.6976089,27.3804154 41.6579127,27.2679538 L44.0278367,26.6461077 L44.9595076,26.1378256 L44.9595076,28.087159 Z M47.5849253,17.2368256 C45.947343,16.3602872 44.1412671,15.9369026 42.0807987,15.9931333 C38.8915329,15.9369026 36.6901025,16.8123385 35.3917101,18.5080821 C34.5734696,19.5257487 34.1505835,20.9381333 34.0657861,22.6338769 L38.8067354,22.6338769 C38.9201658,21.8146718 39.1745582,21.2490564 39.4840139,20.8819026 C39.9927987,20.2600564 40.8110392,19.8929026 41.9960013,19.9491333 C42.9838367,19.8929026 43.7459127,20.0913641 44.310862,20.4011846 C44.8747101,20.6558769 45.072938,21.2203897 45.1291025,21.9833641 C45.1291025,22.6052103 44.762381,23.1145949 44.0564696,23.4244154 L40.4156848,23.9900308 C38.721938,24.1873897 37.3960139,24.6118769 36.3520139,25.2337231 C34.6021025,26.2502872 33.7265962,27.9735949 33.783862,30.3760821 C33.7265962,32.0718256 34.2915456,33.3993128 35.3641785,34.4456462 C36.3520139,35.2648513 37.6217734,35.7444667 39.2307228,35.7731333 C41.7988747,35.7158 43.8582418,35.0950564 45.2986975,33.8238 L45.2986975,35.7731333 L50.0396468,35.7731333 L50.0396468,21.8995692 C49.9548494,19.6382103 49.1366089,18.0560308 47.5849253,17.2368256 L47.5849253,17.2368256 Z" id="Fill-8" fill="#D9252B"></path>
                <polygon id="Clip-11" points="0 42.5545641 173.346949 42.5545641 173.346949 0 0 0"></polygon>
                <polygon id="Fill-10" fill="#D9252B" points="26.220038 35.801359 30.9609873 35.801359 30.9609873 11.1612564 26.220038 11.1612564"></polygon>
                <path d="M62.7405456,16.1909333 L60.9344696,16.6992154 C59.6360772,17.2086 58.5072797,18.0840359 57.6031405,19.383959 L57.6031405,16.9539077 L53.1441152,16.8976769 L53.1441152,35.8298051 L57.8300013,35.8298051 L57.8300013,26.7876769 C57.8300013,25.2330615 58.0271278,24.1602667 58.4500139,23.4524205 C58.7605709,22.7467795 59.3816848,22.1249333 60.0875962,21.6442154 C60.9058367,21.0797026 61.7802418,20.8250103 62.6557481,20.8250103 L64.0951025,20.9385744 L64.038938,16.1060359 L62.7405456,16.1909333 Z" id="Fill-12" fill="#D9252B"></path>
                <polygon id="Fill-13" fill="#D9252B" points="72.6747342 12.2351538 76.8793671 12.2351538 76.8793671 0 72.6747342 0"></polygon>
                <polygon id="Fill-14" fill="#D9252B" points="86.9559494 25.7128974 99.4310886 25.7128974 99.4310886 21.5033077 86.9559494 21.5033077"></polygon>
                <polygon id="Fill-15" fill="#D9252B" points="93.2780962 2.34537436 81.9042228 13.7888872 84.8952608 16.7558872 96.2405013 5.34104103"></polygon>
            </g>
        </g>
    </g>
</svg>