<?xml version="1.0" encoding="UTF-8"?>
<svg width="37px" height="15px" viewBox="0 0 37 15" version="1.1" xmlns="http://www.w3.org/2000/svg" xmlns:xlink="http://www.w3.org/1999/xlink">
    <title>Group 3</title>
    <g id="Symbols" stroke="none" stroke-width="1" fill="none" fill-rule="evenodd">
        <g id="icons/logos/claro" transform="translate(-7, -6)" fill-rule="nonzero">
            <g id="Group-4" transform="translate(1, 2)">
                <g id="Group-3" transform="translate(6, 4)">
                    <g id="Crédito" transform="translate(0, -0)" fill="#222222">
                        <path d="M2.12402344,4.48828125 C1.90136719,4.48828125 1.68701172,4.45898438 1.48095703,4.40039062 C1.27490234,4.34179688 1.08203125,4.25244141 0.90234375,4.13232422 C0.72265625,4.01220703 0.565917969,3.86669922 0.432128906,3.69580078 C0.298339844,3.52490234 0.192871094,3.3203125 0.115722656,3.08203125 C0.0385742188,2.84375 0,2.58496094 0,2.30566406 C0,1.96386719 0.056640625,1.65087891 0.169921875,1.36669922 C0.283203125,1.08251953 0.436035156,0.84765625 0.628417969,0.662109375 C0.820800781,0.4765625 1.04150391,0.333007812 1.29052734,0.231445312 C1.53955078,0.129882812 1.80175781,0.0791015625 2.07714844,0.0791015625 C2.62792969,0.0791015625 3.09277344,0.23046875 3.47167969,0.533203125 L3.20507812,0.999023438 C2.88476562,0.770507812 2.52734375,0.65625 2.1328125,0.65625 C1.86328125,0.65625 1.62011719,0.726074219 1.40332031,0.865722656 C1.18652344,1.00537109 1.01660156,1.20019531 0.893554688,1.45019531 C0.770507812,1.70019531 0.708984375,1.98242188 0.708984375,2.296875 C0.708984375,2.7890625 0.845214844,3.18115234 1.11767578,3.47314453 C1.39013672,3.76513672 1.73828125,3.91113281 2.16210938,3.91113281 C2.58398438,3.91113281 2.98046875,3.76757812 3.3515625,3.48046875 L3.57714844,4.01660156 C3.16699219,4.33105469 2.68261719,4.48828125 2.12402344,4.48828125 Z" id="Path"></path>
                        <path d="M4.33007812,4.42382812 L4.33007812,2.16796875 C4.33007812,2.0859375 4.32617188,1.98242188 4.31835938,1.85742188 C4.31054688,1.73242188 4.30273438,1.62792969 4.29492188,1.54394531 L4.28320312,1.41796875 L4.98046875,1.41796875 L4.98046875,1.84277344 C5.19726562,1.50878906 5.453125,1.34179688 5.74804688,1.34179688 C5.84570312,1.34179688 5.94726562,1.35644531 6.05273438,1.38574219 L6.05273438,1.96289062 C5.93945312,1.92382812 5.82226562,1.90429688 5.70117188,1.90429688 C5.48828125,1.90429688 5.31640625,1.97607422 5.18554688,2.11962891 C5.0546875,2.26318359 4.98925781,2.46777344 4.98925781,2.73339844 L4.98925781,4.42382812 L4.33007812,4.42382812 Z" id="Path"></path>
                        <path d="M7.18066406,2.58398438 L8.73339844,2.58398438 C8.70800781,2.34765625 8.63232422,2.16699219 8.50634766,2.04199219 C8.38037109,1.91699219 8.21875,1.85449219 8.02148438,1.85449219 C7.80078125,1.85449219 7.61669922,1.91894531 7.46923828,2.04785156 C7.32177734,2.17675781 7.22558594,2.35546875 7.18066406,2.58398438 Z M8.08007812,4.49121094 C7.58789062,4.49121094 7.19824219,4.34765625 6.91113281,4.06054688 C6.62402344,3.7734375 6.48046875,3.39453125 6.48046875,2.92382812 C6.48046875,2.6328125 6.54003906,2.36816406 6.65917969,2.12988281 C6.77832031,1.89160156 6.95410156,1.70068359 7.18652344,1.55712891 C7.41894531,1.41357422 7.6875,1.34179688 7.9921875,1.34179688 C8.21679688,1.34179688 8.41552734,1.38134766 8.58837891,1.46044922 C8.76123047,1.53955078 8.89990234,1.64990234 9.00439453,1.79150391 C9.10888672,1.93310547 9.1875,2.09619141 9.24023438,2.28076172 C9.29296875,2.46533203 9.31933594,2.66894531 9.31933594,2.89160156 C9.31933594,2.93261719 9.31445312,2.97753906 9.3046875,3.02636719 L7.16601562,3.02636719 C7.17773438,3.33496094 7.27050781,3.56738281 7.44433594,3.72363281 C7.61816406,3.87988281 7.84667969,3.95800781 8.12988281,3.95800781 C8.47167969,3.95800781 8.78613281,3.84863281 9.07324219,3.62988281 L9.2578125,4.11035156 C8.91992188,4.36425781 8.52734375,4.49121094 8.08007812,4.49121094 Z M7.74609375,0.99609375 L8.49023438,0 L9.33398438,0 L8.33203125,0.99609375 L7.74609375,0.99609375 Z" id="Shape"></path>
                        <path d="M11.4580078,3.95800781 C11.7275391,3.95800781 11.9306641,3.86083984 12.0673828,3.66650391 C12.2041016,3.47216797 12.2724609,3.21875 12.2724609,2.90625 C12.2724609,2.60351562 12.203125,2.35546875 12.0644531,2.16210938 C11.9257812,1.96875 11.7255859,1.87207031 11.4638672,1.87207031 C11.2001953,1.87207031 10.9980469,1.96875 10.8574219,2.16210938 C10.7167969,2.35546875 10.6464844,2.60742188 10.6464844,2.91796875 C10.6464844,3.22460938 10.7148438,3.47460938 10.8515625,3.66796875 C10.9882812,3.86132812 11.1904297,3.95800781 11.4580078,3.95800781 Z M11.3378906,4.49121094 C10.9414062,4.49121094 10.612793,4.34912109 10.3520508,4.06494141 C10.0913086,3.78076172 9.9609375,3.40429688 9.9609375,2.93554688 C9.9609375,2.71289062 9.9921875,2.50585938 10.0546875,2.31445312 C10.1171875,2.12304688 10.206543,1.95458984 10.3227539,1.80908203 C10.4389648,1.66357422 10.5878906,1.54931641 10.7695312,1.46630859 C10.9511719,1.38330078 11.1552734,1.34179688 11.3818359,1.34179688 C11.5966797,1.34179688 11.7817383,1.38769531 11.9370117,1.47949219 C12.0922852,1.57128906 12.1982422,1.671875 12.2548828,1.78125 L12.2548828,0.120117188 L12.9111328,0.120117188 L12.9111328,3.6328125 C12.9111328,3.72265625 12.9179688,3.98632813 12.9316406,4.42382812 L12.2636719,4.42382812 L12.2578125,3.99316406 C12.2050781,4.11816406 12.1000977,4.23242188 11.9428711,4.3359375 C11.7856445,4.43945312 11.5839844,4.49121094 11.3378906,4.49121094 Z" id="Shape"></path>
                        <path d="M13.8310547,0.744140625 L13.8310547,0.158203125 L14.4697266,0.158203125 L14.4697266,0.744140625 L13.8310547,0.744140625 Z M13.828125,4.42382812 L13.828125,1.41796875 L14.4697266,1.41796875 L14.4697266,4.42382812 L13.828125,4.42382812 Z" id="Shape"></path>
                        <path d="M17.0595703,4.42089844 L16.7783203,4.42089844 C16.5634766,4.42089844 16.3867188,4.40722656 16.2480469,4.37988281 C16.109375,4.35253906 15.9863281,4.30078125 15.8789062,4.22460938 C15.7714844,4.1484375 15.6938477,4.0390625 15.6459961,3.89648438 C15.5981445,3.75390625 15.5742188,3.5703125 15.5742188,3.34570312 L15.5742188,1.85742188 L14.9765625,1.85742188 L14.9765625,1.41796875 L15.5917969,1.41796875 L15.5917969,0.685546875 L16.2275391,0.495117188 L16.2275391,1.41796875 L17.0478516,1.41796875 L17.0478516,1.85742188 L16.2275391,1.85742188 L16.2275391,3.38378906 C16.2275391,3.50683594 16.2382812,3.60205078 16.2597656,3.66943359 C16.28125,3.73681641 16.3261719,3.79003906 16.3945312,3.82910156 C16.4628906,3.86816406 16.5449219,3.89257812 16.640625,3.90234375 C16.7363281,3.91210938 16.8759766,3.91699219 17.0595703,3.91699219 L17.0595703,4.42089844 Z" id="Path"></path>
                        <path d="M19.1865234,4.49121094 C18.9345703,4.49121094 18.7075195,4.45019531 18.5053711,4.36816406 C18.3032227,4.28613281 18.1381836,4.17382812 18.0102539,4.03125 C17.8823242,3.88867188 17.784668,3.72314453 17.7172852,3.53466797 C17.6499023,3.34619141 17.6162109,3.14160156 17.6162109,2.92089844 C17.6162109,2.62011719 17.6748047,2.35205078 17.7919922,2.11669922 C17.9091797,1.88134766 18.0883789,1.69335938 18.3295898,1.55273438 C18.5708008,1.41210938 18.8574219,1.34179688 19.1894531,1.34179688 C19.4433594,1.34179688 19.6699219,1.38183594 19.8691406,1.46191406 C20.0683594,1.54199219 20.2304688,1.65380859 20.3554688,1.79736328 C20.4804688,1.94091797 20.5756836,2.10791016 20.6411133,2.29833984 C20.706543,2.48876953 20.7392578,2.69824219 20.7392578,2.92675781 C20.7392578,3.14355469 20.7055664,3.34570312 20.6381836,3.53320312 C20.5708008,3.72070312 20.4741211,3.88623047 20.3481445,4.02978516 C20.222168,4.17333984 20.059082,4.28613281 19.8588867,4.36816406 C19.6586914,4.45019531 19.4345703,4.49121094 19.1865234,4.49121094 Z M19.1835938,3.95800781 C19.4726562,3.95800781 19.6899414,3.86132812 19.8354492,3.66796875 C19.980957,3.47460938 20.0537109,3.22460938 20.0537109,2.91796875 C20.0537109,2.60742188 19.9794922,2.35546875 19.8310547,2.16210938 C19.6826172,1.96875 19.4658203,1.87207031 19.1806641,1.87207031 C18.8955078,1.87207031 18.6777344,1.96875 18.5273438,2.16210938 C18.3769531,2.35546875 18.3017578,2.60742188 18.3017578,2.91796875 C18.3017578,3.22460938 18.3759766,3.47460938 18.5244141,3.66796875 C18.6728516,3.86132812 18.8925781,3.95800781 19.1835938,3.95800781 Z" id="Shape"></path>
                    </g>
                    <g id="Group-2" transform="translate(0, 5)">
                        <g id="cs" transform="translate(0, -0)">
                            <path d="M23.5082207,7.655471 C22.8818167,7.655471 22.3156438,7.58921594 21.8097021,7.08326821 L22.4601986,6.43276398 C22.79147,6.76403928 23.2191112,6.81222478 23.5262901,6.81222478 C23.8696077,6.81222478 24.2309946,6.69778422 24.2309946,6.39060167 C24.2309946,6.19183649 24.1286017,6.05330319 23.8093765,6.02318725 L23.1829725,5.96295538 C22.4601986,5.89670032 22.014488,5.57747139 22.014488,4.84264255 C22.014488,4.0174659 22.743285,3.57175004 23.5564057,3.57175004 C24.1767866,3.57175004 24.7007977,3.67414422 25.0802539,4.04155865 L24.4658961,4.66194693 C24.2370177,4.45715857 23.8816539,4.39090351 23.5383363,4.39090351 C23.1408107,4.39090351 22.9721634,4.57762231 22.9721634,4.77638749 C22.9721634,4.92094398 23.0323946,5.08959323 23.3877584,5.11970916 L24.0141625,5.17994104 C24.8031906,5.25824247 25.2007163,5.67384239 25.2007163,6.35446255 C25.2007163,7.2278247 24.4478268,7.64944781 23.5082207,7.655471 M28.0255575,7.6072855 L28.0255575,5.16789466 C28.0255575,4.63785418 27.6882631,4.46318175 27.375061,4.46318175 C27.061859,4.46318175 26.7305877,4.64990056 26.7305877,5.17391785 L26.7305877,7.6072855 L25.7367736,7.6072855 L25.7367736,2.15630104 L26.7305877,2.15630104 L26.7305877,3.98734996 C27.0016279,3.71028335 27.3389224,3.57175004 27.6882631,3.57175004 C28.5616148,3.57175004 29.0253948,4.18611514 29.0253948,5.02936135 L29.0253948,7.6072855 L28.0255575,7.6072855 L28.0255575,7.6072855 Z M32.5549406,7.16156964 C32.3079928,7.42056669 31.9044441,7.64944781 31.3081556,7.64944781 C30.7239134,7.64944781 30.3203646,7.42056669 30.0734169,7.16156964 C29.7180531,6.78210884 29.6216832,6.3303698 29.6216832,5.60156414 C29.6216832,4.87878167 29.71203,4.42704263 30.0734169,4.05360502 C30.3143415,3.79460797 30.7178903,3.56572685 31.3021325,3.56572685 C31.8923979,3.56572685 32.3019697,3.79460797 32.5428944,4.05360502 C32.9042813,4.43306582 32.994628,4.87878167 32.994628,5.60156414 C33.0066743,6.3303698 32.9042813,6.78210884 32.5549406,7.16156964 M31.7779587,4.631831 C31.6635195,4.51739044 31.5129416,4.45715857 31.3141787,4.45715857 C31.1154159,4.45715857 30.9708611,4.51739044 30.8564219,4.63785418 C30.651636,4.84866574 30.6275435,5.18596422 30.6275435,5.60156414 C30.6275435,6.01716406 30.651636,6.37253211 30.8564219,6.57732048 C30.9708611,6.69176104 31.1154159,6.7580161 31.3141787,6.7580161 C31.5129416,6.7580161 31.6635195,6.69778422 31.7839818,6.58334367 C31.9947908,6.3785553 32.0128602,6.02921044 32.0128602,5.61361052 C32.0128602,5.1980106 32.0008139,4.84866574 31.7900049,4.64387737 M36.5904281,7.29407976 C36.3675728,7.51693769 36.0061859,7.655471 35.6146834,7.655471 C35.2111346,7.655471 34.916002,7.55307681 34.6509849,7.25794064 L34.6509849,9.07092 L33.6571708,9.07092 L33.6571708,3.61391235 L34.6208693,3.61391235 L34.6208693,3.99337315 C34.8979326,3.6861906 35.1990884,3.57175004 35.6207065,3.57175004 C36.012209,3.57175004 36.373596,3.71028335 36.5964512,3.93314127 C36.9939769,4.33067163 37,5.01129179 37,5.60758733 C37,6.20388287 36.9819307,6.8965494 36.5904281,7.29407976 M35.3255738,4.46318175 C34.7292854,4.46318175 34.6509849,4.95708311 34.6509849,5.60758733 C34.6509849,6.25809155 34.7292854,6.7580161 35.3255738,6.7580161 C35.9218623,6.7580161 36.0001628,6.25809155 36.0001628,5.60758733 C36.0001628,4.95708311 35.9278854,4.46920494 35.3255738,4.46318175" id="Shape" fill="#222222"></path>
                            <g id="Group" fill="#DA262C">
                                <path d="M15.8347713,3.42117036 C15.2625753,3.42117036 14.7686798,3.63198191 14.365131,4.04758183 C13.9495361,4.46318175 13.7507732,4.96912948 13.7507732,5.54735546 C13.7507732,6.12558143 13.9495361,6.63152916 14.365131,7.0411059 C14.7686798,7.45670582 15.2625753,7.66751737 15.8347713,7.66751737 C16.4069673,7.66751737 16.9068859,7.45670582 17.328504,7.0411059 C17.7320527,6.63755235 17.9428618,6.13160462 17.9428618,5.54735546 C17.9428618,4.96310629 17.7320527,4.46318175 17.328504,4.04758183 C16.912909,3.62595873 16.4250366,3.42117036 15.8347713,3.42117036 Z M16.6237994,6.32434661 C16.4129904,6.54118135 16.1539964,6.65562191 15.8468175,6.65562191 C15.5516848,6.65562191 15.2866678,6.54720454 15.0698356,6.32434661 C14.8590265,6.10751187 14.7385642,5.84249163 14.7385642,5.53530908 C14.7385642,5.21608016 14.8590265,4.95105992 15.0698356,4.74627155 C15.2806446,4.52943681 15.5396386,4.41499625 15.8468175,4.42704263 C16.1539964,4.41499625 16.4190135,4.52341363 16.6358457,4.74627155 C16.8466547,4.95708311 16.9430246,5.21608016 16.9550708,5.53530908 C16.9430246,5.84249163 16.8406316,6.10751187 16.6237994,6.32434661 Z" id="Shape"></path>
                                <path d="M2.58993977,3.37298486 C2.89711867,3.37298486 3.18020511,3.46333267 3.45726844,3.6380051 C3.69819307,3.80063116 3.89695588,4.03553546 4.02946443,4.30657888 L5.08350969,4.30657888 C4.93293179,3.74642247 4.63177601,3.27661386 4.17401921,2.927269 C3.72228553,2.55383139 3.18020511,2.37915896 2.601986,2.37915896 C1.87921211,2.37915896 1.28292365,2.63213283 0.783005046,3.14410375 C0.252970861,3.66209785 0,4.27646295 0,4.99924542 C0,5.70998151 0.252970861,6.34843936 0.764935699,6.86643347 C1.27087742,7.3723812 1.873189,7.62535506 2.59596288,7.62535506 C3.18020511,7.62535506 3.71626241,7.45068263 4.17401921,7.08929139 C4.62575289,6.71585378 4.93293179,6.26411474 5.08350969,5.70998151 L4.03548755,5.70998151 C3.902979,5.98704813 3.70421618,6.20388287 3.46329155,6.3785553 C3.18622823,6.54118135 2.91518802,6.63152916 2.59596288,6.63152916 C2.1442292,6.63152916 1.77079603,6.46890311 1.46361713,6.16172056 C1.14439199,5.84249163 0.993814097,5.46905402 1.00586033,5.02333817 C0.993814097,4.57159912 1.15041511,4.19816151 1.46361713,3.88495578 C1.76477291,3.5416341 2.15627544,3.37298486 2.58993977,3.37298486 Z" id="Path"></path>
                                <path d="M10.1609963,3.67414422 C9.81165554,3.48742542 9.42617614,3.39707761 8.98648869,3.40912398 C8.30587661,3.39707761 7.83607358,3.58379641 7.55901026,3.94518765 C7.3843399,4.16202239 7.29399316,4.46318175 7.27592382,4.82457299 L8.28780726,4.82457299 C8.31189972,4.64990056 8.36610776,4.52943681 8.43236204,4.45113538 C8.54077812,4.31862526 8.71544848,4.24032382 8.96841934,4.2523702 C9.17922839,4.24032382 9.34185252,4.28248614 9.46231483,4.3487412 C9.58277714,4.40294988 9.62493895,4.52341363 9.63698519,4.68603968 C9.63698519,4.8185498 9.55868468,4.92696717 9.40810679,4.99322223 L8.63112486,5.11368598 C8.26973791,5.15584829 7.98665147,5.2461961 7.76379619,5.37870622 C7.39036301,5.59554096 7.20364643,5.96295538 7.21569266,6.47492629 C7.20364643,6.83631753 7.32410874,7.11940733 7.55298714,7.34226526 C7.76379619,7.51693769 8.0348364,7.61933187 8.378154,7.62535506 C8.92625753,7.61330869 9.36594498,7.48079857 9.67312388,7.20975514 L9.67312388,7.62535506 L10.6850073,7.62535506 L10.6850073,4.66797012 C10.6609149,4.18611514 10.4922676,3.84881665 10.1609963,3.67414422 Z M9.60084649,5.98704813 C9.60084649,6.33639299 9.50447664,6.57732048 9.31776005,6.7098306 C9.11899723,6.84234072 8.92023441,6.92064215 8.69135601,6.92064215 C8.54680124,6.92064215 8.42633892,6.87847984 8.32996907,6.80017841 C8.23359922,6.7098306 8.18541429,6.58936685 8.18541429,6.40264805 C8.18541429,6.19183649 8.2637148,6.05330319 8.42633892,5.94488582 C8.52270877,5.89067713 8.69135601,5.83646845 8.89614195,5.8123757 L9.40208367,5.67986558 L9.60084649,5.57144821 L9.60084649,5.98704813 L9.60084649,5.98704813 Z" id="Shape"></path>
                                <rect id="Rectangle" x="5.60149764" y="2.37915896" width="1.01188344" height="5.25221928"></rect>
                                <path d="M13.3954094,3.45128629 L13.00993,3.55970367 C12.7328667,3.66812104 12.491942,3.85483984 12.2992023,4.13190645 L12.2992023,3.61391235 L11.3475501,3.60186598 L11.3475501,7.63740143 L12.3473873,7.63740143 L12.3473873,5.70998151 C12.3473873,5.37870622 12.3895491,5.1498251 12.4798958,4.99924542 C12.5461501,4.84866574 12.6786586,4.71615562 12.8292365,4.61376143 C13.0039069,4.49329769 13.1906235,4.439089 13.3773401,4.439089 L13.684519,4.46318175 L13.6724727,3.43321673 L13.3954094,3.45128629 Z" id="Path"></path>
                                <polygon id="Path" points="19.9124206 0.499924542 17.485105 2.93931538 18.1175322 3.57175004 20.5388247 1.13838239"></polygon>
                                <rect id="Rectangle" x="15.5155462" y="0" width="1" height="2.60804008"></rect>
                                <rect id="Rectangle" x="18.5632427" y="4.5836455" width="2.66221716" height="1"></rect>
                            </g>
                        </g>
                    </g>
                </g>
            </g>
        </g>
    </g>
</svg>