<?xml version="1.0" encoding="UTF-8"?>
<svg width="95px" height="29px" viewBox="0 0 95 29" version="1.1" xmlns="http://www.w3.org/2000/svg" xmlns:xlink="http://www.w3.org/1999/xlink">
    <title>Group 9</title>
    <g id="Symbols" stroke="none" stroke-width="1" fill="none" fill-rule="evenodd">
        <g id="Mobile-/-Dash-board-/-Pantalla-principal-" transform="translate(-35, -1317)" fill-rule="nonzero">
            <g id="Group-75" transform="translate(15, 1182)">
                <g id="Group-9" transform="translate(20, 135)">
                    <polygon id="Path" fill="#FFCB01" points="-1.23599048e-13 2.27072009e-14 95 2.27072009e-14 95 28.8402527 9.2405944e-14 28.8402527"></polygon>
                    <g id="Group" transform="translate(1.4598, 8.4957)" fill="#D80613">
                        <path d="M16.1932278,0 L13.251394,3.9972545 L29.2848934,3.9972545 C30.0956668,3.9972545 30.0855574,4.30255821 29.6892691,4.84239986 C29.2869153,5.38830716 28.6136296,6.33252458 28.2031882,6.88854127 C27.9949347,7.16958243 27.6188652,7.68111778 28.8643426,7.68111778 L35.4212957,7.68111778 L37.3643213,5.04054399 C38.5693611,3.404844 37.469459,0.00202187886 33.1608351,0.00202187886 L16.1932278,0 L16.1932278,0 Z" id="Path"></path>
                        <path d="M12.0605074,13.0229217 L17.9704593,4.9920189 L25.3038139,4.9920189 C26.1145873,4.9920189 26.1044779,5.29934449 25.7081897,5.83716426 L24.2119993,7.87521815 C24.0037458,8.15625931 23.6276763,8.66779466 24.8731537,8.66779466 L34.6954412,8.66779466 C33.880624,9.78791555 31.227919,13.0229217 26.4724599,13.0229217 L12.0605074,13.0229217 Z M45.9027157,8.66577278 L42.6980377,13.0229217 L34.2445622,13.0229217 L37.4492402,8.66577278 L45.9027157,8.66577278 Z M58.8508279,7.6790959 L38.1771166,7.6790959 L43.8302899,0 L52.2797216,0 L49.0406717,4.40365215 L52.8114758,4.40365215 L56.0545694,0 L64.5040012,0 L58.8508279,7.6790959 Z M58.1249734,8.66577278 L54.9202954,13.0229217 L46.4708637,13.0229217 L49.6755417,8.66577278 L58.1249734,8.66577278 Z M0,10.3843698 L12.45073,10.3843698 L11.7713787,11.3083685 L0,11.3083685 L0,10.3843698 Z M0,8.66577278 L13.7164262,8.66577278 L13.035053,9.58977142 L0,9.58977142 L0,8.66577278 Z M0,12.1029668 L11.1870557,12.1029668 L10.5097263,13.0229217 L0,13.0229217 L0,12.1029668 Z M92.0824288,11.3083685 L79.6761801,11.3083685 L80.3575533,10.3843698 L92.0824288,10.3843698 L92.0824288,11.3083685 Z M92.0824288,13.0229217 L78.4165496,13.0229217 L79.0918571,12.1029668 L92.0824288,12.1029668 L92.0824288,13.0229217 Z M81.6212276,8.66577278 L92.0824288,8.66577278 L92.0824288,9.5917933 L80.9418763,9.5917933 L81.6212276,8.66577278 Z M76.206636,0 L70.5534627,7.6790959 L61.5985613,7.6790959 L67.2557783,0 L76.206636,0 Z M60.8747286,8.66577278 C60.8747286,8.66577278 60.2580556,9.51091815 59.9567956,9.91529392 C58.8973311,11.3508279 59.833461,13.0208998 63.2969395,13.0208998 L76.8677904,13.0208998 L80.0724684,8.66577278 L60.8747286,8.66577278 L60.8747286,8.66577278 Z" id="Shape"></path>
                    </g>
                </g>
            </g>
        </g>
    </g>
</svg>