<?xml version="1.0" encoding="UTF-8"?>
<svg width="88px" height="15px" viewBox="0 0 88 15" version="1.1" xmlns="http://www.w3.org/2000/svg" xmlns:xlink="http://www.w3.org/1999/xlink">
    <title>estafeta</title>
    <g id="Symbols" stroke="none" stroke-width="1" fill="none" fill-rule="evenodd">
        <g id="Mobile-/-Dash-board-/-Pantalla-principal-" transform="translate(-36, -1385)" fill="#CC2229">
            <g id="Group-75" transform="translate(15, 1182)">
                <g id="Group-48" transform="translate(21, 198)">
                    <g id="estafeta" transform="translate(0, 5)">
                        <path d="M1.78302868,5.11008736 C2.03308574,4.07510013 2.32464606,2.8683932 4.05792544,2.8683932 L11.0341026,2.8683932 C13.5932966,2.8683932 13.2534887,4.27431572 13.0511604,5.11008736 L12.1313447,8.91852912 L4.73805991,8.91852912 L4.45895057,10.073357 C4.2752987,10.8333852 4.78630743,11.2982216 5.73569422,11.2982216 L11.5560059,11.2982216 L10.9085552,13.9762186 L2.25979723,13.9762186 C-0.359057692,13.9762186 -0.13078983,13.031501 0.188785177,11.7091037 L1.78302868,5.11008736 Z M5.24543711,6.81898359 L8.70369522,6.81898359 L8.93974494,5.89294237 C9.01237562,5.60864513 9.11613374,5.16092884 8.45052541,5.16092884 L6.34838592,5.16092884 C5.80054305,5.16092884 5.58005704,5.50177426 5.48978748,5.85870219 L5.24543711,6.81898359 L5.24543711,6.81898359 Z M23.7154199,2.86787441 L16.9555784,2.86787441 C14.880416,2.86787441 14.5821115,4.06057399 14.3263477,5.16041005 C14.0711027,6.2607649 14.461752,7.2703314 15.8049009,8.23113159 C17.1480497,9.19141298 18.6468358,9.81240532 18.393666,10.6746353 C18.2873139,11.0367511 17.8364849,11.2977028 16.9317141,11.2977028 L12.8436442,11.2977028 L12.1961935,13.9757326 L18.9207572,13.9757326 C20.234335,13.9757326 21.8602247,13.9995642 22.6363354,12.7596547 C23.4124462,11.5197452 23.1935165,10.52678 22.4926305,9.49957459 C21.7912256,8.472888 20.4216184,7.81298637 19.4001197,6.81846479 C18.7983226,6.23223142 18.8310064,5.16041005 19.8078891,5.16041005 L23.1613515,5.16041005 L23.7154199,2.86787441 L23.7154199,2.86787441 Z M24.9791938,2.86787441 L27.1508512,2.86787441 L27.8439554,0 L31.7981774,0 L31.1055919,2.86787441 L33.129394,2.86787441 L32.5758445,5.16041005 L30.5520424,5.16041005 L29.2970879,10.3545415 C29.0693388,11.2977028 29.3619367,11.6893897 30.5722752,11.6893897 L30.0197632,13.9756998 L27.1145359,13.9756998 C24.4671475,13.9756998 24.9050067,12.1651207 25.1145981,11.2977028 L26.5973016,5.16041005 L24.4256442,5.16041005 L24.9791938,2.86787441 L24.9791938,2.86787441 Z M33.8411747,5.16041005 L34.3952431,2.86787441 L42.831297,2.86787441 C44.8867453,2.86787441 44.6330567,4.39934425 44.448886,5.16041005 L42.8712438,11.6893897 C42.4577677,13.4019175 42.9864153,13.5310963 43.3215541,13.9756998 L39.5566907,13.9756998 C39.1312824,13.9756998 38.582402,13.6639067 38.3894119,13.4589844 C37.5012424,13.7292743 37.4415815,14.3020191 35.5915742,14.2693353 C33.7415669,14.2366515 31.6762616,12.5837847 31.8490188,10.370624 C32.0217761,8.15746332 33.9558274,6.817946 35.7031142,6.817946 L39.9940312,6.817946 L40.2383816,5.80682313 C40.3945375,5.15937247 39.8871603,5.15937247 39.5795175,5.15937247 L33.8411747,5.15937247 L33.8411747,5.16041005 Z M39.6495542,8.67884787 L37.0556013,8.67884787 C35.9962309,8.67884787 34.5332414,9.95455394 35.7586248,11.2193654 C36.9850457,12.4841769 39.2070259,10.5781402 39.6495542,8.67884787 Z M54.3468918,0 L50.637539,0 C49.6829643,0 48.464844,0 47.9756245,2.02639607 L47.7717398,2.86787441 L46.1131663,2.86787441 L45.5590979,5.16041005 L47.218709,5.16041005 L45.2945147,13.1254021 C45.2115082,13.4683226 45.0838857,13.692959 44.6636653,13.9762186 L47.6788763,13.9762186 C48.6962246,13.9762186 49.2435487,13.0335761 49.5688304,11.6899085 L51.145435,5.16092884 L53.1012756,5.16092884 L53.6553439,2.8683932 L51.6995034,2.8683932 L51.8172689,2.3828052 C51.9023505,2.03158397 52.2042866,1.77426384 52.7344906,1.78100811 L53.9137017,1.79605304 L54.3468918,0 Z M54.477627,5.11008736 C54.7276841,4.07510013 55.0197632,2.8683932 56.7525238,2.8683932 L63.7287009,2.8683932 C66.2873761,2.8683932 65.9475683,4.27431572 65.7462776,5.11008736 L64.8264618,8.91852912 L57.4326583,8.91852912 L57.1540677,10.073357 C56.9704158,10.8333852 57.4814246,11.2982216 58.4308114,11.2982216 L64.2521606,11.2982216 L63.60471,13.9762186 L54.9554332,13.9762186 C52.3360595,13.9762186 52.5643273,13.031501 52.8844211,11.7091037 L54.477627,5.11008736 Z M57.9400355,6.81898359 L61.3982936,6.81898359 L61.6343433,5.89294237 C61.7074928,5.60864513 61.8107321,5.16092884 61.1451238,5.16092884 L59.0435031,5.16092884 C58.4951414,5.16092884 58.275693,5.50177426 58.1843858,5.85870219 L57.9400355,6.81898359 L57.9400355,6.81898359 Z M67.4525798,2.86787441 L69.6242373,2.86787441 L70.3173415,0 L74.2720822,0 L73.578978,2.86787441 L75.6022613,2.86787441 L75.0492305,5.16041005 L73.0249096,5.16041005 L71.7704739,10.3545415 C71.5427249,11.2977028 71.8353228,11.6893897 73.04618,11.6893897 L72.4931492,13.9756998 L69.5879219,13.9756998 C66.9410523,13.9756998 67.377874,12.1651207 67.5879842,11.2977028 L69.0712065,5.16041005 L66.8985115,5.16041005 L67.4525798,2.86787441 L67.4525798,2.86787441 Z M76.3135232,5.16041005 L76.8675915,2.86787441 L85.3031266,2.86787441 C87.3590938,2.86787441 87.1048864,4.39934425 86.9212345,5.16041005 L85.3435923,11.6893897 C84.9290786,13.4019175 85.458245,13.5310963 85.7933837,13.9756998 L82.0290392,13.9756998 C81.6036309,13.9756998 81.0542316,13.6639067 80.8607228,13.4589844 C79.973072,13.7292743 79.9134111,14.3020191 78.0628851,14.2693353 C76.2139154,14.2371703 74.1475725,12.5837847 74.3208485,10.370624 C74.4941246,8.15746332 76.4276571,6.817946 78.1744251,6.817946 L82.4653421,6.817946 L82.7096924,5.80682313 C82.8658484,5.15937247 82.3579524,5.15937247 82.0508284,5.15937247 L76.3135232,5.15937247 L76.3135232,5.16041005 L76.3135232,5.16041005 Z M82.1213839,8.67884787 L79.5274309,8.67884787 C78.4685793,8.67884787 77.0055898,9.95455394 78.231492,11.2193654 C79.4568754,12.4841769 81.6788555,10.5781402 82.1213839,8.67884787 Z" id="Shape"></path>
                    </g>
                </g>
            </g>
        </g>
    </g>
</svg>