<?xml version="1.0" encoding="UTF-8"?>
<svg width="102px" height="22px" viewBox="0 0 102 22" version="1.1" xmlns="http://www.w3.org/2000/svg" xmlns:xlink="http://www.w3.org/1999/xlink">
    <title>icon/Express_label</title>
    <g id="Symbols" stroke="none" stroke-width="1" fill="none" fill-rule="evenodd">
        <g id="icon/Express_label" fill="#009966" fill-rule="nonzero">
            <g transform="translate(0, 0.1473)">
                <path d="M34.4347826,16.9439351 L34.4347826,5.71794374 L41.5689876,5.71794374 L41.5689876,7.04235846 L36.0098668,7.04235846 L36.0098668,10.574131 L41.2601476,10.574131 L41.2601476,11.8985457 L36.0098668,11.8985457 L36.0098668,15.6195204 L41.5689876,15.6195204 L41.5689876,16.9439351 L34.4347826,16.9439351 Z M48.2862586,11.2205715 L52.4710412,16.9439351 L50.587117,16.9439351 L47.3751805,12.4346184 L44.163244,16.9439351 L42.2793197,16.9439351 L46.4641024,11.2048047 L42.4646238,5.71794374 L44.333106,5.71794374 L47.3906225,10.0065247 L50.4326969,5.71794374 L52.3166212,5.71794374 L48.2862586,11.2205715 Z M53.7681694,5.71794374 L58.3390021,5.71794374 C59.4920107,5.71794374 60.3902115,6.00437184 61.0336315,6.57723662 C61.6770514,7.1501014 61.9987566,7.93055227 61.9987566,8.91861264 C61.9987566,9.90667305 61.6719041,10.6871239 61.0181895,11.2599887 C60.3644748,11.8328534 59.4714213,12.1192815 58.3390021,12.1192815 L55.3586957,12.1192815 L55.3586957,16.9439351 L53.7681694,16.9439351 L53.7681694,5.71794374 Z M58.1536981,10.8264005 C58.9155074,10.8264005 59.4894293,10.6634781 59.8754813,10.3376284 C60.2615333,10.0117787 60.4545564,9.53877821 60.4545564,8.91861264 C60.4545564,8.30895837 60.2615333,7.84121341 59.8754813,7.51536371 C59.4894293,7.18951402 58.9155074,7.02659162 58.1536981,7.02659162 L55.3586957,7.02659162 L55.3586957,10.8264005 L58.1536981,10.8264005 Z M72.7463902,16.9439351 L71.0632119,16.9439351 L69.6888737,13.2071936 C69.5447477,12.807765 69.3337091,12.531848 69.0557516,12.3794344 C68.7777942,12.2270209 68.3968953,12.1508152 67.9130435,12.1508152 L65.5040911,12.1508152 L65.5040911,16.9439351 L63.9290069,16.9439351 L63.9290069,5.71794374 L68.4535136,5.71794374 C69.6579957,5.71794374 70.581933,5.99123293 71.225353,6.53781952 C71.8687729,7.0844061 72.1904781,7.86748475 72.1904781,8.88707895 C72.1904781,9.62286863 72.0000286,10.2482804 71.619124,10.7633331 C71.2382194,11.2783859 70.6977547,11.6410196 69.9977138,11.8512452 C70.6359864,11.9668693 71.0992418,12.4293587 71.387494,13.2387273 L72.7463902,16.9439351 Z M68.2682095,10.8421673 C69.0711977,10.8421673 69.6682825,10.6818727 70.0594818,10.3612787 C70.4506812,10.0406846 70.6462779,9.55980072 70.6462779,8.91861264 C70.6462779,8.27742453 70.4532548,7.80179623 70.0672028,7.49171345 C69.6811508,7.18163067 69.0814924,7.02659162 68.2682095,7.02659162 L65.5040911,7.02659162 L65.5040911,10.8421673 L68.2682095,10.8421673 Z M74.6920825,16.9439351 L74.6920825,5.71794374 L81.8262875,5.71794374 L81.8262875,7.04235846 L76.2671667,7.04235846 L76.2671667,10.574131 L81.5174475,10.574131 L81.5174475,11.8985457 L76.2671667,11.8985457 L76.2671667,15.6195204 L81.8262875,15.6195204 L81.8262875,16.9439351 L74.6920825,16.9439351 Z M87.4162923,17.0700699 C86.5618306,17.0700699 85.7820173,16.9544476 85.076829,16.7231994 C84.3716406,16.4919512 83.7616877,16.1450841 83.2469517,15.6825878 L83.8183058,14.4843078 C84.3536312,14.9257816 84.9095377,15.2463708 85.486042,15.4460852 C86.0625463,15.6457995 86.711104,15.7456552 87.4317343,15.7456552 C88.2553119,15.7456552 88.8935748,15.5879884 89.3465426,15.2726499 C89.7995103,14.9573115 90.0259907,14.5105888 90.0259907,13.9324683 C90.0259907,13.4489495 89.8149524,13.0836879 89.3928686,12.8366728 C88.9707849,12.5896578 88.3016388,12.3610408 87.3854083,12.1508152 C86.5103572,11.9616122 85.7948848,11.7435063 85.23897,11.4964913 C84.6830552,11.2494762 84.2455361,10.9183758 83.9263998,10.5031802 C83.6072635,10.0879847 83.4476977,9.55454523 83.4476977,8.9028458 C83.4476977,8.25114641 83.6175581,7.67566244 83.9572838,7.17637661 C84.2970095,6.67709079 84.7782805,6.28817925 85.401111,6.00963032 C86.0239416,5.73108139 86.7419875,5.59180901 87.5552703,5.59180901 C88.327374,5.59180901 89.0505679,5.71268692 89.7248717,5.95444637 C90.3991754,6.19620582 90.9628031,6.53781731 91.4157709,6.97929109 L90.8444168,8.17757107 C90.3399751,7.74660858 89.8201003,7.42864711 89.2847746,7.22367714 C88.7494489,7.01870717 88.178101,6.91622372 87.5707123,6.91622372 C86.7780189,6.91622372 86.1551977,7.08702947 85.7022301,7.42864608 C85.2492624,7.77026269 85.022782,8.23537988 85.022782,8.82401159 C85.022782,9.32855305 85.2209524,9.71220905 85.6172991,9.97499104 C86.0136457,10.237773 86.6493352,10.4742733 87.5243863,10.6844989 C88.4406168,10.8947245 89.181825,11.1154582 89.7480347,11.3467063 C90.3142443,11.5779545 90.767205,11.8932882 91.1069309,12.2927168 C91.4466567,12.6921455 91.6165169,13.2071905 91.6165169,13.8378673 C91.6165169,14.4895667 91.4466567,15.0571674 91.1069309,15.5406862 C90.767205,16.0242052 90.2807873,16.3999777 89.6476616,16.6680154 C89.014536,16.9360531 88.2707539,17.0700699 87.4162923,17.0700699 Z M97.1910797,17.0700699 C96.3366182,17.0700699 95.556805,16.9544476 94.8516164,16.7231994 C94.1464278,16.4919512 93.5364749,16.1450841 93.0217391,15.6825878 L93.5930932,14.4843078 C94.1284189,14.9257816 94.6843248,15.2463708 95.2608295,15.4460852 C95.8373341,15.6457995 96.4858911,15.7456552 97.2065217,15.7456552 C98.0300993,15.7456552 98.6683623,15.5879884 99.12133,15.2726499 C99.5742978,14.9573115 99.8007781,14.5105888 99.8007781,13.9324683 C99.8007781,13.4489495 99.5897398,13.0836879 99.167656,12.8366728 C98.7455723,12.5896578 98.0764262,12.3610408 97.1601957,12.1508152 C96.2851442,11.9616122 95.5696721,11.7435063 95.0137574,11.4964913 C94.4578427,11.2494762 94.0203231,10.9183758 93.7011872,10.5031802 C93.3820513,10.0879847 93.2224852,9.55454523 93.2224852,8.9028458 C93.2224852,8.25114641 93.3923454,7.67566244 93.7320712,7.17637661 C94.071797,6.67709079 94.5530678,6.28817925 95.1758984,6.00963032 C95.7987291,5.73108139 96.5167751,5.59180901 97.3300578,5.59180901 C98.1021614,5.59180901 98.8253554,5.71268692 99.4996591,5.95444637 C100.173963,6.19620582 100.737591,6.53781731 101.190558,6.97929109 L100.619204,8.17757107 C100.114763,7.74660858 99.5948877,7.42864711 99.059562,7.22367714 C98.5242363,7.01870717 97.9528884,6.91622372 97.3454998,6.91622372 C96.5528062,6.91622372 95.9299852,7.08702947 95.4770175,7.42864608 C95.0240497,7.77026269 94.7975694,8.23537988 94.7975694,8.82401159 C94.7975694,9.32855305 94.9957397,9.71220905 95.3920865,9.97499104 C95.7884333,10.237773 96.4241223,10.4742733 97.2991738,10.6844989 C98.2154042,10.8947245 98.9566124,11.1154582 99.5228221,11.3467063 C100.089032,11.5779545 100.541992,11.8932882 100.881718,12.2927168 C101.221444,12.6921455 101.391304,13.2071905 101.391304,13.8378673 C101.391304,14.4895667 101.221444,15.0571674 100.881718,15.5406862 C100.541992,16.0242052 100.055575,16.3999777 99.4224491,16.6680154 C98.7893234,16.9360531 98.0455413,17.0700699 97.1910797,17.0700699 Z" id="EXPRESS"></path>
                <g id="box">
                    <path d="M8.43877377,6.76696429 C8.60017069,5.81122891 9.18398519,5.02551463 10.1902174,4.40982143 C13.056216,2.52410715 15.179178,1.21458334 16.5591033,0.48125 C17.9390285,-0.252083333 19.2128057,-0.147321428 20.3804348,0.795535713 C23.2464335,2.36696429 25.2101733,3.57172619 26.2716542,4.40982143 C27.3331352,5.24791667 27.8638757,6.19077381 27.8638757,7.23839285 C27.8638757,10.0669643 27.8638757,12.3193453 27.8638757,13.9955357 C27.8638757,15.6717262 27.4392833,16.8241072 26.5900985,17.4526786 C24.3609885,19.0241072 22.3972487,20.228869 20.6988791,21.0669643 C19.0005095,21.9050595 17.4082881,21.9050595 15.9222147,21.0669643 C12.7377718,19.2860119 10.6678838,18.08125 9.71255094,17.4526786 C8.75721807,16.8241072 8.33262568,15.9336309 8.43877377,14.78125 C8.43877377,11.8479167 8.43877377,9.1764881 8.43877377,6.76696429 Z M18.6289911,11.3241072 L18.6289911,20.9098214 L26.7493207,15.5669643 L26.7493207,6.60982143 L18.6289911,11.3241072 Z M10.0309952,5.50982143 L18.1513248,10.5383928 L26.4308763,5.50982143 L18.1513248,0.952678572 L10.0309952,5.50982143 Z" id="Combined-Shape"></path>
                    <path d="M12.7377718,3.93839285 L21.4949899,9.12410716 L21.4949899,13.0526786 C21.4949899,13.7860119 21.9195822,13.8907739 22.768767,13.3669643 C23.6179518,12.8431548 24.2548404,12.4764881 24.6794327,12.2669643 C24.9978771,12.1622023 25.1570992,11.7431548 25.1570992,11.0098214 C25.1570992,10.2764881 25.1570992,8.96696432 25.1570992,7.08125 L15.7629925,1.58125 L14.9668818,2.20982143 L24.0425441,7.86696429 L24.0425441,11.3241072 L22.4503227,12.2669643 L22.4503227,8.49553571 L13.6931047,2.99553571 L12.7377718,3.93839285 Z" id="Path-49"></path>
                    <path d="M18.1513248,0.166964286 L9.87177307,0.166964286 C9.44718073,0.166964286 9.23488455,0.324107143 9.23488455,0.638392857 C9.23488455,0.952678572 9.44718073,1.10982143 9.87177307,1.10982143 L17.9921026,1.10982143 L18.1513248,0.166964286 Z" id="Path-50"></path>
                    <path d="M8.91644022,8.02410715 L0.636888587,8.02410715 C0.212296195,8.02410715 0,8.18125 0,8.49553571 C0,8.8098214 0.212296195,8.96696432 0.636888587,8.96696432 L8.75721807,8.96696432 L8.91644022,8.02410715 Z" id="Path-50-Copy-2"></path>
                    <path d="M18.469769,20.5955357 L10.1902174,20.5955357 C9.76562499,20.5955357 9.55332881,20.7526786 9.55332881,21.0669643 C9.55332881,21.38125 9.76562499,21.5383928 10.1902174,21.5383928 L18.3105469,21.5383928 L18.469769,20.5955357 Z" id="Path-50-Copy-3"></path>
                    <path d="M9.29614134,5.50982143 L5.41355299,5.50982143 C4.9889606,5.50982143 4.77666441,5.66696429 4.77666441,5.98125 C4.77666441,6.29553571 4.9889606,6.45267857 5.41355299,6.45267857 L8.75721807,6.45267857 L9.29614134,5.50982143 Z" id="Path-50-Copy"></path>
                    <path d="M9.29614134,12.1098214 L5.41355299,12.1098214 C4.9889606,12.1098214 4.77666441,12.2669643 4.77666441,12.58125 C4.77666441,12.8955357 4.9889606,13.0526786 5.41355299,13.0526786 L8.75721807,13.0526786 L9.29614134,12.1098214 Z" id="Path-50-Copy-4"></path>
                    <path d="M10.1325754,16.5098214 L4.13977581,16.5098214 C3.71518342,16.5098214 3.50288723,16.6669643 3.50288723,16.98125 C3.50288723,17.2955357 3.71518342,17.4526786 4.13977581,17.4526786 C7.03735691,17.6253687 9.03495674,17.6253687 10.1325754,17.4526786 L10.1325754,16.5098214 Z" id="Path-50-Copy-5"></path>
                </g>
            </g>
        </g>
    </g>
</svg>