<?xml version="1.0" encoding="UTF-8"?>
<svg width="90px" height="25px" viewBox="0 0 90 25" version="1.1" xmlns="http://www.w3.org/2000/svg" xmlns:xlink="http://www.w3.org/1999/xlink">
    <title>fedex-express-6</title>
    <g id="Symbols" stroke="none" stroke-width="1" fill="none" fill-rule="evenodd">
        <g id="Mobile-/-Dash-board-/-Pantalla-principal-" transform="translate(-35, -1259)" fill-rule="nonzero">
            <g id="Group-75" transform="translate(15, 1182)">
                <g id="fedex-express-6" transform="translate(20, 77)">
                    <path d="M89.4453889,21.6973326 C89.4453889,20.3108047 88.4621634,19.2955176 87.1076973,19.2955176 C85.7554811,19.2955176 84.7711307,20.3108047 84.7711307,21.6973326 C84.7711307,23.0816105 85.7554811,24.0952101 87.1076973,24.0952101 C88.4621634,24.0952101 89.4453889,23.079923 89.4453889,21.6973326 Z M86.4934627,21.820517 L86.4934627,23.3892903 L85.9866628,23.3892903 L85.9866628,19.9300017 L87.2460688,19.9300017 C87.9840504,19.9300017 88.3226669,20.2523062 88.3226669,20.880603 C88.3226669,21.2675933 88.061111,21.5741481 87.7241819,21.6185845 L87.7241819,21.6332092 C88.0166746,21.6798955 88.1241094,21.940889 88.1842954,22.4184395 C88.2304192,22.7278068 88.2917302,23.2644184 88.4019775,23.3904152 L87.8023674,23.3904152 C87.6628709,23.0652984 87.6769331,22.6051849 87.5694983,22.219882 C87.4806255,21.9268268 87.3242544,21.8199545 86.9884503,21.8199545 L86.4962751,21.8199545 L86.4962751,21.821642 L86.4934627,21.820517 L86.4934627,21.820517 Z M87.1217595,21.3733407 C87.6139347,21.3733407 87.7545561,21.1112222 87.7545561,20.8800405 C87.7545561,20.6066723 87.6139347,20.3906777 87.1217595,20.3906777 L86.4934627,20.3906777 L86.4934627,21.3744656 L87.1217595,21.3744656 L87.1217595,21.3733407 Z M84.2137072,21.6973326 C84.2137072,19.9890628 85.5698608,18.8342791 87.1054474,18.8342791 C88.6455339,18.8342791 90,19.9890628 90,21.6973326 C90,23.4022274 88.6460963,24.558136 87.1054474,24.558136 C85.5698608,24.558136 84.2137072,23.4022274 84.2137072,21.6973326 Z" id="Shape" fill="#FF5A00"></path>
                    <g id="Group" transform="translate(47.2477, 0)" fill="#FF5A00">
                        <path d="M26.9442014,24.059211 L23.6103472,20.320367 L20.3057424,24.059211 L13.3522912,24.059211 L20.1482463,16.4240269 L13.3522912,8.78659284 L20.5228619,8.78659284 L23.8904652,12.4967501 L27.1309467,8.78659284 L34.0506487,8.78659284 L27.2884428,16.3919652 L34.1445839,24.059211 L26.9442014,24.059211 Z M0,24.059211 L0,0 L13.3522912,0 L13.3522912,5.36274093 L5.65579611,5.36274093 L5.65579611,8.78659284 L13.3522912,8.78659284 L13.3522912,13.9468388 L5.65579611,13.9468388 L5.65579611,18.6829704 L13.3522912,18.6829704 L13.3522912,24.059211 L0,24.059211 Z" id="Shape"></path>
                    </g>
                    <path d="M41.6127097,0 L41.6127097,9.84631634 L41.5502737,9.84631634 C40.3032424,8.41310217 38.7445939,7.91361466 36.9373266,7.91361466 C33.2339192,7.91361466 30.4439889,10.4329892 29.4647009,13.7612185 C28.3476038,10.0932477 25.4671133,7.84499138 21.1967201,7.84499138 C17.7278693,7.84499138 14.9896878,9.40138997 13.559286,11.9382015 L13.559286,8.78603035 L6.39040274,8.78603035 L6.39040274,5.36330342 L14.2145821,5.36330342 L14.2145821,0.00112497188 L0,0.00112497188 L0,24.059211 L6.39040274,24.059211 L6.39040274,13.9468388 L12.7599935,13.9468388 C12.5637893,14.7244656 12.4657166,15.5235981 12.4680633,16.3255919 C12.4680633,21.3418415 16.301405,24.8669408 21.1955951,24.8669408 C25.3096173,24.8669408 28.0230494,22.9336767 29.4568261,19.4142021 L23.9799005,19.4142021 C23.239669,20.4733632 22.6771831,20.7861053 21.1961576,20.7861053 C19.4794505,20.7861053 17.9978626,19.2876428 17.9978626,17.5135622 L29.1497088,17.5135622 C29.6334467,21.498775 32.738369,24.9350016 36.9997625,24.9350016 C38.8379666,24.9350016 40.5209245,24.0310867 41.5497113,22.5039374 L41.6115847,22.5039374 L41.6115847,24.0625859 L47.2460063,24.0625859 L47.2460063,0.00112497188 L41.6127097,0.00112497188 L41.6127097,0 L41.6127097,0 Z M18.1756081,14.018837 C18.5316617,12.4900002 19.7168196,11.4910252 21.1961576,11.4910252 C22.8251169,11.4910252 23.9500887,12.4590635 24.2453939,14.018837 L18.1756081,14.018837 Z M38.1933577,20.3979901 C36.1172221,20.3979901 34.8268793,18.4636009 34.8268793,16.4431514 C34.8268793,14.2832054 35.9496013,12.2081948 38.1933577,12.2081948 C40.521487,12.2081948 41.4490263,14.2843304 41.4490263,16.4431514 C41.4490263,18.4894753 40.4669258,20.3979901 38.1933577,20.3979901 Z" id="Shape" fill="#29007C"></path>
                </g>
            </g>
        </g>
    </g>
</svg>