<?xml version="1.0" encoding="UTF-8"?>
<svg width="21px" height="16px" viewBox="0 0 21 16" version="1.1" xmlns="http://www.w3.org/2000/svg"
    xmlns:xlink="http://www.w3.org/1999/xlink">
    <title>Group</title>
    <g id="Symbols" stroke="none" stroke-width="1" fill="none" fill-rule="evenodd">
        <g id="icons/logos/mastercard" transform="translate(-15, -5)" fill-rule="nonzero">
            <g id="Group" transform="translate(15, 5)">
                <path
                    d="M3.36415692,13.6903087 C3.30807347,13.6342252 3.24009354,13.5900383 3.16361612,13.5585976 C3.08543919,13.5280066 3.00131403,13.5110116 2.90954112,13.5110116 C2.86110542,13.5110116 2.81012047,13.5161101 2.75828577,13.5246076 C2.70560132,13.5331051 2.65376662,13.5475508 2.60363142,13.5696443 C2.55179672,13.5900383 2.50591027,13.621479 2.46002381,13.6580182 C2.41413736,13.6945574 2.37419915,13.7438429 2.34105893,13.7990766 C2.28752473,13.7107027 2.21359656,13.6393237 2.12182365,13.5891885 C2.02920099,13.5373538 1.92383209,13.5127111 1.80316771,13.5127111 C1.7632295,13.5127111 1.72244154,13.5169599 1.67910434,13.5237579 C1.63661688,13.5314056 1.59327967,13.5424523 1.55249171,13.5611468 C1.50915451,13.5789916 1.4692163,13.604484 1.43097758,13.635075 C1.39273887,13.6648162 1.35789916,13.7039047 1.32645844,13.7523404 L1.32645844,13.5568981 L0.98995777,13.5568981 L0.98995777,15.1620742 L1.32985743,15.1620742 L1.32985743,14.2723869 C1.32985743,14.2044069 1.34175392,14.143225 1.3621479,14.0905405 C1.38254188,14.0378561 1.41313285,13.9936691 1.44967206,13.9571299 C1.48621128,13.9222902 1.52784899,13.8942485 1.57628469,13.875554 C1.62472039,13.8568595 1.67740484,13.848362 1.73178879,13.848362 C1.84650492,13.848362 1.93572858,13.8840515 1.99861002,13.9571299 C2.06234121,14.0302084 2.09293218,14.1347275 2.09293218,14.2689879 L2.09293218,15.1620742 L2.43453134,15.1620742 L2.43453134,14.2723869 C2.43453134,14.2044069 2.44472833,14.143225 2.46597206,14.0905405 C2.48721579,14.0378561 2.51780676,13.9936691 2.55264647,13.9571299 C2.58918569,13.9222902 2.63167314,13.8942485 2.68010885,13.875554 C2.72854455,13.8577093 2.78037925,13.848362 2.83646269,13.848362 C2.95117883,13.848362 3.04040249,13.8840515 3.10243418,13.9571299 C3.16616536,14.0302084 3.19760608,14.1347275 3.19760608,14.2689879 L3.19760608,15.1620742 L3.53750575,15.1620742 L3.53750575,14.1525722 C3.53750575,14.0590998 3.52136051,13.9732752 3.49076954,13.8933987 C3.46357757,13.8135223 3.41939061,13.7472419 3.36415692,13.6903087"
                    id="Path" fill="#1D1D1B"></path>
                <path
                    d="M5.15967689,13.7489414 C5.10359345,13.6775625 5.03391402,13.6206293 4.9523381,13.5764423 C4.86906268,13.5331051 4.76964203,13.5118614 4.65492589,13.5118614 C4.542759,13.5118614 4.43739011,13.5331051 4.33966895,13.5747428 C4.2436473,13.6163805 4.15782263,13.675863 4.08474421,13.7506409 C4.01251553,13.8254188 3.95558233,13.912943 3.91394462,14.0166124 C3.87315666,14.119432 3.85191294,14.2332984 3.85191294,14.3556623 C3.85191294,14.4780262 3.87230692,14.5901931 3.91394462,14.6938624 C3.95558233,14.7966821 4.01251553,14.8867555 4.08474421,14.9606837 C4.15697288,15.0346119 4.2436473,15.0932446 4.33966895,15.1348823 C4.43654036,15.1773697 4.54190925,15.1977637 4.65492589,15.1977637 C4.76964203,15.1977637 4.86906268,15.1773697 4.9523381,15.1331828 C5.03391402,15.0915451 5.10359345,15.0354616 5.15967689,14.9623832 L5.15967689,15.1569757 L5.50977354,15.1569757 L5.50977354,13.5517996 L5.15967689,13.5517996 L5.15967689,13.7489414 Z M5.1460809,14.5604518 C5.12228793,14.6224835 5.08999746,14.678567 5.04666025,14.7227539 C5.00417279,14.7686404 4.95403759,14.8043298 4.8937054,14.8306721 C4.83507271,14.8570143 4.76879228,14.8706103 4.6965636,14.8706103 C4.62008618,14.8706103 4.55295599,14.8553148 4.4926238,14.8289726 C4.43314136,14.8017806 4.38300616,14.7652414 4.3405187,14.7185052 C4.29888099,14.6709192 4.26744027,14.617385 4.2453468,14.5553533 C4.22410307,14.4941714 4.21220658,14.427891 4.21220658,14.356512 C4.21220658,14.2868326 4.22325332,14.2205522 4.2453468,14.1576707 C4.26744027,14.095639 4.29888099,14.0395556 4.3405187,13.9953686 C4.38300616,13.9486324 4.43229161,13.9112435 4.4926238,13.8840515 C4.55210624,13.8577093 4.62008618,13.8432635 4.6965636,13.8432635 C4.76879228,13.8432635 4.83507271,13.8577093 4.8937054,13.882352 C4.95318785,13.9086942 5.00417279,13.9443837 5.04666025,13.9902701 C5.08999746,14.0370064 5.12228793,14.0905405 5.1460809,14.1525722 C5.16902413,14.2154537 5.18092062,14.2834336 5.18092062,14.356512 C5.18092062,14.4295905 5.16987388,14.4984201 5.1460809,14.5604518"
                    id="Shape" fill="#1D1D1B"></path>
                <path
                    d="M7.11919845,14.3539628 C7.02062755,14.2757859 6.88381793,14.2265004 6.70791986,14.1993084 L6.54391827,14.1746657 C6.50567956,14.1695672 6.47083984,14.1619195 6.43939912,14.1559712 C6.40625891,14.1483235 6.37821718,14.1381265 6.35442421,14.1270798 C6.33063123,14.116033 6.3127865,14.099038 6.30004026,14.0803436 C6.28474478,14.0624988 6.27964628,14.0370064 6.27964628,14.0098144 C6.27964628,13.9528812 6.30513876,13.9069947 6.3595227,13.8713053 C6.41220715,13.8364655 6.48613533,13.8186208 6.58300673,13.8186208 C6.63484143,13.8186208 6.68327713,13.8237193 6.73256258,13.8339163 C6.78099829,13.8432635 6.82688474,13.8534605 6.87022195,13.8670565 C6.91355915,13.8806525 6.95349736,13.8950982 6.99003658,13.9120932 C7.02572604,13.9290882 7.05461751,13.9435339 7.07926024,13.9588294 L7.23051559,13.6852102 C7.14724017,13.6325258 7.04951902,13.590888 6.93650238,13.5611468 C6.82433549,13.5331051 6.70622036,13.5169599 6.57960773,13.5169599 C6.47848758,13.5169599 6.38501518,13.5288564 6.30428901,13.5534991 C6.22186334,13.5755926 6.15303366,13.6104323 6.09525071,13.655469 C6.03831752,13.6996559 5.99413056,13.7514906 5.96353959,13.8160716 C5.93294863,13.878953 5.91765314,13.9503319 5.91765314,14.0302084 C5.91765314,14.1593702 5.96353959,14.2638894 6.0553125,14.3446155 C6.14623566,14.4253417 6.28304528,14.4763267 6.46234235,14.5018191 L6.62974294,14.5230629 C6.72576459,14.5366589 6.79544402,14.5570528 6.84048073,14.5867941 C6.88551743,14.6165353 6.90676116,14.6539242 6.90676116,14.7006604 C6.90676116,14.7601429 6.87701994,14.8085786 6.815838,14.8434183 C6.75465606,14.878258 6.66288315,14.8961027 6.54221877,14.8961027 C6.47763784,14.8961027 6.41815539,14.8910043 6.3663207,14.8825068 C6.31363625,14.8723098 6.26690004,14.861263 6.22356284,14.8459675 C6.18022563,14.8298223 6.14198692,14.8145268 6.1071472,14.7932831 C6.07400699,14.7745886 6.04256627,14.7524951 6.01282505,14.7304017 L5.85052296,14.9938239 C5.9083059,15.0388606 5.97118734,15.0737003 6.03491852,15.1000425 C6.09779996,15.1263848 6.1606814,15.1484782 6.22271309,15.162924 C6.28474478,15.17652 6.34252772,15.186717 6.39691167,15.1918155 C6.45129561,15.1977637 6.49973131,15.1994632 6.54051927,15.1994632 C6.65608516,15.1994632 6.76060431,15.186717 6.84982797,15.1612245 C6.94075113,15.1365818 7.01722855,15.1000425 7.08010999,15.0533063 C7.14044218,15.0065701 7.18972763,14.9521862 7.22286785,14.8876053 C7.25430857,14.8230243 7.2721533,14.7533449 7.2721533,14.675168 C7.26535531,14.5366589 7.21776935,14.4304402 7.11919845,14.3539628"
                    id="Path" fill="#1D1D1B"></path>
                <path
                    d="M10.3975307,13.7455424 C10.3329498,13.6707645 10.2513738,13.614681 10.1587512,13.5730433 C10.0669783,13.5331051 9.96415863,13.5118614 9.85284149,13.5118614 C9.73387661,13.5118614 9.62425897,13.5331051 9.52653782,13.5730433 C9.43051616,13.614681 9.34554125,13.6707645 9.27586181,13.7455424 C9.20448289,13.8203203 9.15094869,13.9086942 9.11186023,14.0123636 C9.07192202,14.116033 9.05322754,14.2307492 9.05322754,14.3556623 C9.05322754,14.4814252 9.07192202,14.5978408 9.11355973,14.7023599 C9.15434769,14.8051796 9.20958138,14.895253 9.28265981,14.9674817 C9.35403874,15.0405601 9.4415629,15.0966436 9.54268305,15.1382813 C9.64295345,15.1782195 9.75342084,15.1977637 9.87578472,15.1977637 C9.99729885,15.1977637 10.112015,15.179919 10.2216326,15.1467788 C10.3321,15.1127888 10.4366192,15.0550058 10.5343403,14.9708807 L10.3609915,14.7210544 C10.2930116,14.7737389 10.2199331,14.8153766 10.1383572,14.8451178 C10.0559315,14.874859 9.97690487,14.8901545 9.8961787,14.8901545 C9.84094501,14.8901545 9.78401181,14.881657 9.73302686,14.8672113 C9.68034241,14.8502163 9.63360621,14.8272731 9.590269,14.7941329 C9.54778155,14.7609926 9.51124233,14.7185052 9.48065136,14.66837 C9.45091014,14.6156855 9.42966641,14.5545036 9.41946942,14.4814252 L10.6057192,14.4814252 C10.6082685,14.4627307 10.609968,14.4397875 10.6108177,14.4193935 C10.6125172,14.3964502 10.6125172,14.373507 10.6125172,14.3514135 C10.6125172,14.2273502 10.5946725,14.112634 10.5572835,14.0098144 C10.5156458,13.9086942 10.4638111,13.8203203 10.3975307,13.7455424 M9.41861967,14.2180029 C9.42881666,14.1610697 9.44241265,14.1066858 9.46620563,14.0582501 C9.4882991,14.0098144 9.51719058,13.9690264 9.55372979,13.9341867 C9.58856951,13.8976475 9.63020721,13.872155 9.67779317,13.8526108 C9.72707862,13.8339163 9.78231231,13.8245691 9.84519375,13.8245691 C9.95651089,13.8245691 10.0474341,13.8577093 10.1162637,13.9273887 C10.1876427,13.9970681 10.2318296,14.0939395 10.2505241,14.2197024 L9.41861967,14.2197024 L9.41861967,14.2180029 Z"
                    id="Shape" fill="#1D1D1B"></path>
                <path
                    d="M15.0499073,13.7489414 C14.9955234,13.6775625 14.925844,13.6206293 14.8425686,13.5764423 C14.7592931,13.5331051 14.661572,13.5118614 14.5451563,13.5118614 C14.4321397,13.5118614 14.3276206,13.5331051 14.2315989,13.5747428 C14.1338778,13.6163805 14.0489028,13.675863 13.9758244,13.7506409 C13.902746,13.8254188 13.8466625,13.912943 13.8050248,14.0166124 C13.7633871,14.119432 13.7438429,14.2332984 13.7438429,14.3556623 C13.7438429,14.4780262 13.7633871,14.5901931 13.8050248,14.6938624 C13.8466625,14.7966821 13.902746,14.8867555 13.9758244,14.9606837 C14.0489028,15.0346119 14.1338778,15.0932446 14.2315989,15.1348823 C14.3276206,15.1773697 14.4321397,15.1977637 14.5451563,15.1977637 C14.661572,15.1977637 14.7592931,15.1773697 14.8425686,15.1331828 C14.9266937,15.0915451 14.9955234,15.0354616 15.0499073,14.9623832 L15.0499073,15.1569757 L15.400004,15.1569757 L15.400004,13.5517996 L15.0499073,13.5517996 L15.0499073,13.7489414 L15.0499073,13.7489414 Z M15.0371611,14.5604518 C15.0150676,14.6224835 14.9819274,14.678567 14.9385902,14.7227539 C14.8961027,14.7677906 14.8459675,14.8043298 14.7864851,14.8306721 C14.7270027,14.8570143 14.661572,14.8706103 14.5884936,14.8706103 C14.5137156,14.8706103 14.4457357,14.8553148 14.3862533,14.8289726 C14.3267708,14.8017806 14.2749361,14.7652414 14.2349979,14.7185052 C14.1916607,14.6709192 14.16022,14.617385 14.1389762,14.5553533 C14.1168828,14.4941714 14.105836,14.427891 14.105836,14.356512 C14.105836,14.2868326 14.1168828,14.2205522 14.1389762,14.1576707 C14.16022,14.095639 14.1916607,14.0395556 14.2349979,13.9953686 C14.2749361,13.9486324 14.3250713,13.9112435 14.3862533,13.8840515 C14.4457357,13.8577093 14.5137156,13.8432635 14.5884936,13.8432635 C14.661572,13.8432635 14.7278524,13.8577093 14.7864851,13.882352 C14.8442681,13.9086942 14.8961027,13.9443837 14.9385902,13.9902701 C14.9819274,14.0370064 15.0150676,14.0905405 15.0371611,14.1525722 C15.0601043,14.2154537 15.0720008,14.2834336 15.0720008,14.356512 C15.0720008,14.4295905 15.0601043,14.4984201 15.0371611,14.5604518"
                    id="Shape" fill="#1D1D1B"></path>
                <path
                    d="M8.61985546,14.8383198 C8.56547152,14.8595635 8.50853832,14.8706103 8.45415438,14.8706103 C8.41931466,14.8706103 8.38617445,14.864662 8.35473373,14.8527655 C8.32499251,14.8425686 8.29780053,14.8255736 8.27315781,14.8000811 C8.25191408,14.7762881 8.2332196,14.7465469 8.22047336,14.7066087 C8.20687737,14.6700695 8.20092913,14.6233333 8.20092913,14.5706488 L8.20092913,13.8730048 L8.76346307,13.8730048 L8.76346307,13.5543488 L8.20092913,13.5543488 L8.20092913,13.0682923 L7.84913298,13.0682923 L7.84913298,13.5543488 L7.52962729,13.5543488 L7.52962729,13.872155 L7.84913298,13.872155 L7.84913298,14.5774468 C7.84913298,14.7907339 7.90096768,14.9487872 8.00208783,15.0490576 C8.10320798,15.1501777 8.24426634,15.2011627 8.42696241,15.2011627 C8.52808256,15.2011627 8.61985546,15.1850175 8.69973189,15.1544265 C8.75241633,15.1348823 8.80255153,15.1093898 8.85013749,15.0838973 L8.72947311,14.7907339 C8.69378364,14.8077288 8.65809418,14.8247238 8.61985546,14.8383198"
                    id="Path" fill="#1D1D1B"></path>
                <path
                    d="M11.7817721,13.5110116 C11.6840509,13.5110116 11.5948273,13.5288564 11.5166503,13.5653956 C11.4367739,13.6002353 11.3704935,13.6869097 11.317809,13.7625374 L11.317809,13.5526493 L10.9991531,13.5526493 L10.9991531,15.1586752 L11.321208,15.1586752 L11.321208,14.2766356 C11.321208,14.2086557 11.331405,14.1474737 11.3492498,14.09224 C11.3670945,14.0395556 11.395986,13.9945189 11.4291262,13.9579797 C11.4622664,13.919741 11.5022046,13.8933987 11.5489408,13.8730048 C11.5965268,13.85516 11.646662,13.844963 11.7044449,13.844963 C11.7469324,13.844963 11.7928188,13.8500615 11.8421043,13.8602585 C11.8658973,13.865357 11.8913897,13.8730048 11.9126335,13.878953 L12.0154531,13.5424523 C11.9874114,13.5339548 11.9593697,13.5254574 11.9287787,13.5220584 C11.8845917,13.5161101 11.836156,13.5110116 11.7817721,13.5110116"
                    id="Path" fill="#1D1D1B"></path>
                <path
                    d="M16.649985,13.5110116 C16.5522639,13.5110116 16.4630402,13.5288564 16.3840135,13.5653956 C16.3049869,13.6002353 16.2387064,13.6869097 16.1851722,13.7625374 L16.1851722,13.5526493 L15.8682158,13.5526493 L15.8682158,15.1586752 L16.1885712,15.1586752 L16.1885712,14.2766356 C16.1885712,14.2086557 16.199618,14.1474737 16.2183124,14.09224 C16.2361572,14.0395556 16.2633491,13.9945189 16.2964894,13.9579797 C16.3296296,13.919741 16.3712673,13.8933987 16.4180035,13.8730048 C16.4647397,13.85516 16.5157246,13.844963 16.5726578,13.844963 C16.615995,13.844963 16.6610318,13.8500615 16.7103172,13.8602585 C16.7349599,13.865357 16.7596027,13.8730048 16.7799966,13.878953 L16.8828163,13.5424523 C16.8564741,13.5339548 16.8267328,13.5254574 16.7969916,13.5220584 C16.7519549,13.5161101 16.704369,13.5110116 16.649985,13.5110116"
                    id="Path" fill="#1D1D1B"></path>
                <path
                    d="M18.2866019,12.9008917 L18.2866019,13.7489414 C18.2313682,13.6775625 18.1616888,13.6206293 18.0784133,13.5764423 C17.9959877,13.5331051 17.896567,13.5118614 17.7810011,13.5118614 C17.6679845,13.5118614 17.5634654,13.5331051 17.466594,13.5747428 C17.3697226,13.6163805 17.2830481,13.675863 17.2116692,13.7506409 C17.1385908,13.8254188 17.0825073,13.912943 17.0417194,14.0166124 C16.9992319,14.119432 16.9788379,14.2332984 16.9788379,14.3556623 C16.9788379,14.4780262 16.9992319,14.5901931 17.0417194,14.6938624 C17.0825073,14.7966821 17.1385908,14.8867555 17.2116692,14.9606837 C17.2830481,15.0354616 17.3697226,15.0932446 17.466594,15.1348823 C17.5634654,15.1773697 17.6679845,15.1977637 17.7810011,15.1977637 C17.896567,15.1977637 17.9959877,15.1773697 18.0784133,15.1331828 C18.1616888,15.0915451 18.2313682,15.0354616 18.2866019,14.9623832 L18.2866019,15.1569757 L18.6366985,15.1569757 L18.6366985,12.900042 L18.2866019,12.900042 L18.2866019,12.9008917 Z M18.2721562,14.5604518 C18.2492129,14.6224835 18.2169225,14.678567 18.1735853,14.7227539 C18.1310978,14.7686404 18.0809626,14.8043298 18.0197807,14.8306721 C17.9628475,14.8570143 17.8957173,14.8706103 17.8234886,14.8706103 C17.7461614,14.8706103 17.679881,14.8553148 17.6203986,14.8289726 C17.5609161,14.8017806 17.5099312,14.7652414 17.4682935,14.7185052 C17.425806,14.6709192 17.395215,14.617385 17.3731215,14.5553533 C17.3518778,14.4941714 17.3391316,14.427891 17.3391316,14.356512 C17.3391316,14.2868326 17.3518778,14.2205522 17.3731215,14.1576707 C17.395215,14.095639 17.425806,14.0395556 17.4682935,13.9953686 C17.5099312,13.9486324 17.5583669,13.9112435 17.6203986,13.8840515 C17.679881,13.8577093 17.7461614,13.8432635 17.8234886,13.8432635 C17.896567,13.8432635 17.9628475,13.8577093 18.0197807,13.882352 C18.0792631,13.9086942 18.1310978,13.9443837 18.1735853,13.9902701 C18.2169225,14.0370064 18.2492129,14.0905405 18.2721562,14.1525722 C18.2950994,14.2154537 18.3069959,14.2834336 18.3069959,14.356512 C18.3069959,14.4295905 18.2959491,14.4984201 18.2721562,14.5604518"
                    id="Shape" fill="#1D1D1B"></path>
                <path
                    d="M12.6204745,13.9843219 C12.6655112,13.9392852 12.7173459,13.9035957 12.7802273,13.878953 C12.8414093,13.85516 12.90684,13.841564 12.9782189,13.841564 C13.0572456,13.841564 13.130324,13.85516 13.1983039,13.878953 C13.2628849,13.902746 13.3198181,13.9358862 13.367404,13.9800732 L13.5356543,13.7005057 C13.4727729,13.648671 13.401394,13.6095825 13.3223673,13.5764423 C13.2169984,13.5331051 13.1014325,13.5118614 12.9782189,13.5118614 C12.8550053,13.5118614 12.7402891,13.5331051 12.6340705,13.5764423 C12.5295513,13.6206293 12.4386282,13.679262 12.3621508,13.7540399 C12.2856733,13.8305173 12.2253411,13.9180415 12.1811542,14.0208611 C12.137817,14.1236808 12.1165733,14.2349979 12.1165733,14.356512 C12.1165733,14.4780262 12.137817,14.5876438 12.1811542,14.692163 C12.2253411,14.7949826 12.2856733,14.885056 12.3621508,14.9589842 C12.4386282,15.0329124 12.5295513,15.0932446 12.6340705,15.1365818 C12.7402891,15.179919 12.8550053,15.2011627 12.9782189,15.2011627 C13.1014325,15.2011627 13.2169984,15.179919 13.3223673,15.1365818 C13.401394,15.105141 13.4727729,15.0635033 13.5356543,15.0125184 L13.367404,14.7321012 C13.3189683,14.7754384 13.2628849,14.8102781 13.1983039,14.8332213 C13.130324,14.857864 13.0572456,14.87146 12.9782189,14.87146 C12.90684,14.87146 12.8405595,14.857864 12.7802273,14.8332213 C12.7190454,14.8085786 12.6646615,14.7737389 12.6204745,14.7278524 C12.574588,14.681966 12.5397483,14.6284318 12.5142559,14.5664001 C12.4904629,14.5035186 12.4760171,14.4338392 12.4760171,14.3573618 C12.4760171,14.2808844 12.4904629,14.2112049 12.5142559,14.1483235 C12.5397483,14.0845923 12.574588,14.0310581 12.6204745,13.9843219"
                    id="Path" fill="#1D1D1B"></path>
                <path
                    d="M19.7034812,14.9232947 C19.7763456,14.9232947 19.8416722,14.9388388 19.8994611,14.9647455 C19.9572501,14.9906522 20.0125265,15.024331 20.05524,15.0709631 C20.0979536,15.1175952 20.1331295,15.1694087 20.1607677,15.2315849 C20.1884059,15.2911704 20.2034812,15.3533465 20.2034812,15.4232947 C20.2034812,15.4906522 20.1884059,15.5554191 20.1607677,15.6150046 C20.1331295,15.6745901 20.1004662,15.7289942 20.05524,15.7756263 C20.0100139,15.8222585 19.9572501,15.8559372 19.8994611,15.8818439 C19.8416722,15.9077507 19.7763456,15.9232947 19.7034812,15.9232947 C19.6381546,15.9232947 19.5703154,15.9077507 19.5100139,15.8818439 C19.4497124,15.8559372 19.394436,15.8222585 19.354235,15.7756263 C19.3039837,15.7264035 19.2713204,15.6745901 19.2461948,15.6150046 C19.2185566,15.5554191 19.2034812,15.4906522 19.2034812,15.4232947 C19.2034812,15.3533465 19.2185566,15.2885797 19.2461948,15.2315849 C19.2713204,15.1719994 19.3039837,15.1150046 19.354235,15.0709631 C19.3994611,15.024331 19.4471998,14.9906522 19.5100139,14.9647455 C19.572828,14.9388388 19.6381546,14.9232947 19.7034812,14.9232947 M19.7034812,15.7833983 C19.7562451,15.7833983 19.7964461,15.7730357 19.8441848,15.7523103 C19.8919234,15.7341756 19.9195616,15.7056781 19.9547375,15.6771807 C19.9899134,15.6486833 20.0075013,15.6098232 20.0301144,15.5606004 C20.0451898,15.516559 20.05524,15.4751082 20.05524,15.420704 C20.05524,15.3662999 20.0451898,15.3274398 20.0301144,15.278217 C20.0075013,15.2341756 19.9823757,15.1953154 19.9547375,15.1642274 C19.9195616,15.1279579 19.8919234,15.1098232 19.8441848,15.0865072 C19.7964461,15.0683724 19.7562451,15.0606004 19.7034812,15.0606004 C19.65323,15.0606004 19.613029,15.0683724 19.5652903,15.0865072 C19.5225767,15.1098232 19.4874008,15.13573 19.452225,15.1642274 C19.4220742,15.1953154 19.3994611,15.2341756 19.3793606,15.278217 C19.3642853,15.3274398 19.354235,15.3662999 19.354235,15.420704 C19.354235,15.4751082 19.3642853,15.516559 19.3793606,15.5606004 C19.4019737,15.6098232 19.4270993,15.6460927 19.452225,15.6771807 C19.4874008,15.7108595 19.5225767,15.7341756 19.5652903,15.7523103 C19.613029,15.7756263 19.6582551,15.7833983 19.7034812,15.7833983 M19.7361446,15.2004968 C19.7914209,15.2004968 19.8391596,15.2186315 19.8693104,15.2445382 C19.9019737,15.2730357 19.9170491,15.3041237 19.9170491,15.3507559 C19.9170491,15.389616 19.9069988,15.4155227 19.8868983,15.4414294 C19.8617727,15.4621548 19.8341345,15.4828802 19.7889084,15.4880616 L19.9270993,15.6486833 L19.7788581,15.6486833 L19.6582551,15.4906522 L19.6431797,15.4906522 L19.6431797,15.6486833 L19.5250893,15.6486833 L19.5250893,15.2030875 L19.7361446,15.2004968 L19.7361446,15.2004968 Z"
                    id="Shape" fill="#1D1D1B"></path>
                <path
                    d="M7.50498457,6.05021401 C7.50498457,4.12723166 8.40486893,2.41668661 9.80355604,1.30691421 C8.77026107,0.490305264 7.46844535,0.000849749159 6.04936426,0.000849749159 C2.70815057,0.000849749159 0,2.70985007 0,6.05021401 C0,9.39227745 2.70900032,12.100428 6.04936426,12.100428 C7.46844535,12.100428 8.77026107,11.6109725 9.80355604,10.7943636 C8.40401918,9.68544091 7.50498457,7.97319635 7.50498457,6.05021401"
                    id="Path" fill="#E20D17"></path>
                <path
                    d="M7.50498457,6.05021401 C7.50498457,7.97489585 8.40486893,9.68544091 9.80355604,10.7943636 C11.2013934,9.68544091 12.0987285,7.97489585 12.0987285,6.05021401 C12.0987285,4.12723166 11.1996939,2.41668661 9.80355604,1.30691421 C8.40401918,2.41498711 7.50498457,4.12723166 7.50498457,6.05021401"
                    id="Path" fill="#EA610A"></path>
                <path
                    d="M19.2640373,10.095715 L19.2640373,9.31294346 L19.1219053,9.31294346 L19.1219053,9.09571499 L19.5110762,9.09571499 L19.5110762,9.31294346 L19.3689442,9.31294346 L19.3689442,10.095715 L19.2640373,10.095715 Z M20.0220745,10.095715 L20.0220745,9.4028311 L19.9188596,9.99833672 L19.8071845,9.99833672 L19.7056617,9.4028311 L19.7056617,10.095715 L19.6007547,10.095715 L19.6007547,9.09571499 L19.7496549,9.09571499 L19.859638,9.73616443 L19.9696211,9.09571499 L20.1219053,9.09571499 L20.1219053,10.095715 L20.0220745,10.095715 Z"
                    id="Shape" fill="#F59E00"></path>
                <path
                    d="M13.5543488,0 C12.1369672,0 10.8343018,0.489455515 9.80355604,1.30606446 C11.2013934,2.41498711 12.0987285,4.12553216 12.0987285,6.04936426 C12.0987285,7.97319635 11.1996939,9.68374141 9.80355604,10.7935138 C10.8343018,11.6101228 12.1369672,12.0995783 13.5543488,12.0995783 C16.8955625,12.0995783 19.6037133,9.39057795 19.6037133,6.04936426 C19.6045628,2.70815057 16.8947128,0 13.5543488,0"
                    id="Path" fill="#F59E00"></path>
            </g>
        </g>
    </g>
</svg>