<?xml version="1.0" encoding="UTF-8"?>
<svg width="129px" height="32px" viewBox="0 0 129 32" version="1.1" xmlns="http://www.w3.org/2000/svg" xmlns:xlink="http://www.w3.org/1999/xlink">
    <title>T1 Envíos logo</title>
    <g id="Symbols" stroke="none" stroke-width="1" fill="none" fill-rule="evenodd">
        <g id="Menú" transform="translate(-24, -12)">
            <g id="T1-Envíos-logo" transform="translate(24, 12)">
                <path d="M35.0133855,17.6915014 L47.8973647,17.6915014 C47.8973647,14.8759744 45.0263403,12.0606234 41.4373438,12.0606234 C38.0281425,12.0606234 35.3363952,14.5318837 35.0133855,17.6915014 M47.1079581,22.0710927 L48.2562644,22.821724 C47.179738,24.1356366 45.1699001,25.8560898 41.4373438,25.8247769 C37.0948308,25.8247769 33.5420696,22.5089462 33.5420696,18.3170567 C33.5420696,14.1253431 37.0948308,10.8093367 41.4373438,10.8093367 C45.743967,10.8093367 49.3329633,14.1253431 49.3329633,18.3170567 L49.3329633,18.9426121 L48.615164,18.9426121 L35.0133855,18.9426121 C35.3363952,22.1022298 38.0281425,24.5734901 41.4373438,24.5734901 C44.5238808,24.6048031 46.1748191,23.1971275 47.1079581,22.0710927" id="Fill-57" fill="#1C1E1E" fill-rule="nonzero"></path>
                <path d="M35.0133855,17.6915014 L47.8973647,17.6915014 C47.8973647,14.8759744 45.0263403,12.0606234 41.4373438,12.0606234 C38.0281425,12.0606234 35.3363952,14.5318837 35.0133855,17.6915014 Z M47.1079581,22.0710927 L48.2562644,22.821724 C47.179738,24.1356366 45.1699001,25.8560898 41.4373438,25.8247769 C37.0948308,25.8247769 33.5420696,22.5089462 33.5420696,18.3170567 C33.5420696,14.1253431 37.0948308,10.8093367 41.4373438,10.8093367 C45.743967,10.8093367 49.3329633,14.1253431 49.3329633,18.3170567 L49.3329633,18.9426121 L48.615164,18.9426121 L35.0133855,18.9426121 C35.3363952,22.1022298 38.0281425,24.5734901 41.4373438,24.5734901 C44.5238808,24.6048031 46.1748191,23.1971275 47.1079581,22.0710927 Z" id="Stroke-59" stroke="#1C1E1E"></path>
                <path d="M67.2769788,25.1991687 L67.3128686,25.856037 L65.91316,25.856037 L65.8772702,25.2304816 L65.8413802,17.1596562 C65.8413802,14.375618 63.4726426,12.0607465 60.4580582,12.0607465 C57.4434739,12.0607465 55.0747362,14.375618 55.0747362,17.1596562 L55.0747362,17.7852115 L55.0747362,25.1991687 L55.0747362,25.8249 L53.6393102,25.8249 L53.6393102,25.1991687 L53.6393102,17.7852115 L53.6393102,17.1596562 L53.6393102,11.4350152 L53.6393102,10.8092839 L55.0747362,10.8092839 L55.0747362,11.4350152 L55.0747362,13.2492314 C56.3308849,11.7791058 58.268943,10.8092839 60.4580582,10.8092839 C64.1904418,10.8092839 67.2769788,13.6246349 67.2769788,17.1596562 L67.2769788,25.1991687 Z" id="Fill-61" fill="#1C1E1E" fill-rule="nonzero"></path>
                <path d="M67.2769788,25.1991687 L67.3128686,25.856037 L65.91316,25.856037 L65.8772702,25.2304816 L65.8413802,17.1596562 C65.8413802,14.375618 63.4726426,12.0607465 60.4580582,12.0607465 C57.4434739,12.0607465 55.0747362,14.375618 55.0747362,17.1596562 L55.0747362,17.7852115 L55.0747362,25.1991687 L55.0747362,25.8249 L53.6393102,25.8249 L53.6393102,25.1991687 L53.6393102,17.7852115 L53.6393102,17.1596562 L53.6393102,11.4350152 L53.6393102,10.8092839 L55.0747362,10.8092839 L55.0747362,11.4350152 L55.0747362,13.2492314 C56.3308849,11.7791058 58.268943,10.8092839 60.4580582,10.8092839 C64.1904418,10.8092839 67.2769788,13.6246349 67.2769788,17.1596562 L67.2769788,25.1991687 Z" id="Stroke-63" stroke="#1C1E1E"></path>
                <polygon id="Fill-65" fill="#1C1E1E" fill-rule="nonzero" points="71.6550538 11.6852901 71.2245469 10.809407 72.7676427 10.809407 72.9470925 11.1846347 78.796984 23.5411126 84.5392056 11.1846347 84.7545453 10.809407 86.2976413 10.809407 85.9028517 11.6852901 79.4788934 25.4494436 79.2635536 25.8248472 78.3304145 25.8248472 78.1509646 25.4494436"></polygon>
                <polygon id="Stroke-67" stroke="#1C1E1E" points="71.6550538 11.6852901 71.2245469 10.809407 72.7676427 10.809407 72.9470925 11.1846347 78.796984 23.5411126 84.5392056 11.1846347 84.7545453 10.809407 86.2976413 10.809407 85.9028517 11.6852901 79.4788934 25.4494436 79.2635536 25.8248472 78.3304145 25.8248472 78.1509646 25.4494436"></polygon>
                <polygon id="Fill-69" fill="#1C1E1E" fill-rule="nonzero" points="90.2454164 25.8248824 91.6808424 25.8248824 91.6808424 10.8094422 90.2454164 10.8094422"></polygon>
                <polygon id="Stroke-71" stroke="#1C1E1E" points="90.2454164 25.8248824 91.6808424 25.8248824 91.6808424 10.8094422 90.2454164 10.8094422"></polygon>
                <path d="M97.423064,18.3170039 C97.423064,21.7582622 100.294261,24.5734374 103.882912,24.5734374 C107.471736,24.5734374 110.342933,21.7582622 110.342933,18.3170039 C110.342933,14.8759216 107.471736,12.0607465 103.882912,12.0607465 C100.294261,12.0607465 97.423064,14.8759216 97.423064,18.3170039 M95.9874655,18.3170039 C95.9874655,14.1252904 99.5762893,10.8092839 103.882912,10.8092839 C108.189535,10.8092839 111.778359,14.1252904 111.778359,18.3170039 C111.778359,22.5088935 108.189535,25.8249 103.882912,25.8249 C99.5762893,25.8249 95.9874655,22.5088935 95.9874655,18.3170039" id="Fill-72" fill="#1C1E1E" fill-rule="nonzero"></path>
                <path d="M97.423064,18.3170039 C97.423064,21.7582622 100.294261,24.5734374 103.882912,24.5734374 C107.471736,24.5734374 110.342933,21.7582622 110.342933,18.3170039 C110.342933,14.8759216 107.471736,12.0607465 103.882912,12.0607465 C100.294261,12.0607465 97.423064,14.8759216 97.423064,18.3170039 Z M95.9874655,18.3170039 C95.9874655,14.1252904 99.5762893,10.8092839 103.882912,10.8092839 C108.189535,10.8092839 111.778359,14.1252904 111.778359,18.3170039 C111.778359,22.5088935 108.189535,25.8249 103.882912,25.8249 C99.5762893,25.8249 95.9874655,22.5088935 95.9874655,18.3170039 Z" id="Stroke-73" stroke="#1C1E1E"></path>
                <path d="M127.389786,14.8447318 L125.954187,14.8447318 C125.954187,13.2180415 123.72901,12.0606938 121.324554,12.0606938 C118.920099,12.0606938 116.694922,13.2180415 116.694922,14.8447318 C116.694922,17.9104105 128.035805,17.4099311 128.000085,21.7895225 C128.000085,23.8853792 125.236561,25.8248472 121.324554,25.8248472 C117.412721,25.8248472 114.649194,23.8853792 114.649194,21.7895225 L116.084792,21.7895225 C116.084792,23.4473498 118.63298,24.5735605 121.324554,24.5735605 C124.016129,24.5735605 126.564317,23.4473498 126.564317,21.7895225 C126.564317,18.6925307 115.295213,19.2554602 115.259324,14.8447318 C115.259324,12.7175621 117.843401,10.809407 121.324554,10.809407 C124.805708,10.809407 127.389786,12.7175621 127.389786,14.8447318" id="Fill-74" fill="#1C1E1E" fill-rule="nonzero"></path>
                <path d="M127.389786,14.8447318 L125.954187,14.8447318 C125.954187,13.2180415 123.72901,12.0606938 121.324554,12.0606938 C118.920099,12.0606938 116.694922,13.2180415 116.694922,14.8447318 C116.694922,17.9104105 128.035805,17.4099311 128.000085,21.7895225 C128.000085,23.8853792 125.236561,25.8248472 121.324554,25.8248472 C117.412721,25.8248472 114.649194,23.8853792 114.649194,21.7895225 L116.084792,21.7895225 C116.084792,23.4473498 118.63298,24.5735605 121.324554,24.5735605 C124.016129,24.5735605 126.564317,23.4473498 126.564317,21.7895225 C126.564317,18.6925307 115.295213,19.2554602 115.259324,14.8447318 C115.259324,12.7175621 117.843401,10.809407 121.324554,10.809407 C124.805708,10.809407 127.389786,12.7175621 127.389786,14.8447318 Z" id="Stroke-75" stroke="#1C1E1E"></path>
                <path d="M20.3319921,12.0403931 L23.8964867,12.0403931 C24.0027761,12.0403931 24.1052696,12.0699468 24.1949945,12.1225456 C24.1939592,12.1383779 24.1927514,12.1540344 24.1927514,12.1700427 L24.1927514,19.1331285 L24.1927514,22.0526216 L24.1927514,25.8071853 L24.1927514,26.3048501 L24.1927514,26.7050578 L24.1927514,28.6591268 C24.1927514,29.0651397 24.5790862,29.3546965 24.9592092,29.2331389 L25.515331,29.0558161 C26.986647,28.462981 28.7419768,27.8240561 30.8256653,27.1578642 C30.8625905,27.0787023 30.8839865,26.9912722 30.8839865,26.8996203 L30.8839865,26.3048501 L30.8839865,25.8071853 L30.8839865,12.1700427 C30.8839865,12.1424241 30.8822609,12.1153331 30.8793276,12.088418 L30.8793276,12.0403931 L30.8839865,12.0403931 L30.8839865,1.92789273 C30.8839865,1.59013504 30.6155018,1.31623467 30.2843825,1.31623467 L27.215618,1.31623467 C26.9581766,1.31623467 26.7300682,1.48423393 26.6479355,1.73280249 C25.7066867,4.5886141 23.8521418,6.73988428 21.0019956,7.2600663 C20.7690559,7.30246193 20.5292144,7.33430262 20.2828159,7.35435699 C19.9718846,7.38004064 19.7322156,7.64496932 19.7322156,7.96302449 L19.7322156,11.428735 C19.7322156,11.7664927 20.0008726,12.0403931 20.3319921,12.0403931" id="Fill-76" fill="#CC4236" fill-rule="nonzero"></path>
                <path d="M24.9756185,0.226051368 C24.8415487,0.0863744918 24.6576127,0 24.4541787,0 L9.77173273,0 L9.21992454,0 L1.31654048,0 C0.589423629,0 0,0.544458355 0,1.21610359 L0,5.59622267 C0,5.83476404 0.209300604,6.02791921 0.467259716,6.02791921 L9.31189257,6.02791921 L9.31189257,9.40074638 C9.31189257,9.41394003 9.30947689,9.42537454 9.3084416,9.43768862 L9.3084416,29.2922114 C9.3084416,29.4746356 9.42560164,29.6348946 9.59642406,29.6887248 C11.7896805,30.3818317 13.7708754,31.2181338 15.3401985,31.9608488 C15.6100635,32.0887394 15.9182341,31.887668 15.9182341,31.5845657 L15.9182341,6.9766313 C15.9182341,6.92719906 15.9089164,6.87847048 15.8987361,6.83009373 C15.8416228,6.56164673 15.9444614,6.24886904 16.2081146,6.14191244 C16.2685063,6.11746019 16.3373529,6.10373878 16.4144818,6.10373878 L18.9462771,6.10373878 C18.9555947,6.10268329 18.9621515,6.10197963 18.9621515,6.10197963 C24.4722962,5.55400297 25.0373906,1.2150481 25.0838059,0.724068042 C25.0851864,0.696801144 25.0863942,0.67023791 25.087602,0.642971013 L25.087602,0.522996668 C25.087602,0.412697673 25.0501592,0.303630087 24.9756185,0.226051368" id="Fill-77" fill="#CC4236" fill-rule="nonzero"></path>
                <polygon id="Fill-78" fill="#1C1E1E" fill-rule="nonzero" points="91.8888144 8.40698234 91.0153769 9.40618216 90.8880366 7.49099052"></polygon>
                <path d="M88.9207144,5.49373433 L96.0657504,2.64407976 L93.3037763,9.31584957 L90.915023,7.15930193 L96.0438369,2.66079173 L95.7643093,2.84831761 L90.5821782,6.68872807 C90.5519823,6.71581904 90.5335197,6.76331621 90.5336923,6.81415578 L90.8903487,9.13975819 L90.8813763,9.13747129 L90.1682357,6.57491075 L88.9207144,5.49373433 Z" id="Fill-79" fill="#1C1E1E" fill-rule="nonzero"></path>
            </g>
        </g>
    </g>
</svg>