<?xml version="1.0" encoding="UTF-8"?>
<svg width="40px" height="9px" viewBox="0 0 40 9" version="1.1" xmlns="http://www.w3.org/2000/svg"
    xmlns:xlink="http://www.w3.org/1999/xlink">
    <title>t1paginas-logotipo</title>
    <g id="Symbols" stroke="none" stroke-width="1" fill="none" fill-rule="evenodd">
        <g id="icons/logos/t1pag" transform="translate(-5, -9)" fill-rule="nonzero">
            <g id="Group-4" transform="translate(1, 2)">
                <g id="t1paginas-logotipo" transform="translate(4, 7)">
                    <g id="Group" transform="translate(0, 0.0701)" fill="#D93A26">
                        <path
                            d="M5.63170571,3.26691482 L6.6214145,3.26691482 C6.64768995,3.26691482 6.68272389,3.27567331 6.70024086,3.29319028 C6.70024086,3.29319028 6.70024086,3.30194876 6.70024086,3.30194876 L6.70024086,5.19378148 L6.70024086,5.99080359 L6.70024086,7.00678783 L6.70024086,7.1381651 L6.70024086,7.24326691 L6.70024086,7.77753449 C6.70024086,7.89139479 6.80534268,7.97022115 6.91044449,7.93518721 L7.06809722,7.8826363 C7.479746,7.72498358 7.96146267,7.54981388 8.53952266,7.3658857 C8.54828115,7.34836873 8.55703963,7.32209328 8.55703963,7.29581782 L8.55703963,7.1381651 L8.55703963,7.00678783 L8.55703963,3.30194876 C8.55703963,3.29319028 8.55703963,3.28443179 8.55703963,3.27567331 L8.55703963,3.26691482 L8.55703963,3.26691482 L8.55703963,0.525509087 C8.55703963,0.437924239 8.48697175,0.359097876 8.39062842,0.359097876 L7.53229691,0.359097876 C7.46222903,0.359097876 7.40091964,0.4028903 7.37464419,0.472958178 C7.11188964,1.25246332 6.60389753,1.83052332 5.8156339,1.97065908 C5.7543245,1.97941756 5.68425662,1.98817605 5.61418875,1.99693453 C5.5266039,2.00569302 5.4652945,2.07576089 5.4652945,2.16334574 L5.4652945,3.10050361 C5.4652945,3.19684695 5.53536238,3.26691482 5.63170571,3.26691482 Z"
                            id="Path"></path>
                        <path
                            d="M6.91044449,0.0613093935 C6.87541055,0.0262754543 6.82285965,2.52820658e-16 6.77030874,2.52820658e-16 L2.7063718,2.52820658e-16 L2.55747756,2.52820658e-16 L0.367856361,2.52820658e-16 C0.166411211,2.52820658e-16 0,0.148894241 0,0.332822422 L0,1.52397635 C0,1.58528575 0.0613093935,1.63783665 0.131377272,1.63783665 L2.58375301,1.63783665 L2.58375301,2.55747756 C2.58375301,2.55747756 2.58375301,2.56623604 2.58375301,2.56623604 L2.58375301,7.95270418 C2.58375301,8.00525509 2.61878695,8.04904751 2.66257937,8.057806 C3.26691482,8.24173418 3.81869937,8.46945478 4.2566236,8.67089993 C4.33544997,8.70593387 4.41427633,8.65338296 4.41427633,8.56579812 L4.41427633,1.88307423 C4.41427633,1.86555726 4.41427633,1.85679877 4.40551785,1.8392818 C4.38800088,1.76921393 4.41427633,1.68162908 4.49310269,1.65535362 C4.51061966,1.64659514 4.52813663,1.64659514 4.55441209,1.64659514 L5.25509087,1.64659514 C5.25509087,1.64659514 5.26384935,1.64659514 5.26384935,1.64659514 C6.77030874,1.50645938 6.92796146,0.332822422 6.94547843,0.192686665 C6.94547843,0.18392818 6.94547843,0.175169696 6.94547843,0.166411211 L6.94547843,0.140135757 C6.94547843,0.113860302 6.93671995,0.078826363 6.91044449,0.0613093935 Z"
                            id="Path"></path>
                    </g>
                    <g id="Group" transform="translate(9.0738, 0.508)" fill="#282828">
                        <path
                            d="M2.32975695,1.04225969 C1.69038756,1.04225969 1.07729363,1.28749726 0.639369389,1.7254215 L0.639369389,1.04225969 L0,1.04225969 L0,6.98051237 L0.639369389,6.98051237 L0.639369389,4.71206481 C1.07729363,5.14123057 1.68162908,5.38646814 2.32099847,5.38646814 C3.59973725,5.38646814 4.64199693,4.41427633 4.64199693,3.21436392 C4.64199693,2.0144515 3.59973725,1.04225969 2.32975695,1.04225969 Z M3.99386906,3.21436392 C3.99386906,4.09021239 3.24063937,4.80840815 2.31223998,4.80840815 C1.3838406,4.80840815 0.630610904,4.09897088 0.630610904,3.2231224 C0.648127874,2.33851544 1.40135757,1.62907817 2.3034815,1.62907817 C2.31223998,1.62907817 2.31223998,1.62907817 2.32099847,1.62907817 C3.24939785,1.62031968 3.99386906,2.33851544 3.99386906,3.21436392 Z"
                            id="Shape"></path>
                        <path
                            d="M8.76724327,1.71666302 C8.32931903,1.28749726 7.72498358,1.04225969 7.08561419,1.04225969 C5.80687541,1.04225969 4.76461572,2.0144515 4.76461572,3.21436392 C4.76461572,4.41427633 5.80687541,5.38646814 7.08561419,5.38646814 C7.72498358,5.38646814 8.32931903,5.14123057 8.76724327,4.71206481 L8.76724327,5.38646814 L9.40661266,5.38646814 L9.40661266,1.04225969 L8.76724327,1.04225969 L8.76724327,1.71666302 Z M8.76724327,3.21436392 C8.76724327,4.09021239 8.01401358,4.80840815 7.08561419,4.80840815 C6.1572148,4.80840815 5.40398511,4.09897088 5.40398511,3.21436392 C5.40398511,2.33851544 6.1572148,1.62031968 7.08561419,1.62031968 C8.01401358,1.62031968 8.76724327,2.33851544 8.76724327,3.21436392 Z"
                            id="Shape"></path>
                        <path
                            d="M13.9435078,1.71666302 C13.5055835,1.28749726 12.9012481,1.04225969 12.2618787,1.04225969 C10.9831399,1.04225969 9.94088023,2.0144515 9.94088023,3.21436392 C9.94088023,4.41427633 10.9831399,5.38646814 12.2618787,5.38646814 C12.9012481,5.38646814 13.5055835,5.14123057 13.9435078,4.71206481 L13.9435078,5.09743814 C13.9435078,5.62294723 13.2953799,6.38493541 12.2706372,6.39369389 L11.9465732,6.39369389 L11.9465732,6.98051237 L12.069192,6.98051237 L12.2706372,6.98051237 C13.6982702,6.97175389 14.5828772,5.87694329 14.5828772,5.09743814 L14.5916356,1.34880666 L14.6091526,1.05101817 L13.9435078,1.05101817 L13.9435078,1.71666302 Z M12.2618787,4.79964966 C11.3334793,4.79964966 10.5802496,4.09021239 10.5802496,3.20560543 C10.5802496,2.32975695 11.3334793,1.6115612 12.2618787,1.6115612 C13.1902781,1.6115612 13.9435078,2.32099847 13.9435078,3.20560543 C13.9435078,4.09021239 13.1902781,4.79964966 12.2618787,4.79964966 Z"
                            id="Shape"></path>
                        <rect id="Rectangle" x="15.5112765" y="0" width="1" height="1"></rect>
                        <rect id="Rectangle" x="15.5112765" y="1.04225969" width="1" height="4.34420845"></rect>
                        <path
                            d="M21.1254653,5.08867966 L21.1254653,2.89905846 C21.1254653,1.87431574 20.2145829,1.04225969 19.1022553,1.04225969 C18.5855047,1.04225969 18.0950296,1.21742938 17.7184147,1.54149332 L17.7184147,1.04225969 L17.0790453,1.04225969 L17.0790453,5.38646814 L17.7184147,5.38646814 L17.7184147,2.89905846 C17.7184147,2.19837968 18.3402671,1.62907817 19.1022553,1.62907817 C19.8642435,1.62907817 20.4860959,2.19837968 20.4860959,2.90781695 L20.4948544,5.1237136 L20.5123714,5.40398511 L21.1429823,5.40398511 L21.1254653,5.08867966 Z"
                            id="Path"></path>
                    </g>
                    <path
                        d="M38.1256843,3.40705058 C37.4950734,3.23188088 36.8469455,3.05671119 36.8469455,2.76768119 C36.8469455,2.4173418 37.3812131,2.1283118 38.0205824,2.1283118 C38.6599518,2.1283118 39.1942194,2.42610028 39.1942194,2.76768119 L39.1942194,2.89029998 L39.8335888,2.89029998 L39.8335888,2.76768119 C39.8335888,2.09327786 39.0190497,1.54149332 38.0205824,1.54149332 C37.0221152,1.54149332 36.2075761,2.09327786 36.2075761,2.76768119 C36.2163346,3.5121524 37.2060434,3.78366543 38.0818918,4.02014451 C38.7125027,4.19531421 39.3606306,4.37048391 39.3606306,4.6595139 C39.3606306,5.0098533 38.7475367,5.29888329 38.0205824,5.29888329 C37.2936282,5.29888329 36.6805343,5.00109481 36.6805343,4.6595139 L36.6805343,4.53689512 L36.0411649,4.53689512 L36.0411649,4.6595139 C36.0411649,5.34267572 36.9082549,5.88570177 38.0205824,5.88570177 C39.13291,5.88570177 40,5.3514342 40,4.6595139 C40,3.92380118 39.0015327,3.65228815 38.1256843,3.40705058 Z"
                        id="Path" fill="#282828"></path>
                    <path
                        d="M16.6586381,0.928399387 C16.6148456,1.02474272 16.5535362,1.07729363 16.4747099,1.07729363 L16.1594044,1.07729363 C16.115612,1.07729363 16.0805781,1.06853514 16.0718196,1.05101817 C16.0543026,1.0335012 16.0455441,1.00722575 16.0455441,0.980950296 C16.0543026,0.963433326 16.0543026,0.945916356 16.0543026,0.928399387 C16.0543026,0.910882417 16.0630611,0.884606963 16.0805781,0.858331509 L16.387125,0.148894241 C16.4134005,0.0963433326 16.4396759,0.0613093935 16.4659514,0.0350339391 C16.4922268,0.00875848478 16.5272608,0 16.5710532,0 L16.9126341,0 C16.9739435,0 17.000219,0.0262754543 17.000219,0.078826363 C17.000219,0.0963433326 17.000219,0.113860302 17.000219,0.140135757 C17.000219,0.157652726 16.9914605,0.18392818 16.9739435,0.210203635 L16.6586381,0.928399387 Z"
                        id="Path" fill="#282828"></path>
                    <path
                        d="M35.410554,1.53273484 L35.410554,1.53273484 L35.410554,1.53273484 L34.2194,1.52397635 L34.2194,1.29625575 C34.2106416,0.630610904 33.7201664,0.0875848478 33.1070725,0.0875848478 C32.4939785,0.0875848478 31.9947449,0.630610904 31.9947449,1.28749726 L31.9947449,1.4977009 L30.7773155,1.48894241 L30.7597986,3.53842785 C30.7597986,3.55594482 30.7597986,3.57346179 30.7597986,3.59973725 L30.7597986,3.63477118 C30.7597986,3.63477118 30.7597986,3.6260127 30.7597986,3.61725422 C30.7597986,3.64352967 30.7597986,3.66104664 30.7597986,3.68732209 C30.7597986,4.89599299 31.8020582,5.87694329 33.0895555,5.87694329 C33.2034158,5.87694329 35.410554,5.87694329 35.410554,5.87694329 L35.410554,1.53273484 Z M33.0895555,5.29012481 C32.1611561,5.29012481 31.4079264,4.58068754 31.4079264,3.69608058 C31.4079264,2.8202321 32.1611561,2.10203635 33.0895555,2.10203635 C34.0179549,2.10203635 34.7711846,2.81147362 34.7711846,3.69608058 C34.7624261,4.58068754 34.0091964,5.29012481 33.0895555,5.29012481 Z M33.1070725,0.455441209 C33.5362382,0.455441209 33.8778191,0.832056054 33.8778191,1.29625575 L33.8778191,1.51521787 L32.3363258,1.4977009 L32.3363258,1.28749726 C32.3363258,0.832056054 32.6779067,0.455441209 33.1070725,0.455441209 Z"
                        id="Shape" fill="#282828"></path>
                </g>
            </g>
        </g>
    </g>
</svg>