<?xml version="1.0" encoding="UTF-8"?>
<svg width="129px" height="38px" viewBox="0 0 129 38" version="1.1" xmlns="http://www.w3.org/2000/svg" xmlns:xlink="http://www.w3.org/1999/xlink">
    <title>Group 2</title>
    <g id="Symbols" stroke="none" stroke-width="1" fill="none" fill-rule="evenodd">
        <g id="material/T1-Pagos-logo" transform="translate(0, -3)">
            <g id="Group-2" transform="translate(0, 3)">
                <path d="M24.6011255,17.508969 C24.7105488,17.508969 24.8160641,17.5388117 24.9084344,17.5921023 C24.9073686,17.6080895 24.9061252,17.6237214 24.9061252,17.6400638 L24.9061252,24.6712204 L24.9061252,27.6192542 L24.9061252,31.4103447 L24.9061252,31.9128747 L24.9061252,32.3171724 L24.9061252,34.2901666 C24.9061252,34.7001487 25.3038504,34.9925362 25.6951808,34.8699679 L26.267699,34.690734 C27.7823944,34.092281 29.5894773,33.4471099 31.7346,32.7742278 C31.7726139,32.694292 31.7946407,32.6061849 31.7946407,32.5134593 L31.7946407,31.9128747 L31.7946407,31.4103447 L31.7946407,17.6400638 C31.7946407,17.6121751 31.7928644,17.5846416 31.7898446,17.5576411 L31.7898446,17.508969 L31.7946407,7.2976094 C31.7946407,6.95654981 31.5182403,6.68014943 31.1773584,6.68014943 L28.0181163,6.68014943 C27.7530846,6.68014943 27.5180732,6.84979105 27.4336965,7.10078959 C26.4646965,9.98451947 24.5554733,12.1568204 21.621295,12.6820877 C21.3813099,12.7248977 21.1345746,12.7568721 20.8809115,12.7773001 C20.5608129,12.8030572 20.3140776,13.0707535 20.3140776,13.3919179 L20.3140776,16.8915091 C20.3140776,17.2325686 20.5906556,17.508969 20.9315375,17.508969 L24.6011255,17.508969 Z" id="Fill-1" fill="#CC4236"></path>
                <path d="M25.1753491,5.3509585 L10.0600144,5.3509585 L9.49175942,5.3509585 L1.3553566,5.3509585 C0.606801852,5.3509585 0,5.90073945 0,6.57895066 L0,11.0020672 C0,11.2427629 0.215471501,11.437984 0.481213764,11.437984 L9.58661662,11.437984 L9.58661662,14.8436061 C9.58661662,14.8569287 9.58395209,14.868475 9.58288628,14.8809095 L9.58288628,34.9297066 C9.58288628,35.1137367 9.70350058,35.2755624 9.87935943,35.3299187 C12.1374581,36.0298014 14.1770655,36.8742792 15.7926577,37.6244327 C16.0704791,37.7533958 16.387558,37.5505364 16.387558,37.2441157 L16.387558,12.3959706 C16.387558,12.3458775 16.3781433,12.2966726 16.3674852,12.2478229 C16.308688,11.9767516 16.4145585,11.6610938 16.6861628,11.552914 C16.7483351,11.5282227 16.8190339,11.5143671 16.8984368,11.5143671 L19.5048782,11.5143671 C19.5144705,11.5133013 19.5213982,11.5125908 19.5213982,11.5125908 C25.1938232,10.9592571 25.7757561,6.57788485 25.82354,6.08210499 C25.8247834,6.05457154 25.8260268,6.02774862 25.8272703,6.0003928 L25.8272703,5.87924559 C25.8272703,5.76769069 25.7887235,5.65755686 25.711985,5.57921974 C25.5739625,5.43817738 25.3846034,5.3509585 25.1753491,5.3509585 Z" id="Fill-3" fill="#CC4236"></path>
                <path d="M102.940364,19.186698 L102.126972,23.1182979 C102.126972,23.5117599 102.445827,23.6378809 102.839112,23.6378809 L103.740433,23.6378809 C104.133539,23.6378809 104.452395,23.5117599 104.452395,23.1182979 L103.639003,19.186698 L102.940364,19.186698 Z" id="Fill-5" fill="#1C1E1E"></path>
                <path d="M103.289719,20.7746856 C102.647568,20.7746856 102.126919,20.2538592 102.126919,19.6118856 C102.126919,18.9697343 102.647568,18.4492632 103.289719,18.4492632 C103.93187,18.4492632 104.452341,18.9697343 104.452341,19.6118856 C104.452341,20.2538592 103.93187,20.7746856 103.289719,20.7746856 Z" id="Fill-7" fill="#1C1E1E"></path>
                <path d="M109.308,6.38474209 C109.308,2.86419001 106.474008,0 102.990404,0 C99.5067997,0 96.6728076,2.86419001 96.6728076,6.38474209 L96.6728076,14.3625167 L98.6891448,14.3625167 L98.6891448,6.38474209 C98.6891448,3.97583111 100.618618,2.01615955 102.990404,2.01615955 C105.362011,2.01615955 107.291662,3.97583111 107.291662,6.38474209 L107.291662,9.07307325 C107.293083,9.08941568 107.291662,9.10558049 107.291662,9.12210056 C107.291662,9.50437152 107.601813,9.81434495 107.984084,9.81434495 L108.615933,9.81434495 C108.998026,9.81434495 109.308,9.50437152 109.308,9.12210056 C109.308,9.10558049 109.306579,9.08941568 109.305513,9.07307325 L109.308,9.07307325 L109.308,6.38474209 Z" id="Fill-9" fill="#1C1E1E"></path>
                <path d="M42.5834213,25.6226878 C46.2778783,25.6226878 49.2333728,22.7114245 49.2333728,19.1533914 C49.2333728,15.5951806 46.2778783,12.6839173 42.6203694,12.6839173 C38.9259125,12.6514101 36.0073661,15.5951806 35.9334699,19.1533914 C35.9334699,22.7114245 38.889142,25.6226878 42.5834213,25.6226878 Z M35.9334699,14.7217483 C37.4112171,12.6839173 39.8865637,11.3576929 42.6203694,11.3900225 C47.0168407,11.3900225 50.71112,14.8189148 50.71112,19.1533914 C50.71112,23.4876903 47.0168407,26.9165826 42.5834213,26.9165826 C39.8496156,26.9165826 37.4112171,25.6226878 35.9334699,23.6171864 L35.9334699,32.2863172 L35.9334699,32.933087 L34.4557226,32.933087 L34.4557226,32.2863172 L34.4557226,19.1533914 L34.4557226,12.0367923 L34.4557226,11.3900225 L35.9334699,11.3900225 L35.9334699,12.0367923 L35.9334699,14.7217483 Z" id="Fill-11" fill="#1C1E1E"></path>
                <path d="M35.9334699,19.1533914 C35.9334699,22.7114245 38.889142,25.6226878 42.5834213,25.6226878 C46.2778783,25.6226878 49.2333728,22.7114245 49.2333728,19.1533914 C49.2333728,15.5951806 46.2778783,12.6839173 42.6203694,12.6839173 C38.9259125,12.6514101 36.0073661,15.5951806 35.9334699,19.1533914 Z M35.9334699,14.7217483 C37.4112171,12.6839173 39.8865637,11.3576929 42.6203694,11.3900225 C47.0168407,11.3900225 50.71112,14.8189148 50.71112,19.1533914 C50.71112,23.4876903 47.0168407,26.9165826 42.5834213,26.9165826 C39.8496156,26.9165826 37.4112171,25.6226878 35.9334699,23.6171864 L35.9334699,32.2863172 L35.9334699,32.933087 L34.4557226,32.933087 L34.4557226,32.2863172 L34.4557226,19.1533914 L34.4557226,12.0367923 L34.4557226,11.3900225 L35.9334699,11.3900225 L35.9334699,12.0367923 L35.9334699,14.7217483 Z" id="Stroke-13" stroke="#1C1E1E"></path>
                <path d="M61.7950948,25.6226878 C65.4893741,25.6226878 68.4448686,22.7114245 68.4448686,19.1533914 C68.4448686,15.5951806 65.4893741,12.6839173 61.7950948,12.6839173 C58.1006379,12.6839173 55.1451434,15.5951806 55.1451434,19.1533914 C55.1451434,22.7114245 58.1006379,25.6226878 61.7950948,25.6226878 Z M61.7950948,11.3900225 C64.5289006,11.3900225 66.9671214,12.6839173 68.4448686,14.6894187 L68.4448686,12.0367923 L68.4448686,11.3900225 L69.9226159,11.3900225 L69.9226159,12.0367923 L69.9226159,19.1533914 L69.9226159,26.2698129 L69.9226159,26.9165826 L68.4448686,26.9165826 L68.4448686,26.2698129 L68.4448686,23.6171864 C66.9671214,25.6226878 64.5289006,26.9165826 61.7950948,26.9165826 C57.3618531,26.9165826 53.6673961,23.4876903 53.6673961,19.1533914 C53.6673961,14.8189148 57.3618531,11.3900225 61.7950948,11.3900225 Z" id="Fill-15" fill="#1C1E1E"></path>
                <path d="M55.1451434,19.1533914 C55.1451434,22.7114245 58.1006379,25.6226878 61.7950948,25.6226878 C65.4893741,25.6226878 68.4448686,22.7114245 68.4448686,19.1533914 C68.4448686,15.5951806 65.4893741,12.6839173 61.7950948,12.6839173 C58.1006379,12.6839173 55.1451434,15.5951806 55.1451434,19.1533914 Z M53.6673961,19.1533914 C53.6673961,14.8189148 57.3618531,11.3900225 61.7950948,11.3900225 C64.5289006,11.3900225 66.9671214,12.6839173 68.4448686,14.6894187 L68.4448686,12.0367923 L68.4448686,11.3900225 L69.9226159,11.3900225 L69.9226159,12.0367923 L69.9226159,19.1533914 L69.9226159,26.2698129 L69.9226159,26.9165826 L68.4448686,26.9165826 L68.4448686,26.2698129 L68.4448686,23.6171864 C66.9671214,25.6226878 64.5289006,26.9165826 61.7950948,26.9165826 C57.3618531,26.9165826 53.6673961,23.4876903 53.6673961,19.1533914 Z" id="Stroke-17" stroke="#1C1E1E"></path>
                <path d="M82.4841248,25.6226878 C86.1784041,25.6226878 89.1338986,22.7114245 89.1338986,19.1533914 C89.1338986,15.5951806 86.1784041,12.6839173 82.4841248,12.6839173 C78.7896678,12.6839173 75.8339957,15.5951806 75.8339957,19.1533914 C75.8339957,22.7114245 78.7896678,25.6226878 82.4841248,25.6226878 Z M82.4841248,11.3900225 C85.2179305,11.3900225 87.6561513,12.6839173 89.1338986,14.6894187 L89.1338986,12.0367923 L89.1338986,11.4223521 L90.6855421,11.4223521 L90.6485939,12.0692995 L90.6116458,26.2698129 C90.6116458,29.0515801 87.4715883,32.900935 82.5210729,32.933087 L81.7819328,32.933087 L81.7819328,31.6391921 L82.5210729,31.6391921 C86.5107595,31.6068625 89.1338986,28.5339512 89.1338986,26.2698129 L89.1338986,23.6171864 C87.6561513,25.6226878 85.2179305,26.9165826 82.4841248,26.9165826 C78.0507054,26.9165826 74.3564261,23.4876903 74.3564261,19.1533914 C74.3564261,14.8189148 78.0507054,11.3900225 82.4841248,11.3900225 Z" id="Fill-19" fill="#1C1E1E"></path>
                <path d="M75.8339957,19.1533914 C75.8339957,22.7114245 78.7896678,25.6226878 82.4841248,25.6226878 C86.1784041,25.6226878 89.1338986,22.7114245 89.1338986,19.1533914 C89.1338986,15.5951806 86.1784041,12.6839173 82.4841248,12.6839173 C78.7896678,12.6839173 75.8339957,15.5951806 75.8339957,19.1533914 Z M74.3564261,19.1533914 C74.3564261,14.8189148 78.0507054,11.3900225 82.4841248,11.3900225 C85.2179305,11.3900225 87.6561513,12.6839173 89.1338986,14.6894187 L89.1338986,12.0367923 L89.1338986,11.4223521 L90.6855421,11.4223521 L90.6485939,12.0692995 L90.6116458,26.2698129 C90.6116458,29.0515801 87.4715883,32.900935 82.5210729,32.933087 L81.7819328,32.933087 L81.7819328,31.6391921 L82.5210729,31.6391921 C86.5107595,31.6068625 89.1338986,28.5339512 89.1338986,26.2698129 L89.1338986,23.6171864 C87.6561513,25.6226878 85.2179305,26.9165826 82.4841248,26.9165826 C78.0507054,26.9165826 74.3564261,23.4876903 74.3564261,19.1533914 Z" id="Stroke-21" stroke="#1C1E1E"></path>
                <path d="M103.173421,25.6226878 C106.8677,25.6226878 109.823195,22.7114245 109.823195,19.1533914 C109.823195,15.5951806 106.8677,12.6839173 103.173421,12.6839173 C99.4789642,12.6839173 96.5232921,15.5951806 96.5232921,19.1533914 C96.5232921,22.7114245 99.4789642,25.6226878 103.173421,25.6226878 Z M103.173421,11.3900225 C107.606663,11.3900225 111.300942,14.8189148 111.300942,19.1533914 C111.300942,23.4876903 107.606663,26.9165826 103.173421,26.9165826 C98.7400018,26.9165826 95.0457225,23.4876903 95.0457225,19.1533914 C95.0457225,14.8189148 98.7400018,11.3900225 103.173421,11.3900225 Z" id="Fill-23" fill="#1C1E1E"></path>
                <path d="M96.5232921,19.1533914 C96.5232921,22.7114245 99.4789642,25.6226878 103.173421,25.6226878 C106.8677,25.6226878 109.823195,22.7114245 109.823195,19.1533914 C109.823195,15.5951806 106.8677,12.6839173 103.173421,12.6839173 C99.4789642,12.6839173 96.5232921,15.5951806 96.5232921,19.1533914 Z M95.0457225,19.1533914 C95.0457225,14.8189148 98.7400018,11.3900225 103.173421,11.3900225 C107.606663,11.3900225 111.300942,14.8189148 111.300942,19.1533914 C111.300942,23.4876903 107.606663,26.9165826 103.173421,26.9165826 C98.7400018,26.9165826 95.0457225,23.4876903 95.0457225,19.1533914 Z" id="Stroke-25" stroke="#1C1E1E"></path>
                <path d="M125.894225,15.5627089 C125.894225,13.8806812 123.603619,12.6839528 121.12845,12.6839528 C118.653103,12.6839528 116.362497,13.8806812 116.362497,15.5627089 C116.362497,18.7327867 128.036861,18.2153354 127.999912,22.7439673 C127.999912,24.9111167 125.155262,26.9166182 121.12845,26.9166182 C117.10146,26.9166182 114.25681,24.9111167 114.25681,22.7439673 L115.734557,22.7439673 C115.734557,24.458147 118.357518,25.6227234 121.12845,25.6227234 C123.899204,25.6227234 126.522165,24.458147 126.522165,22.7439673 C126.522165,19.5413822 114.921698,20.123848 114.88475,15.5627089 C114.88475,13.3632298 117.544837,11.390058 121.12845,11.390058 C124.711885,11.390058 127.371972,13.3632298 127.371972,15.5627089 L125.894225,15.5627089 Z" id="Fill-27" fill="#1C1E1E"></path>
                <path d="M127.371972,15.5627089 L125.894225,15.5627089 C125.894225,13.8806812 123.603619,12.6839528 121.12845,12.6839528 C118.653103,12.6839528 116.362497,13.8806812 116.362497,15.5627089 C116.362497,18.7327867 128.036861,18.2153354 128,22.7439673 C128,24.9111167 125.155262,26.9166182 121.12845,26.9166182 C117.10146,26.9166182 114.25681,24.9111167 114.25681,22.7439673 L115.734557,22.7439673 C115.734557,24.458147 118.357518,25.6227234 121.12845,25.6227234 C123.899204,25.6227234 126.522165,24.458147 126.522165,22.7439673 C126.522165,19.5413822 114.921698,20.123848 114.88475,15.5627089 C114.88475,13.3632298 117.544837,11.390058 121.12845,11.390058 C124.711885,11.390058 127.371972,13.3632298 127.371972,15.5627089 Z" id="Stroke-29" stroke="#1C1E1E"></path>
            </g>
        </g>
    </g>
</svg>