<?xml version="1.0" encoding="UTF-8"?>
<svg width="30px" height="10px" viewBox="0 0 30 10" version="1.1" xmlns="http://www.w3.org/2000/svg" xmlns:xlink="http://www.w3.org/1999/xlink">
    <title>Group</title>
    <g id="Symbols" stroke="none" stroke-width="1" fill="none" fill-rule="evenodd">
        <g id="icons/logos/visa" transform="translate(-10, -8)" fill-rule="nonzero">
            <g id="Group" transform="translate(10, 8)">
                <path d="M19.6256658,0 C17.2228086,0 15.5342546,1.2776455 15.5195267,3.10537814 C15.5040624,4.45887233 16.7272147,5.21294092 17.6462358,5.66361472 C18.5947127,6.12386166 18.9113626,6.41915609 18.908417,6.83080095 C18.8988439,7.46041876 18.1491936,7.74834925 17.4525639,7.74834925 C16.4812587,7.74834925 15.963573,7.60696139 15.1675299,7.25643732 L14.8516164,7.10694912 L14.5121382,9.21082992 C15.0806353,9.47298657 16.1292619,9.69979626 17.2205994,9.71305138 C19.7707357,9.71305138 21.4298338,8.45013378 21.4497165,6.50015955 C21.460026,5.42723189 20.8105255,4.6142517 19.4076929,3.94265937 C18.5608385,3.50671347 18.0372616,3.21878298 18.0453619,2.77620953 C18.0453619,2.38592013 18.4842534,1.96617492 19.4371487,1.96617492 C20.2324554,1.95291981 20.8046344,2.13554579 21.2553082,2.32774491 L21.4718083,2.43599499 L21.8024497,0.395444169 C21.3237929,0.207663418 20.5660424,0.0014727902 19.6256658,0 L19.6256658,0 Z M12.0820344,0.164952503 L10.5621149,9.57166352 L12.9900096,9.57166352 L14.5106655,0.163479712 L12.0820344,0.164952503 L12.0820344,0.164952503 Z M8.52450968,0.174525639 L6.1466899,6.58631778 L5.89336999,5.28216206 C5.30130833,3.68418469 4.01924446,2.00888583 2.52583519,1.32992955 L4.70114632,9.56429957 L7.27263801,9.56282678 L11.0967378,0.174525639 L8.52450968,0.174525639 L8.52450968,0.174525639 Z M26.156754,0.174525639 C25.5742654,0.174525639 25.1397923,0.340950932 24.8827904,0.956577236 L21.2766636,9.57755468 L23.8282727,9.57755468 C23.8282727,9.57755468 24.2450723,8.416996 24.3385945,8.16220329 C24.6176882,8.16220329 27.0956577,8.16809445 27.4498638,8.16809445 C27.5249761,8.49579027 27.7444218,9.57755468 27.7444218,9.57755468 L30,9.57755468 L28.0338251,0.174525639 L26.156754,0.174525639 L26.156754,0.174525639 Z M26.328334,2.71067037 L26.4910773,3.52217777 C26.4910773,3.52217777 26.9579518,5.76744643 27.055156,6.2380029 L25.0389062,6.2380029 C25.2406785,5.69896168 26.0065294,3.60907239 26.0065294,3.60907239 C25.9918015,3.63263703 26.2060924,3.06340362 26.328334,2.71067037 L26.328334,2.71067037 Z" id="Shape" fill="#0023A0"></path>
                <path d="M3.94118658,0.167898083 L0.0228282481,0.167898083 L0,0.331377795 C3.04646653,1.11048381 5.05608876,3.02363828 5.89263359,5.28584403 L5.04062446,0.962468396 C4.89555463,0.36672476 4.46918187,0.189989936 3.94118658,0.167898083" id="Path" fill="#FFAB00"></path>
            </g>
        </g>
    </g>
</svg>