<svg width="46px" height="48px" viewBox="0 0 46 48" version="1.1" xmlns="http://www.w3.org/2000/svg"
    xmlns:xlink="http://www.w3.org/1999/xlink">
    <g id="Rediseño-nuevo-UI-Desktop-_-Mobile" stroke="none" stroke-width="1" fill="none" fill-rule="evenodd">
        <g id="Group-8" fill="#CC4236" fill-rule="nonzero">
            <path
                d="M29.9143121,18.1179568 L35.3481046,18.1179568 C35.5101345,18.1179568 35.6663777,18.1623748 35.8031563,18.2414285 C35.8015781,18.2652239 35.7997369,18.288755 35.7997369,18.3128147 L35.7997369,28.7780384 L35.7997369,33.1659131 L35.7997369,38.8088635 L35.7997369,39.5568328 L35.7997369,40.158328 L35.7997369,43.0952111 C35.7997369,43.7054314 36.388674,44.1406231 36.9681417,43.9579271 L37.8159058,43.6914184 C40.0588116,42.8004123 42.7346742,41.8401352 45.9110939,40.8388769 C45.9673835,40.7198999 46,40.5884962 46,40.4507473 L46,39.5568328 L46,38.8088635 L46,18.3128147 C46,18.2713051 45.9973695,18.2305885 45.9928979,18.1901362 L45.9928979,18.1179568 L46,18.1179568 L46,2.9192962 C46,2.41166068 45.5907162,2 45.0859508,2 L40.40786,2 C40.0154107,2 39.6676774,2.25249579 39.5424725,2.62608382 C38.1076126,6.91824796 35.2805043,10.1515161 30.93568,10.9333277 C30.5805817,10.9970465 30.2149621,11.0449018 29.8393469,11.0750426 C29.3653565,11.1136441 29,11.5118207 29,11.9898441 L29,17.1986606 C29,17.7062961 29.4095465,18.1179568 29.9143121,18.1179568"
                id="Fill-76"></path>
            <path
                d="M36.8348431,0.339077052 C36.6371127,0.129561738 36.365838,0 36.0658069,0 L14.4116648,0 L13.5978404,0 L1.94167612,0 C0.86930087,0 0,0.816687532 0,1.82415539 L0,8.39433401 C0,8.75214605 0.308683243,9.04187882 0.689129614,9.04187882 L13.7334778,9.04187882 L13.7334778,14.1011196 C13.7334778,14.12091 13.7299151,14.1380618 13.7283882,14.1565329 L13.7283882,43.938317 C13.7283882,44.2119534 13.9011796,44.4523419 14.1531139,44.5330872 C17.3877988,45.5727475 20.3097286,46.8272007 22.6242167,47.9412732 C23.0222222,48.133109 23.4767221,47.831502 23.4767221,47.3768485 L23.4767221,10.464947 C23.4767221,10.3907986 23.4629801,10.3177057 23.4479659,10.2451406 C23.3637333,9.8424701 23.515403,9.37330356 23.9042471,9.21286866 C23.9933148,9.17619029 24.0948519,9.15560817 24.2086041,9.15560817 L27.9425771,9.15560817 C27.956319,9.15402493 27.9659892,9.15296944 27.9659892,9.15296944 C36.0925272,8.33100445 36.9259466,1.82257215 36.9944014,1.08610206 C36.9964373,1.04520172 36.9982186,1.00535687 37,0.96445652 L37,0.784495003 C37,0.61904651 36.9447781,0.455445131 36.8348431,0.339077052"
                id="Fill-77"></path>
        </g>
    </g>
</svg>